G04 Layer_Color=65535*
%FSLAX44Y44*%
%MOMM*%
G71*
G01*
G75*
%ADD80C,0.2500*%
%ADD81C,0.4000*%
%ADD83C,0.6000*%
%ADD86C,0.2000*%
%ADD100C,0.1500*%
%ADD101C,0.1000*%
%ADD102C,0.2540*%
%ADD103C,0.2032*%
G36*
X97338Y350109D02*
X98005Y349775D01*
X98561Y349553D01*
X99227Y349220D01*
X99449Y349109D01*
X99894Y348886D01*
X100560Y348664D01*
X101227Y348220D01*
X101338Y348109D01*
X101560Y347998D01*
X101783Y347664D01*
X101894Y347442D01*
Y347331D01*
Y347220D01*
X101783Y346887D01*
X101671Y346442D01*
X101560Y346331D01*
X101449Y345998D01*
X101227Y345554D01*
X100894Y344887D01*
X100783Y344776D01*
X100672Y344442D01*
X100449Y344109D01*
X100116Y343554D01*
X99783Y343109D01*
X99449Y342665D01*
X99116Y342332D01*
X98783Y342220D01*
X98672D01*
X98227Y342554D01*
X97894Y342776D01*
X97450Y343220D01*
X96894Y343776D01*
X96339Y344554D01*
X96228Y344665D01*
X96116Y344887D01*
X95783Y345331D01*
X95450Y345887D01*
X94894Y346887D01*
X94672Y347331D01*
X94561Y347775D01*
Y347887D01*
X94672Y348331D01*
X94894Y348886D01*
X95450Y349553D01*
X95561Y349664D01*
X95894Y349886D01*
X96339Y350109D01*
X96783Y350220D01*
X96894D01*
X97338Y350109D01*
D02*
G37*
G36*
X79896Y347887D02*
X78229Y345442D01*
X78118Y345220D01*
X77785Y344776D01*
X77341Y344109D01*
X76896Y343443D01*
X76785Y343331D01*
X76563Y342998D01*
X76230Y342665D01*
X76007Y342443D01*
X75563D01*
X75119Y342554D01*
X74563Y342998D01*
X74452Y343220D01*
X74008Y343665D01*
X73452Y344554D01*
X72786Y345665D01*
X71674Y347664D01*
X77341Y350442D01*
X79896Y347887D01*
D02*
G37*
G36*
X92783Y346776D02*
X93339Y346220D01*
X93894Y345442D01*
X97227Y340221D01*
X95561Y339332D01*
X95450D01*
X95117Y339110D01*
X94450Y338665D01*
X94339D01*
X94117Y338554D01*
X93894Y338443D01*
X93783D01*
X93672Y338554D01*
X93561Y338777D01*
X93339Y339110D01*
X93117Y339665D01*
X92894Y340332D01*
X92672Y341221D01*
X92339Y342332D01*
Y342443D01*
X92228Y342887D01*
X92006Y343443D01*
X91895Y344109D01*
X91672Y345554D01*
X91561Y346109D01*
Y346553D01*
Y346665D01*
X91672Y346776D01*
X91895Y346887D01*
X92117Y346998D01*
X92450D01*
X92783Y346776D01*
D02*
G37*
G36*
X82340Y346665D02*
X82451Y346442D01*
Y346220D01*
Y345776D01*
Y345109D01*
X82340Y344109D01*
X82007Y342887D01*
X81562Y341332D01*
Y341221D01*
X81451Y340998D01*
X81340Y340554D01*
X81229Y340221D01*
X80785Y339221D01*
X80562Y338888D01*
X80340Y338665D01*
X79785D01*
X79118Y338888D01*
X78674Y339221D01*
X78229Y339554D01*
X77007Y340443D01*
X79340Y343887D01*
X79451Y343998D01*
X79674Y344442D01*
X80118Y344998D01*
X80562Y345554D01*
X81118Y346109D01*
X81562Y346553D01*
X82007Y346776D01*
X82340Y346665D01*
D02*
G37*
G36*
X85229Y356219D02*
Y356108D01*
Y355886D01*
Y355552D01*
Y354997D01*
Y354886D01*
Y354775D01*
X85118Y354330D01*
Y353886D01*
X84895Y352664D01*
X84562Y351109D01*
Y350886D01*
X84451Y350442D01*
X84229Y349775D01*
X84007Y349109D01*
X83673Y348442D01*
X83340Y347998D01*
X82895Y347775D01*
X82673Y347887D01*
X82451Y348109D01*
X82340Y348331D01*
X82229Y348775D01*
X82340Y349331D01*
Y349553D01*
X82562Y350109D01*
X82895Y350997D01*
X83451Y352331D01*
X84451Y354997D01*
Y355108D01*
X84562Y355219D01*
X84784Y355664D01*
X85006Y356108D01*
X85229Y356330D01*
Y356219D01*
D02*
G37*
G36*
X89339Y355552D02*
X89450Y355441D01*
X89562Y355219D01*
X89673Y354775D01*
X89895Y354219D01*
X90228Y353442D01*
X90673Y352442D01*
X91228Y351109D01*
Y350997D01*
X91339Y350775D01*
X91672Y350109D01*
X92117Y349220D01*
X92228Y348886D01*
Y348664D01*
Y348553D01*
X92117Y348442D01*
X91895Y348220D01*
X91450Y347998D01*
X91339D01*
X91006Y347887D01*
X90339D01*
Y347998D01*
X90228Y348220D01*
X90117Y348442D01*
Y348886D01*
X90006Y349442D01*
X89784Y350109D01*
X89673Y350997D01*
Y351109D01*
X89562Y351442D01*
X89450Y351886D01*
X89339Y352442D01*
X89228Y353775D01*
X89117Y354330D01*
Y354886D01*
Y355108D01*
Y355441D01*
Y355664D01*
X89228D01*
X89339Y355552D01*
D02*
G37*
G36*
X86451Y357552D02*
Y357330D01*
X86562Y357108D01*
X86673Y356664D01*
Y355997D01*
X86784Y355219D01*
X86895Y353997D01*
Y352553D01*
Y352442D01*
Y351997D01*
Y351331D01*
Y350553D01*
X86784Y349775D01*
Y348998D01*
Y348331D01*
X86673Y347887D01*
Y347775D01*
X86451Y347442D01*
X86229Y347220D01*
X85784Y347109D01*
X85340D01*
X85118Y347220D01*
X84895Y347442D01*
Y347553D01*
X84784Y347887D01*
X84895Y348553D01*
X85006Y349553D01*
X85673Y354553D01*
Y354664D01*
X85784Y355108D01*
Y355664D01*
X85895Y356330D01*
X86006Y356886D01*
X86229Y357330D01*
X86340Y357663D01*
X86451Y357552D01*
D02*
G37*
G36*
X87673Y357663D02*
X87784Y357441D01*
X87895Y356997D01*
X88006Y356330D01*
X88228Y355552D01*
X88450Y354330D01*
X88784Y352886D01*
Y352664D01*
X88895Y352220D01*
X89006Y351442D01*
X89228Y350553D01*
X89339Y349664D01*
X89450Y348775D01*
X89562Y347998D01*
X89673Y347442D01*
X89450Y347331D01*
X89117Y347220D01*
X88450Y347109D01*
X88339D01*
X88117Y347220D01*
X87784Y347442D01*
X87673Y347887D01*
Y348109D01*
X87562Y348442D01*
Y348886D01*
Y349442D01*
X87451Y350331D01*
Y351331D01*
Y352664D01*
Y352775D01*
Y353108D01*
Y353442D01*
Y353997D01*
Y355219D01*
X87562Y356441D01*
Y356552D01*
Y356664D01*
Y357219D01*
Y357663D01*
X87673Y357775D01*
Y357663D01*
D02*
G37*
G36*
X77674Y337888D02*
X77785Y337777D01*
X78229Y337554D01*
X78785Y337221D01*
X79229Y336888D01*
X79340Y336777D01*
X79451Y336666D01*
X79674Y336443D01*
X79785Y336332D01*
X78341Y332666D01*
Y332555D01*
X78229Y332444D01*
X78007Y331777D01*
X77674Y330888D01*
X77341Y330000D01*
X76896Y328889D01*
X76563D01*
X76230Y329000D01*
X76118Y329111D01*
X75896Y329222D01*
X75452Y329444D01*
X74896Y329777D01*
X74785D01*
X74674Y330000D01*
X73896Y330444D01*
X72897Y331333D01*
X71786Y332333D01*
X71674Y332444D01*
X71563Y332555D01*
X71008Y333222D01*
X70452Y333888D01*
X70230Y334110D01*
Y334221D01*
X75452Y339221D01*
X77674Y337888D01*
D02*
G37*
G36*
X102671Y335110D02*
X102782Y334999D01*
X103116Y334666D01*
X103338Y334333D01*
X103560Y334110D01*
X103449Y333999D01*
X103338Y333777D01*
X103116Y333444D01*
X103005Y333333D01*
X102782Y333110D01*
X102338Y332555D01*
X101783Y331999D01*
X101671Y331888D01*
X101449Y331777D01*
X100783Y331111D01*
X99894Y330222D01*
X98894Y329444D01*
X98783D01*
X98672Y329333D01*
X98227Y329111D01*
X97672Y329000D01*
X97338D01*
X97227Y329111D01*
X97116Y329333D01*
X97005Y329555D01*
X96783Y329888D01*
X96561Y330333D01*
X96339Y330888D01*
X96005Y331666D01*
X95672Y332555D01*
Y332666D01*
X95450Y332999D01*
X95339Y333444D01*
X95117Y333999D01*
X94672Y335110D01*
X94561Y335666D01*
X94450Y335999D01*
X94561Y336221D01*
X94783Y336443D01*
X95117Y336777D01*
X95228Y336888D01*
X95450Y337110D01*
X95894Y337443D01*
X96450Y337888D01*
X98338Y339110D01*
X102671Y335110D01*
D02*
G37*
G36*
X83340Y335443D02*
X83673D01*
X84118Y335332D01*
X84451Y335221D01*
X85451Y334888D01*
X85784Y334666D01*
X86006Y334444D01*
X86117Y334221D01*
Y333999D01*
X86229Y333666D01*
Y333110D01*
X86340Y332444D01*
Y331555D01*
Y330444D01*
Y326000D01*
X83784Y326333D01*
X83562D01*
X83118Y326444D01*
X82340Y326555D01*
X81562Y326667D01*
X81340D01*
X80896Y326778D01*
X80340Y327000D01*
X79785Y327111D01*
X78229Y327667D01*
X79896Y331666D01*
Y331777D01*
X80118Y332110D01*
X80340Y332666D01*
X80562Y333222D01*
X81118Y334444D01*
X81451Y334888D01*
X81673Y335221D01*
X81784Y335332D01*
X82007Y335443D01*
X82562Y335555D01*
X83340Y335443D01*
D02*
G37*
G36*
X92450D02*
X92672Y335110D01*
X92894Y334777D01*
Y334666D01*
X93006Y334555D01*
X93117Y334110D01*
X93339Y333555D01*
X93672Y332777D01*
X94117Y331777D01*
X94561Y330444D01*
X95228Y328778D01*
Y328666D01*
Y328222D01*
X95005Y327667D01*
X94783Y327444D01*
X94450Y327222D01*
X94339D01*
X94117Y327000D01*
X93561Y326889D01*
X92894Y326667D01*
X92672D01*
X92228Y326555D01*
X91450Y326444D01*
X90673Y326333D01*
X88006Y326000D01*
Y330666D01*
Y330777D01*
Y331222D01*
Y331666D01*
Y332333D01*
Y333666D01*
Y334221D01*
X88117Y334555D01*
Y334666D01*
X88339Y334999D01*
X88673Y335221D01*
X89117Y335332D01*
X90339D01*
X91561Y335555D01*
X91672D01*
X92006Y335666D01*
X92450Y335443D01*
D02*
G37*
G36*
X85673Y345220D02*
X85895Y344665D01*
X86006Y343887D01*
X86117Y342776D01*
X86229Y341332D01*
Y341221D01*
Y340887D01*
Y340332D01*
Y339665D01*
Y338332D01*
Y337888D01*
Y337443D01*
Y337332D01*
X86006Y337110D01*
X85673Y336888D01*
X84895D01*
X84229Y336999D01*
X83451Y337221D01*
X83118Y337443D01*
X82895Y337777D01*
Y337999D01*
X82784Y338221D01*
X82895Y338665D01*
Y339221D01*
X83007Y339888D01*
X83229Y340776D01*
X83562Y341887D01*
Y341998D01*
X83673Y342220D01*
X83784Y342554D01*
X83895Y343109D01*
X84340Y344109D01*
X84784Y344998D01*
X85006Y345220D01*
X85229Y345442D01*
X85451D01*
X85673Y345220D01*
D02*
G37*
G36*
X89117Y345554D02*
X89339Y345109D01*
X89673Y344442D01*
X90117Y343443D01*
X90561Y342109D01*
Y341998D01*
X90784Y341554D01*
X90895Y340998D01*
X91117Y340332D01*
X91339Y339554D01*
X91561Y338888D01*
X91672Y338332D01*
X91784Y337999D01*
Y337888D01*
X91672Y337665D01*
X91450Y337443D01*
X90895Y337221D01*
X90784D01*
X90339Y337110D01*
X89673Y336999D01*
X89006Y336888D01*
X88895D01*
X88673Y336999D01*
X88339Y337221D01*
X88228Y337665D01*
Y337888D01*
X88117Y338110D01*
Y338443D01*
Y338999D01*
X88006Y339665D01*
Y340443D01*
Y341554D01*
Y341665D01*
Y341887D01*
Y342332D01*
Y342776D01*
X88117Y343887D01*
X88339Y344998D01*
X88450Y345331D01*
X88673Y345554D01*
X88784Y345665D01*
X89117Y345554D01*
D02*
G37*
G36*
X106115Y347109D02*
X106227D01*
X106671Y346998D01*
X107115Y346887D01*
X107560Y346776D01*
X107671D01*
X107893Y346665D01*
X108115Y346553D01*
X108226Y346331D01*
Y346109D01*
Y345776D01*
X108115Y345109D01*
Y344887D01*
X108004Y344442D01*
X107893Y343665D01*
X107671Y342776D01*
Y342665D01*
X107560Y342332D01*
X107449Y341887D01*
X107338Y341332D01*
X106893Y339776D01*
X106338Y338110D01*
Y337999D01*
X106115Y337777D01*
X105782Y336999D01*
X105227Y336221D01*
X105004Y335888D01*
X104782Y335777D01*
X104560Y335888D01*
X104338Y336110D01*
X103893Y336443D01*
X103782Y336554D01*
X103338Y336999D01*
X102782Y337443D01*
X102005Y338110D01*
X99783Y340443D01*
X100894Y341776D01*
X101005Y341887D01*
X101116Y342220D01*
X101449Y342665D01*
X101894Y343331D01*
X102005Y343554D01*
X102227Y343998D01*
X102671Y344554D01*
X103005Y345331D01*
Y345442D01*
X103116Y345554D01*
X103449Y346109D01*
X103782Y346665D01*
X104227Y347109D01*
X104338Y347220D01*
X104671Y347331D01*
X105227D01*
X106115Y347109D01*
D02*
G37*
G36*
X69786Y347220D02*
X70008Y346998D01*
X70452Y346553D01*
X70786Y345887D01*
X71230Y344998D01*
X71341Y344776D01*
X71563Y344331D01*
X71897Y343665D01*
X72341Y342887D01*
X72452Y342776D01*
X72674Y342443D01*
X72897Y341998D01*
X73230Y341665D01*
X73341Y341554D01*
X73674Y341221D01*
X73785Y340776D01*
X73896Y340443D01*
X73785Y340110D01*
X73674Y339999D01*
X73341Y339443D01*
X73119Y339110D01*
X72674Y338777D01*
X72230Y338332D01*
X71563Y337777D01*
X71452Y337665D01*
X71230Y337443D01*
X70786Y337221D01*
X70341Y336888D01*
X69897Y336554D01*
X69453Y336332D01*
X69008Y336221D01*
X68675Y336332D01*
X68564Y336554D01*
X68453Y336777D01*
X68230Y337221D01*
X68008Y337777D01*
X67675Y338443D01*
X67342Y339332D01*
X67008Y340443D01*
Y340554D01*
X66897Y340998D01*
X66675Y341554D01*
X66453Y342220D01*
X66119Y343887D01*
X66008Y344665D01*
X65897Y345442D01*
Y345554D01*
Y345998D01*
X66008Y346442D01*
X66119Y346776D01*
Y346887D01*
X66342Y346998D01*
X66564Y347109D01*
X68453D01*
X68675Y347220D01*
X69230Y347442D01*
X69564D01*
X69786Y347220D01*
D02*
G37*
G36*
X85006Y367885D02*
X85118Y367662D01*
X85229Y367329D01*
X85340Y366885D01*
X85229Y366329D01*
Y365551D01*
X85006Y364552D01*
Y364440D01*
X84895Y364329D01*
X84784Y363663D01*
X84562Y362774D01*
X84229Y361885D01*
X83784Y361107D01*
X83673Y360774D01*
X83451Y360663D01*
X83229Y360552D01*
X83007Y360663D01*
X82784Y360996D01*
X82562Y361441D01*
Y361552D01*
X82451Y361996D01*
X82229Y362663D01*
Y363441D01*
Y364218D01*
X82340Y365218D01*
X82673Y366107D01*
X83340Y366996D01*
X83451Y367107D01*
X83784Y367440D01*
X84229Y367774D01*
X84673Y367996D01*
X85006Y367885D01*
D02*
G37*
G36*
X87784Y363441D02*
X88006Y362885D01*
X88228Y362552D01*
X88450Y361996D01*
Y361885D01*
X88562Y361663D01*
X88784Y361330D01*
X89006Y360885D01*
X89339Y359996D01*
X89450Y359552D01*
X89562Y359219D01*
Y359108D01*
X89450Y358885D01*
X89228Y358663D01*
X88784Y358552D01*
X88673D01*
X88450Y358663D01*
X88117Y358997D01*
X87895Y359663D01*
X87784Y359885D01*
X87673Y360441D01*
X87562Y361330D01*
Y362552D01*
Y362663D01*
Y362774D01*
Y363107D01*
Y363552D01*
Y363663D01*
X87673D01*
X87784Y363441D01*
D02*
G37*
G36*
X86673Y363996D02*
X86784Y363663D01*
Y363218D01*
Y363107D01*
Y362996D01*
Y362330D01*
X86673Y361219D01*
X86451Y359885D01*
Y359774D01*
X86229Y359330D01*
X86006Y358885D01*
X85562Y358552D01*
X85118D01*
X84895Y358663D01*
X84784Y358885D01*
Y359108D01*
Y359330D01*
X84895Y359774D01*
X85006Y360663D01*
X85451Y361774D01*
Y361885D01*
X85562Y362107D01*
X85784Y362774D01*
X86117Y363552D01*
X86340Y363996D01*
X86451Y364218D01*
X86562D01*
X86673Y363996D01*
D02*
G37*
G36*
X89339Y368107D02*
X89895Y367774D01*
X90450Y367329D01*
X90561Y367218D01*
X90895Y366774D01*
X91339Y366218D01*
X91784Y365440D01*
Y365329D01*
X91895Y365218D01*
X92006Y364663D01*
X92117Y363996D01*
X92228Y363441D01*
Y363330D01*
X92117Y363107D01*
X92006Y362552D01*
X91784Y361774D01*
X91672Y361663D01*
X91339Y361219D01*
X91006Y360996D01*
X90895Y360885D01*
X90673Y360996D01*
X90561Y361219D01*
X90450Y361441D01*
X90339Y361774D01*
X90228Y362219D01*
X90006Y362885D01*
X89673Y363774D01*
X89450Y364774D01*
Y364885D01*
X89339Y365218D01*
X89228Y365774D01*
X89117Y366329D01*
X88784Y367551D01*
Y367996D01*
Y368218D01*
X88895D01*
X89339Y368107D01*
D02*
G37*
G36*
X98672Y445877D02*
Y445543D01*
X98783Y444988D01*
Y444766D01*
Y444321D01*
Y443543D01*
Y442543D01*
Y438988D01*
X94672Y436211D01*
X94450Y436100D01*
X94005Y435766D01*
X93450Y435322D01*
X92672Y434767D01*
X91895Y434100D01*
X91339Y433544D01*
X90895Y432878D01*
X90673Y432433D01*
Y432322D01*
Y432100D01*
X90895Y431767D01*
X91339Y431545D01*
X91450D01*
X91672Y431433D01*
X98783D01*
Y428656D01*
Y428545D01*
Y428101D01*
Y427434D01*
X98672Y426767D01*
Y426656D01*
X98561Y426323D01*
Y426101D01*
Y425878D01*
X98449D01*
Y425767D01*
X98227D01*
X97894Y425656D01*
X96894D01*
X96116Y425545D01*
X92783D01*
X91672Y425434D01*
X76007D01*
Y431656D01*
Y431767D01*
Y431878D01*
Y432545D01*
Y433433D01*
X76118Y434655D01*
X76341Y437100D01*
X76563Y438211D01*
X76785Y439211D01*
Y439322D01*
X76896Y439544D01*
X77118Y439988D01*
X77341Y440433D01*
X78229Y441432D01*
X78785Y441988D01*
X79451Y442321D01*
X79563Y442432D01*
X79896Y442543D01*
X80451Y442766D01*
X81118Y442988D01*
X81229D01*
X81562Y443099D01*
X82007Y443210D01*
X83007D01*
X83451Y443099D01*
X84451Y442877D01*
X85673Y442321D01*
X85784D01*
X85895Y442210D01*
X86562Y441766D01*
X87451Y441210D01*
X88117Y440544D01*
X88228Y440322D01*
X88450Y439988D01*
X88895Y439655D01*
X89228D01*
X89562Y439766D01*
X89784Y439877D01*
X90006Y440099D01*
X90450Y440322D01*
X91117Y440766D01*
X91895Y441321D01*
X93006Y442099D01*
X94339Y443099D01*
X97116Y445099D01*
X97338Y445210D01*
X97783Y445543D01*
X98227Y445877D01*
X98561Y445988D01*
X98672Y445877D01*
D02*
G37*
G36*
X98561Y414880D02*
X89228D01*
X87784Y414769D01*
X86784D01*
X86229Y414658D01*
X86006D01*
X85895Y414546D01*
X86006Y414435D01*
X86340Y414324D01*
X87006Y413991D01*
X87228Y413880D01*
X87673Y413658D01*
X88562Y413435D01*
X89673Y412991D01*
X93339Y411769D01*
X93228Y409658D01*
Y409547D01*
Y409436D01*
X93117Y408769D01*
X93006Y408103D01*
X92672Y407436D01*
X92561Y407325D01*
X92339Y407214D01*
X92006Y406992D01*
X91561Y406769D01*
X91006Y406547D01*
X90228Y406214D01*
X89339Y405881D01*
X85562Y404436D01*
X98561Y404103D01*
X98783Y398437D01*
X76007D01*
Y405325D01*
X86562Y409658D01*
X81340Y411880D01*
X76007Y413880D01*
Y420546D01*
X98783D01*
X98561Y414880D01*
D02*
G37*
G36*
X98449Y390438D02*
Y390327D01*
Y390216D01*
X98672Y389549D01*
X98783Y388660D01*
X99005Y387438D01*
X99116Y386216D01*
X99227Y384994D01*
X99116Y383883D01*
X99005Y382994D01*
Y382772D01*
X98894Y382550D01*
X98783Y382216D01*
X98561Y380994D01*
Y380883D01*
X98449Y380661D01*
X98338Y380328D01*
X98227Y379994D01*
X97672Y378883D01*
X97227Y378328D01*
X96672Y377661D01*
X96561Y377550D01*
X96339Y377439D01*
X96005Y377106D01*
X95561Y376772D01*
X94450Y375884D01*
X93117Y375106D01*
X93006D01*
X92672Y374995D01*
X92228Y374773D01*
X91561Y374662D01*
X90673Y374439D01*
X89784Y374217D01*
X88673Y374106D01*
X86895D01*
X86229Y374217D01*
X85451D01*
X83673Y374551D01*
X81784Y375106D01*
X81562Y375217D01*
X81118Y375439D01*
X80451Y375995D01*
X79563Y376661D01*
X78674Y377550D01*
X77674Y378772D01*
X76896Y380106D01*
X76230Y381661D01*
X76118Y381883D01*
X76007Y382439D01*
X75785Y383438D01*
X75674Y384661D01*
X75563Y386105D01*
X75674Y387771D01*
X75896Y389660D01*
X76452Y391549D01*
X77229Y394104D01*
X81562D01*
X82340Y393993D01*
X82451D01*
X82673Y393882D01*
X83007Y393771D01*
X83118Y393660D01*
X83007Y393549D01*
X82895Y393215D01*
X82673Y392771D01*
X81784Y391104D01*
X81673Y390993D01*
X81562Y390771D01*
X81340Y390327D01*
X81118Y389771D01*
X80674Y388438D01*
X80451Y386772D01*
Y386660D01*
Y386438D01*
Y385994D01*
Y385438D01*
X80674Y384105D01*
X81007Y383550D01*
X81340Y382883D01*
X81451Y382772D01*
X81673Y382550D01*
X82007Y382216D01*
X82451Y381772D01*
X83118Y381439D01*
X83895Y380994D01*
X84784Y380550D01*
X85784Y380328D01*
X85895D01*
X86229Y380217D01*
X88339D01*
X89228Y380328D01*
X90228Y380550D01*
X91117Y380883D01*
X91228D01*
X91339Y380994D01*
X92006Y381550D01*
X92783Y382216D01*
X93561Y383105D01*
Y383216D01*
X93672Y383327D01*
X94005Y384105D01*
X94339Y385105D01*
X94450Y386327D01*
Y386438D01*
Y386549D01*
Y386994D01*
X94339Y387549D01*
X94228Y387882D01*
X94117Y387994D01*
X93894Y388105D01*
X93339Y388216D01*
X92561Y388327D01*
X91895D01*
X91339Y388105D01*
X90895Y387882D01*
Y387771D01*
X90784Y387549D01*
X90673Y386994D01*
Y386549D01*
Y385994D01*
Y383883D01*
X86117Y384216D01*
Y393771D01*
X97561Y394104D01*
X98449Y390438D01*
D02*
G37*
G36*
X94450Y365774D02*
X94672Y365551D01*
X94894Y365218D01*
X95228Y364774D01*
X95561Y364218D01*
Y364107D01*
X95672Y363996D01*
X95894Y363663D01*
X96116Y363218D01*
X96672Y362107D01*
X97116Y360885D01*
Y360774D01*
X97227Y360552D01*
X97338Y359885D01*
X97450Y358997D01*
X97561Y358108D01*
Y357886D01*
X97450Y357441D01*
X97338Y356552D01*
X97116Y355330D01*
Y355219D01*
X97005Y355108D01*
X96783Y354553D01*
X96450Y353997D01*
X96228Y353553D01*
X96005Y353664D01*
X95783Y353886D01*
X95339Y354219D01*
X95228Y354330D01*
X94783Y354664D01*
X94339Y355108D01*
X93672Y355775D01*
X91561Y357886D01*
X92783Y360108D01*
Y360219D01*
X93006Y360552D01*
X93117Y360885D01*
X93339Y361441D01*
X93783Y362774D01*
X93894Y363441D01*
Y364107D01*
Y364218D01*
Y364440D01*
X93783Y364996D01*
X93894Y365663D01*
Y365885D01*
X94005Y365996D01*
X94117D01*
X94450Y365774D01*
D02*
G37*
G36*
X75674Y363107D02*
Y362996D01*
X75563Y362885D01*
Y362552D01*
X75452Y361996D01*
Y361441D01*
X75341Y360552D01*
Y359552D01*
Y358441D01*
Y358330D01*
Y357886D01*
Y357330D01*
Y356552D01*
X75452Y354886D01*
X75563Y353997D01*
X75674Y353219D01*
Y353108D01*
X75785Y352664D01*
X75896Y352108D01*
X75785Y351664D01*
X75674Y351553D01*
X75452Y351331D01*
X74896Y351109D01*
X74452Y350886D01*
X73896Y350664D01*
X73785D01*
X73341Y350442D01*
X72897Y350331D01*
X72341Y350109D01*
X71452Y349886D01*
X71341Y349997D01*
Y350220D01*
Y350664D01*
Y350775D01*
X71230Y351220D01*
Y351886D01*
Y352775D01*
Y352886D01*
Y353219D01*
Y353775D01*
X71341Y354441D01*
X71452Y355219D01*
X71563Y356108D01*
X72119Y357997D01*
Y358108D01*
X72230Y358441D01*
X72452Y358885D01*
X72786Y359441D01*
X73563Y360885D01*
X74563Y362219D01*
X74674Y362330D01*
X74785Y362441D01*
X75230Y362996D01*
X75452Y363218D01*
X75674Y363330D01*
Y363107D01*
D02*
G37*
G36*
X103227Y360996D02*
X103560Y360774D01*
X103893Y360330D01*
X104338Y359663D01*
X104449Y359552D01*
X104671Y359108D01*
X105115Y358552D01*
X105560Y357663D01*
X106004Y356664D01*
X106560Y355552D01*
X107560Y353108D01*
Y352997D01*
X107671Y352553D01*
X107893Y351997D01*
X108004Y351331D01*
X108115Y350553D01*
Y349886D01*
X108004Y349331D01*
X107671Y348886D01*
X107560D01*
X107115Y348775D01*
X106560D01*
X105893Y348886D01*
X105782D01*
X105560Y348998D01*
X105338Y349220D01*
X105115Y349775D01*
Y349997D01*
X105004Y350220D01*
Y350553D01*
X104893Y350997D01*
X104782Y351553D01*
Y352220D01*
X104671Y353108D01*
Y353219D01*
Y353442D01*
X104560Y353775D01*
Y354219D01*
X104449Y355219D01*
X104227Y356552D01*
Y356664D01*
X104116Y356886D01*
X104004Y357552D01*
X103671Y358441D01*
X103449Y359219D01*
X103338Y359441D01*
X103227Y359774D01*
X103005Y360330D01*
X102893Y360885D01*
Y361219D01*
X103116D01*
X103227Y360996D01*
D02*
G37*
G36*
X71008Y360774D02*
Y360441D01*
X70897Y359774D01*
X70675Y359330D01*
X70452Y358774D01*
X70341Y358663D01*
X70230Y358219D01*
X70119Y357441D01*
X69897Y356441D01*
Y356330D01*
X69786Y356219D01*
Y355886D01*
X69675Y355441D01*
X69564Y354441D01*
Y353219D01*
Y353108D01*
Y352775D01*
Y352220D01*
Y351664D01*
X69453Y350442D01*
X69341Y349886D01*
X69230Y349442D01*
X69119Y349331D01*
X68675Y349109D01*
X68008Y348886D01*
X67453Y348775D01*
X66453D01*
X66119Y348886D01*
X66008Y349109D01*
Y349220D01*
Y349553D01*
Y350109D01*
X66119Y350997D01*
Y351109D01*
X66231Y351442D01*
X66342Y351886D01*
X66453Y352553D01*
X66786Y353330D01*
X67008Y354219D01*
X67897Y356330D01*
Y356441D01*
X68119Y356775D01*
X68341Y357330D01*
X68675Y357997D01*
X69341Y359330D01*
X69786Y359996D01*
X70230Y360441D01*
X70341Y360552D01*
X70452Y360663D01*
X70675Y360774D01*
X70897Y360885D01*
X71008Y360774D01*
D02*
G37*
G36*
X90895Y355552D02*
X91339Y355219D01*
X91450Y355108D01*
X91672Y354886D01*
X92228Y354553D01*
X92783Y353997D01*
X92894Y353886D01*
X93006Y353664D01*
X93672Y352997D01*
X94339Y352220D01*
X94672Y351886D01*
X94783Y351553D01*
Y351442D01*
Y351220D01*
X94672Y350775D01*
X94228Y350331D01*
X94117Y350220D01*
X93783Y350109D01*
X93339Y349997D01*
X93117D01*
X93006Y350109D01*
X92783Y350553D01*
X92672Y350886D01*
X92450Y351331D01*
X92117Y351997D01*
X91784Y352775D01*
Y352886D01*
X91672Y353108D01*
X91450Y353553D01*
X91228Y353997D01*
X90895Y354997D01*
X90784Y355330D01*
X90673Y355664D01*
X90784D01*
X90895Y355552D01*
D02*
G37*
G36*
X80229Y365663D02*
Y365551D01*
Y365329D01*
X80340Y364774D01*
Y363885D01*
Y363663D01*
Y363218D01*
X80451Y362552D01*
X80674Y361774D01*
Y361552D01*
X80896Y361107D01*
X81118Y360441D01*
X81451Y359774D01*
X82562Y357997D01*
X80229Y355441D01*
X80007Y355219D01*
X79785Y354886D01*
X79229Y354219D01*
X78007Y352886D01*
X77341Y354553D01*
Y354664D01*
X77118Y354997D01*
X77007Y355552D01*
X76896Y356330D01*
X76785Y357219D01*
X76674Y358219D01*
Y359219D01*
X76896Y360441D01*
Y360552D01*
X77007Y360996D01*
X77229Y361552D01*
X77452Y362330D01*
X78341Y363885D01*
X78896Y364774D01*
X79563Y365440D01*
X79674Y365551D01*
X79896Y365663D01*
X80118Y365774D01*
X80229Y365663D01*
D02*
G37*
G36*
X99227Y362885D02*
X99338Y362774D01*
X99560Y362441D01*
X100005Y361774D01*
X100449Y360996D01*
X100894Y359996D01*
X101449Y358885D01*
X102005Y357552D01*
X102449Y356108D01*
Y355886D01*
X102560Y355441D01*
X102782Y354775D01*
X102893Y353997D01*
X103005Y352997D01*
Y352108D01*
X102893Y351220D01*
X102671Y350442D01*
X102449Y350331D01*
X102227Y350220D01*
X101894Y350109D01*
X101783D01*
X101449Y350220D01*
X100783Y350442D01*
X100005Y350886D01*
X98338Y351775D01*
X98227Y351886D01*
X98005Y351997D01*
X97783Y352108D01*
X97672Y352220D01*
X98561Y354553D01*
Y354664D01*
X98783Y355108D01*
X98894Y355775D01*
X99005Y356775D01*
X99116Y357997D01*
Y359330D01*
X98894Y360996D01*
X98561Y362885D01*
X98227Y364107D01*
X99227Y362885D01*
D02*
G37*
G36*
X83451Y355441D02*
X83340Y355219D01*
X83229Y354664D01*
X83118Y354553D01*
X83007Y354108D01*
X82673Y353442D01*
X82229Y352553D01*
Y352442D01*
X82118Y352220D01*
X81784Y351553D01*
X81340Y350775D01*
X81118Y350442D01*
X81007Y350220D01*
X80896D01*
X80674Y350109D01*
X80340Y350220D01*
X79896Y350553D01*
X79785Y350664D01*
X79563Y350997D01*
X79340Y351331D01*
Y351775D01*
Y351886D01*
X79563Y352220D01*
X80118Y352775D01*
X80451Y353219D01*
X81007Y353664D01*
X81118Y353886D01*
X81562Y354219D01*
X82118Y354664D01*
X82673Y355108D01*
X82784Y355219D01*
X83007Y355330D01*
X83229Y355552D01*
X83451D01*
Y355441D01*
D02*
G37*
%LPC*%
G36*
X83118Y436766D02*
X82673D01*
X82229Y436544D01*
X81673Y436322D01*
X81229Y435877D01*
X80785Y435211D01*
X80451Y434211D01*
X80340Y432989D01*
Y432767D01*
Y432433D01*
X80562Y431878D01*
X80785Y431545D01*
X80896D01*
X81229Y431433D01*
X85784D01*
Y433433D01*
Y433544D01*
Y433989D01*
Y434544D01*
X85673Y435100D01*
Y435211D01*
X85562Y435544D01*
X85340Y435877D01*
X85229Y436100D01*
X85118D01*
X84895Y436211D01*
X84229Y436544D01*
X84118D01*
X83895Y436655D01*
X83118Y436766D01*
D02*
G37*
%LPD*%
D80*
X261750Y216000D02*
G03*
X261750Y216000I-1250J0D01*
G01*
X17500Y230250D02*
G03*
X17500Y230250I-1250J0D01*
G01*
X91750Y1088000D02*
G03*
X91750Y1088000I-1250J0D01*
G01*
X380200Y702700D02*
G03*
X380200Y702700I-1250J0D01*
G01*
X467250Y1054000D02*
G03*
X467250Y1054000I-1250J0D01*
G01*
X403250Y1055000D02*
G03*
X403250Y1055000I-1250J0D01*
G01*
X244500Y470650D02*
G03*
X244500Y470650I-1250J0D01*
G01*
X258500Y949250D02*
G03*
X258500Y949250I-1250J0D01*
G01*
X264750Y1166000D02*
G03*
X264750Y1166000I-1250J0D01*
G01*
X219250Y1155000D02*
G03*
X219250Y1155000I-1250J0D01*
G01*
X137000Y657700D02*
G03*
X137000Y657700I-1250J0D01*
G01*
X206675Y716275D02*
G03*
X206675Y716275I-1250J0D01*
G01*
X313500Y248000D02*
G03*
X313500Y248000I-1250J0D01*
G01*
X341000Y181000D02*
G03*
X341000Y181000I-1250J0D01*
G01*
X187750Y952500D02*
G03*
X187750Y952500I-1250J0D01*
G01*
X142500Y1006747D02*
Y1000082D01*
X145832Y996750D01*
X149164Y1000082D01*
Y1006747D01*
X159161Y1005081D02*
X157495Y1006747D01*
X154163D01*
X152497Y1005081D01*
Y998416D01*
X154163Y996750D01*
X157495D01*
X159161Y998416D01*
X167492Y1006747D02*
X164160D01*
X162494Y1005081D01*
Y998416D01*
X164160Y996750D01*
X167492D01*
X169158Y998416D01*
Y1005081D01*
X167492Y1006747D01*
D81*
X227750Y477150D02*
G03*
X227750Y477150I-1000J0D01*
G01*
D83*
X294000Y259000D02*
G03*
X294000Y259000I-3000J0D01*
G01*
D86*
X443400Y35700D02*
X494500D01*
X443400Y10300D02*
Y35700D01*
X494500Y10300D02*
Y35700D01*
X443400Y10300D02*
X494500D01*
X453600Y539120D02*
X498050D01*
X453600Y460380D02*
X500590D01*
X453600D02*
Y471810D01*
Y527690D02*
Y539120D01*
X339000Y396000D02*
Y400000D01*
X331000Y396000D02*
Y400000D01*
X316000Y396000D02*
Y400000D01*
X324000Y396000D02*
Y400000D01*
X337000Y355000D02*
X341000D01*
X337000Y363000D02*
X341000D01*
X337000Y348000D02*
X341000D01*
X337000Y340000D02*
X341000D01*
X363000Y196000D02*
Y200000D01*
X355000Y196000D02*
Y200000D01*
X291000Y187000D02*
Y191000D01*
X299000Y187000D02*
Y191000D01*
X346000Y159000D02*
Y163000D01*
X338000Y159000D02*
Y163000D01*
X459500Y114000D02*
Y134500D01*
X379500Y114000D02*
Y134500D01*
X459500Y173500D02*
Y194000D01*
X379500Y173500D02*
Y194000D01*
Y114000D02*
X459500D01*
X379500Y194000D02*
X459500D01*
X133500Y168000D02*
Y177000D01*
X168500Y98000D02*
X195500D01*
X168500Y84000D02*
X195500D01*
X168500Y96500D02*
Y98000D01*
X195500Y96500D02*
Y98000D01*
X168500Y84000D02*
Y85500D01*
X195500Y84000D02*
Y85500D01*
X396500Y240500D02*
Y247050D01*
Y267950D02*
Y274500D01*
X430500Y240500D02*
Y247050D01*
Y267950D02*
Y274500D01*
X396500Y240500D02*
X400750D01*
X426250D02*
X430500D01*
X396500Y274500D02*
X400750D01*
X426250D02*
X430500D01*
X23750Y249000D02*
X44750D01*
X23750Y239000D02*
X44750D01*
Y249000D01*
X23750Y239000D02*
Y249000D01*
X19000Y250000D02*
Y266000D01*
X3000Y250000D02*
Y266000D01*
X19000D01*
X3000Y250000D02*
X19000D01*
X151550Y1083500D02*
X177000D01*
X151550Y1108500D02*
X177000D01*
X151550Y1101000D02*
Y1108500D01*
Y1083500D02*
Y1102350D01*
X177000Y1083500D02*
Y1108500D01*
X43000Y1047050D02*
Y1072500D01*
X18000Y1047050D02*
Y1072500D01*
Y1047050D02*
X25500D01*
X24150D02*
X43000D01*
X18000Y1072500D02*
X43000D01*
X453000Y66000D02*
X457000D01*
X453000Y59000D02*
X457000D01*
X453000Y46500D02*
X457000D01*
X453000Y53500D02*
X457000D01*
X69500Y273000D02*
Y277000D01*
X76500Y273000D02*
Y277000D01*
X35500Y128000D02*
Y132000D01*
X42500Y128000D02*
Y132000D01*
X140500Y1048500D02*
X144500D01*
X140500Y1041500D02*
X144500D01*
X153500Y1065500D02*
Y1069500D01*
X146500Y1065500D02*
Y1069500D01*
X64000Y1056500D02*
X68000D01*
X64000Y1063500D02*
X68000D01*
X1950Y860630D02*
X46400D01*
X-590Y939370D02*
X46400D01*
Y927940D02*
Y939370D01*
Y860630D02*
Y872060D01*
X453600Y1179370D02*
X498050D01*
X453600Y1100630D02*
X500590D01*
X453600D02*
Y1112060D01*
Y1167940D02*
Y1179370D01*
X420500Y56000D02*
X424500D01*
X420500Y64000D02*
X424500D01*
X465500Y81000D02*
Y89000D01*
X474500Y81000D02*
Y89000D01*
X492000Y81000D02*
Y89000D01*
X483000Y81000D02*
Y89000D01*
X373500Y93000D02*
X381500D01*
X373500Y102000D02*
X381500D01*
X373500Y67000D02*
X381500D01*
X373500Y58000D02*
X381500D01*
X101250Y180000D02*
Y184000D01*
X93250Y180000D02*
Y184000D01*
X45000Y277000D02*
X49000D01*
X45000Y289000D02*
X49000D01*
X45000Y298000D02*
X49000D01*
X45000Y310000D02*
X49000D01*
X71250Y140000D02*
Y144000D01*
X63250Y140000D02*
Y144000D01*
X86250Y154500D02*
X94250D01*
X86250Y145500D02*
X94250D01*
X86250Y119500D02*
X94250D01*
X86250Y110500D02*
X94250D01*
X38000Y200000D02*
X42000D01*
X38000Y212000D02*
X42000D01*
X42250Y158000D02*
Y162000D01*
X34250Y158000D02*
Y162000D01*
X131000Y1065500D02*
Y1069500D01*
X139000Y1065500D02*
Y1069500D01*
X63000Y1072000D02*
X67000D01*
X63000Y1080000D02*
X67000D01*
X99500Y1085000D02*
X108500D01*
X99500Y1055000D02*
X108500D01*
X99500D02*
Y1085000D01*
X108500Y1055000D02*
Y1085000D01*
X391850Y699700D02*
X397850D01*
X391850Y661700D02*
X397850D01*
X391850D02*
Y699700D01*
X397850Y661700D02*
Y699700D01*
X221000Y465000D02*
X225000D01*
X221000Y457000D02*
X225000D01*
X271000Y566000D02*
X275000D01*
X271000Y558000D02*
X275000D01*
X221000Y450000D02*
X225000D01*
X221000Y442000D02*
X225000D01*
X260500Y501150D02*
Y505150D01*
X268500Y501150D02*
Y505150D01*
X299000Y533000D02*
Y537000D01*
X307000Y533000D02*
Y537000D01*
X333000Y458000D02*
X337000D01*
X333000Y466000D02*
X337000D01*
X268500Y468650D02*
Y472650D01*
X260500Y468650D02*
Y472650D01*
X253500Y522150D02*
Y526150D01*
X245500Y522150D02*
Y526150D01*
X210000Y519650D02*
X214000D01*
X210000Y511650D02*
X214000D01*
X239000Y522000D02*
Y526000D01*
X231000Y522000D02*
Y526000D01*
X122000Y536000D02*
Y540000D01*
X130000Y536000D02*
Y540000D01*
X164000Y512000D02*
X168000D01*
X164000Y520000D02*
X168000D01*
X344000Y1010890D02*
X348000D01*
X344000Y1018890D02*
X348000D01*
X344000Y995890D02*
X348000D01*
X344000Y1003890D02*
X348000D01*
X208000Y1190000D02*
X212000D01*
X208000Y1182000D02*
X212000D01*
X133000Y1101500D02*
X137000D01*
X133000Y1093500D02*
X137000D01*
X93000D02*
X97000D01*
X93000Y1101500D02*
X97000D01*
X168850Y696700D02*
X172850D01*
X168850Y688700D02*
X172850D01*
X73000Y665000D02*
Y669000D01*
X81000Y665000D02*
Y669000D01*
X167850Y670700D02*
X171850D01*
X167850Y662700D02*
X171850D01*
X347850Y689700D02*
X351850D01*
X347850Y697700D02*
X351850D01*
X429000Y666000D02*
Y670000D01*
X437000Y666000D02*
Y670000D01*
X346850Y663700D02*
X350850D01*
X346850Y671700D02*
X350850D01*
X327414Y725757D02*
X330243Y728586D01*
X321757Y731414D02*
X324586Y734243D01*
X338264Y714457D02*
X341093Y717286D01*
X332607Y720114D02*
X335436Y722943D01*
X178525Y741025D02*
X182525D01*
X178525Y733025D02*
X182525D01*
X178525Y726025D02*
X182525D01*
X178525Y718025D02*
X182525D01*
X333607Y640286D02*
X336436Y637457D01*
X339264Y645943D02*
X342093Y643114D01*
X322757Y629586D02*
X325586Y626757D01*
X328414Y635243D02*
X331243Y632414D01*
X299000Y605000D02*
Y609000D01*
X291000Y605000D02*
Y609000D01*
X264850Y616700D02*
X268850D01*
X264850Y608700D02*
X268850D01*
X12300Y14400D02*
Y90600D01*
Y14400D02*
X37700D01*
X12300Y90600D02*
X37700D01*
Y14400D02*
Y90600D01*
X6300Y338000D02*
Y440100D01*
X31700D01*
Y338000D02*
Y440100D01*
X6300Y338000D02*
X31700D01*
X42300Y14650D02*
Y90850D01*
Y14650D02*
X67700D01*
X42300Y90850D02*
X67700D01*
Y14650D02*
Y90850D01*
X1950Y960630D02*
X46400D01*
X-590Y1039370D02*
X46400D01*
Y1027940D02*
Y1039370D01*
Y960630D02*
Y972060D01*
X453600Y839370D02*
X498050D01*
X453600Y760630D02*
X500590D01*
X453600D02*
Y772060D01*
Y827940D02*
Y839370D01*
Y1039370D02*
X498050D01*
X453600Y960630D02*
X500590D01*
X453600D02*
Y972060D01*
Y1027940D02*
Y1039370D01*
X1950Y760630D02*
X46400D01*
X-590Y839370D02*
X46400D01*
Y827940D02*
Y839370D01*
Y760630D02*
Y772060D01*
X1950Y610630D02*
X46400D01*
X-590Y689370D02*
X46400D01*
Y677940D02*
Y689370D01*
Y610630D02*
Y622060D01*
X1950Y460630D02*
X46400D01*
X-590Y539370D02*
X46400D01*
Y527940D02*
Y539370D01*
Y460630D02*
Y472060D01*
X1950Y1100630D02*
X46400D01*
X-590Y1179370D02*
X46400D01*
Y1167940D02*
Y1179370D01*
Y1100630D02*
Y1112060D01*
X453600Y939370D02*
X498050D01*
X453600Y860630D02*
X500590D01*
X453600D02*
Y872060D01*
Y927940D02*
Y939370D01*
X378500Y1080500D02*
Y1088250D01*
X393500D01*
X378500Y1058250D02*
Y1066000D01*
Y1058250D02*
X393500D01*
X493700Y295100D02*
Y447500D01*
X468300Y295100D02*
X493700D01*
X468300D02*
Y447500D01*
X493700D01*
X327500Y555000D02*
Y580000D01*
X352950Y561150D02*
Y580000D01*
Y555000D02*
Y562500D01*
X327500Y555000D02*
X352950D01*
X327500Y580000D02*
X352950D01*
X386000Y536500D02*
X411000D01*
X392150Y511050D02*
X411000D01*
X386000D02*
X393500D01*
X386000D02*
Y536500D01*
X411000Y511050D02*
Y536500D01*
X321500Y555000D02*
Y580000D01*
X296050Y555000D02*
Y573850D01*
Y572500D02*
Y580000D01*
X321500D01*
X296050Y555000D02*
X321500D01*
X142500Y557000D02*
Y582000D01*
X117050Y557000D02*
Y575850D01*
Y574500D02*
Y582000D01*
X142500D01*
X117050Y557000D02*
X142500D01*
X212000Y746500D02*
X237000D01*
X212000Y771950D02*
X230850D01*
X229500D02*
X237000D01*
Y746500D02*
Y771950D01*
X212000Y746500D02*
Y771950D01*
X242000Y746500D02*
X267000D01*
X242000Y771950D02*
X260850D01*
X259500D02*
X267000D01*
Y746500D02*
Y771950D01*
X242000Y746500D02*
Y771950D01*
X189000Y608500D02*
X214000D01*
X189000Y633950D02*
X207850D01*
X206500D02*
X214000D01*
Y608500D02*
Y633950D01*
X189000Y608500D02*
Y633950D01*
X220000Y608500D02*
X245000D01*
X220000Y633950D02*
X238850D01*
X237500D02*
X245000D01*
Y608500D02*
Y633950D01*
X220000Y608500D02*
Y633950D01*
X212750Y503650D02*
X231250D01*
X212750Y472650D02*
X231250D01*
X212750D02*
Y503650D01*
X231250Y472650D02*
Y503650D01*
X225750Y936600D02*
Y942750D01*
X231900D01*
X225750Y909750D02*
Y915900D01*
Y909750D02*
X231900D01*
X252600D02*
X258750D01*
Y915900D01*
Y936600D02*
Y942750D01*
X252600D02*
X258750D01*
X255500Y1169000D02*
Y1191000D01*
X249500Y1169000D02*
Y1191000D01*
Y1169000D02*
X255500D01*
X249500Y1191000D02*
X255500D01*
X224500Y1123500D02*
X230650D01*
X224500D02*
Y1129650D01*
X251350Y1123500D02*
X257500D01*
Y1129650D01*
Y1150350D02*
Y1156500D01*
X251350D02*
X257500D01*
X224500D02*
X230650D01*
X224500Y1150350D02*
Y1156500D01*
X116850Y660700D02*
Y698700D01*
X122850Y660700D02*
Y698700D01*
X116850D02*
X122850D01*
X116850Y660700D02*
X122850D01*
X211925Y643275D02*
X216425D01*
X211925D02*
Y647775D01*
X281925Y643275D02*
X286425D01*
Y647775D01*
Y713275D02*
Y717775D01*
X281925D02*
X286425D01*
X211925D02*
X216425D01*
X211925Y713275D02*
Y717775D01*
X428700Y71750D02*
X435750D01*
X401250D02*
X408300D01*
X428700Y106250D02*
X435750D01*
X401250D02*
X408300D01*
X435750Y71750D02*
Y73750D01*
Y104250D02*
Y106250D01*
X401250Y71750D02*
Y73750D01*
Y104250D02*
Y106250D01*
X49500Y128000D02*
Y132000D01*
X56500Y128000D02*
Y132000D01*
X448000Y81000D02*
Y89000D01*
X457000Y81000D02*
Y89000D01*
X373500Y84500D02*
X381500D01*
X373500Y75500D02*
X381500D01*
X86250Y128500D02*
X94250D01*
X86250Y137500D02*
X94250D01*
X38000Y179000D02*
X42000D01*
X38000Y191000D02*
X42000D01*
X49250Y158000D02*
Y162000D01*
X57250Y158000D02*
Y162000D01*
X301000Y249000D02*
Y381000D01*
X169000Y249000D02*
Y381000D01*
Y249000D02*
X301000D01*
X169000Y381000D02*
X301000D01*
X90500Y273000D02*
Y277000D01*
X83500Y273000D02*
Y277000D01*
X10000Y289000D02*
Y293000D01*
X22000Y289000D02*
Y293000D01*
X164250Y141050D02*
X168500D01*
X134500D02*
X138750D01*
X164250Y107050D02*
X168500D01*
X134500D02*
X138750D01*
X168500Y134500D02*
Y141050D01*
Y107050D02*
Y113600D01*
X134500Y134500D02*
Y141050D01*
Y107050D02*
Y113600D01*
X293000Y3500D02*
Y56000D01*
X207500D02*
X292500D01*
X207500Y3500D02*
Y56000D01*
X164500Y3500D02*
Y56000D01*
X79000D02*
X164000D01*
X79000Y3500D02*
Y56000D01*
X300500Y31000D02*
X309500D01*
X354000Y55000D02*
Y59000D01*
X346000Y55000D02*
Y59000D01*
X344430Y9690D02*
Y23000D01*
Y9690D02*
X345090Y9030D01*
X431450D01*
X344430Y23000D02*
Y36970D01*
X345090D02*
X431450D01*
Y9030D02*
Y36970D01*
X343000Y299000D02*
X347000D01*
X343000Y291000D02*
X347000D01*
X343000Y277000D02*
X347000D01*
X343000Y285000D02*
X347000D01*
X321000Y183500D02*
X331000D01*
X321000Y214500D02*
X331000D01*
Y183500D02*
Y214500D01*
X321000Y183500D02*
Y214500D01*
X371000Y318000D02*
Y322000D01*
X379000Y318000D02*
Y322000D01*
X345000Y256000D02*
X349000D01*
X345000Y268000D02*
X349000D01*
X231000Y874500D02*
X234850D01*
X279150D02*
X283000D01*
X231000Y811500D02*
X234850D01*
X279150D02*
X283000D01*
X231000Y869850D02*
Y874500D01*
Y811500D02*
Y816150D01*
X283000Y869850D02*
Y874500D01*
Y811500D02*
Y816150D01*
X315000Y959000D02*
Y974300D01*
X299700Y959000D02*
X315000D01*
Y1073700D02*
Y1089000D01*
X299700D02*
X315000D01*
X185000D02*
X200300D01*
X185000Y1073700D02*
Y1089000D01*
Y959000D02*
Y974300D01*
Y959000D02*
X200300D01*
X154000Y410000D02*
X158000D01*
X154000Y402000D02*
X158000D01*
X154000Y425000D02*
X158000D01*
X154000Y417000D02*
X158000D01*
X174000Y180000D02*
Y184000D01*
X182000Y180000D02*
Y184000D01*
X453600Y689370D02*
X498050D01*
X453600Y610630D02*
X500590D01*
X453600D02*
Y622060D01*
Y677940D02*
Y689370D01*
X245000Y805997D02*
Y798000D01*
X250332D01*
X252997D02*
Y805997D01*
X258329Y798000D01*
Y805997D01*
X260995Y798000D02*
Y803332D01*
X263661Y805997D01*
X266326Y803332D01*
Y798000D01*
Y801999D01*
X260995D01*
X231750Y1101250D02*
Y1111247D01*
X236748D01*
X238414Y1109581D01*
Y1106248D01*
X236748Y1104582D01*
X231750D01*
X241747Y1101250D02*
Y1107915D01*
X245079Y1111247D01*
X248411Y1107915D01*
Y1101250D01*
Y1106248D01*
X241747D01*
X272665Y912331D02*
X270998Y913997D01*
X267666D01*
X266000Y912331D01*
Y910665D01*
X267666Y908998D01*
X270998D01*
X272665Y907332D01*
Y905666D01*
X270998Y904000D01*
X267666D01*
X266000Y905666D01*
X275997Y904000D02*
Y913997D01*
X280995D01*
X282661Y912331D01*
Y908998D01*
X280995Y907332D01*
X275997D01*
X285994Y913997D02*
Y904000D01*
X292658D01*
X295990Y913997D02*
X299323D01*
X297656D01*
Y904000D01*
X295990D01*
X299323D01*
X304321Y913997D02*
X310986D01*
X307653D01*
Y904000D01*
X320982Y913997D02*
X314318D01*
Y904000D01*
X320982D01*
X314318Y908998D02*
X317650D01*
X324314Y904000D02*
Y913997D01*
X329313D01*
X330979Y912331D01*
Y908998D01*
X329313Y907332D01*
X324314D01*
X327647D02*
X330979Y904000D01*
X376000Y1175750D02*
Y1185747D01*
X380998D01*
X382664Y1184081D01*
Y1180748D01*
X380998Y1179082D01*
X376000D01*
X385997Y1175750D02*
Y1182414D01*
X389329Y1185747D01*
X392661Y1182414D01*
Y1175750D01*
Y1180748D01*
X385997D01*
X395994Y1174084D02*
X402658D01*
X410989Y1185747D02*
X407657D01*
X405990Y1184081D01*
Y1177416D01*
X407657Y1175750D01*
X410989D01*
X412655Y1177416D01*
Y1184081D01*
X410989Y1185747D01*
X415987D02*
Y1177416D01*
X417653Y1175750D01*
X420985D01*
X422652Y1177416D01*
Y1185747D01*
X425984D02*
X432648D01*
X429316D01*
Y1175750D01*
X78000Y1174000D02*
Y1183997D01*
X82998D01*
X84664Y1182331D01*
Y1178998D01*
X82998Y1177332D01*
X78000D01*
X87997Y1174000D02*
Y1180665D01*
X91329Y1183997D01*
X94661Y1180665D01*
Y1174000D01*
Y1178998D01*
X87997D01*
X97994Y1172334D02*
X104658D01*
X107990Y1183997D02*
X111323D01*
X109656D01*
Y1174000D01*
X107990D01*
X111323D01*
X116321D02*
Y1183997D01*
X122985Y1174000D01*
Y1183997D01*
D100*
X328500Y385000D02*
G03*
X341500Y385000I6500J6500D01*
G01*
Y411000D02*
G03*
X328500Y411000I-6500J-6500D01*
G01*
X326500D02*
G03*
X313500Y411000I-6500J-6500D01*
G01*
Y385000D02*
G03*
X326500Y385000I6500J6500D01*
G01*
X326000Y365500D02*
G03*
X326000Y352500I6500J-6500D01*
G01*
X352000D02*
G03*
X352000Y365500I-6500J6500D01*
G01*
Y337500D02*
G03*
X352000Y350500I-6500J6500D01*
G01*
X326000D02*
G03*
X326000Y337500I6500J-6500D01*
G01*
X352500Y185000D02*
G03*
X365500Y185000I6500J6500D01*
G01*
Y211000D02*
G03*
X352500Y211000I-6500J-6500D01*
G01*
X301500Y202000D02*
G03*
X288500Y202000I-6500J-6500D01*
G01*
Y176000D02*
G03*
X301500Y176000I6500J6500D01*
G01*
X335500Y148000D02*
G03*
X348500Y148000I6500J6500D01*
G01*
Y174000D02*
G03*
X335500Y174000I-6500J-6500D01*
G01*
X409500Y66500D02*
G03*
X409500Y53500I6500J-6500D01*
G01*
X435500D02*
G03*
X435500Y66500I-6500J6500D01*
G01*
X90750Y169000D02*
G03*
X103750Y169000I6500J6500D01*
G01*
Y195000D02*
G03*
X90750Y195000I-6500J-6500D01*
G01*
X60750Y129000D02*
G03*
X73750Y129000I6500J6500D01*
G01*
Y155000D02*
G03*
X60750Y155000I-6500J-6500D01*
G01*
X31750Y147000D02*
G03*
X44750Y147000I6500J6500D01*
G01*
Y173000D02*
G03*
X31750Y173000I-6500J-6500D01*
G01*
X141500Y1080500D02*
G03*
X128500Y1080500I-6500J-6500D01*
G01*
Y1054500D02*
G03*
X141500Y1054500I6500J6500D01*
G01*
X52000Y1082500D02*
G03*
X52000Y1069500I6500J-6500D01*
G01*
X78000D02*
G03*
X78000Y1082500I-6500J6500D01*
G01*
X236000Y454500D02*
G03*
X236000Y467500I-6500J6500D01*
G01*
X210000D02*
G03*
X210000Y454500I6500J-6500D01*
G01*
X286000Y555500D02*
G03*
X286000Y568500I-6500J6500D01*
G01*
X260000D02*
G03*
X260000Y555500I6500J-6500D01*
G01*
X236000Y439500D02*
G03*
X236000Y452500I-6500J6500D01*
G01*
X210000D02*
G03*
X210000Y439500I6500J-6500D01*
G01*
X271000Y516150D02*
G03*
X258000Y516150I-6500J-6500D01*
G01*
Y490150D02*
G03*
X271000Y490150I6500J6500D01*
G01*
X309500Y548000D02*
G03*
X296500Y548000I-6500J-6500D01*
G01*
Y522000D02*
G03*
X309500Y522000I6500J6500D01*
G01*
X322000Y468500D02*
G03*
X322000Y455500I6500J-6500D01*
G01*
X348000D02*
G03*
X348000Y468500I-6500J6500D01*
G01*
X258000Y457650D02*
G03*
X271000Y457650I6500J6500D01*
G01*
Y483650D02*
G03*
X258000Y483650I-6500J-6500D01*
G01*
X243000Y511150D02*
G03*
X256000Y511150I6500J6500D01*
G01*
Y537150D02*
G03*
X243000Y537150I-6500J-6500D01*
G01*
X225000Y509150D02*
G03*
X225000Y522150I-6500J6500D01*
G01*
X199000D02*
G03*
X199000Y509150I6500J-6500D01*
G01*
X228500Y511000D02*
G03*
X241500Y511000I6500J6500D01*
G01*
Y537000D02*
G03*
X228500Y537000I-6500J-6500D01*
G01*
X132500Y551000D02*
G03*
X119500Y551000I-6500J-6500D01*
G01*
Y525000D02*
G03*
X132500Y525000I6500J6500D01*
G01*
X153000Y522500D02*
G03*
X153000Y509500I6500J-6500D01*
G01*
X179000D02*
G03*
X179000Y522500I-6500J6500D01*
G01*
X333000Y1021390D02*
G03*
X333000Y1008390I6500J-6500D01*
G01*
X359000D02*
G03*
X359000Y1021390I-6500J6500D01*
G01*
X333000Y1006390D02*
G03*
X333000Y993390I6500J-6500D01*
G01*
X359000D02*
G03*
X359000Y1006390I-6500J6500D01*
G01*
X223000Y1179500D02*
G03*
X223000Y1192500I-6500J6500D01*
G01*
X197000D02*
G03*
X197000Y1179500I6500J-6500D01*
G01*
X148000Y1091000D02*
G03*
X148000Y1104000I-6500J6500D01*
G01*
X122000D02*
G03*
X122000Y1091000I6500J-6500D01*
G01*
X82000Y1104000D02*
G03*
X82000Y1091000I6500J-6500D01*
G01*
X108000D02*
G03*
X108000Y1104000I-6500J6500D01*
G01*
X183850Y686200D02*
G03*
X183850Y699200I-6500J6500D01*
G01*
X157850D02*
G03*
X157850Y686200I6500J-6500D01*
G01*
X83500Y680000D02*
G03*
X70500Y680000I-6500J-6500D01*
G01*
Y654000D02*
G03*
X83500Y654000I6500J6500D01*
G01*
X182850Y660200D02*
G03*
X182850Y673200I-6500J6500D01*
G01*
X156850D02*
G03*
X156850Y660200I6500J-6500D01*
G01*
X336850Y700200D02*
G03*
X336850Y687200I6500J-6500D01*
G01*
X362850D02*
G03*
X362850Y700200I-6500J6500D01*
G01*
X439500Y681000D02*
G03*
X426500Y681000I-6500J-6500D01*
G01*
Y655000D02*
G03*
X439500Y655000I6500J6500D01*
G01*
X335850Y674200D02*
G03*
X335850Y661200I6500J-6500D01*
G01*
X361850D02*
G03*
X361850Y674200I-6500J6500D01*
G01*
X312211Y725404D02*
G03*
X321404Y716211I9192J0D01*
G01*
X339789Y734596D02*
G03*
X330596Y743789I-9192J0D01*
G01*
X323061Y714104D02*
G03*
X332254Y704911I9192J0D01*
G01*
X350639Y723296D02*
G03*
X341446Y732489I-9192J0D01*
G01*
X193525Y730525D02*
G03*
X193525Y743525I-6500J6500D01*
G01*
X167525D02*
G03*
X167525Y730525I6500J-6500D01*
G01*
X193525Y715525D02*
G03*
X193525Y728525I-6500J6500D01*
G01*
X167525D02*
G03*
X167525Y715525I6500J-6500D01*
G01*
X333254Y655489D02*
G03*
X324061Y646296I0J-9192D01*
G01*
X342446Y627911D02*
G03*
X351639Y637104I0J9192D01*
G01*
X322404Y644789D02*
G03*
X313211Y635596I0J-9192D01*
G01*
X331596Y617211D02*
G03*
X340789Y626404I0J9192D01*
G01*
X288500Y594000D02*
G03*
X301500Y594000I6500J6500D01*
G01*
Y620000D02*
G03*
X288500Y620000I-6500J-6500D01*
G01*
X279850Y606200D02*
G03*
X279850Y619200I-6500J6500D01*
G01*
X253850D02*
G03*
X253850Y606200I6500J-6500D01*
G01*
X59750Y173000D02*
G03*
X46750Y173000I-6500J-6500D01*
G01*
Y147000D02*
G03*
X59750Y147000I6500J6500D01*
G01*
X343500Y44000D02*
G03*
X356500Y44000I6500J6500D01*
G01*
Y70000D02*
G03*
X343500Y70000I-6500J-6500D01*
G01*
X358000Y288500D02*
G03*
X358000Y301500I-6500J6500D01*
G01*
X332000D02*
G03*
X332000Y288500I6500J-6500D01*
G01*
Y287500D02*
G03*
X332000Y274500I6500J-6500D01*
G01*
X358000D02*
G03*
X358000Y287500I-6500J6500D01*
G01*
X381500Y333000D02*
G03*
X368500Y333000I-6500J-6500D01*
G01*
Y307000D02*
G03*
X381500Y307000I6500J6500D01*
G01*
X169000Y399500D02*
G03*
X169000Y412500I-6500J6500D01*
G01*
X143000D02*
G03*
X143000Y399500I6500J-6500D01*
G01*
X169000Y414500D02*
G03*
X169000Y427500I-6500J6500D01*
G01*
X143000D02*
G03*
X143000Y414500I6500J-6500D01*
G01*
X184500Y195000D02*
G03*
X171500Y195000I-6500J-6500D01*
G01*
Y169000D02*
G03*
X184500Y169000I6500J6500D01*
G01*
X328500Y385000D02*
Y411000D01*
X341500Y385000D02*
Y411000D01*
X326500Y385000D02*
Y411000D01*
X313500Y385000D02*
Y411000D01*
X326000Y365500D02*
X352000D01*
X326000Y352500D02*
X352000D01*
X326000Y337500D02*
X352000D01*
X326000Y350500D02*
X352000D01*
X268000Y225500D02*
X294000D01*
Y212500D02*
Y225500D01*
X268000Y212500D02*
X294000D01*
X268000D02*
Y222000D01*
Y225500D01*
X352500Y185000D02*
Y211000D01*
X365500Y185000D02*
Y211000D01*
X301500Y176000D02*
Y202000D01*
X288500Y176000D02*
Y202000D01*
X335500Y148000D02*
Y174000D01*
X348500Y148000D02*
Y174000D01*
X271500Y160500D02*
X297500D01*
Y147500D02*
Y160500D01*
X271500Y147500D02*
X297500D01*
X271500D02*
Y157000D01*
Y160500D01*
X134500Y191500D02*
X160500D01*
Y178500D02*
Y191500D01*
X134500Y178500D02*
X160500D01*
X134500D02*
Y188000D01*
Y191500D01*
X237000Y133500D02*
X263000D01*
Y120500D02*
Y133500D01*
X237000Y120500D02*
X263000D01*
X237000D02*
Y130000D01*
Y133500D01*
X331500Y1053000D02*
X335000D01*
X344500D01*
Y1079000D01*
X331500D02*
X344500D01*
X331500Y1053000D02*
Y1079000D01*
X303500Y1149500D02*
X307000D01*
X316500D01*
Y1175500D01*
X303500D02*
X316500D01*
X303500Y1149500D02*
Y1175500D01*
X409500Y66500D02*
X435500D01*
X409500Y53500D02*
X435500D01*
X90750Y169000D02*
Y195000D01*
X103750Y169000D02*
Y195000D01*
X60750Y129000D02*
Y155000D01*
X73750Y129000D02*
Y155000D01*
X31750Y147000D02*
Y173000D01*
X44750Y147000D02*
Y173000D01*
X141500Y1054500D02*
Y1080500D01*
X128500Y1054500D02*
Y1080500D01*
X52000Y1082500D02*
X78000D01*
X52000Y1069500D02*
X78000D01*
X210000Y454500D02*
X236000D01*
X210000Y467500D02*
X236000D01*
X260000Y555500D02*
X286000D01*
X260000Y568500D02*
X286000D01*
X210000Y439500D02*
X236000D01*
X210000Y452500D02*
X236000D01*
X271000Y490150D02*
Y516150D01*
X258000Y490150D02*
Y516150D01*
X309500Y522000D02*
Y548000D01*
X296500Y522000D02*
Y548000D01*
X322000Y468500D02*
X348000D01*
X322000Y455500D02*
X348000D01*
X258000Y457650D02*
Y483650D01*
X271000Y457650D02*
Y483650D01*
X243000Y511150D02*
Y537150D01*
X256000Y511150D02*
Y537150D01*
X199000Y509150D02*
X225000D01*
X199000Y522150D02*
X225000D01*
X228500Y511000D02*
Y537000D01*
X241500Y511000D02*
Y537000D01*
X132500Y525000D02*
Y551000D01*
X119500Y525000D02*
Y551000D01*
X153000Y522500D02*
X179000D01*
X153000Y509500D02*
X179000D01*
X333000Y1021390D02*
X359000D01*
X333000Y1008390D02*
X359000D01*
X333000Y1006390D02*
X359000D01*
X333000Y993390D02*
X359000D01*
X197000Y1179500D02*
X223000D01*
X197000Y1192500D02*
X223000D01*
X122000Y1091000D02*
X148000D01*
X122000Y1104000D02*
X148000D01*
X82000D02*
X108000D01*
X82000Y1091000D02*
X108000D01*
X157850Y686200D02*
X183850D01*
X157850Y699200D02*
X183850D01*
X83500Y654000D02*
Y680000D01*
X70500Y654000D02*
Y680000D01*
X156850Y660200D02*
X182850D01*
X156850Y673200D02*
X182850D01*
X336850Y700200D02*
X362850D01*
X336850Y687200D02*
X362850D01*
X439500Y655000D02*
Y681000D01*
X426500Y655000D02*
Y681000D01*
X335850Y674200D02*
X361850D01*
X335850Y661200D02*
X361850D01*
X312211Y725404D02*
X330596Y743789D01*
X321404Y716211D02*
X339789Y734596D01*
X323061Y714104D02*
X341446Y732489D01*
X332254Y704911D02*
X350639Y723296D01*
X167525Y730525D02*
X193525D01*
X167525Y743525D02*
X193525D01*
X167525Y715525D02*
X193525D01*
X167525Y728525D02*
X193525D01*
X333254Y655489D02*
X351639Y637104D01*
X324061Y646296D02*
X342446Y627911D01*
X322404Y644789D02*
X340789Y626404D01*
X313211Y635596D02*
X331596Y617211D01*
X288500Y594000D02*
Y620000D01*
X301500Y594000D02*
Y620000D01*
X253850Y606200D02*
X279850D01*
X253850Y619200D02*
X279850D01*
X294500Y522000D02*
Y548000D01*
X281500Y522000D02*
X294500D01*
X281500D02*
Y548000D01*
X291000D01*
X294500D01*
X326500Y506000D02*
Y532000D01*
X313500Y506000D02*
X326500D01*
X313500D02*
Y532000D01*
X323000D01*
X326500D01*
X297000Y488500D02*
X323000D01*
X297000D02*
Y501500D01*
X323000D01*
Y492000D02*
Y501500D01*
Y488500D02*
Y492000D01*
X275500Y490000D02*
Y516000D01*
X288500D01*
Y490000D02*
Y516000D01*
X279000Y490000D02*
X288500D01*
X275500D02*
X279000D01*
X322000Y484500D02*
X348000D01*
Y471500D02*
Y484500D01*
X322000Y471500D02*
X348000D01*
X322000D02*
Y481000D01*
Y484500D01*
X274000Y485500D02*
X300000D01*
Y472500D02*
Y485500D01*
X274000Y472500D02*
X300000D01*
X274000D02*
Y482000D01*
Y485500D01*
X401500Y542000D02*
Y568000D01*
X414500D01*
Y542000D02*
Y568000D01*
X405000Y542000D02*
X414500D01*
X401500D02*
X405000D01*
X274000Y469650D02*
X300000D01*
Y456650D02*
Y469650D01*
X274000Y456650D02*
X300000D01*
X274000D02*
Y466150D01*
Y469650D01*
X210000Y557500D02*
X236000D01*
X210000D02*
Y570500D01*
X236000D01*
Y561000D02*
Y570500D01*
Y557500D02*
Y561000D01*
X210000Y573500D02*
X236000D01*
X210000D02*
Y586500D01*
X236000D01*
Y577000D02*
Y586500D01*
Y573500D02*
Y577000D01*
X191500Y559000D02*
Y585000D01*
X204500D01*
Y559000D02*
Y585000D01*
X195000Y559000D02*
X204500D01*
X191500D02*
X195000D01*
X199000Y538500D02*
X225000D01*
Y525500D02*
Y538500D01*
X199000Y525500D02*
X225000D01*
X199000D02*
Y535000D01*
Y538500D01*
X168500Y557000D02*
Y583000D01*
X181500D01*
Y557000D02*
Y583000D01*
X172000Y557000D02*
X181500D01*
X168500D02*
X172000D01*
X168500Y525000D02*
Y551000D01*
X181500D01*
Y525000D02*
Y551000D01*
X172000Y525000D02*
X181500D01*
X168500D02*
X172000D01*
X150500Y557000D02*
Y583000D01*
X163500D01*
Y557000D02*
Y583000D01*
X154000Y557000D02*
X163500D01*
X150500D02*
X154000D01*
X150500Y525000D02*
Y551000D01*
X163500D01*
Y525000D02*
Y551000D01*
X154000Y525000D02*
X163500D01*
X150500D02*
X154000D01*
X280000Y1190500D02*
X306000D01*
Y1177500D02*
Y1190500D01*
X280000Y1177500D02*
X306000D01*
X280000D02*
Y1187000D01*
Y1190500D01*
X198000Y1176500D02*
X224000D01*
Y1163500D02*
Y1176500D01*
X198000Y1163500D02*
X224000D01*
X198000D02*
Y1173000D01*
Y1176500D01*
X413500Y1060250D02*
Y1086250D01*
X426500D01*
Y1060250D02*
Y1086250D01*
X417000Y1060250D02*
X426500D01*
X413500D02*
X417000D01*
X485500Y1055000D02*
Y1081000D01*
X472500Y1055000D02*
X485500D01*
X472500D02*
Y1081000D01*
X482000D01*
X485500D01*
X59750Y147000D02*
Y173000D01*
X46750Y147000D02*
Y173000D01*
X326500Y4000D02*
Y30000D01*
X313500Y4000D02*
X326500D01*
X313500D02*
Y30000D01*
X323000D01*
X326500D01*
X326189Y43674D02*
Y69674D01*
X339189D01*
Y43674D02*
Y69674D01*
X329689Y43674D02*
X339189D01*
X326189D02*
X329689D01*
X343500Y44000D02*
Y70000D01*
X356500Y44000D02*
Y70000D01*
X332000Y288500D02*
X358000D01*
X332000Y301500D02*
X358000D01*
X332000Y287500D02*
X358000D01*
X332000Y274500D02*
X358000D01*
X381500Y307000D02*
Y333000D01*
X368500Y307000D02*
Y333000D01*
X143000Y399500D02*
X169000D01*
X143000Y412500D02*
X169000D01*
X143000Y414500D02*
X169000D01*
X143000Y427500D02*
X169000D01*
X184500Y169000D02*
Y195000D01*
X171500Y169000D02*
Y195000D01*
X120332Y407915D02*
X119249Y408998D01*
X117083D01*
X116000Y407915D01*
Y403583D01*
X117083Y402500D01*
X119249D01*
X120332Y403583D01*
X122498Y407915D02*
X123581Y408998D01*
X125747D01*
X126830Y407915D01*
Y406832D01*
X125747Y405749D01*
X124664D01*
X125747D01*
X126830Y404666D01*
Y403583D01*
X125747Y402500D01*
X123581D01*
X122498Y403583D01*
X133328Y408998D02*
X128996D01*
Y405749D01*
X131162Y406832D01*
X132245D01*
X133328Y405749D01*
Y403583D01*
X132245Y402500D01*
X130079D01*
X128996Y403583D01*
X157500Y396498D02*
Y391083D01*
X158583Y390000D01*
X160749D01*
X161832Y391083D01*
Y396498D01*
X168330D02*
X166164Y395415D01*
X163998Y393249D01*
Y391083D01*
X165081Y390000D01*
X167247D01*
X168330Y391083D01*
Y392166D01*
X167247Y393249D01*
X163998D01*
X452000Y260498D02*
Y254000D01*
X455249D01*
X456332Y255083D01*
Y259415D01*
X455249Y260498D01*
X452000D01*
X458498Y254000D02*
X460664D01*
X459581D01*
Y260498D01*
X458498Y259415D01*
X102000Y270000D02*
X95502D01*
Y273249D01*
X96585Y274332D01*
X98751D01*
X99834Y273249D01*
Y270000D01*
Y272166D02*
X102000Y274332D01*
X95502Y280830D02*
X96585Y278664D01*
X98751Y276498D01*
X100917D01*
X102000Y277581D01*
Y279747D01*
X100917Y280830D01*
X99834D01*
X98751Y279747D01*
Y276498D01*
X102000Y282996D02*
Y285162D01*
Y284079D01*
X95502D01*
X96585Y282996D01*
X319000Y225498D02*
Y220083D01*
X320083Y219000D01*
X322249D01*
X323332Y220083D01*
Y225498D01*
X325498Y219000D02*
X327664D01*
X326581D01*
Y225498D01*
X325498Y224415D01*
X330913D02*
X331996Y225498D01*
X334162D01*
X335245Y224415D01*
Y220083D01*
X334162Y219000D01*
X331996D01*
X330913Y220083D01*
Y224415D01*
X173000Y108498D02*
Y102000D01*
X176249D01*
X177332Y103083D01*
Y107415D01*
X176249Y108498D01*
X173000D01*
X182747Y102000D02*
Y108498D01*
X179498Y105249D01*
X183830D01*
X482498Y143668D02*
Y148000D01*
X479249D01*
Y145834D01*
Y148000D01*
X476000D01*
X482498Y141502D02*
X476000D01*
Y138253D01*
X477083Y137170D01*
X478166D01*
X479249Y138253D01*
Y141502D01*
Y138253D01*
X480332Y137170D01*
X481415D01*
X482498Y138253D01*
Y141502D01*
X476000Y130672D02*
Y135004D01*
X480332Y130672D01*
X481415D01*
X482498Y131755D01*
Y133921D01*
X481415Y135004D01*
X440498Y268000D02*
X435083D01*
X434000Y266917D01*
Y264751D01*
X435083Y263668D01*
X440498D01*
X434000Y257170D02*
Y261502D01*
X438332Y257170D01*
X439415D01*
X440498Y258253D01*
Y260419D01*
X439415Y261502D01*
X434000Y250672D02*
Y255004D01*
X438332Y250672D01*
X439415D01*
X440498Y251755D01*
Y253921D01*
X439415Y255004D01*
X57500Y203998D02*
Y198583D01*
X58583Y197500D01*
X60749D01*
X61832Y198583D01*
Y203998D01*
X63998Y197500D02*
X66164D01*
X65081D01*
Y203998D01*
X63998Y202915D01*
X69413Y198583D02*
X70496Y197500D01*
X72662D01*
X73745Y198583D01*
Y202915D01*
X72662Y203998D01*
X70496D01*
X69413Y202915D01*
Y201832D01*
X70496Y200749D01*
X73745D01*
X51002Y235000D02*
X56417D01*
X57500Y236083D01*
Y238249D01*
X56417Y239332D01*
X51002D01*
X57500Y241498D02*
Y243664D01*
Y242581D01*
X51002D01*
X52085Y241498D01*
Y246913D02*
X51002Y247996D01*
Y250162D01*
X52085Y251245D01*
X53168D01*
X54251Y250162D01*
X55334Y251245D01*
X56417D01*
X57500Y250162D01*
Y247996D01*
X56417Y246913D01*
X55334D01*
X54251Y247996D01*
X53168Y246913D01*
X52085D01*
X54251Y247996D02*
Y250162D01*
X3502Y222500D02*
Y226832D01*
Y224666D01*
X10000D01*
Y228998D02*
X3502D01*
Y232247D01*
X4585Y233330D01*
X6751D01*
X7834Y232247D01*
Y228998D01*
X10000Y235496D02*
Y237662D01*
Y236579D01*
X3502D01*
X4585Y235496D01*
X10000Y240911D02*
Y243077D01*
Y241994D01*
X3502D01*
X4585Y240911D01*
X157500Y1077248D02*
X161832D01*
X159666D01*
Y1070750D01*
X163998D02*
Y1077248D01*
X167247D01*
X168330Y1076165D01*
Y1073999D01*
X167247Y1072916D01*
X163998D01*
X170496Y1070750D02*
X172662D01*
X171579D01*
Y1077248D01*
X170496Y1076165D01*
X175911D02*
X176994Y1077248D01*
X179160D01*
X180243Y1076165D01*
Y1071833D01*
X179160Y1070750D01*
X176994D01*
X175911Y1071833D01*
Y1076165D01*
X6502Y1051000D02*
Y1055332D01*
Y1053166D01*
X13000D01*
Y1057498D02*
X6502D01*
Y1060747D01*
X7585Y1061830D01*
X9751D01*
X10834Y1060747D01*
Y1057498D01*
X11917Y1063996D02*
X13000Y1065079D01*
Y1067245D01*
X11917Y1068328D01*
X7585D01*
X6502Y1067245D01*
Y1065079D01*
X7585Y1063996D01*
X8668D01*
X9751Y1065079D01*
Y1068328D01*
X336832Y15415D02*
X335749Y16498D01*
X333583D01*
X332500Y15415D01*
Y14332D01*
X333583Y13249D01*
X335749D01*
X336832Y12166D01*
Y11083D01*
X335749Y10000D01*
X333583D01*
X332500Y11083D01*
X338998Y10000D02*
X341164D01*
X340081D01*
Y16498D01*
X338998Y15415D01*
X468000Y57000D02*
Y63498D01*
X471249D01*
X472332Y62415D01*
Y60249D01*
X471249Y59166D01*
X468000D01*
X470166D02*
X472332Y57000D01*
X478830Y63498D02*
X476664Y62415D01*
X474498Y60249D01*
Y58083D01*
X475581Y57000D01*
X477747D01*
X478830Y58083D01*
Y59166D01*
X477747Y60249D01*
X474498D01*
X485328Y63498D02*
X480996D01*
Y60249D01*
X483162Y61332D01*
X484245D01*
X485328Y60249D01*
Y58083D01*
X484245Y57000D01*
X482079D01*
X480996Y58083D01*
X469000Y48000D02*
Y54498D01*
X472249D01*
X473332Y53415D01*
Y51249D01*
X472249Y50166D01*
X469000D01*
X471166D02*
X473332Y48000D01*
X479830Y54498D02*
X477664Y53415D01*
X475498Y51249D01*
Y49083D01*
X476581Y48000D01*
X478747D01*
X479830Y49083D01*
Y50166D01*
X478747Y51249D01*
X475498D01*
X481996Y53415D02*
X483079Y54498D01*
X485245D01*
X486328Y53415D01*
Y52332D01*
X485245Y51249D01*
X484162D01*
X485245D01*
X486328Y50166D01*
Y49083D01*
X485245Y48000D01*
X483079D01*
X481996Y49083D01*
X81000Y292000D02*
X74502D01*
Y295249D01*
X75585Y296332D01*
X77751D01*
X78834Y295249D01*
Y292000D01*
Y294166D02*
X81000Y296332D01*
X74502Y302830D02*
Y298498D01*
X77751D01*
X76668Y300664D01*
Y301747D01*
X77751Y302830D01*
X79917D01*
X81000Y301747D01*
Y299581D01*
X79917Y298498D01*
Y304996D02*
X81000Y306079D01*
Y308245D01*
X79917Y309328D01*
X75585D01*
X74502Y308245D01*
Y306079D01*
X75585Y304996D01*
X76668D01*
X77751Y306079D01*
Y309328D01*
X37500Y115000D02*
X43998D01*
Y111751D01*
X42915Y110668D01*
X40749D01*
X39666Y111751D01*
Y115000D01*
Y112834D02*
X37500Y110668D01*
X43998Y104170D02*
Y108502D01*
X40749D01*
X41832Y106336D01*
Y105253D01*
X40749Y104170D01*
X38583D01*
X37500Y105253D01*
Y107419D01*
X38583Y108502D01*
X42915Y102004D02*
X43998Y100921D01*
Y98755D01*
X42915Y97672D01*
X41832D01*
X40749Y98755D01*
X39666Y97672D01*
X38583D01*
X37500Y98755D01*
Y100921D01*
X38583Y102004D01*
X39666D01*
X40749Y100921D01*
X41832Y102004D01*
X42915D01*
X40749Y100921D02*
Y98755D01*
X340000Y1084000D02*
X333502D01*
Y1087249D01*
X334585Y1088332D01*
X336751D01*
X337834Y1087249D01*
Y1084000D01*
Y1086166D02*
X340000Y1088332D01*
Y1093747D02*
X333502D01*
X336751Y1090498D01*
Y1094830D01*
X333502Y1101328D02*
X334585Y1099162D01*
X336751Y1096996D01*
X338917D01*
X340000Y1098079D01*
Y1100245D01*
X338917Y1101328D01*
X337834D01*
X336751Y1100245D01*
Y1096996D01*
X350250Y1142750D02*
X343752D01*
Y1145999D01*
X344835Y1147082D01*
X347001D01*
X348084Y1145999D01*
Y1142750D01*
Y1144916D02*
X350250Y1147082D01*
Y1152497D02*
X343752D01*
X347001Y1149248D01*
Y1153580D01*
X343752Y1160078D02*
Y1155746D01*
X347001D01*
X345918Y1157912D01*
Y1158995D01*
X347001Y1160078D01*
X349167D01*
X350250Y1158995D01*
Y1156829D01*
X349167Y1155746D01*
X134000Y1028000D02*
Y1034498D01*
X137249D01*
X138332Y1033415D01*
Y1031249D01*
X137249Y1030166D01*
X134000D01*
X136166D02*
X138332Y1028000D01*
X143747D02*
Y1034498D01*
X140498Y1031249D01*
X144830D01*
X150245Y1028000D02*
Y1034498D01*
X146996Y1031249D01*
X151328D01*
X167000Y1051000D02*
X160502D01*
Y1054249D01*
X161585Y1055332D01*
X163751D01*
X164834Y1054249D01*
Y1051000D01*
Y1053166D02*
X167000Y1055332D01*
Y1060747D02*
X160502D01*
X163751Y1057498D01*
Y1061830D01*
X161585Y1063996D02*
X160502Y1065079D01*
Y1067245D01*
X161585Y1068328D01*
X162668D01*
X163751Y1067245D01*
Y1066162D01*
Y1067245D01*
X164834Y1068328D01*
X165917D01*
X167000Y1067245D01*
Y1065079D01*
X165917Y1063996D01*
X51000Y1086000D02*
Y1092498D01*
X54249D01*
X55332Y1091415D01*
Y1089249D01*
X54249Y1088166D01*
X51000D01*
X53166D02*
X55332Y1086000D01*
X60747D02*
Y1092498D01*
X57498Y1089249D01*
X61830D01*
X68328Y1086000D02*
X63996D01*
X68328Y1090332D01*
Y1091415D01*
X67245Y1092498D01*
X65079D01*
X63996Y1091415D01*
X97500Y258998D02*
Y252500D01*
X101832D01*
X108330Y258998D02*
X103998D01*
Y255749D01*
X106164Y256832D01*
X107247D01*
X108330Y255749D01*
Y253583D01*
X107247Y252500D01*
X105081D01*
X103998Y253583D01*
X54332Y942498D02*
X52166D01*
X53249D01*
Y937083D01*
X52166Y936000D01*
X51083D01*
X50000Y937083D01*
X56498Y936000D02*
X58664D01*
X57581D01*
Y942498D01*
X56498Y941415D01*
X66245Y942498D02*
X64079Y941415D01*
X61913Y939249D01*
Y937083D01*
X62996Y936000D01*
X65162D01*
X66245Y937083D01*
Y938166D01*
X65162Y939249D01*
X61913D01*
X472832Y1193498D02*
X470666D01*
X471749D01*
Y1188083D01*
X470666Y1187000D01*
X469583D01*
X468500Y1188083D01*
X474998Y1187000D02*
X477164D01*
X476081D01*
Y1193498D01*
X474998Y1192415D01*
X484745Y1193498D02*
X480413D01*
Y1190249D01*
X482579Y1191332D01*
X483662D01*
X484745Y1190249D01*
Y1188083D01*
X483662Y1187000D01*
X481496D01*
X480413Y1188083D01*
X415332Y50415D02*
X414249Y51498D01*
X412083D01*
X411000Y50415D01*
Y46083D01*
X412083Y45000D01*
X414249D01*
X415332Y46083D01*
X417498Y45000D02*
X419664D01*
X418581D01*
Y51498D01*
X417498Y50415D01*
X422913Y45000D02*
X425079D01*
X423996D01*
Y51498D01*
X422913Y50415D01*
X432660Y51498D02*
X428328D01*
Y48249D01*
X430494Y49332D01*
X431577D01*
X432660Y48249D01*
Y46083D01*
X431577Y45000D01*
X429411D01*
X428328Y46083D01*
X471665Y117918D02*
X472748Y119001D01*
Y121167D01*
X471665Y122250D01*
X467333D01*
X466250Y121167D01*
Y119001D01*
X467333Y117918D01*
X466250Y115752D02*
Y113586D01*
Y114669D01*
X472748D01*
X471665Y115752D01*
X466250Y110337D02*
Y108171D01*
Y109254D01*
X472748D01*
X471665Y110337D01*
X466250Y101673D02*
X472748D01*
X469499Y104922D01*
Y100590D01*
X494165Y57418D02*
X495248Y58501D01*
Y60667D01*
X494165Y61750D01*
X489833D01*
X488750Y60667D01*
Y58501D01*
X489833Y57418D01*
X488750Y55252D02*
Y53086D01*
Y54169D01*
X495248D01*
X494165Y55252D01*
X488750Y49837D02*
Y47671D01*
Y48754D01*
X495248D01*
X494165Y49837D01*
Y44422D02*
X495248Y43339D01*
Y41173D01*
X494165Y40090D01*
X493082D01*
X491999Y41173D01*
Y42256D01*
Y41173D01*
X490916Y40090D01*
X489833D01*
X488750Y41173D01*
Y43339D01*
X489833Y44422D01*
X349582Y113415D02*
X348499Y114498D01*
X346333D01*
X345250Y113415D01*
Y109083D01*
X346333Y108000D01*
X348499D01*
X349582Y109083D01*
X351748Y108000D02*
X353914D01*
X352831D01*
Y114498D01*
X351748Y113415D01*
X357163Y108000D02*
X359329D01*
X358246D01*
Y114498D01*
X357163Y113415D01*
X362578D02*
X363661Y114498D01*
X365827D01*
X366910Y113415D01*
Y109083D01*
X365827Y108000D01*
X363661D01*
X362578Y109083D01*
Y113415D01*
X370332Y44415D02*
X369249Y45498D01*
X367083D01*
X366000Y44415D01*
Y40083D01*
X367083Y39000D01*
X369249D01*
X370332Y40083D01*
X372498Y39000D02*
X374664D01*
X373581D01*
Y45498D01*
X372498Y44415D01*
X377913D02*
X378996Y45498D01*
X381162D01*
X382245Y44415D01*
Y40083D01*
X381162Y39000D01*
X378996D01*
X377913Y40083D01*
Y44415D01*
X384411Y40083D02*
X385494Y39000D01*
X387660D01*
X388743Y40083D01*
Y44415D01*
X387660Y45498D01*
X385494D01*
X384411Y44415D01*
Y43332D01*
X385494Y42249D01*
X388743D01*
X389332Y300415D02*
X388249Y301498D01*
X386083D01*
X385000Y300415D01*
Y296083D01*
X386083Y295000D01*
X388249D01*
X389332Y296083D01*
X391498Y295000D02*
X393664D01*
X392581D01*
Y301498D01*
X391498Y300415D01*
X396913D02*
X397996Y301498D01*
X400162D01*
X401245Y300415D01*
Y296083D01*
X400162Y295000D01*
X397996D01*
X396913Y296083D01*
Y300415D01*
X403411D02*
X404494Y301498D01*
X406660D01*
X407743Y300415D01*
Y299332D01*
X406660Y298249D01*
X407743Y297166D01*
Y296083D01*
X406660Y295000D01*
X404494D01*
X403411Y296083D01*
Y297166D01*
X404494Y298249D01*
X403411Y299332D01*
Y300415D01*
X404494Y298249D02*
X406660D01*
X378082Y226165D02*
X376999Y227248D01*
X374833D01*
X373750Y226165D01*
Y221833D01*
X374833Y220750D01*
X376999D01*
X378082Y221833D01*
X380248Y220750D02*
X382414D01*
X381331D01*
Y227248D01*
X380248Y226165D01*
X385663D02*
X386746Y227248D01*
X388912D01*
X389995Y226165D01*
Y221833D01*
X388912Y220750D01*
X386746D01*
X385663Y221833D01*
Y226165D01*
X392161Y227248D02*
X396493D01*
Y226165D01*
X392161Y221833D01*
Y220750D01*
X107585Y173332D02*
X106502Y172249D01*
Y170083D01*
X107585Y169000D01*
X111917D01*
X113000Y170083D01*
Y172249D01*
X111917Y173332D01*
X113000Y175498D02*
Y177664D01*
Y176581D01*
X106502D01*
X107585Y175498D01*
Y180913D02*
X106502Y181996D01*
Y184162D01*
X107585Y185245D01*
X111917D01*
X113000Y184162D01*
Y181996D01*
X111917Y180913D01*
X107585D01*
X106502Y191743D02*
Y187411D01*
X109751D01*
X108668Y189577D01*
Y190660D01*
X109751Y191743D01*
X111917D01*
X113000Y190660D01*
Y188494D01*
X111917Y187411D01*
X22585Y315332D02*
X21502Y314249D01*
Y312083D01*
X22585Y311000D01*
X26917D01*
X28000Y312083D01*
Y314249D01*
X26917Y315332D01*
X28000Y317498D02*
Y319664D01*
Y318581D01*
X21502D01*
X22585Y317498D01*
Y322913D02*
X21502Y323996D01*
Y326162D01*
X22585Y327245D01*
X26917D01*
X28000Y326162D01*
Y323996D01*
X26917Y322913D01*
X22585D01*
X28000Y332660D02*
X21502D01*
X24751Y329411D01*
Y333743D01*
X41332Y271415D02*
X40249Y272498D01*
X38083D01*
X37000Y271415D01*
Y267083D01*
X38083Y266000D01*
X40249D01*
X41332Y267083D01*
X43498Y266000D02*
X45664D01*
X44581D01*
Y272498D01*
X43498Y271415D01*
X48913D02*
X49996Y272498D01*
X52162D01*
X53245Y271415D01*
Y267083D01*
X52162Y266000D01*
X49996D01*
X48913Y267083D01*
Y271415D01*
X55411D02*
X56494Y272498D01*
X58660D01*
X59743Y271415D01*
Y270332D01*
X58660Y269249D01*
X57577D01*
X58660D01*
X59743Y268166D01*
Y267083D01*
X58660Y266000D01*
X56494D01*
X55411Y267083D01*
X46332Y321415D02*
X45249Y322498D01*
X43083D01*
X42000Y321415D01*
Y317083D01*
X43083Y316000D01*
X45249D01*
X46332Y317083D01*
X48498Y316000D02*
X50664D01*
X49581D01*
Y322498D01*
X48498Y321415D01*
X53913D02*
X54996Y322498D01*
X57162D01*
X58245Y321415D01*
Y317083D01*
X57162Y316000D01*
X54996D01*
X53913Y317083D01*
Y321415D01*
X64743Y316000D02*
X60411D01*
X64743Y320332D01*
Y321415D01*
X63660Y322498D01*
X61494D01*
X60411Y321415D01*
X72415Y112668D02*
X73498Y113751D01*
Y115917D01*
X72415Y117000D01*
X68083D01*
X67000Y115917D01*
Y113751D01*
X68083Y112668D01*
X67000Y110502D02*
Y108336D01*
Y109419D01*
X73498D01*
X72415Y110502D01*
Y105087D02*
X73498Y104004D01*
Y101838D01*
X72415Y100755D01*
X68083D01*
X67000Y101838D01*
Y104004D01*
X68083Y105087D01*
X72415D01*
X67000Y98589D02*
Y96423D01*
Y97506D01*
X73498D01*
X72415Y98589D01*
X110332Y153415D02*
X109249Y154498D01*
X107083D01*
X106000Y153415D01*
Y149083D01*
X107083Y148000D01*
X109249D01*
X110332Y149083D01*
X112498Y148000D02*
X114664D01*
X113581D01*
Y154498D01*
X112498Y153415D01*
X117913D02*
X118996Y154498D01*
X121162D01*
X122245Y153415D01*
Y149083D01*
X121162Y148000D01*
X118996D01*
X117913Y149083D01*
Y153415D01*
X124411D02*
X125494Y154498D01*
X127660D01*
X128743Y153415D01*
Y149083D01*
X127660Y148000D01*
X125494D01*
X124411Y149083D01*
Y153415D01*
X111832Y117915D02*
X110749Y118998D01*
X108583D01*
X107500Y117915D01*
Y113583D01*
X108583Y112500D01*
X110749D01*
X111832Y113583D01*
X113998D02*
X115081Y112500D01*
X117247D01*
X118330Y113583D01*
Y117915D01*
X117247Y118998D01*
X115081D01*
X113998Y117915D01*
Y116832D01*
X115081Y115749D01*
X118330D01*
X120496Y113583D02*
X121579Y112500D01*
X123745D01*
X124828Y113583D01*
Y117915D01*
X123745Y118998D01*
X121579D01*
X120496Y117915D01*
Y116832D01*
X121579Y115749D01*
X124828D01*
X7332Y216415D02*
X6249Y217498D01*
X4083D01*
X3000Y216415D01*
Y212083D01*
X4083Y211000D01*
X6249D01*
X7332Y212083D01*
X9498D02*
X10581Y211000D01*
X12747D01*
X13830Y212083D01*
Y216415D01*
X12747Y217498D01*
X10581D01*
X9498Y216415D01*
Y215332D01*
X10581Y214249D01*
X13830D01*
X20328Y211000D02*
X15996D01*
X20328Y215332D01*
Y216415D01*
X19245Y217498D01*
X17079D01*
X15996Y216415D01*
X12415Y162668D02*
X13498Y163751D01*
Y165917D01*
X12415Y167000D01*
X8083D01*
X7000Y165917D01*
Y163751D01*
X8083Y162668D01*
Y160502D02*
X7000Y159419D01*
Y157253D01*
X8083Y156170D01*
X12415D01*
X13498Y157253D01*
Y159419D01*
X12415Y160502D01*
X11332D01*
X10249Y159419D01*
Y156170D01*
X7000Y154004D02*
Y151838D01*
Y152921D01*
X13498D01*
X12415Y154004D01*
X117585Y1035332D02*
X116502Y1034249D01*
Y1032083D01*
X117585Y1031000D01*
X121917D01*
X123000Y1032083D01*
Y1034249D01*
X121917Y1035332D01*
X117585Y1037498D02*
X116502Y1038581D01*
Y1040747D01*
X117585Y1041830D01*
X118668D01*
X119751Y1040747D01*
X120834Y1041830D01*
X121917D01*
X123000Y1040747D01*
Y1038581D01*
X121917Y1037498D01*
X120834D01*
X119751Y1038581D01*
X118668Y1037498D01*
X117585D01*
X119751Y1038581D02*
Y1040747D01*
X121917Y1043996D02*
X123000Y1045079D01*
Y1047245D01*
X121917Y1048328D01*
X117585D01*
X116502Y1047245D01*
Y1045079D01*
X117585Y1043996D01*
X118668D01*
X119751Y1045079D01*
Y1048328D01*
X79332Y1048415D02*
X78249Y1049498D01*
X76083D01*
X75000Y1048415D01*
Y1044083D01*
X76083Y1043000D01*
X78249D01*
X79332Y1044083D01*
X81498Y1048415D02*
X82581Y1049498D01*
X84747D01*
X85830Y1048415D01*
Y1047332D01*
X84747Y1046249D01*
X85830Y1045166D01*
Y1044083D01*
X84747Y1043000D01*
X82581D01*
X81498Y1044083D01*
Y1045166D01*
X82581Y1046249D01*
X81498Y1047332D01*
Y1048415D01*
X82581Y1046249D02*
X84747D01*
X87996Y1048415D02*
X89079Y1049498D01*
X91245D01*
X92328Y1048415D01*
Y1047332D01*
X91245Y1046249D01*
X92328Y1045166D01*
Y1044083D01*
X91245Y1043000D01*
X89079D01*
X87996Y1044083D01*
Y1045166D01*
X89079Y1046249D01*
X87996Y1047332D01*
Y1048415D01*
X89079Y1046249D02*
X91245D01*
X97250Y1048248D02*
Y1042833D01*
X98333Y1041750D01*
X100499D01*
X101582Y1042833D01*
Y1048248D01*
X103748Y1041750D02*
X105914D01*
X104831D01*
Y1048248D01*
X103748Y1047165D01*
X109163Y1041750D02*
X111329D01*
X110246D01*
Y1048248D01*
X109163Y1047165D01*
X386850Y714198D02*
Y708783D01*
X387933Y707700D01*
X390099D01*
X391182Y708783D01*
Y714198D01*
X393348Y707700D02*
X395514D01*
X394431D01*
Y714198D01*
X393348Y713115D01*
X403095Y714198D02*
X398763D01*
Y710949D01*
X400929Y712032D01*
X402012D01*
X403095Y710949D01*
Y708783D01*
X402012Y707700D01*
X399846D01*
X398763Y708783D01*
X196832Y463765D02*
X195749Y464848D01*
X193583D01*
X192500Y463765D01*
Y459433D01*
X193583Y458350D01*
X195749D01*
X196832Y459433D01*
X198998Y458350D02*
X201164D01*
X200081D01*
Y464848D01*
X198998Y463765D01*
X273332Y577415D02*
X272249Y578498D01*
X270083D01*
X269000Y577415D01*
Y573083D01*
X270083Y572000D01*
X272249D01*
X273332Y573083D01*
X279830Y572000D02*
X275498D01*
X279830Y576332D01*
Y577415D01*
X278747Y578498D01*
X276581D01*
X275498Y577415D01*
X195832Y447765D02*
X194749Y448848D01*
X192583D01*
X191500Y447765D01*
Y443433D01*
X192583Y442350D01*
X194749D01*
X195832Y443433D01*
X197998Y447765D02*
X199081Y448848D01*
X201247D01*
X202330Y447765D01*
Y446682D01*
X201247Y445599D01*
X200164D01*
X201247D01*
X202330Y444516D01*
Y443433D01*
X201247Y442350D01*
X199081D01*
X197998Y443433D01*
X260835Y533332D02*
X259752Y532249D01*
Y530083D01*
X260835Y529000D01*
X265167D01*
X266250Y530083D01*
Y532249D01*
X265167Y533332D01*
X266250Y538747D02*
X259752D01*
X263001Y535498D01*
Y539830D01*
X300585Y509332D02*
X299502Y508249D01*
Y506083D01*
X300585Y505000D01*
X304917D01*
X306000Y506083D01*
Y508249D01*
X304917Y509332D01*
X299502Y515830D02*
Y511498D01*
X302751D01*
X301668Y513664D01*
Y514747D01*
X302751Y515830D01*
X304917D01*
X306000Y514747D01*
Y512581D01*
X304917Y511498D01*
X331332Y449415D02*
X330249Y450498D01*
X328083D01*
X327000Y449415D01*
Y445083D01*
X328083Y444000D01*
X330249D01*
X331332Y445083D01*
X337830Y450498D02*
X335664Y449415D01*
X333498Y447249D01*
Y445083D01*
X334581Y444000D01*
X336747D01*
X337830Y445083D01*
Y446166D01*
X336747Y447249D01*
X333498D01*
X262585Y444332D02*
X261502Y443249D01*
Y441083D01*
X262585Y440000D01*
X266917D01*
X268000Y441083D01*
Y443249D01*
X266917Y444332D01*
X261502Y446498D02*
Y450830D01*
X262585D01*
X266917Y446498D01*
X268000D01*
X249585Y546332D02*
X248502Y545249D01*
Y543083D01*
X249585Y542000D01*
X253917D01*
X255000Y543083D01*
Y545249D01*
X253917Y546332D01*
X249585Y548498D02*
X248502Y549581D01*
Y551747D01*
X249585Y552830D01*
X250668D01*
X251751Y551747D01*
X252834Y552830D01*
X253917D01*
X255000Y551747D01*
Y549581D01*
X253917Y548498D01*
X252834D01*
X251751Y549581D01*
X250668Y548498D01*
X249585D01*
X251751Y549581D02*
Y551747D01*
X188332Y524415D02*
X187249Y525498D01*
X185083D01*
X184000Y524415D01*
Y520083D01*
X185083Y519000D01*
X187249D01*
X188332Y520083D01*
X190498D02*
X191581Y519000D01*
X193747D01*
X194830Y520083D01*
Y524415D01*
X193747Y525498D01*
X191581D01*
X190498Y524415D01*
Y523332D01*
X191581Y522249D01*
X194830D01*
X233585Y545332D02*
X232502Y544249D01*
Y542083D01*
X233585Y541000D01*
X237917D01*
X239000Y542083D01*
Y544249D01*
X237917Y545332D01*
X239000Y547498D02*
Y549664D01*
Y548581D01*
X232502D01*
X233585Y547498D01*
Y552913D02*
X232502Y553996D01*
Y556162D01*
X233585Y557245D01*
X237917D01*
X239000Y556162D01*
Y553996D01*
X237917Y552913D01*
X233585D01*
X108585Y537332D02*
X107502Y536249D01*
Y534083D01*
X108585Y533000D01*
X112917D01*
X114000Y534083D01*
Y536249D01*
X112917Y537332D01*
X114000Y539498D02*
Y541664D01*
Y540581D01*
X107502D01*
X108585Y539498D01*
X114000Y544913D02*
Y547079D01*
Y545996D01*
X107502D01*
X108585Y544913D01*
X134332Y519415D02*
X133249Y520498D01*
X131083D01*
X130000Y519415D01*
Y515083D01*
X131083Y514000D01*
X133249D01*
X134332Y515083D01*
X136498Y514000D02*
X138664D01*
X137581D01*
Y520498D01*
X136498Y519415D01*
X146245Y514000D02*
X141913D01*
X146245Y518332D01*
Y519415D01*
X145162Y520498D01*
X142996D01*
X141913Y519415D01*
X369082Y1032415D02*
X367999Y1033498D01*
X365833D01*
X364750Y1032415D01*
Y1028083D01*
X365833Y1027000D01*
X367999D01*
X369082Y1028083D01*
X371248Y1027000D02*
X373414D01*
X372331D01*
Y1033498D01*
X371248Y1032415D01*
X376663D02*
X377746Y1033498D01*
X379912D01*
X380995Y1032415D01*
Y1031332D01*
X379912Y1030249D01*
X378829D01*
X379912D01*
X380995Y1029166D01*
Y1028083D01*
X379912Y1027000D01*
X377746D01*
X376663Y1028083D01*
X324832Y977415D02*
X323749Y978498D01*
X321583D01*
X320500Y977415D01*
Y973083D01*
X321583Y972000D01*
X323749D01*
X324832Y973083D01*
X326998Y972000D02*
X329164D01*
X328081D01*
Y978498D01*
X326998Y977415D01*
X335662Y972000D02*
Y978498D01*
X332413Y975249D01*
X336745D01*
X381082Y999165D02*
X379999Y1000248D01*
X377833D01*
X376750Y999165D01*
Y994833D01*
X377833Y993750D01*
X379999D01*
X381082Y994833D01*
X383248Y993750D02*
X385414D01*
X384331D01*
Y1000248D01*
X383248Y999165D01*
X392995Y1000248D02*
X388663D01*
Y996999D01*
X390829Y998082D01*
X391912D01*
X392995Y996999D01*
Y994833D01*
X391912Y993750D01*
X389746D01*
X388663Y994833D01*
X178332Y1153415D02*
X177249Y1154498D01*
X175083D01*
X174000Y1153415D01*
Y1149083D01*
X175083Y1148000D01*
X177249D01*
X178332Y1149083D01*
X180498Y1148000D02*
X182664D01*
X181581D01*
Y1154498D01*
X180498Y1153415D01*
X190245Y1154498D02*
X188079Y1153415D01*
X185913Y1151249D01*
Y1149083D01*
X186996Y1148000D01*
X189162D01*
X190245Y1149083D01*
Y1150166D01*
X189162Y1151249D01*
X185913D01*
X277332Y1132415D02*
X276249Y1133498D01*
X274083D01*
X273000Y1132415D01*
Y1128083D01*
X274083Y1127000D01*
X276249D01*
X277332Y1128083D01*
X279498Y1127000D02*
X281664D01*
X280581D01*
Y1133498D01*
X279498Y1132415D01*
X284913Y1133498D02*
X289245D01*
Y1132415D01*
X284913Y1128083D01*
Y1127000D01*
X173832Y1191165D02*
X172749Y1192248D01*
X170583D01*
X169500Y1191165D01*
Y1186833D01*
X170583Y1185750D01*
X172749D01*
X173832Y1186833D01*
X175998Y1185750D02*
X178164D01*
X177081D01*
Y1192248D01*
X175998Y1191165D01*
X181413D02*
X182496Y1192248D01*
X184662D01*
X185745Y1191165D01*
Y1190082D01*
X184662Y1188999D01*
X185745Y1187916D01*
Y1186833D01*
X184662Y1185750D01*
X182496D01*
X181413Y1186833D01*
Y1187916D01*
X182496Y1188999D01*
X181413Y1190082D01*
Y1191165D01*
X182496Y1188999D02*
X184662D01*
X320835Y1148082D02*
X319752Y1146999D01*
Y1144833D01*
X320835Y1143750D01*
X325167D01*
X326250Y1144833D01*
Y1146999D01*
X325167Y1148082D01*
X326250Y1150248D02*
Y1152414D01*
Y1151331D01*
X319752D01*
X320835Y1150248D01*
X325167Y1155663D02*
X326250Y1156746D01*
Y1158912D01*
X325167Y1159995D01*
X320835D01*
X319752Y1158912D01*
Y1156746D01*
X320835Y1155663D01*
X321918D01*
X323001Y1156746D01*
Y1159995D01*
X333835Y1147082D02*
X332752Y1145999D01*
Y1143833D01*
X333835Y1142750D01*
X338167D01*
X339250Y1143833D01*
Y1145999D01*
X338167Y1147082D01*
X339250Y1153580D02*
Y1149248D01*
X334918Y1153580D01*
X333835D01*
X332752Y1152497D01*
Y1150331D01*
X333835Y1149248D01*
Y1155746D02*
X332752Y1156829D01*
Y1158995D01*
X333835Y1160078D01*
X338167D01*
X339250Y1158995D01*
Y1156829D01*
X338167Y1155746D01*
X333835D01*
X361332Y362415D02*
X360249Y363498D01*
X358083D01*
X357000Y362415D01*
Y358083D01*
X358083Y357000D01*
X360249D01*
X361332Y358083D01*
X367830Y357000D02*
X363498D01*
X367830Y361332D01*
Y362415D01*
X366747Y363498D01*
X364581D01*
X363498Y362415D01*
X374328Y363498D02*
X369996D01*
Y360249D01*
X372162Y361332D01*
X373245D01*
X374328Y360249D01*
Y358083D01*
X373245Y357000D01*
X371079D01*
X369996Y358083D01*
X369332Y283415D02*
X368249Y284498D01*
X366083D01*
X365000Y283415D01*
Y279083D01*
X366083Y278000D01*
X368249D01*
X369332Y279083D01*
X375830Y278000D02*
X371498D01*
X375830Y282332D01*
Y283415D01*
X374747Y284498D01*
X372581D01*
X371498Y283415D01*
X382328Y284498D02*
X380162Y283415D01*
X377996Y281249D01*
Y279083D01*
X379079Y278000D01*
X381245D01*
X382328Y279083D01*
Y280166D01*
X381245Y281249D01*
X377996D01*
X361332Y352415D02*
X360249Y353498D01*
X358083D01*
X357000Y352415D01*
Y348083D01*
X358083Y347000D01*
X360249D01*
X361332Y348083D01*
X367830Y347000D02*
X363498D01*
X367830Y351332D01*
Y352415D01*
X366747Y353498D01*
X364581D01*
X363498Y352415D01*
X369996Y353498D02*
X374328D01*
Y352415D01*
X369996Y348083D01*
Y347000D01*
X345332Y248165D02*
X344249Y249248D01*
X342083D01*
X341000Y248165D01*
Y243833D01*
X342083Y242750D01*
X344249D01*
X345332Y243833D01*
X351830Y242750D02*
X347498D01*
X351830Y247082D01*
Y248165D01*
X350747Y249248D01*
X348581D01*
X347498Y248165D01*
X353996Y243833D02*
X355079Y242750D01*
X357245D01*
X358328Y243833D01*
Y248165D01*
X357245Y249248D01*
X355079D01*
X353996Y248165D01*
Y247082D01*
X355079Y245999D01*
X358328D01*
X394585Y321332D02*
X393502Y320249D01*
Y318083D01*
X394585Y317000D01*
X398917D01*
X400000Y318083D01*
Y320249D01*
X398917Y321332D01*
X394585Y323498D02*
X393502Y324581D01*
Y326747D01*
X394585Y327830D01*
X395668D01*
X396751Y326747D01*
Y325664D01*
Y326747D01*
X397834Y327830D01*
X398917D01*
X400000Y326747D01*
Y324581D01*
X398917Y323498D01*
X394585Y329996D02*
X393502Y331079D01*
Y333245D01*
X394585Y334328D01*
X398917D01*
X400000Y333245D01*
Y331079D01*
X398917Y329996D01*
X394585D01*
X369332Y296415D02*
X368249Y297498D01*
X366083D01*
X365000Y296415D01*
Y292083D01*
X366083Y291000D01*
X368249D01*
X369332Y292083D01*
X371498Y296415D02*
X372581Y297498D01*
X374747D01*
X375830Y296415D01*
Y295332D01*
X374747Y294249D01*
X373664D01*
X374747D01*
X375830Y293166D01*
Y292083D01*
X374747Y291000D01*
X372581D01*
X371498Y292083D01*
X377996Y291000D02*
X380162D01*
X379079D01*
Y297498D01*
X377996Y296415D01*
X332585Y421332D02*
X331502Y420249D01*
Y418083D01*
X332585Y417000D01*
X336917D01*
X338000Y418083D01*
Y420249D01*
X336917Y421332D01*
X332585Y423498D02*
X331502Y424581D01*
Y426747D01*
X332585Y427830D01*
X333668D01*
X334751Y426747D01*
Y425664D01*
Y426747D01*
X335834Y427830D01*
X336917D01*
X338000Y426747D01*
Y424581D01*
X336917Y423498D01*
X338000Y434328D02*
Y429996D01*
X333668Y434328D01*
X332585D01*
X331502Y433245D01*
Y431079D01*
X332585Y429996D01*
X317585Y422332D02*
X316502Y421249D01*
Y419083D01*
X317585Y418000D01*
X321917D01*
X323000Y419083D01*
Y421249D01*
X321917Y422332D01*
X317585Y424498D02*
X316502Y425581D01*
Y427747D01*
X317585Y428830D01*
X318668D01*
X319751Y427747D01*
Y426664D01*
Y427747D01*
X320834Y428830D01*
X321917D01*
X323000Y427747D01*
Y425581D01*
X321917Y424498D01*
X317585Y430996D02*
X316502Y432079D01*
Y434245D01*
X317585Y435328D01*
X318668D01*
X319751Y434245D01*
Y433162D01*
Y434245D01*
X320834Y435328D01*
X321917D01*
X323000Y434245D01*
Y432079D01*
X321917Y430996D01*
X347585Y80332D02*
X346502Y79249D01*
Y77083D01*
X347585Y76000D01*
X351917D01*
X353000Y77083D01*
Y79249D01*
X351917Y80332D01*
X347585Y82498D02*
X346502Y83581D01*
Y85747D01*
X347585Y86830D01*
X348668D01*
X349751Y85747D01*
Y84664D01*
Y85747D01*
X350834Y86830D01*
X351917D01*
X353000Y85747D01*
Y83581D01*
X351917Y82498D01*
X353000Y92245D02*
X346502D01*
X349751Y88996D01*
Y93328D01*
X122332Y420915D02*
X121249Y421998D01*
X119083D01*
X118000Y420915D01*
Y416583D01*
X119083Y415500D01*
X121249D01*
X122332Y416583D01*
X124498Y420915D02*
X125581Y421998D01*
X127747D01*
X128830Y420915D01*
Y419832D01*
X127747Y418749D01*
X126664D01*
X127747D01*
X128830Y417666D01*
Y416583D01*
X127747Y415500D01*
X125581D01*
X124498Y416583D01*
X130996Y421998D02*
X135328D01*
Y420915D01*
X130996Y416583D01*
Y415500D01*
X210415Y100668D02*
X211498Y101751D01*
Y103917D01*
X210415Y105000D01*
X206083D01*
X205000Y103917D01*
Y101751D01*
X206083Y100668D01*
X205000Y95253D02*
X211498D01*
X208249Y98502D01*
Y94170D01*
X205000Y92004D02*
Y89838D01*
Y90921D01*
X211498D01*
X210415Y92004D01*
X115332Y83415D02*
X114249Y84498D01*
X112083D01*
X111000Y83415D01*
Y79083D01*
X112083Y78000D01*
X114249D01*
X115332Y79083D01*
X120747Y78000D02*
Y84498D01*
X117498Y81249D01*
X121830D01*
X128328Y78000D02*
X123996D01*
X128328Y82332D01*
Y83415D01*
X127245Y84498D01*
X125079D01*
X123996Y83415D01*
X117332Y96415D02*
X116249Y97498D01*
X114083D01*
X113000Y96415D01*
Y92083D01*
X114083Y91000D01*
X116249D01*
X117332Y92083D01*
X122747Y91000D02*
Y97498D01*
X119498Y94249D01*
X123830D01*
X125996Y96415D02*
X127079Y97498D01*
X129245D01*
X130328Y96415D01*
Y95332D01*
X129245Y94249D01*
X128162D01*
X129245D01*
X130328Y93166D01*
Y92083D01*
X129245Y91000D01*
X127079D01*
X125996Y92083D01*
X176332Y156415D02*
X175249Y157498D01*
X173083D01*
X172000Y156415D01*
Y152083D01*
X173083Y151000D01*
X175249D01*
X176332Y152083D01*
X181747Y151000D02*
Y157498D01*
X178498Y154249D01*
X182830D01*
X188245Y151000D02*
Y157498D01*
X184996Y154249D01*
X189328D01*
X374165Y209918D02*
X375248Y211001D01*
Y213167D01*
X374165Y214250D01*
X369833D01*
X368750Y213167D01*
Y211001D01*
X369833Y209918D01*
X368750Y204503D02*
X375248D01*
X371999Y207752D01*
Y203420D01*
X375248Y196922D02*
X374165Y199088D01*
X371999Y201254D01*
X369833D01*
X368750Y200171D01*
Y198005D01*
X369833Y196922D01*
X370916D01*
X371999Y198005D01*
Y201254D01*
X130332Y1112415D02*
X129249Y1113498D01*
X127083D01*
X126000Y1112415D01*
Y1108083D01*
X127083Y1107000D01*
X129249D01*
X130332Y1108083D01*
X135747Y1107000D02*
Y1113498D01*
X132498Y1110249D01*
X136830D01*
X138996Y1112415D02*
X140079Y1113498D01*
X142245D01*
X143328Y1112415D01*
Y1111332D01*
X142245Y1110249D01*
X143328Y1109166D01*
Y1108083D01*
X142245Y1107000D01*
X140079D01*
X138996Y1108083D01*
Y1109166D01*
X140079Y1110249D01*
X138996Y1111332D01*
Y1112415D01*
X140079Y1110249D02*
X142245D01*
X56082Y1106415D02*
X54999Y1107498D01*
X52833D01*
X51750Y1106415D01*
Y1102083D01*
X52833Y1101000D01*
X54999D01*
X56082Y1102083D01*
X61497Y1101000D02*
Y1107498D01*
X58248Y1104249D01*
X62580D01*
X64746Y1102083D02*
X65829Y1101000D01*
X67995D01*
X69078Y1102083D01*
Y1106415D01*
X67995Y1107498D01*
X65829D01*
X64746Y1106415D01*
Y1105332D01*
X65829Y1104249D01*
X69078D01*
X161585Y199332D02*
X160502Y198249D01*
Y196083D01*
X161585Y195000D01*
X165917D01*
X167000Y196083D01*
Y198249D01*
X165917Y199332D01*
X160502Y205830D02*
Y201498D01*
X163751D01*
X162668Y203664D01*
Y204747D01*
X163751Y205830D01*
X165917D01*
X167000Y204747D01*
Y202581D01*
X165917Y201498D01*
X167000Y207996D02*
Y210162D01*
Y209079D01*
X160502D01*
X161585Y207996D01*
X358415Y168668D02*
X359498Y169751D01*
Y171917D01*
X358415Y173000D01*
X354083D01*
X353000Y171917D01*
Y169751D01*
X354083Y168668D01*
X359498Y162170D02*
Y166502D01*
X356249D01*
X357332Y164336D01*
Y163253D01*
X356249Y162170D01*
X354083D01*
X353000Y163253D01*
Y165419D01*
X354083Y166502D01*
X358415Y160004D02*
X359498Y158921D01*
Y156755D01*
X358415Y155672D01*
X357332D01*
X356249Y156755D01*
Y157838D01*
Y156755D01*
X355166Y155672D01*
X354083D01*
X353000Y156755D01*
Y158921D01*
X354083Y160004D01*
X284415Y191668D02*
X285498Y192751D01*
Y194917D01*
X284415Y196000D01*
X280083D01*
X279000Y194917D01*
Y192751D01*
X280083Y191668D01*
X285498Y185170D02*
Y189502D01*
X282249D01*
X283332Y187336D01*
Y186253D01*
X282249Y185170D01*
X280083D01*
X279000Y186253D01*
Y188419D01*
X280083Y189502D01*
X279000Y179755D02*
X285498D01*
X282249Y183004D01*
Y178672D01*
X160160Y712017D02*
X159077Y713100D01*
X156911D01*
X155828Y712017D01*
Y707685D01*
X156911Y706602D01*
X159077D01*
X160160Y707685D01*
X166658Y713100D02*
X162326D01*
Y709851D01*
X164492Y710934D01*
X165575D01*
X166658Y709851D01*
Y707685D01*
X165575Y706602D01*
X163409D01*
X162326Y707685D01*
X168824Y713100D02*
X173156D01*
Y712017D01*
X168824Y707685D01*
Y706602D01*
X59085Y661832D02*
X58002Y660749D01*
Y658583D01*
X59085Y657500D01*
X63417D01*
X64500Y658583D01*
Y660749D01*
X63417Y661832D01*
X58002Y668330D02*
Y663998D01*
X61251D01*
X60168Y666164D01*
Y667247D01*
X61251Y668330D01*
X63417D01*
X64500Y667247D01*
Y665081D01*
X63417Y663998D01*
Y670496D02*
X64500Y671579D01*
Y673745D01*
X63417Y674828D01*
X59085D01*
X58002Y673745D01*
Y671579D01*
X59085Y670496D01*
X60168D01*
X61251Y671579D01*
Y674828D01*
X172582Y654165D02*
X171499Y655248D01*
X169333D01*
X168250Y654165D01*
Y649833D01*
X169333Y648750D01*
X171499D01*
X172582Y649833D01*
X179080Y655248D02*
X176914Y654165D01*
X174748Y651999D01*
Y649833D01*
X175831Y648750D01*
X177997D01*
X179080Y649833D01*
Y650916D01*
X177997Y651999D01*
X174748D01*
X181246Y654165D02*
X182329Y655248D01*
X184495D01*
X185578Y654165D01*
Y649833D01*
X184495Y648750D01*
X182329D01*
X181246Y649833D01*
Y654165D01*
X354332Y710415D02*
X353249Y711498D01*
X351083D01*
X350000Y710415D01*
Y706083D01*
X351083Y705000D01*
X353249D01*
X354332Y706083D01*
X360830Y711498D02*
X358664Y710415D01*
X356498Y708249D01*
Y706083D01*
X357581Y705000D01*
X359747D01*
X360830Y706083D01*
Y707166D01*
X359747Y708249D01*
X356498D01*
X367328Y705000D02*
X362996D01*
X367328Y709332D01*
Y710415D01*
X366245Y711498D01*
X364079D01*
X362996Y710415D01*
X444585Y662332D02*
X443502Y661249D01*
Y659083D01*
X444585Y658000D01*
X448917D01*
X450000Y659083D01*
Y661249D01*
X448917Y662332D01*
X443502Y668830D02*
X444585Y666664D01*
X446751Y664498D01*
X448917D01*
X450000Y665581D01*
Y667747D01*
X448917Y668830D01*
X447834D01*
X446751Y667747D01*
Y664498D01*
X444585Y670996D02*
X443502Y672079D01*
Y674245D01*
X444585Y675328D01*
X445668D01*
X446751Y674245D01*
Y673162D01*
Y674245D01*
X447834Y675328D01*
X448917D01*
X450000Y674245D01*
Y672079D01*
X448917Y670996D01*
X301332Y813915D02*
X300249Y814998D01*
X298083D01*
X297000Y813915D01*
Y809583D01*
X298083Y808500D01*
X300249D01*
X301332Y809583D01*
X307830Y814998D02*
X305664Y813915D01*
X303498Y811749D01*
Y809583D01*
X304581Y808500D01*
X306747D01*
X307830Y809583D01*
Y810666D01*
X306747Y811749D01*
X303498D01*
X313245Y808500D02*
Y814998D01*
X309996Y811749D01*
X314328D01*
X177432Y836265D02*
X176349Y837348D01*
X174183D01*
X173100Y836265D01*
Y831933D01*
X174183Y830850D01*
X176349D01*
X177432Y831933D01*
X183930Y837348D02*
X181764Y836265D01*
X179598Y834099D01*
Y831933D01*
X180681Y830850D01*
X182847D01*
X183930Y831933D01*
Y833016D01*
X182847Y834099D01*
X179598D01*
X190428Y837348D02*
X186096D01*
Y834099D01*
X188262Y835182D01*
X189345D01*
X190428Y834099D01*
Y831933D01*
X189345Y830850D01*
X187179D01*
X186096Y831933D01*
X355332Y655415D02*
X354249Y656498D01*
X352083D01*
X351000Y655415D01*
Y651083D01*
X352083Y650000D01*
X354249D01*
X355332Y651083D01*
X361830Y656498D02*
X359664Y655415D01*
X357498Y653249D01*
Y651083D01*
X358581Y650000D01*
X360747D01*
X361830Y651083D01*
Y652166D01*
X360747Y653249D01*
X357498D01*
X368328Y656498D02*
X366162Y655415D01*
X363996Y653249D01*
Y651083D01*
X365079Y650000D01*
X367245D01*
X368328Y651083D01*
Y652166D01*
X367245Y653249D01*
X363996D01*
X303162Y879657D02*
X302079Y880740D01*
X299913D01*
X298830Y879657D01*
Y875325D01*
X299913Y874242D01*
X302079D01*
X303162Y875325D01*
X309660Y880740D02*
X307494Y879657D01*
X305328Y877491D01*
Y875325D01*
X306411Y874242D01*
X308577D01*
X309660Y875325D01*
Y876408D01*
X308577Y877491D01*
X305328D01*
X311826Y880740D02*
X316158D01*
Y879657D01*
X311826Y875325D01*
Y874242D01*
X177432Y853265D02*
X176349Y854348D01*
X174183D01*
X173100Y853265D01*
Y848933D01*
X174183Y847850D01*
X176349D01*
X177432Y848933D01*
X183930Y854348D02*
X181764Y853265D01*
X179598Y851099D01*
Y848933D01*
X180681Y847850D01*
X182847D01*
X183930Y848933D01*
Y850016D01*
X182847Y851099D01*
X179598D01*
X186096Y853265D02*
X187179Y854348D01*
X189345D01*
X190428Y853265D01*
Y852182D01*
X189345Y851099D01*
X190428Y850016D01*
Y848933D01*
X189345Y847850D01*
X187179D01*
X186096Y848933D01*
Y850016D01*
X187179Y851099D01*
X186096Y852182D01*
Y853265D01*
X187179Y851099D02*
X189345D01*
X356234Y762642D02*
X354703D01*
X353171Y761111D01*
Y759579D01*
X356234Y756516D01*
X357766D01*
X359297Y758047D01*
Y759579D01*
X357000Y764939D02*
X360063Y768003D01*
X360829Y767237D01*
Y761111D01*
X361595Y760345D01*
X368487Y767237D02*
X363892Y771832D01*
X363892Y767237D01*
X366955Y770300D01*
X367734Y750892D02*
X366203D01*
X364671Y749361D01*
Y747829D01*
X367734Y744766D01*
X369266D01*
X370797Y746297D01*
Y747829D01*
X368500Y753189D02*
X371563Y756253D01*
X372329Y755487D01*
Y749361D01*
X373095Y748595D01*
X376158Y760847D02*
X373095Y757784D01*
X375392Y755487D01*
X376158Y757784D01*
X376924Y758550D01*
X378455D01*
X379987Y757018D01*
Y755487D01*
X378455Y753955D01*
X376924D01*
X145182Y740115D02*
X144099Y741198D01*
X141933D01*
X140850Y740115D01*
Y735783D01*
X141933Y734700D01*
X144099D01*
X145182Y735783D01*
X147348Y741198D02*
X151680D01*
Y740115D01*
X147348Y735783D01*
Y734700D01*
X158178Y741198D02*
X156012Y740115D01*
X153846Y737949D01*
Y735783D01*
X154929Y734700D01*
X157095D01*
X158178Y735783D01*
Y736866D01*
X157095Y737949D01*
X153846D01*
X134082Y724665D02*
X132999Y725748D01*
X130833D01*
X129750Y724665D01*
Y720333D01*
X130833Y719250D01*
X132999D01*
X134082Y720333D01*
X136248Y725748D02*
X140580D01*
Y724665D01*
X136248Y720333D01*
Y719250D01*
X142746Y725748D02*
X147078D01*
Y724665D01*
X142746Y720333D01*
Y719250D01*
X369392Y619766D02*
Y621297D01*
X367860Y622829D01*
X366329D01*
X363266Y619766D01*
Y618234D01*
X364797Y616703D01*
X366329D01*
X370924Y618234D02*
X372455D01*
X373987Y616703D01*
Y615171D01*
X373221Y614405D01*
X371689D01*
X371689Y612874D01*
X370924Y612108D01*
X369392D01*
X367860Y613639D01*
Y615171D01*
X368626Y615937D01*
X370158D01*
Y617468D01*
X370924Y618234D01*
X370158Y615937D02*
X371689Y614405D01*
X374753Y606747D02*
X371689Y609811D01*
X377816D01*
X378582Y610576D01*
Y612108D01*
X377050Y613639D01*
X375518D01*
X356892Y607516D02*
Y609047D01*
X355360Y610579D01*
X353829D01*
X350766Y607516D01*
Y605984D01*
X352297Y604453D01*
X353829D01*
X358424Y605984D02*
X359955D01*
X361487Y604453D01*
Y602921D01*
X360721Y602155D01*
X359189D01*
X359189Y600624D01*
X358424Y599858D01*
X356892D01*
X355360Y601390D01*
Y602921D01*
X356126Y603687D01*
X357658D01*
Y605218D01*
X358424Y605984D01*
X357658Y603687D02*
X359189Y602155D01*
X363018Y601390D02*
X364550D01*
X366082Y599858D01*
Y598326D01*
X365316Y597561D01*
X363784D01*
X363018Y598326D01*
X363784Y597561D01*
Y596029D01*
X363018Y595263D01*
X361487D01*
X359955Y596795D01*
Y598326D01*
X307585Y601332D02*
X306502Y600249D01*
Y598083D01*
X307585Y597000D01*
X311917D01*
X313000Y598083D01*
Y600249D01*
X311917Y601332D01*
X307585Y603498D02*
X306502Y604581D01*
Y606747D01*
X307585Y607830D01*
X308668D01*
X309751Y606747D01*
X310834Y607830D01*
X311917D01*
X313000Y606747D01*
Y604581D01*
X311917Y603498D01*
X310834D01*
X309751Y604581D01*
X308668Y603498D01*
X307585D01*
X309751Y604581D02*
Y606747D01*
X313000Y613245D02*
X306502D01*
X309751Y609996D01*
Y614328D01*
X261582Y630915D02*
X260499Y631998D01*
X258333D01*
X257250Y630915D01*
Y626583D01*
X258333Y625500D01*
X260499D01*
X261582Y626583D01*
X263748Y630915D02*
X264831Y631998D01*
X266997D01*
X268080Y630915D01*
Y629832D01*
X266997Y628749D01*
X268080Y627666D01*
Y626583D01*
X266997Y625500D01*
X264831D01*
X263748Y626583D01*
Y627666D01*
X264831Y628749D01*
X263748Y629832D01*
Y630915D01*
X264831Y628749D02*
X266997D01*
X270246Y631998D02*
X274578D01*
Y630915D01*
X270246Y626583D01*
Y625500D01*
X11832Y100415D02*
X10749Y101498D01*
X8583D01*
X7500Y100415D01*
Y96083D01*
X8583Y95000D01*
X10749D01*
X11832Y96083D01*
X13998Y95000D02*
Y101498D01*
X18330Y95000D01*
Y101498D01*
X20496Y98249D02*
X24828D01*
X26994Y95000D02*
X29160D01*
X28077D01*
Y101498D01*
X26994Y100415D01*
X453332Y7415D02*
X452249Y8498D01*
X450083D01*
X449000Y7415D01*
Y3083D01*
X450083Y2000D01*
X452249D01*
X453332Y3083D01*
X455498Y2000D02*
Y8498D01*
X459830Y2000D01*
Y8498D01*
X461996Y5249D02*
X466328D01*
X472826Y7415D02*
X471743Y8498D01*
X469577D01*
X468494Y7415D01*
Y3083D01*
X469577Y2000D01*
X471743D01*
X472826Y3083D01*
Y5249D01*
X470660D01*
X474992Y2000D02*
Y8498D01*
X479324Y2000D01*
Y8498D01*
X481489D02*
Y2000D01*
X484739D01*
X485821Y3083D01*
Y7415D01*
X484739Y8498D01*
X481489D01*
X487987Y2000D02*
X490153D01*
X489070D01*
Y8498D01*
X487987Y7415D01*
X117000Y176498D02*
Y170000D01*
X120249D01*
X121332Y171083D01*
Y175415D01*
X120249Y176498D01*
X117000D01*
X127830Y170000D02*
X123498D01*
X127830Y174332D01*
Y175415D01*
X126747Y176498D01*
X124581D01*
X123498Y175415D01*
X300002Y39000D02*
X306500D01*
Y42249D01*
X305417Y43332D01*
X301085D01*
X300002Y42249D01*
Y39000D01*
X301085Y45498D02*
X300002Y46581D01*
Y48747D01*
X301085Y49830D01*
X302168D01*
X303251Y48747D01*
Y47664D01*
Y48747D01*
X304334Y49830D01*
X305417D01*
X306500Y48747D01*
Y46581D01*
X305417Y45498D01*
X349502Y1034332D02*
Y1030000D01*
X352751D01*
Y1032166D01*
Y1030000D01*
X356000D01*
X349502Y1036498D02*
X356000D01*
Y1039747D01*
X354917Y1040830D01*
X353834D01*
X352751Y1039747D01*
Y1036498D01*
Y1039747D01*
X351668Y1040830D01*
X350585D01*
X349502Y1039747D01*
Y1036498D01*
X356000Y1042996D02*
Y1045162D01*
Y1044079D01*
X349502D01*
X350585Y1042996D01*
X198498Y119668D02*
Y124000D01*
X195249D01*
Y121834D01*
Y124000D01*
X192000D01*
X198498Y117502D02*
X192000D01*
Y114253D01*
X193083Y113170D01*
X194166D01*
X195249Y114253D01*
Y117502D01*
Y114253D01*
X196332Y113170D01*
X197415D01*
X198498Y114253D01*
Y117502D01*
X192000Y111004D02*
Y108838D01*
Y109921D01*
X198498D01*
X197415Y111004D01*
Y105589D02*
X198498Y104506D01*
Y102340D01*
X197415Y101257D01*
X196332D01*
X195249Y102340D01*
Y103423D01*
Y102340D01*
X194166Y101257D01*
X193083D01*
X192000Y102340D01*
Y104506D01*
X193083Y105589D01*
X242502Y100332D02*
Y96000D01*
X245751D01*
Y98166D01*
Y96000D01*
X249000D01*
X242502Y102498D02*
X249000D01*
Y105747D01*
X247917Y106830D01*
X246834D01*
X245751Y105747D01*
Y102498D01*
Y105747D01*
X244668Y106830D01*
X243585D01*
X242502Y105747D01*
Y102498D01*
Y113328D02*
Y108996D01*
X245751D01*
X244668Y111162D01*
Y112245D01*
X245751Y113328D01*
X247917D01*
X249000Y112245D01*
Y110079D01*
X247917Y108996D01*
X150332Y755498D02*
X146000D01*
Y752249D01*
X148166D01*
X146000D01*
Y749000D01*
X152498Y755498D02*
Y749000D01*
X155747D01*
X156830Y750083D01*
Y751166D01*
X155747Y752249D01*
X152498D01*
X155747D01*
X156830Y753332D01*
Y754415D01*
X155747Y755498D01*
X152498D01*
X158996Y754415D02*
X160079Y755498D01*
X162245D01*
X163328Y754415D01*
Y753332D01*
X162245Y752249D01*
X163328Y751166D01*
Y750083D01*
X162245Y749000D01*
X160079D01*
X158996Y750083D01*
Y751166D01*
X160079Y752249D01*
X158996Y753332D01*
Y754415D01*
X160079Y752249D02*
X162245D01*
X268482Y588798D02*
X264150D01*
Y585549D01*
X266316D01*
X264150D01*
Y582300D01*
X270648Y588798D02*
Y582300D01*
X273897D01*
X274980Y583383D01*
Y584466D01*
X273897Y585549D01*
X270648D01*
X273897D01*
X274980Y586632D01*
Y587715D01*
X273897Y588798D01*
X270648D01*
X277146Y582300D02*
X279312D01*
X278229D01*
Y588798D01*
X277146Y587715D01*
X286893Y582300D02*
X282561D01*
X286893Y586632D01*
Y587715D01*
X285810Y588798D01*
X283644D01*
X282561Y587715D01*
X394582Y456498D02*
X392416D01*
X393499D01*
Y451083D01*
X392416Y450000D01*
X391333D01*
X390250Y451083D01*
X396748Y450000D02*
X398914D01*
X397831D01*
Y456498D01*
X396748Y455415D01*
X130332Y460498D02*
X128166D01*
X129249D01*
Y455083D01*
X128166Y454000D01*
X127083D01*
X126000Y455083D01*
X136830Y454000D02*
X132498D01*
X136830Y458332D01*
Y459415D01*
X135747Y460498D01*
X133581D01*
X132498Y459415D01*
X18332Y451248D02*
X16166D01*
X17249D01*
Y445833D01*
X16166Y444750D01*
X15083D01*
X14000Y445833D01*
X20498Y450165D02*
X21581Y451248D01*
X23747D01*
X24830Y450165D01*
Y449082D01*
X23747Y447999D01*
X22664D01*
X23747D01*
X24830Y446916D01*
Y445833D01*
X23747Y444750D01*
X21581D01*
X20498Y445833D01*
X76832Y88998D02*
X74666D01*
X75749D01*
Y83583D01*
X74666Y82500D01*
X73583D01*
X72500Y83583D01*
X82247Y82500D02*
Y88998D01*
X78998Y85749D01*
X83330D01*
X474332Y702498D02*
X472166D01*
X473249D01*
Y697083D01*
X472166Y696000D01*
X471083D01*
X470000Y697083D01*
X480830Y702498D02*
X476498D01*
Y699249D01*
X478664Y700332D01*
X479747D01*
X480830Y699249D01*
Y697083D01*
X479747Y696000D01*
X477581D01*
X476498Y697083D01*
X57332Y1039748D02*
X55166D01*
X56249D01*
Y1034333D01*
X55166Y1033250D01*
X54083D01*
X53000Y1034333D01*
X63830Y1039748D02*
X61664Y1038665D01*
X59498Y1036499D01*
Y1034333D01*
X60581Y1033250D01*
X62747D01*
X63830Y1034333D01*
Y1035416D01*
X62747Y1036499D01*
X59498D01*
X437832Y838498D02*
X435666D01*
X436749D01*
Y833083D01*
X435666Y832000D01*
X434583D01*
X433500Y833083D01*
X439998Y838498D02*
X444330D01*
Y837415D01*
X439998Y833083D01*
Y832000D01*
X436832Y1037498D02*
X434666D01*
X435749D01*
Y1032083D01*
X434666Y1031000D01*
X433583D01*
X432500Y1032083D01*
X438998Y1036415D02*
X440081Y1037498D01*
X442247D01*
X443330Y1036415D01*
Y1035332D01*
X442247Y1034249D01*
X443330Y1033166D01*
Y1032083D01*
X442247Y1031000D01*
X440081D01*
X438998Y1032083D01*
Y1033166D01*
X440081Y1034249D01*
X438998Y1035332D01*
Y1036415D01*
X440081Y1034249D02*
X442247D01*
X63457Y833498D02*
X61291D01*
X62374D01*
Y828083D01*
X61291Y827000D01*
X60208D01*
X59125Y828083D01*
X65623D02*
X66706Y827000D01*
X68872D01*
X69955Y828083D01*
Y832415D01*
X68872Y833498D01*
X66706D01*
X65623Y832415D01*
Y831332D01*
X66706Y830249D01*
X69955D01*
X25332Y702498D02*
X23166D01*
X24249D01*
Y697083D01*
X23166Y696000D01*
X22083D01*
X21000Y697083D01*
X27498Y696000D02*
X29664D01*
X28581D01*
Y702498D01*
X27498Y701415D01*
X32913D02*
X33996Y702498D01*
X36162D01*
X37245Y701415D01*
Y697083D01*
X36162Y696000D01*
X33996D01*
X32913Y697083D01*
Y701415D01*
X24332Y552498D02*
X22166D01*
X23249D01*
Y547083D01*
X22166Y546000D01*
X21083D01*
X20000Y547083D01*
X26498Y546000D02*
X28664D01*
X27581D01*
Y552498D01*
X26498Y551415D01*
X31913Y546000D02*
X34079D01*
X32996D01*
Y552498D01*
X31913Y551415D01*
X20457Y1194498D02*
X18291D01*
X19374D01*
Y1189083D01*
X18291Y1188000D01*
X17208D01*
X16125Y1189083D01*
X22623Y1188000D02*
X24789D01*
X23706D01*
Y1194498D01*
X22623Y1193415D01*
X32370Y1188000D02*
X28038D01*
X32370Y1192332D01*
Y1193415D01*
X31287Y1194498D01*
X29121D01*
X28038Y1193415D01*
X433332Y945498D02*
X431166D01*
X432249D01*
Y940083D01*
X431166Y939000D01*
X430083D01*
X429000Y940083D01*
X435498Y939000D02*
X437664D01*
X436581D01*
Y945498D01*
X435498Y944415D01*
X440913D02*
X441996Y945498D01*
X444162D01*
X445245Y944415D01*
Y943332D01*
X444162Y942249D01*
X443079D01*
X444162D01*
X445245Y941166D01*
Y940083D01*
X444162Y939000D01*
X441996D01*
X440913Y940083D01*
X473332Y552498D02*
X471166D01*
X472249D01*
Y547083D01*
X471166Y546000D01*
X470083D01*
X469000Y547083D01*
X475498Y546000D02*
X477664D01*
X476581D01*
Y552498D01*
X475498Y551415D01*
X484162Y546000D02*
Y552498D01*
X480913Y549249D01*
X485245D01*
X196502Y1124900D02*
X203000D01*
Y1129232D01*
Y1131398D02*
Y1133564D01*
Y1132481D01*
X196502D01*
X197585Y1131398D01*
X278500Y1153748D02*
Y1147250D01*
X282832D01*
X289330D02*
X284998D01*
X289330Y1151582D01*
Y1152665D01*
X288247Y1153748D01*
X286081D01*
X284998Y1152665D01*
X196502Y830500D02*
X203000D01*
Y834832D01*
X197585Y836998D02*
X196502Y838081D01*
Y840247D01*
X197585Y841330D01*
X198668D01*
X199751Y840247D01*
Y839164D01*
Y840247D01*
X200834Y841330D01*
X201917D01*
X203000Y840247D01*
Y838081D01*
X201917Y836998D01*
X197752Y847000D02*
X204250D01*
Y851332D01*
Y856747D02*
X197752D01*
X201001Y853498D01*
Y857830D01*
X425917Y1053082D02*
X421585D01*
X420502Y1051999D01*
Y1049833D01*
X421585Y1048750D01*
X425917D01*
X427000Y1049833D01*
Y1051999D01*
X424834Y1050916D02*
X427000Y1053082D01*
Y1051999D02*
X425917Y1053082D01*
X427000Y1055248D02*
Y1057414D01*
Y1056331D01*
X420502D01*
X421585Y1055248D01*
X386332Y1096333D02*
Y1100665D01*
X385249Y1101748D01*
X383083D01*
X382000Y1100665D01*
Y1096333D01*
X383083Y1095250D01*
X385249D01*
X384166Y1097416D02*
X386332Y1095250D01*
X385249D02*
X386332Y1096333D01*
X391747Y1095250D02*
Y1101748D01*
X388498Y1098499D01*
X392830D01*
X277000Y542000D02*
X270502D01*
Y545249D01*
X271585Y546332D01*
X273751D01*
X274834Y545249D01*
Y542000D01*
Y544166D02*
X277000Y546332D01*
Y548498D02*
Y550664D01*
Y549581D01*
X270502D01*
X271585Y548498D01*
X327500Y536250D02*
X321002D01*
Y539499D01*
X322085Y540582D01*
X324251D01*
X325334Y539499D01*
Y536250D01*
Y538416D02*
X327500Y540582D01*
Y547080D02*
Y542748D01*
X323168Y547080D01*
X322085D01*
X321002Y545997D01*
Y543831D01*
X322085Y542748D01*
X331000Y499000D02*
Y505498D01*
X334249D01*
X335332Y504415D01*
Y502249D01*
X334249Y501166D01*
X331000D01*
X333166D02*
X335332Y499000D01*
X337498Y504415D02*
X338581Y505498D01*
X340747D01*
X341830Y504415D01*
Y503332D01*
X340747Y502249D01*
X339664D01*
X340747D01*
X341830Y501166D01*
Y500083D01*
X340747Y499000D01*
X338581D01*
X337498Y500083D01*
X278500Y520500D02*
X272002D01*
Y523749D01*
X273085Y524832D01*
X275251D01*
X276334Y523749D01*
Y520500D01*
Y522666D02*
X278500Y524832D01*
Y530247D02*
X272002D01*
X275251Y526998D01*
Y531330D01*
X340000Y489000D02*
Y495498D01*
X343249D01*
X344332Y494415D01*
Y492249D01*
X343249Y491166D01*
X340000D01*
X342166D02*
X344332Y489000D01*
X350830Y495498D02*
X346498D01*
Y492249D01*
X348664Y493332D01*
X349747D01*
X350830Y492249D01*
Y490083D01*
X349747Y489000D01*
X347581D01*
X346498Y490083D01*
X305000Y476850D02*
Y483348D01*
X308249D01*
X309332Y482265D01*
Y480099D01*
X308249Y479016D01*
X305000D01*
X307166D02*
X309332Y476850D01*
X315830Y483348D02*
X313664Y482265D01*
X311498Y480099D01*
Y477933D01*
X312581Y476850D01*
X314747D01*
X315830Y477933D01*
Y479016D01*
X314747Y480099D01*
X311498D01*
X419000Y565000D02*
X425498D01*
Y561751D01*
X424415Y560668D01*
X422249D01*
X421166Y561751D01*
Y565000D01*
Y562834D02*
X419000Y560668D01*
X425498Y558502D02*
Y554170D01*
X424415D01*
X420083Y558502D01*
X419000D01*
X282000Y446000D02*
Y452498D01*
X285249D01*
X286332Y451415D01*
Y449249D01*
X285249Y448166D01*
X282000D01*
X284166D02*
X286332Y446000D01*
X288498Y451415D02*
X289581Y452498D01*
X291747D01*
X292830Y451415D01*
Y450332D01*
X291747Y449249D01*
X292830Y448166D01*
Y447083D01*
X291747Y446000D01*
X289581D01*
X288498Y447083D01*
Y448166D01*
X289581Y449249D01*
X288498Y450332D01*
Y451415D01*
X289581Y449249D02*
X291747D01*
X239000Y564000D02*
Y570498D01*
X242249D01*
X243332Y569415D01*
Y567249D01*
X242249Y566166D01*
X239000D01*
X241166D02*
X243332Y564000D01*
X245498Y565083D02*
X246581Y564000D01*
X248747D01*
X249830Y565083D01*
Y569415D01*
X248747Y570498D01*
X246581D01*
X245498Y569415D01*
Y568332D01*
X246581Y567249D01*
X249830D01*
X242000Y575000D02*
Y581498D01*
X245249D01*
X246332Y580415D01*
Y578249D01*
X245249Y577166D01*
X242000D01*
X244166D02*
X246332Y575000D01*
X248498D02*
X250664D01*
X249581D01*
Y581498D01*
X248498Y580415D01*
X253913D02*
X254996Y581498D01*
X257162D01*
X258245Y580415D01*
Y576083D01*
X257162Y575000D01*
X254996D01*
X253913Y576083D01*
Y580415D01*
X191500Y587500D02*
X185002D01*
Y590749D01*
X186085Y591832D01*
X188251D01*
X189334Y590749D01*
Y587500D01*
Y589666D02*
X191500Y591832D01*
Y593998D02*
Y596164D01*
Y595081D01*
X185002D01*
X186085Y593998D01*
X191500Y599413D02*
Y601579D01*
Y600496D01*
X185002D01*
X186085Y599413D01*
X204000Y542000D02*
Y548498D01*
X207249D01*
X208332Y547415D01*
Y545249D01*
X207249Y544166D01*
X204000D01*
X206166D02*
X208332Y542000D01*
X210498D02*
X212664D01*
X211581D01*
Y548498D01*
X210498Y547415D01*
X220245Y542000D02*
X215913D01*
X220245Y546332D01*
Y547415D01*
X219162Y548498D01*
X216996D01*
X215913Y547415D01*
X178000Y589000D02*
X171502D01*
Y592249D01*
X172585Y593332D01*
X174751D01*
X175834Y592249D01*
Y589000D01*
Y591166D02*
X178000Y593332D01*
Y595498D02*
Y597664D01*
Y596581D01*
X171502D01*
X172585Y595498D01*
Y600913D02*
X171502Y601996D01*
Y604162D01*
X172585Y605245D01*
X173668D01*
X174751Y604162D01*
Y603079D01*
Y604162D01*
X175834Y605245D01*
X176917D01*
X178000Y604162D01*
Y601996D01*
X176917Y600913D01*
X192000Y535000D02*
X185502D01*
Y538249D01*
X186585Y539332D01*
X188751D01*
X189834Y538249D01*
Y535000D01*
Y537166D02*
X192000Y539332D01*
Y541498D02*
Y543664D01*
Y542581D01*
X185502D01*
X186585Y541498D01*
X192000Y550162D02*
X185502D01*
X188751Y546913D01*
Y551245D01*
X158000Y588000D02*
X151502D01*
Y591249D01*
X152585Y592332D01*
X154751D01*
X155834Y591249D01*
Y588000D01*
Y590166D02*
X158000Y592332D01*
Y594498D02*
Y596664D01*
Y595581D01*
X151502D01*
X152585Y594498D01*
X151502Y604245D02*
Y599913D01*
X154751D01*
X153668Y602079D01*
Y603162D01*
X154751Y604245D01*
X156917D01*
X158000Y603162D01*
Y600996D01*
X156917Y599913D01*
X145000Y530000D02*
X138502D01*
Y533249D01*
X139585Y534332D01*
X141751D01*
X142834Y533249D01*
Y530000D01*
Y532166D02*
X145000Y534332D01*
Y536498D02*
Y538664D01*
Y537581D01*
X138502D01*
X139585Y536498D01*
X138502Y546245D02*
X139585Y544079D01*
X141751Y541913D01*
X143917D01*
X145000Y542996D01*
Y545162D01*
X143917Y546245D01*
X142834D01*
X141751Y545162D01*
Y541913D01*
X309750Y1189500D02*
Y1195998D01*
X312999D01*
X314082Y1194915D01*
Y1192749D01*
X312999Y1191666D01*
X309750D01*
X311916D02*
X314082Y1189500D01*
X316248D02*
X318414D01*
X317331D01*
Y1195998D01*
X316248Y1194915D01*
X321663Y1195998D02*
X325995D01*
Y1194915D01*
X321663Y1190583D01*
Y1189500D01*
X169750Y1172250D02*
Y1178748D01*
X172999D01*
X174082Y1177665D01*
Y1175499D01*
X172999Y1174416D01*
X169750D01*
X171916D02*
X174082Y1172250D01*
X176248D02*
X178414D01*
X177331D01*
Y1178748D01*
X176248Y1177665D01*
X181663D02*
X182746Y1178748D01*
X184912D01*
X185995Y1177665D01*
Y1176582D01*
X184912Y1175499D01*
X185995Y1174416D01*
Y1173333D01*
X184912Y1172250D01*
X182746D01*
X181663Y1173333D01*
Y1174416D01*
X182746Y1175499D01*
X181663Y1176582D01*
Y1177665D01*
X182746Y1175499D02*
X184912D01*
X297000Y217000D02*
Y223498D01*
X300249D01*
X301332Y222415D01*
Y220249D01*
X300249Y219166D01*
X297000D01*
X299166D02*
X301332Y217000D01*
X303498D02*
X305664D01*
X304581D01*
Y223498D01*
X303498Y222415D01*
X308913Y218083D02*
X309996Y217000D01*
X312162D01*
X313245Y218083D01*
Y222415D01*
X312162Y223498D01*
X309996D01*
X308913Y222415D01*
Y221332D01*
X309996Y220249D01*
X313245D01*
X335000Y74000D02*
X328502D01*
Y77249D01*
X329585Y78332D01*
X331751D01*
X332834Y77249D01*
Y74000D01*
Y76166D02*
X335000Y78332D01*
Y84830D02*
Y80498D01*
X330668Y84830D01*
X329585D01*
X328502Y83747D01*
Y81581D01*
X329585Y80498D01*
Y86996D02*
X328502Y88079D01*
Y90245D01*
X329585Y91328D01*
X333917D01*
X335000Y90245D01*
Y88079D01*
X333917Y86996D01*
X329585D01*
X476000Y210000D02*
Y216498D01*
X479249D01*
X480332Y215415D01*
Y213249D01*
X479249Y212166D01*
X476000D01*
X478166D02*
X480332Y210000D01*
X486830D02*
X482498D01*
X486830Y214332D01*
Y215415D01*
X485747Y216498D01*
X483581D01*
X482498Y215415D01*
X488996Y210000D02*
X491162D01*
X490079D01*
Y216498D01*
X488996Y215415D01*
X449500Y223500D02*
X443002D01*
Y226749D01*
X444085Y227832D01*
X446251D01*
X447334Y226749D01*
Y223500D01*
Y225666D02*
X449500Y227832D01*
Y234330D02*
Y229998D01*
X445168Y234330D01*
X444085D01*
X443002Y233247D01*
Y231081D01*
X444085Y229998D01*
X449500Y240828D02*
Y236496D01*
X445168Y240828D01*
X444085D01*
X443002Y239745D01*
Y237579D01*
X444085Y236496D01*
X460500Y285000D02*
Y291498D01*
X463749D01*
X464832Y290415D01*
Y288249D01*
X463749Y287166D01*
X460500D01*
X462666D02*
X464832Y285000D01*
X471330D02*
X466998D01*
X471330Y289332D01*
Y290415D01*
X470247Y291498D01*
X468081D01*
X466998Y290415D01*
X473496D02*
X474579Y291498D01*
X476745D01*
X477828Y290415D01*
Y289332D01*
X476745Y288249D01*
X475662D01*
X476745D01*
X477828Y287166D01*
Y286083D01*
X476745Y285000D01*
X474579D01*
X473496Y286083D01*
X116000Y182000D02*
Y188498D01*
X119249D01*
X120332Y187415D01*
Y185249D01*
X119249Y184166D01*
X116000D01*
X118166D02*
X120332Y182000D01*
X126830D02*
X122498D01*
X126830Y186332D01*
Y187415D01*
X125747Y188498D01*
X123581D01*
X122498Y187415D01*
X128996Y188498D02*
X133328D01*
Y187415D01*
X128996Y183083D01*
Y182000D01*
X275000Y130000D02*
Y136498D01*
X278249D01*
X279332Y135415D01*
Y133249D01*
X278249Y132166D01*
X275000D01*
X277166D02*
X279332Y130000D01*
X285830D02*
X281498D01*
X285830Y134332D01*
Y135415D01*
X284747Y136498D01*
X282581D01*
X281498Y135415D01*
X287996D02*
X289079Y136498D01*
X291245D01*
X292328Y135415D01*
Y134332D01*
X291245Y133249D01*
X292328Y132166D01*
Y131083D01*
X291245Y130000D01*
X289079D01*
X287996Y131083D01*
Y132166D01*
X289079Y133249D01*
X287996Y134332D01*
Y135415D01*
X289079Y133249D02*
X291245D01*
X320750Y32750D02*
X314252D01*
Y35999D01*
X315335Y37082D01*
X317501D01*
X318584Y35999D01*
Y32750D01*
Y34916D02*
X320750Y37082D01*
Y43580D02*
Y39248D01*
X316418Y43580D01*
X315335D01*
X314252Y42497D01*
Y40331D01*
X315335Y39248D01*
X319667Y45746D02*
X320750Y46829D01*
Y48995D01*
X319667Y50078D01*
X315335D01*
X314252Y48995D01*
Y46829D01*
X315335Y45746D01*
X316418D01*
X317501Y46829D01*
Y50078D01*
X215000Y122000D02*
Y128498D01*
X218249D01*
X219332Y127415D01*
Y125249D01*
X218249Y124166D01*
X215000D01*
X217166D02*
X219332Y122000D01*
X221498Y127415D02*
X222581Y128498D01*
X224747D01*
X225830Y127415D01*
Y126332D01*
X224747Y125249D01*
X223664D01*
X224747D01*
X225830Y124166D01*
Y123083D01*
X224747Y122000D01*
X222581D01*
X221498Y123083D01*
X227996Y127415D02*
X229079Y128498D01*
X231245D01*
X232328Y127415D01*
Y123083D01*
X231245Y122000D01*
X229079D01*
X227996Y123083D01*
Y127415D01*
X275000Y139000D02*
Y145498D01*
X278249D01*
X279332Y144415D01*
Y142249D01*
X278249Y141166D01*
X275000D01*
X277166D02*
X279332Y139000D01*
X281498Y144415D02*
X282581Y145498D01*
X284747D01*
X285830Y144415D01*
Y143332D01*
X284747Y142249D01*
X283664D01*
X284747D01*
X285830Y141166D01*
Y140083D01*
X284747Y139000D01*
X282581D01*
X281498Y140083D01*
X291245Y139000D02*
Y145498D01*
X287996Y142249D01*
X292328D01*
X424000Y1091250D02*
X417502D01*
Y1094499D01*
X418585Y1095582D01*
X420751D01*
X421834Y1094499D01*
Y1091250D01*
Y1093416D02*
X424000Y1095582D01*
Y1100997D02*
X417502D01*
X420751Y1097748D01*
Y1102080D01*
X422917Y1104246D02*
X424000Y1105329D01*
Y1107495D01*
X422917Y1108578D01*
X418585D01*
X417502Y1107495D01*
Y1105329D01*
X418585Y1104246D01*
X419668D01*
X420751Y1105329D01*
Y1108578D01*
X489000Y1077000D02*
X495498D01*
Y1073751D01*
X494415Y1072668D01*
X492249D01*
X491166Y1073751D01*
Y1077000D01*
Y1074834D02*
X489000Y1072668D01*
X495498Y1066170D02*
Y1070502D01*
X492249D01*
X493332Y1068336D01*
Y1067253D01*
X492249Y1066170D01*
X490083D01*
X489000Y1067253D01*
Y1069419D01*
X490083Y1070502D01*
X489000Y1059672D02*
Y1064004D01*
X493332Y1059672D01*
X494415D01*
X495498Y1060755D01*
Y1062921D01*
X494415Y1064004D01*
X421335Y364332D02*
X420252Y363249D01*
Y361083D01*
X421335Y360000D01*
X422418D01*
X423501Y361083D01*
Y363249D01*
X424584Y364332D01*
X425667D01*
X426750Y363249D01*
Y361083D01*
X425667Y360000D01*
X420252Y366498D02*
Y370830D01*
Y368664D01*
X426750D01*
X420252Y372996D02*
X426750D01*
Y377328D01*
X420252Y379494D02*
Y381660D01*
Y380577D01*
X426750D01*
Y379494D01*
Y381660D01*
Y384909D02*
X420252D01*
X426750Y389241D01*
X420252D01*
Y391407D02*
X426750D01*
X424584D01*
X420252Y395738D01*
X423501Y392490D01*
X426750Y395738D01*
Y397904D02*
Y400070D01*
Y398987D01*
X420252D01*
X421335Y397904D01*
X333000Y589498D02*
X337332D01*
X335166D01*
Y583000D01*
X339498D02*
Y589498D01*
X342747D01*
X343830Y588415D01*
Y586249D01*
X342747Y585166D01*
X339498D01*
X345996Y583000D02*
X348162D01*
X347079D01*
Y589498D01*
X345996Y588415D01*
X363000Y533498D02*
X367332D01*
X365166D01*
Y527000D01*
X369498D02*
Y533498D01*
X372747D01*
X373830Y532415D01*
Y530249D01*
X372747Y529166D01*
X369498D01*
X380328Y527000D02*
X375996D01*
X380328Y531332D01*
Y532415D01*
X379245Y533498D01*
X377079D01*
X375996Y532415D01*
X301000Y589498D02*
X305332D01*
X303166D01*
Y583000D01*
X307498D02*
Y589498D01*
X310747D01*
X311830Y588415D01*
Y586249D01*
X310747Y585166D01*
X307498D01*
X313996Y588415D02*
X315079Y589498D01*
X317245D01*
X318328Y588415D01*
Y587332D01*
X317245Y586249D01*
X316162D01*
X317245D01*
X318328Y585166D01*
Y584083D01*
X317245Y583000D01*
X315079D01*
X313996Y584083D01*
X117474Y596006D02*
X121806D01*
X119640D01*
Y589508D01*
X123972D02*
Y596006D01*
X127221D01*
X128304Y594923D01*
Y592757D01*
X127221Y591674D01*
X123972D01*
X133719Y589508D02*
Y596006D01*
X130470Y592757D01*
X134802D01*
X212470Y785998D02*
X216802D01*
X214636D01*
Y779500D01*
X218968D02*
Y785998D01*
X222217D01*
X223300Y784915D01*
Y782749D01*
X222217Y781666D01*
X218968D01*
X229798Y785998D02*
X225466D01*
Y782749D01*
X227632Y783832D01*
X228715D01*
X229798Y782749D01*
Y780583D01*
X228715Y779500D01*
X226549D01*
X225466Y780583D01*
X242442Y785998D02*
X246774D01*
X244608D01*
Y779500D01*
X248940D02*
Y785998D01*
X252189D01*
X253272Y784915D01*
Y782749D01*
X252189Y781666D01*
X248940D01*
X259770Y785998D02*
X257604Y784915D01*
X255438Y782749D01*
Y780583D01*
X256521Y779500D01*
X258687D01*
X259770Y780583D01*
Y781666D01*
X258687Y782749D01*
X255438D01*
X169000Y614248D02*
X173332D01*
X171166D01*
Y607750D01*
X175498D02*
Y614248D01*
X178747D01*
X179830Y613165D01*
Y610999D01*
X178747Y609916D01*
X175498D01*
X181996Y614248D02*
X186328D01*
Y613165D01*
X181996Y608833D01*
Y607750D01*
X219000Y603498D02*
X223332D01*
X221166D01*
Y597000D01*
X225498D02*
Y603498D01*
X228747D01*
X229830Y602415D01*
Y600249D01*
X228747Y599166D01*
X225498D01*
X231996Y602415D02*
X233079Y603498D01*
X235245D01*
X236328Y602415D01*
Y601332D01*
X235245Y600249D01*
X236328Y599166D01*
Y598083D01*
X235245Y597000D01*
X233079D01*
X231996Y598083D01*
Y599166D01*
X233079Y600249D01*
X231996Y601332D01*
Y602415D01*
X233079Y600249D02*
X235245D01*
X243000Y463748D02*
Y458333D01*
X244083Y457250D01*
X246249D01*
X247332Y458333D01*
Y463748D01*
X249498Y457250D02*
X251664D01*
X250581D01*
Y463748D01*
X249498Y462665D01*
X167250Y967998D02*
Y962583D01*
X168333Y961500D01*
X170499D01*
X171582Y962583D01*
Y967998D01*
X178080Y961500D02*
X173748D01*
X178080Y965832D01*
Y966915D01*
X176997Y967998D01*
X174831D01*
X173748Y966915D01*
X273250Y936248D02*
Y930833D01*
X274333Y929750D01*
X276499D01*
X277582Y930833D01*
Y936248D01*
X279748Y935165D02*
X280831Y936248D01*
X282997D01*
X284080Y935165D01*
Y934082D01*
X282997Y932999D01*
X281914D01*
X282997D01*
X284080Y931916D01*
Y930833D01*
X282997Y929750D01*
X280831D01*
X279748Y930833D01*
X229500Y1198498D02*
Y1193083D01*
X230583Y1192000D01*
X232749D01*
X233832Y1193083D01*
Y1198498D01*
X239247Y1192000D02*
Y1198498D01*
X235998Y1195249D01*
X240330D01*
X198000Y1159498D02*
Y1154083D01*
X199083Y1153000D01*
X201249D01*
X202332Y1154083D01*
Y1159498D01*
X208830D02*
X204498D01*
Y1156249D01*
X206664Y1157332D01*
X207747D01*
X208830Y1156249D01*
Y1154083D01*
X207747Y1153000D01*
X205581D01*
X204498Y1154083D01*
X357000Y342498D02*
Y337083D01*
X358083Y336000D01*
X360249D01*
X361332Y337083D01*
Y342498D01*
X363498D02*
X367830D01*
Y341415D01*
X363498Y337083D01*
Y336000D01*
X172500Y133998D02*
Y128583D01*
X173583Y127500D01*
X175749D01*
X176832Y128583D01*
Y133998D01*
X178998Y128583D02*
X180081Y127500D01*
X182247D01*
X183330Y128583D01*
Y132915D01*
X182247Y133998D01*
X180081D01*
X178998Y132915D01*
Y131832D01*
X180081Y130749D01*
X183330D01*
X199000Y225498D02*
Y220083D01*
X200083Y219000D01*
X202249D01*
X203332Y220083D01*
Y225498D01*
X205498Y219000D02*
X207664D01*
X206581D01*
Y225498D01*
X205498Y224415D01*
X215245Y219000D02*
X210913D01*
X215245Y223332D01*
Y224415D01*
X214162Y225498D01*
X211996D01*
X210913Y224415D01*
X307000Y136498D02*
Y131083D01*
X308083Y130000D01*
X310249D01*
X311332Y131083D01*
Y136498D01*
X313498Y130000D02*
X315664D01*
X314581D01*
Y136498D01*
X313498Y135415D01*
X318913D02*
X319996Y136498D01*
X322162D01*
X323245Y135415D01*
Y134332D01*
X322162Y133249D01*
X321079D01*
X322162D01*
X323245Y132166D01*
Y131083D01*
X322162Y130000D01*
X319996D01*
X318913Y131083D01*
X107850Y714198D02*
Y708783D01*
X108933Y707700D01*
X111099D01*
X112182Y708783D01*
Y714198D01*
X114348Y707700D02*
X116514D01*
X115431D01*
Y714198D01*
X114348Y713115D01*
X123012Y707700D02*
Y714198D01*
X119763Y710949D01*
X124095D01*
X299100Y847348D02*
Y841933D01*
X300183Y840850D01*
X302349D01*
X303432Y841933D01*
Y847348D01*
X305598Y840850D02*
X307764D01*
X306681D01*
Y847348D01*
X305598Y846265D01*
X315345Y847348D02*
X313179Y846265D01*
X311013Y844099D01*
Y841933D01*
X312096Y840850D01*
X314262D01*
X315345Y841933D01*
Y843016D01*
X314262Y844099D01*
X311013D01*
X197002Y643250D02*
X202417D01*
X203500Y644333D01*
Y646499D01*
X202417Y647582D01*
X197002D01*
X203500Y649748D02*
Y651914D01*
Y650831D01*
X197002D01*
X198085Y649748D01*
X197002Y655163D02*
Y659495D01*
X198085D01*
X202417Y655163D01*
X203500D01*
X262500Y66498D02*
Y61083D01*
X263583Y60000D01*
X265749D01*
X266832Y61083D01*
Y66498D01*
X273330Y65415D02*
X272247Y66498D01*
X270081D01*
X268998Y65415D01*
Y64332D01*
X270081Y63249D01*
X272247D01*
X273330Y62166D01*
Y61083D01*
X272247Y60000D01*
X270081D01*
X268998Y61083D01*
X275496Y66498D02*
Y60000D01*
X278745D01*
X279828Y61083D01*
Y62166D01*
X278745Y63249D01*
X275496D01*
X278745D01*
X279828Y64332D01*
Y65415D01*
X278745Y66498D01*
X275496D01*
X281994Y58917D02*
X286326D01*
X288492Y66498D02*
Y60000D01*
X291741D01*
X292824Y61083D01*
Y65415D01*
X291741Y66498D01*
X288492D01*
X294989Y60000D02*
Y64332D01*
X297155Y66498D01*
X299321Y64332D01*
Y60000D01*
Y63249D01*
X294989D01*
X301487Y66498D02*
X305819D01*
X303653D01*
Y60000D01*
X307985D02*
Y64332D01*
X310151Y66498D01*
X312317Y64332D01*
Y60000D01*
Y63249D01*
X307985D01*
X314483Y60000D02*
X316649D01*
X315566D01*
Y66498D01*
X314483Y65415D01*
X90000Y66498D02*
Y61083D01*
X91083Y60000D01*
X93249D01*
X94332Y61083D01*
Y66498D01*
X100830Y65415D02*
X99747Y66498D01*
X97581D01*
X96498Y65415D01*
Y64332D01*
X97581Y63249D01*
X99747D01*
X100830Y62166D01*
Y61083D01*
X99747Y60000D01*
X97581D01*
X96498Y61083D01*
X102996Y66498D02*
Y60000D01*
X106245D01*
X107328Y61083D01*
Y62166D01*
X106245Y63249D01*
X102996D01*
X106245D01*
X107328Y64332D01*
Y65415D01*
X106245Y66498D01*
X102996D01*
X109494Y58917D02*
X113826D01*
X115992Y60000D02*
Y66498D01*
X119241D01*
X120324Y65415D01*
Y63249D01*
X119241Y62166D01*
X115992D01*
X125738Y66498D02*
X123573D01*
X122490Y65415D01*
Y61083D01*
X123573Y60000D01*
X125738D01*
X126821Y61083D01*
Y65415D01*
X125738Y66498D01*
X128987D02*
Y60000D01*
X131153Y62166D01*
X133319Y60000D01*
Y66498D01*
X139817D02*
X135485D01*
Y60000D01*
X139817D01*
X135485Y63249D02*
X137651D01*
X141983Y60000D02*
Y66498D01*
X145232D01*
X146315Y65415D01*
Y63249D01*
X145232Y62166D01*
X141983D01*
X144149D02*
X146315Y60000D01*
X148481D02*
X150647D01*
X149564D01*
Y66498D01*
X148481Y65415D01*
X393502Y51250D02*
X398917D01*
X400000Y52333D01*
Y54499D01*
X398917Y55582D01*
X393502D01*
X400000Y62080D02*
Y57748D01*
X395668Y62080D01*
X394585D01*
X393502Y60997D01*
Y58831D01*
X394585Y57748D01*
Y64246D02*
X393502Y65329D01*
Y67495D01*
X394585Y68578D01*
X395668D01*
X396751Y67495D01*
Y66412D01*
Y67495D01*
X397834Y68578D01*
X398917D01*
X400000Y67495D01*
Y65329D01*
X398917Y64246D01*
X50000Y115000D02*
X56498D01*
Y111751D01*
X55415Y110668D01*
X53249D01*
X52166Y111751D01*
Y115000D01*
Y112834D02*
X50000Y110668D01*
X56498Y104170D02*
X55415Y106336D01*
X53249Y108502D01*
X51083D01*
X50000Y107419D01*
Y105253D01*
X51083Y104170D01*
X52166D01*
X53249Y105253D01*
Y108502D01*
X55415Y102004D02*
X56498Y100921D01*
Y98755D01*
X55415Y97672D01*
X51083D01*
X50000Y98755D01*
Y100921D01*
X51083Y102004D01*
X55415D01*
X381000Y204498D02*
Y198000D01*
X385332D01*
X391830Y204498D02*
X389664Y203415D01*
X387498Y201249D01*
Y199083D01*
X388581Y198000D01*
X390747D01*
X391830Y199083D01*
Y200166D01*
X390747Y201249D01*
X387498D01*
X444832Y108665D02*
X443749Y109748D01*
X441583D01*
X440500Y108665D01*
Y104333D01*
X441583Y103250D01*
X443749D01*
X444832Y104333D01*
X446998Y103250D02*
X449164D01*
X448081D01*
Y109748D01*
X446998Y108665D01*
X452413Y103250D02*
X454579D01*
X453496D01*
Y109748D01*
X452413Y108665D01*
X462160Y103250D02*
X457828D01*
X462160Y107582D01*
Y108665D01*
X461077Y109748D01*
X458911D01*
X457828Y108665D01*
X371332Y53415D02*
X370249Y54498D01*
X368083D01*
X367000Y53415D01*
Y49083D01*
X368083Y48000D01*
X370249D01*
X371332Y49083D01*
X373498Y48000D02*
X375664D01*
X374581D01*
Y54498D01*
X373498Y53415D01*
X378913Y48000D02*
X381079D01*
X379996D01*
Y54498D01*
X378913Y53415D01*
X384328Y48000D02*
X386494D01*
X385411D01*
Y54498D01*
X384328Y53415D01*
X436332Y214415D02*
X435249Y215498D01*
X433083D01*
X432000Y214415D01*
Y210083D01*
X433083Y209000D01*
X435249D01*
X436332Y210083D01*
X438498Y209000D02*
X440664D01*
X439581D01*
Y215498D01*
X438498Y214415D01*
X443913D02*
X444996Y215498D01*
X447162D01*
X448245Y214415D01*
Y210083D01*
X447162Y209000D01*
X444996D01*
X443913Y210083D01*
Y214415D01*
X454743Y215498D02*
X452577Y214415D01*
X450411Y212249D01*
Y210083D01*
X451494Y209000D01*
X453660D01*
X454743Y210083D01*
Y211166D01*
X453660Y212249D01*
X450411D01*
X116582Y133915D02*
X115499Y134998D01*
X113333D01*
X112250Y133915D01*
Y129583D01*
X113333Y128500D01*
X115499D01*
X116582Y129583D01*
X118748D02*
X119831Y128500D01*
X121997D01*
X123080Y129583D01*
Y133915D01*
X121997Y134998D01*
X119831D01*
X118748Y133915D01*
Y132832D01*
X119831Y131749D01*
X123080D01*
X128495Y128500D02*
Y134998D01*
X125246Y131749D01*
X129578D01*
X7332Y177415D02*
X6249Y178498D01*
X4083D01*
X3000Y177415D01*
Y173083D01*
X4083Y172000D01*
X6249D01*
X7332Y173083D01*
X9498D02*
X10581Y172000D01*
X12747D01*
X13830Y173083D01*
Y177415D01*
X12747Y178498D01*
X10581D01*
X9498Y177415D01*
Y176332D01*
X10581Y175249D01*
X13830D01*
X15996Y177415D02*
X17079Y178498D01*
X19245D01*
X20328Y177415D01*
Y176332D01*
X19245Y175249D01*
X18162D01*
X19245D01*
X20328Y174166D01*
Y173083D01*
X19245Y172000D01*
X17079D01*
X15996Y173083D01*
X22415Y163668D02*
X23498Y164751D01*
Y166917D01*
X22415Y168000D01*
X18083D01*
X17000Y166917D01*
Y164751D01*
X18083Y163668D01*
Y161502D02*
X17000Y160419D01*
Y158253D01*
X18083Y157170D01*
X22415D01*
X23498Y158253D01*
Y160419D01*
X22415Y161502D01*
X21332D01*
X20249Y160419D01*
Y157170D01*
X22415Y155004D02*
X23498Y153921D01*
Y151755D01*
X22415Y150672D01*
X18083D01*
X17000Y151755D01*
Y153921D01*
X18083Y155004D01*
X22415D01*
X444582Y290415D02*
X443499Y291498D01*
X441333D01*
X440250Y290415D01*
Y286083D01*
X441333Y285000D01*
X443499D01*
X444582Y286083D01*
X449997Y285000D02*
Y291498D01*
X446748Y288249D01*
X451080D01*
X457578Y291498D02*
X453246D01*
Y288249D01*
X455412Y289332D01*
X456495D01*
X457578Y288249D01*
Y286083D01*
X456495Y285000D01*
X454329D01*
X453246Y286083D01*
X447332Y305415D02*
X446249Y306498D01*
X444083D01*
X443000Y305415D01*
Y301083D01*
X444083Y300000D01*
X446249D01*
X447332Y301083D01*
X452747Y300000D02*
Y306498D01*
X449498Y303249D01*
X453830D01*
X455996Y306498D02*
X460328D01*
Y305415D01*
X455996Y301083D01*
Y300000D01*
X440832Y333165D02*
X439749Y334248D01*
X437583D01*
X436500Y333165D01*
Y332082D01*
X437583Y330999D01*
X439749D01*
X440832Y329916D01*
Y328833D01*
X439749Y327750D01*
X437583D01*
X436500Y328833D01*
X442998Y334248D02*
Y327750D01*
X445164Y329916D01*
X447330Y327750D01*
Y334248D01*
X453828Y333165D02*
X452745Y334248D01*
X450579D01*
X449496Y333165D01*
Y328833D01*
X450579Y327750D01*
X452745D01*
X453828Y328833D01*
X455994Y334248D02*
Y327750D01*
X460326D01*
X462492Y334248D02*
Y327750D01*
Y329916D01*
X466824Y334248D01*
X463575Y330999D01*
X466824Y327750D01*
X450332Y360415D02*
X449249Y361498D01*
X447083D01*
X446000Y360415D01*
Y356083D01*
X447083Y355000D01*
X449249D01*
X450332Y356083D01*
Y358249D01*
X448166D01*
X452498Y355000D02*
Y361498D01*
X456830Y355000D01*
Y361498D01*
X458996D02*
Y355000D01*
X462245D01*
X463328Y356083D01*
Y360415D01*
X462245Y361498D01*
X458996D01*
X439832Y386165D02*
X438749Y387248D01*
X436583D01*
X435500Y386165D01*
Y385082D01*
X436583Y383999D01*
X438749D01*
X439832Y382916D01*
Y381833D01*
X438749Y380750D01*
X436583D01*
X435500Y381833D01*
X441998Y387248D02*
Y380750D01*
X444164Y382916D01*
X446330Y380750D01*
Y387248D01*
X448496D02*
Y380750D01*
X451745D01*
X452828Y381833D01*
Y386165D01*
X451745Y387248D01*
X448496D01*
X454994D02*
X457160D01*
X456077D01*
Y380750D01*
X454994D01*
X457160D01*
X463658Y387248D02*
X461492D01*
X460409Y386165D01*
Y381833D01*
X461492Y380750D01*
X463658D01*
X464741Y381833D01*
Y386165D01*
X463658Y387248D01*
X442250Y406500D02*
Y412998D01*
X446582Y406500D01*
Y412998D01*
X448748Y406500D02*
Y412998D01*
X451997D01*
X453080Y411915D01*
Y409749D01*
X451997Y408666D01*
X448748D01*
X450914D02*
X453080Y406500D01*
X459578Y411915D02*
X458495Y412998D01*
X456329D01*
X455246Y411915D01*
Y410832D01*
X456329Y409749D01*
X458495D01*
X459578Y408666D01*
Y407583D01*
X458495Y406500D01*
X456329D01*
X455246Y407583D01*
X461744Y412998D02*
X466076D01*
X463910D01*
Y406500D01*
X449832Y437665D02*
X448749Y438748D01*
X446583D01*
X445500Y437665D01*
Y436582D01*
X446583Y435499D01*
X448749D01*
X449832Y434416D01*
Y433333D01*
X448749Y432250D01*
X446583D01*
X445500Y433333D01*
X451998Y438748D02*
Y432250D01*
X454164Y434416D01*
X456330Y432250D01*
Y438748D01*
X461745D02*
X459579D01*
X458496Y437665D01*
Y433333D01*
X459579Y432250D01*
X461745D01*
X462828Y433333D01*
Y437665D01*
X461745Y438748D01*
X5750Y1084248D02*
Y1079916D01*
X7916Y1077750D01*
X10082Y1079916D01*
Y1084248D01*
X12248D02*
X16580D01*
X14414D01*
Y1077750D01*
X18746Y1084248D02*
Y1078833D01*
X19829Y1077750D01*
X21995D01*
X23078Y1078833D01*
Y1084248D01*
X25244Y1077750D02*
Y1084248D01*
X29576Y1077750D01*
Y1084248D01*
X36074D02*
X31742D01*
Y1077750D01*
X36074D01*
X31742Y1080999D02*
X33908D01*
X359752Y469000D02*
Y471166D01*
Y470083D01*
X366250D01*
Y469000D01*
Y471166D01*
X367333Y474415D02*
Y478747D01*
X359752Y484162D02*
Y481996D01*
X360835Y480913D01*
X365167D01*
X366250Y481996D01*
Y484162D01*
X365167Y485245D01*
X360835D01*
X359752Y484162D01*
Y487411D02*
X365167D01*
X366250Y488494D01*
Y490660D01*
X365167Y491743D01*
X359752D01*
Y493909D02*
Y498241D01*
Y496075D01*
X366250D01*
X425332Y498415D02*
X424249Y499498D01*
X422083D01*
X421000Y498415D01*
Y497332D01*
X422083Y496249D01*
X424249D01*
X425332Y495166D01*
Y494083D01*
X424249Y493000D01*
X422083D01*
X421000Y494083D01*
X427498Y493000D02*
Y499498D01*
X429664Y497332D01*
X431830Y499498D01*
Y493000D01*
X433996D02*
Y497332D01*
X436162Y499498D01*
X438328Y497332D01*
Y493000D01*
Y496249D01*
X433996D01*
X422000Y466000D02*
Y470332D01*
X424166Y472498D01*
X426332Y470332D01*
Y466000D01*
Y469249D01*
X422000D01*
X428498Y472498D02*
Y466000D01*
X431747D01*
X432830Y467083D01*
Y471415D01*
X431747Y472498D01*
X428498D01*
X439328Y471415D02*
X438245Y472498D01*
X436079D01*
X434996Y471415D01*
Y467083D01*
X436079Y466000D01*
X438245D01*
X439328Y467083D01*
X165417Y476082D02*
X161085D01*
X160002Y474999D01*
Y472833D01*
X161085Y471750D01*
X165417D01*
X166500Y472833D01*
Y474999D01*
X164334Y473916D02*
X166500Y476082D01*
Y474999D02*
X165417Y476082D01*
X167583Y478248D02*
Y482580D01*
X160002Y487995D02*
Y485829D01*
X161085Y484746D01*
X165417D01*
X166500Y485829D01*
Y487995D01*
X165417Y489078D01*
X161085D01*
X160002Y487995D01*
Y491244D02*
X165417D01*
X166500Y492327D01*
Y494493D01*
X165417Y495576D01*
X160002D01*
Y497742D02*
Y502074D01*
Y499908D01*
X166500D01*
X87000Y470000D02*
Y474332D01*
X89166Y476498D01*
X91332Y474332D01*
Y470000D01*
Y473249D01*
X87000D01*
X93498Y476498D02*
Y470000D01*
X96747D01*
X97830Y471083D01*
Y475415D01*
X96747Y476498D01*
X93498D01*
X104328Y475415D02*
X103245Y476498D01*
X101079D01*
X99996Y475415D01*
Y471083D01*
X101079Y470000D01*
X103245D01*
X104328Y471083D01*
X90332Y502415D02*
X89249Y503498D01*
X87083D01*
X86000Y502415D01*
Y501332D01*
X87083Y500249D01*
X89249D01*
X90332Y499166D01*
Y498083D01*
X89249Y497000D01*
X87083D01*
X86000Y498083D01*
X92498Y497000D02*
Y503498D01*
X94664Y501332D01*
X96830Y503498D01*
Y497000D01*
X98996D02*
Y501332D01*
X101162Y503498D01*
X103328Y501332D01*
Y497000D01*
Y500249D01*
X98996D01*
X434250Y522747D02*
X436916D01*
X435583D01*
Y514750D01*
X434250D01*
X436916D01*
X56082Y510833D02*
Y516165D01*
X54749Y517497D01*
X52083D01*
X50750Y516165D01*
Y510833D01*
X52083Y509500D01*
X54749D01*
X53416Y512166D02*
X56082Y509500D01*
X54749D02*
X56082Y510833D01*
X390000Y617000D02*
Y624997D01*
X392666Y622332D01*
X395332Y624997D01*
Y617000D01*
X397997Y624997D02*
X400663D01*
X399330D01*
Y617000D01*
X397997D01*
X400663D01*
X404662Y624997D02*
X409994Y617000D01*
Y624997D02*
X404662Y617000D01*
X412659Y615667D02*
X417991D01*
X420657Y624997D02*
Y617000D01*
X425988D01*
X432653Y624997D02*
X429987D01*
X428654Y623665D01*
Y618333D01*
X429987Y617000D01*
X432653D01*
X433986Y618333D01*
Y623665D01*
X432653Y624997D01*
X72000Y619000D02*
Y626997D01*
X74666Y624332D01*
X77332Y626997D01*
Y619000D01*
X79997Y626997D02*
X82663D01*
X81330D01*
Y619000D01*
X79997D01*
X82663D01*
X86662Y626997D02*
X91994Y619000D01*
Y626997D02*
X86662Y619000D01*
X94659Y617667D02*
X99991D01*
X102657Y619000D02*
Y626997D01*
X106656D01*
X107988Y625664D01*
Y622999D01*
X106656Y621666D01*
X102657D01*
X105323D02*
X107988Y619000D01*
X115986Y626997D02*
X110654D01*
Y622999D01*
X113320D01*
X110654D01*
Y619000D01*
X391750Y915997D02*
Y908000D01*
X397082D01*
X399747D02*
Y915997D01*
X405079Y908000D01*
Y915997D01*
X407745Y908000D02*
Y913332D01*
X410411Y915997D01*
X413076Y913332D01*
Y908000D01*
Y911999D01*
X407745D01*
X421074Y908000D02*
X415742D01*
X421074Y913332D01*
Y914665D01*
X419741Y915997D01*
X417075D01*
X415742Y914665D01*
X423740Y906667D02*
X429071D01*
X431737Y915997D02*
X434403D01*
X433070D01*
Y908000D01*
X431737D01*
X434403D01*
X438402D02*
Y915997D01*
X443733Y908000D01*
Y915997D01*
X383500Y791747D02*
Y783750D01*
X388832D01*
X391497D02*
Y791747D01*
X396829Y783750D01*
Y791747D01*
X399495Y783750D02*
Y789082D01*
X402161Y791747D01*
X404826Y789082D01*
Y783750D01*
Y787749D01*
X399495D01*
X407492Y783750D02*
X410158D01*
X408825D01*
Y791747D01*
X407492Y790415D01*
X414157Y782417D02*
X419488D01*
X422154Y791747D02*
X424820D01*
X423487D01*
Y783750D01*
X422154D01*
X424820D01*
X428819D02*
Y791747D01*
X434150Y783750D01*
Y791747D01*
X53500Y790247D02*
Y782250D01*
X58832D01*
X61497D02*
Y790247D01*
X66829Y782250D01*
Y790247D01*
X69495Y782250D02*
Y787582D01*
X72161Y790247D01*
X74826Y787582D01*
Y782250D01*
Y786249D01*
X69495D01*
X77492Y782250D02*
X80158D01*
X78825D01*
Y790247D01*
X77492Y788914D01*
X84157Y780917D02*
X89488D01*
X96153Y790247D02*
X93487D01*
X92154Y788914D01*
Y783583D01*
X93487Y782250D01*
X96153D01*
X97486Y783583D01*
Y788914D01*
X96153Y790247D01*
X100152D02*
Y783583D01*
X101484Y782250D01*
X104150D01*
X105483Y783583D01*
Y790247D01*
X108149D02*
X113481D01*
X110815D01*
Y782250D01*
X47750Y915747D02*
Y907750D01*
X53082D01*
X55747D02*
Y915747D01*
X61079Y907750D01*
Y915747D01*
X63745Y907750D02*
Y913082D01*
X66411Y915747D01*
X69076Y913082D01*
Y907750D01*
Y911749D01*
X63745D01*
X77074Y907750D02*
X71742D01*
X77074Y913082D01*
Y914415D01*
X75741Y915747D01*
X73075D01*
X71742Y914415D01*
X79740Y906417D02*
X85071D01*
X91736Y915747D02*
X89070D01*
X87737Y914415D01*
Y909083D01*
X89070Y907750D01*
X91736D01*
X93069Y909083D01*
Y914415D01*
X91736Y915747D01*
X95735D02*
Y909083D01*
X97067Y907750D01*
X99733D01*
X101066Y909083D01*
Y915747D01*
X103732D02*
X109064D01*
X106398D01*
Y907750D01*
X359095Y939655D02*
X362865Y935885D01*
X366635D01*
Y939655D01*
X362865Y943425D01*
X369463Y948138D02*
X367578D01*
X365692Y946253D01*
X365692Y944368D01*
X369463Y940598D01*
X371348D01*
X373233Y942483D01*
X373232Y944368D01*
X373233Y953793D02*
X371348Y951908D01*
X371348Y950023D01*
X375117Y946253D01*
X377003D01*
X378888Y948138D01*
X378888Y950023D01*
X375117Y953793D01*
X373233D01*
X382658Y950023D02*
X386428Y953793D01*
X384543Y965103D02*
X382658Y963218D01*
X382658Y961333D01*
X386428Y957563D01*
X388313D01*
X390198Y959448D01*
X390198Y961333D01*
X386428Y965103D01*
X384543D01*
X387370Y967930D02*
X392083Y963218D01*
X393968D01*
X395853Y965103D01*
Y966988D01*
X391140Y971700D01*
X393025Y973585D02*
X396795Y977355D01*
X394910Y975470D01*
X400565Y969815D01*
X408105Y977355D02*
X404335Y973585D01*
Y981125D01*
X403393Y982068D01*
X401508D01*
X399623Y980183D01*
Y978298D01*
X84655Y984905D02*
X80885Y981135D01*
Y977365D01*
X84655D01*
X88425Y981135D01*
X93138Y974538D02*
Y976423D01*
X91253Y978307D01*
X89368Y978307D01*
X85597Y974538D01*
Y972653D01*
X87483Y970768D01*
X89368Y970768D01*
X98793Y970768D02*
X96908Y972653D01*
X95023Y972653D01*
X91253Y968883D01*
Y966997D01*
X93138Y965112D01*
X95023Y965112D01*
X98793Y968883D01*
Y970768D01*
X95023Y961342D02*
X98793Y957572D01*
X110103Y959457D02*
X108218Y961342D01*
X106333Y961342D01*
X102563Y957572D01*
Y955687D01*
X104448Y953802D01*
X106333Y953802D01*
X110103Y957572D01*
Y959457D01*
X112930Y956630D02*
X108218Y951917D01*
Y950032D01*
X110103Y948147D01*
X111988D01*
X116700Y952860D01*
X118585Y950975D02*
X122355Y947205D01*
X120470Y949090D01*
X114815Y943435D01*
X118585Y939665D02*
X120470Y937780D01*
X119528Y938722D01*
X125183Y944377D01*
X123298D01*
X37000Y430665D02*
X38083Y431748D01*
X40249D01*
X41332Y430665D01*
Y429582D01*
X40249Y428499D01*
X39166D01*
X40249D01*
X41332Y427416D01*
Y426333D01*
X40249Y425250D01*
X38083D01*
X37000Y426333D01*
X43498Y431748D02*
Y427416D01*
X45664Y425250D01*
X47830Y427416D01*
Y431748D01*
X49996Y430665D02*
X51079Y431748D01*
X53245D01*
X54328Y430665D01*
Y429582D01*
X53245Y428499D01*
X52162D01*
X53245D01*
X54328Y427416D01*
Y426333D01*
X53245Y425250D01*
X51079D01*
X49996Y426333D01*
X40082Y353665D02*
X38999Y354748D01*
X36833D01*
X35750Y353665D01*
Y349333D01*
X36833Y348250D01*
X38999D01*
X40082Y349333D01*
Y351499D01*
X37916D01*
X42248Y348250D02*
Y354748D01*
X46580Y348250D01*
Y354748D01*
X48746D02*
Y348250D01*
X51995D01*
X53078Y349333D01*
Y353665D01*
X51995Y354748D01*
X48746D01*
X36500Y386998D02*
Y381583D01*
X37583Y380500D01*
X39749D01*
X40832Y381583D01*
Y386998D01*
X42998Y380500D02*
Y384832D01*
X45164Y386998D01*
X47330Y384832D01*
Y380500D01*
Y383749D01*
X42998D01*
X49496Y380500D02*
Y386998D01*
X52745D01*
X53828Y385915D01*
Y383749D01*
X52745Y382666D01*
X49496D01*
X51662D02*
X53828Y380500D01*
X55994Y386998D02*
X60326D01*
X58160D01*
Y380500D01*
X39000Y377248D02*
X43332D01*
X41166D01*
Y370750D01*
X45498Y377248D02*
X49830Y370750D01*
Y377248D02*
X45498Y370750D01*
X39000Y393750D02*
Y400248D01*
X42249D01*
X43332Y399165D01*
Y396999D01*
X42249Y395916D01*
X39000D01*
X41166D02*
X43332Y393750D01*
X45498Y400248D02*
X49830Y393750D01*
Y400248D02*
X45498Y393750D01*
X36500Y409998D02*
Y404583D01*
X37583Y403500D01*
X39749D01*
X40832Y404583D01*
Y409998D01*
X42998Y403500D02*
Y407832D01*
X45164Y409998D01*
X47330Y407832D01*
Y403500D01*
Y406749D01*
X42998D01*
X49496Y403500D02*
Y409998D01*
X52745D01*
X53828Y408915D01*
Y406749D01*
X52745Y405666D01*
X49496D01*
X51662D02*
X53828Y403500D01*
X55994Y409998D02*
X60326D01*
X58160D01*
Y403500D01*
X4085Y22082D02*
X3002Y20999D01*
Y18833D01*
X4085Y17750D01*
X8417D01*
X9500Y18833D01*
Y20999D01*
X8417Y22082D01*
X6251D01*
Y19916D01*
X9500Y24248D02*
X3002D01*
X9500Y28580D01*
X3002D01*
Y30746D02*
X9500D01*
Y33995D01*
X8417Y35078D01*
X4085D01*
X3002Y33995D01*
Y30746D01*
X4085Y46000D02*
X3002Y47083D01*
Y49249D01*
X4085Y50332D01*
X5168D01*
X6251Y49249D01*
Y48166D01*
Y49249D01*
X7334Y50332D01*
X8417D01*
X9500Y49249D01*
Y47083D01*
X8417Y46000D01*
X3002Y52498D02*
X7334D01*
X9500Y54664D01*
X7334Y56830D01*
X3002D01*
X4085Y58996D02*
X3002Y60079D01*
Y62245D01*
X4085Y63328D01*
X5168D01*
X6251Y62245D01*
Y61162D01*
Y62245D01*
X7334Y63328D01*
X8417D01*
X9500Y62245D01*
Y60079D01*
X8417Y58996D01*
X3502Y76332D02*
Y72000D01*
X6751D01*
X5668Y74166D01*
Y75249D01*
X6751Y76332D01*
X8917D01*
X10000Y75249D01*
Y73083D01*
X8917Y72000D01*
X3502Y78498D02*
X7834D01*
X10000Y80664D01*
X7834Y82830D01*
X3502D01*
D101*
X461500Y234000D02*
G03*
X461500Y234000I-500J0D01*
G01*
X334010Y142490D02*
G03*
X334010Y142490I-500J0D01*
G01*
X165000Y96500D02*
G03*
X165000Y96500I-500J0D01*
G01*
X431000Y278500D02*
G03*
X431000Y278500I-500J0D01*
G01*
X64879Y165479D02*
G03*
X64879Y165479I-500J0D01*
G01*
X397750Y106250D02*
G03*
X397750Y106250I-500J0D01*
G01*
X169000Y145050D02*
G03*
X169000Y145050I-500J0D01*
G01*
X366010Y336510D02*
G03*
X366010Y336510I-500J0D01*
G01*
X287500Y811500D02*
G03*
X287500Y811500I-500J0D01*
G01*
X279000Y221750D02*
X283000D01*
X279000Y216250D02*
X283000D01*
X282500Y156750D02*
X286500D01*
X282500Y151250D02*
X286500D01*
X145500Y187750D02*
X149500D01*
X145500Y182250D02*
X149500D01*
X145500Y169750D02*
X149500D01*
X145500Y175250D02*
X149500D01*
X248000Y129750D02*
X252000D01*
X248000Y124250D02*
X252000D01*
X340750Y1064000D02*
Y1068000D01*
X335250Y1064000D02*
Y1068000D01*
X312750Y1160500D02*
Y1164500D01*
X307250Y1160500D02*
Y1164500D01*
X290750Y533000D02*
Y537000D01*
X285250Y533000D02*
Y537000D01*
X322750Y517000D02*
Y521000D01*
X317250Y517000D02*
Y521000D01*
X308000Y492250D02*
X312000D01*
X308000Y497750D02*
X312000D01*
X279250Y501000D02*
Y505000D01*
X284750Y501000D02*
Y505000D01*
X333000Y480750D02*
X337000D01*
X333000Y475250D02*
X337000D01*
X285000Y481750D02*
X289000D01*
X285000Y476250D02*
X289000D01*
X405250Y553000D02*
Y557000D01*
X410750Y553000D02*
Y557000D01*
X285000Y465900D02*
X289000D01*
X285000Y460400D02*
X289000D01*
X221000Y561250D02*
X225000D01*
X221000Y566750D02*
X225000D01*
X221000Y577250D02*
X225000D01*
X221000Y582750D02*
X225000D01*
X195250Y570000D02*
Y574000D01*
X200750Y570000D02*
Y574000D01*
X210000Y534750D02*
X214000D01*
X210000Y529250D02*
X214000D01*
X172250Y568000D02*
Y572000D01*
X177750Y568000D02*
Y572000D01*
X172250Y536000D02*
Y540000D01*
X177750Y536000D02*
Y540000D01*
X154250Y568000D02*
Y572000D01*
X159750Y568000D02*
Y572000D01*
X154250Y536000D02*
Y540000D01*
X159750Y536000D02*
Y540000D01*
X291000Y1186750D02*
X295000D01*
X291000Y1181250D02*
X295000D01*
X209000Y1172750D02*
X213000D01*
X209000Y1167250D02*
X213000D01*
X417250Y1071250D02*
Y1075250D01*
X422750Y1071250D02*
Y1075250D01*
X481750Y1066000D02*
Y1070000D01*
X476250Y1066000D02*
Y1070000D01*
X322750Y15000D02*
Y19000D01*
X317250Y15000D02*
Y19000D01*
X302250Y15000D02*
Y19000D01*
X307750Y15000D02*
Y19000D01*
X329939Y54674D02*
Y58674D01*
X335439Y54674D02*
Y58674D01*
D102*
X82000Y509500D02*
X171250D01*
Y451250D02*
Y509500D01*
X82000Y451250D02*
X171250D01*
X82000D02*
Y509500D01*
X354000Y509250D02*
X443000D01*
Y446250D02*
Y509250D01*
X354000Y446250D02*
X443000D01*
X354000D02*
Y509250D01*
D103*
X488000Y288000D02*
Y290166D01*
Y289083D01*
X481502D01*
X482585Y288000D01*
X479582Y456912D02*
X480665Y454746D01*
X482831Y452580D01*
X484997D01*
X486080Y453663D01*
Y455829D01*
X484997Y456912D01*
X483914D01*
X482831Y455829D01*
Y452580D01*
M02*
