G04 Layer_Physical_Order=2*
G04 Layer_Color=36540*
%FSLAX44Y44*%
%MOMM*%
G71*
G01*
G75*
%ADD80C,0.2500*%
%ADD88C,1.5000*%
%ADD94C,0.6000*%
%ADD95C,4.0000*%
%ADD96C,0.5000*%
G36*
X500000Y0D02*
X0D01*
Y1200000D01*
X500000D01*
Y0D01*
D02*
G37*
%LPC*%
G36*
X266000Y260097D02*
X264049Y259709D01*
X262395Y258604D01*
X261290Y256950D01*
X261138Y256187D01*
X260299Y255839D01*
X259756Y255749D01*
X258000Y256098D01*
X256049Y255710D01*
X254395Y254605D01*
X253290Y252951D01*
X252902Y251000D01*
X253290Y249049D01*
X254395Y247395D01*
X256049Y246290D01*
X258000Y245902D01*
X259951Y246290D01*
X261605Y247395D01*
X262710Y249049D01*
X262862Y249813D01*
X264035Y250299D01*
X264049Y250290D01*
X266000Y249902D01*
X267950Y250290D01*
X269604Y251395D01*
X270709Y253049D01*
X271097Y255000D01*
X270709Y256950D01*
X269604Y258604D01*
X267950Y259709D01*
X266000Y260097D01*
D02*
G37*
G36*
X460500Y269598D02*
X458549Y269210D01*
X456895Y268105D01*
X455790Y266451D01*
X455402Y264500D01*
X455790Y262549D01*
X456895Y260895D01*
X458549Y259790D01*
X460500Y259402D01*
X462451Y259790D01*
X464105Y260895D01*
X465210Y262549D01*
X465598Y264500D01*
X465210Y266451D01*
X464105Y268105D01*
X462451Y269210D01*
X460500Y269598D01*
D02*
G37*
G36*
X391000Y259098D02*
X389049Y258710D01*
X387395Y257605D01*
X386290Y255951D01*
X385902Y254000D01*
X386290Y252049D01*
X387395Y250395D01*
X389049Y249290D01*
X391000Y248902D01*
X392951Y249290D01*
X394605Y250395D01*
X395710Y252049D01*
X396098Y254000D01*
X395710Y255951D01*
X394605Y257605D01*
X392951Y258710D01*
X391000Y259098D01*
D02*
G37*
G36*
X232999Y272097D02*
X231049Y271709D01*
X229395Y270604D01*
X228290Y268950D01*
X227902Y266999D01*
X228290Y265049D01*
X229395Y263395D01*
X231049Y262290D01*
X232999Y261901D01*
X234950Y262290D01*
X235633Y262746D01*
X237371Y262430D01*
X237395Y262395D01*
X238629Y261570D01*
X239039Y261054D01*
X238995Y260005D01*
X238290Y258951D01*
X237902Y257000D01*
X238290Y255049D01*
X239395Y253395D01*
X241049Y252290D01*
X243000Y251902D01*
X244951Y252290D01*
X246605Y253395D01*
X247710Y255049D01*
X248098Y257000D01*
X247710Y258951D01*
X246605Y260605D01*
X245371Y261430D01*
X244961Y261946D01*
X245005Y262994D01*
X245709Y264049D01*
X246098Y266000D01*
X245709Y267950D01*
X244604Y269604D01*
X242950Y270709D01*
X241000Y271097D01*
X239049Y270709D01*
X238366Y270253D01*
X236628Y270569D01*
X236604Y270604D01*
X234950Y271709D01*
X232999Y272097D01*
D02*
G37*
G36*
X146000Y270098D02*
X144049Y269710D01*
X142395Y268605D01*
X141290Y266951D01*
X140902Y265000D01*
X141290Y263049D01*
X142395Y261395D01*
X144049Y260290D01*
X146000Y259902D01*
X147951Y260290D01*
X149605Y261395D01*
X150710Y263049D01*
X151098Y265000D01*
X150710Y266951D01*
X149605Y268605D01*
X147951Y269710D01*
X146000Y270098D01*
D02*
G37*
G36*
X210343Y273098D02*
X208392Y272710D01*
X206738Y271605D01*
X205633Y269951D01*
X205245Y268000D01*
X205633Y266049D01*
X206738Y264395D01*
X208392Y263290D01*
X210343Y262902D01*
X212294Y263290D01*
X213948Y264395D01*
X215053Y266049D01*
X215441Y268000D01*
X215053Y269951D01*
X213948Y271605D01*
X212294Y272710D01*
X210343Y273098D01*
D02*
G37*
G36*
X171000Y274098D02*
X169049Y273710D01*
X167395Y272605D01*
X166290Y270951D01*
X165902Y269000D01*
X166290Y267049D01*
X167395Y265395D01*
X169049Y264290D01*
X171000Y263902D01*
X172951Y264290D01*
X174605Y265395D01*
X175710Y267049D01*
X176098Y269000D01*
X175710Y270951D01*
X174605Y272605D01*
X172951Y273710D01*
X171000Y274098D01*
D02*
G37*
G36*
X259000Y272098D02*
X257049Y271710D01*
X255395Y270605D01*
X254290Y268951D01*
X253902Y267000D01*
X254290Y265049D01*
X255395Y263395D01*
X257049Y262290D01*
X259000Y261902D01*
X260951Y262290D01*
X262605Y263395D01*
X263710Y265049D01*
X264098Y267000D01*
X263710Y268951D01*
X262605Y270605D01*
X260951Y271710D01*
X259000Y272098D01*
D02*
G37*
G36*
X377000Y280098D02*
X375049Y279710D01*
X373395Y278605D01*
X372290Y276951D01*
X371902Y275000D01*
X372290Y273049D01*
X373395Y271395D01*
X375049Y270290D01*
X377000Y269902D01*
X378951Y270290D01*
X380095Y271055D01*
X381395Y271395D01*
X383049Y270290D01*
X385000Y269902D01*
X385040Y268698D01*
X384901Y267999D01*
X385289Y266049D01*
X386394Y264395D01*
X388048Y263290D01*
X389999Y262901D01*
X391950Y263290D01*
X393604Y264395D01*
X394709Y266049D01*
X395097Y267999D01*
X394709Y269950D01*
X393604Y271604D01*
X391950Y272709D01*
X389999Y273097D01*
X389959Y274302D01*
X390098Y275000D01*
X389710Y276951D01*
X388605Y278605D01*
X386951Y279710D01*
X385000Y280098D01*
X383049Y279710D01*
X381905Y278945D01*
X380605Y278605D01*
X378951Y279710D01*
X377000Y280098D01*
D02*
G37*
G36*
X180000Y256098D02*
X178049Y255710D01*
X176395Y254605D01*
X175290Y252951D01*
X174902Y251000D01*
X175290Y249049D01*
X176395Y247395D01*
X178049Y246290D01*
X180000Y245902D01*
X181951Y246290D01*
X183605Y247395D01*
X184710Y249049D01*
X185098Y251000D01*
X184710Y252951D01*
X183605Y254605D01*
X181951Y255710D01*
X180000Y256098D01*
D02*
G37*
G36*
X462000Y233098D02*
X460049Y232710D01*
X458395Y231605D01*
X457290Y229951D01*
X456902Y228000D01*
X457290Y226049D01*
X458395Y224395D01*
X460049Y223290D01*
X462000Y222902D01*
X463951Y223290D01*
X465605Y224395D01*
X466710Y226049D01*
X467098Y228000D01*
X466710Y229951D01*
X465605Y231605D01*
X463951Y232710D01*
X462000Y233098D01*
D02*
G37*
G36*
X131000Y235098D02*
X129049Y234710D01*
X127395Y233605D01*
X126290Y231951D01*
X125902Y230000D01*
X126290Y228049D01*
X127395Y226395D01*
X129049Y225290D01*
X131000Y224902D01*
X132951Y225290D01*
X134605Y226395D01*
X135710Y228049D01*
X136098Y230000D01*
X135710Y231951D01*
X134605Y233605D01*
X132951Y234710D01*
X131000Y235098D01*
D02*
G37*
G36*
X179000Y230098D02*
X177049Y229709D01*
X175395Y228604D01*
X174290Y226950D01*
X173902Y225000D01*
X174290Y223049D01*
X175395Y221395D01*
X177049Y220290D01*
X179000Y219902D01*
X180950Y220290D01*
X182604Y221395D01*
X183709Y223049D01*
X184097Y225000D01*
X183709Y226950D01*
X182604Y228604D01*
X180950Y229709D01*
X179000Y230098D01*
D02*
G37*
G36*
X438000Y233098D02*
X436049Y232710D01*
X434395Y231605D01*
X433290Y229951D01*
X432902Y228000D01*
X433290Y226049D01*
X434395Y224395D01*
X436049Y223290D01*
X438000Y222902D01*
X439951Y223290D01*
X441605Y224395D01*
X442710Y226049D01*
X443098Y228000D01*
X442710Y229951D01*
X441605Y231605D01*
X439951Y232710D01*
X438000Y233098D01*
D02*
G37*
G36*
X387000Y236098D02*
X385049Y235710D01*
X383395Y234605D01*
X382290Y232951D01*
X381902Y231000D01*
X382290Y229049D01*
X383395Y227395D01*
X385049Y226290D01*
X387000Y225902D01*
X388951Y226290D01*
X390605Y227395D01*
X391710Y229049D01*
X392098Y231000D01*
X391710Y232951D01*
X390605Y234605D01*
X388951Y235710D01*
X387000Y236098D01*
D02*
G37*
G36*
X143000Y252098D02*
X141049Y251710D01*
X139395Y250605D01*
X138290Y248951D01*
X137902Y247000D01*
X138290Y245049D01*
X139395Y243395D01*
X141049Y242290D01*
X143000Y241902D01*
X144951Y242290D01*
X146605Y243395D01*
X147006Y243995D01*
X147540Y244018D01*
X148430Y243840D01*
X149395Y242395D01*
X151049Y241290D01*
X153000Y240902D01*
X154951Y241290D01*
X156605Y242395D01*
X157710Y244049D01*
X158098Y246000D01*
X157710Y247951D01*
X156605Y249605D01*
X154951Y250710D01*
X153000Y251098D01*
X151049Y250710D01*
X149395Y249605D01*
X148994Y249004D01*
X148460Y248982D01*
X147570Y249160D01*
X146605Y250605D01*
X144951Y251710D01*
X143000Y252098D01*
D02*
G37*
G36*
X444250Y252348D02*
X442299Y251960D01*
X440645Y250855D01*
X439540Y249201D01*
X439152Y247250D01*
X439540Y245299D01*
X440645Y243645D01*
X442299Y242540D01*
X444250Y242152D01*
X446201Y242540D01*
X447855Y243645D01*
X448960Y245299D01*
X449348Y247250D01*
X448960Y249201D01*
X447855Y250855D01*
X446201Y251960D01*
X444250Y252348D01*
D02*
G37*
G36*
X255000Y230380D02*
X253049Y229992D01*
X251395Y228887D01*
X250669Y227801D01*
X249192Y227726D01*
X248605Y228605D01*
X246951Y229710D01*
X245000Y230098D01*
X243049Y229710D01*
X241905Y228945D01*
X241000Y228708D01*
X240095Y228945D01*
X238951Y229710D01*
X237000Y230098D01*
X235049Y229710D01*
X233395Y228605D01*
X232290Y226951D01*
X232048Y225734D01*
X230753D01*
X230710Y225951D01*
X229605Y227605D01*
X227951Y228710D01*
X226000Y229098D01*
X224049Y228710D01*
X222395Y227605D01*
X221290Y225951D01*
X220902Y224000D01*
X221290Y222049D01*
X222395Y220395D01*
X224049Y219290D01*
X226000Y218902D01*
X227951Y219290D01*
X229605Y220395D01*
X230710Y222049D01*
X230952Y223266D01*
X232247D01*
X232290Y223049D01*
X233395Y221395D01*
X235049Y220290D01*
X237000Y219902D01*
X238951Y220290D01*
X240095Y221055D01*
X241000Y221292D01*
X241905Y221055D01*
X243049Y220290D01*
X245000Y219902D01*
X246951Y220290D01*
X248605Y221395D01*
X249307Y222446D01*
X250534Y222516D01*
X251386Y221532D01*
X251303Y220212D01*
X250395Y219605D01*
X249290Y217951D01*
X248902Y216000D01*
X249290Y214049D01*
X250395Y212395D01*
X252049Y211290D01*
X254000Y210902D01*
X255951Y211290D01*
X257605Y212395D01*
X258930Y212092D01*
X259395Y211395D01*
X261049Y210290D01*
X263000Y209902D01*
X264951Y210290D01*
X266605Y211395D01*
X267710Y213049D01*
X268098Y215000D01*
X267710Y216951D01*
X266605Y218605D01*
X264951Y219710D01*
X263000Y220098D01*
X261049Y219710D01*
X259395Y218605D01*
X258070Y218908D01*
X257605Y219605D01*
X257697Y221071D01*
X258605Y221678D01*
X259710Y223332D01*
X260098Y225282D01*
X259710Y227233D01*
X258605Y228887D01*
X256951Y229992D01*
X255000Y230380D01*
D02*
G37*
G36*
X301750Y242848D02*
X299799Y242460D01*
X298145Y241355D01*
X297040Y239701D01*
X296652Y237750D01*
X297040Y235799D01*
X298145Y234145D01*
X299799Y233040D01*
X301750Y232652D01*
X303701Y233040D01*
X305355Y234145D01*
X306460Y235799D01*
X306848Y237750D01*
X306460Y239701D01*
X305355Y241355D01*
X303701Y242460D01*
X301750Y242848D01*
D02*
G37*
G36*
X287000Y267814D02*
X285049Y267426D01*
X283395Y266321D01*
X282359Y264769D01*
X280951Y265710D01*
X279000Y266098D01*
X277049Y265710D01*
X275395Y264605D01*
X274290Y262951D01*
X273902Y261000D01*
X274290Y259049D01*
X275395Y257395D01*
X277049Y256290D01*
X279000Y255902D01*
X280951Y256290D01*
X282605Y257395D01*
X283641Y258947D01*
X285049Y258006D01*
X287000Y257618D01*
X288951Y258006D01*
X290605Y259111D01*
X291710Y260765D01*
X292098Y262716D01*
X291710Y264667D01*
X290605Y266321D01*
X288951Y267426D01*
X287000Y267814D01*
D02*
G37*
G36*
X113000Y331098D02*
X111049Y330710D01*
X109395Y329605D01*
X108290Y327951D01*
X107902Y326000D01*
X108290Y324049D01*
X109395Y322395D01*
X111049Y321290D01*
X113000Y320902D01*
X114951Y321290D01*
X116605Y322395D01*
X117710Y324049D01*
X118098Y326000D01*
X117710Y327951D01*
X116605Y329605D01*
X114951Y330710D01*
X113000Y331098D01*
D02*
G37*
G36*
X387500Y332598D02*
X385549Y332210D01*
X383895Y331105D01*
X382790Y329451D01*
X382402Y327500D01*
X382790Y325549D01*
X383895Y323895D01*
X385549Y322790D01*
X387500Y322402D01*
X389451Y322790D01*
X391105Y323895D01*
X392210Y325549D01*
X392598Y327500D01*
X392210Y329451D01*
X391105Y331105D01*
X389451Y332210D01*
X387500Y332598D01*
D02*
G37*
G36*
X283000Y322098D02*
X281049Y321710D01*
X279395Y320605D01*
X278290Y318951D01*
X277902Y317000D01*
X278290Y315049D01*
X279395Y313395D01*
X281049Y312290D01*
X283000Y311902D01*
X284951Y312290D01*
X286605Y313395D01*
X287710Y315049D01*
X288098Y317000D01*
X287710Y318951D01*
X286605Y320605D01*
X284951Y321710D01*
X283000Y322098D01*
D02*
G37*
G36*
X328000Y325098D02*
X326049Y324710D01*
X324395Y323605D01*
X323290Y321951D01*
X322902Y320000D01*
X323290Y318049D01*
X324395Y316395D01*
X326049Y315290D01*
X328000Y314902D01*
X329951Y315290D01*
X331605Y316395D01*
X332710Y318049D01*
X333098Y320000D01*
X332710Y321951D01*
X331605Y323605D01*
X329951Y324710D01*
X328000Y325098D01*
D02*
G37*
G36*
X481000Y342782D02*
X478520Y342455D01*
X476209Y341498D01*
X474225Y339975D01*
X472702Y337991D01*
X471744Y335680D01*
X471418Y333200D01*
X471744Y330720D01*
X472702Y328409D01*
X474225Y326424D01*
X476209Y324902D01*
X478520Y323945D01*
X481000Y323618D01*
X483480Y323945D01*
X485791Y324902D01*
X487775Y326424D01*
X489298Y328409D01*
X490256Y330720D01*
X490582Y333200D01*
X490256Y335680D01*
X489298Y337991D01*
X487775Y339975D01*
X485791Y341498D01*
X483480Y342455D01*
X481000Y342782D01*
D02*
G37*
G36*
X338500Y356598D02*
X336549Y356210D01*
X334895Y355105D01*
X333790Y353451D01*
X333402Y351500D01*
X333790Y349549D01*
X334895Y347895D01*
X336549Y346790D01*
X338500Y346402D01*
X340451Y346790D01*
X342105Y347895D01*
X343210Y349549D01*
X343598Y351500D01*
X343210Y353451D01*
X342105Y355105D01*
X340451Y356210D01*
X338500Y356598D01*
D02*
G37*
G36*
X446500Y369598D02*
X444549Y369210D01*
X442895Y368105D01*
X441790Y366451D01*
X441402Y364500D01*
X441790Y362549D01*
X442895Y360895D01*
X444549Y359790D01*
X446500Y359402D01*
X448451Y359790D01*
X450105Y360895D01*
X451210Y362549D01*
X451598Y364500D01*
X451210Y366451D01*
X450105Y368105D01*
X448451Y369210D01*
X446500Y369598D01*
D02*
G37*
G36*
X422000Y326098D02*
X420049Y325710D01*
X418395Y324605D01*
X417229Y324940D01*
X416451Y325460D01*
X414500Y325848D01*
X412549Y325460D01*
X410895Y324355D01*
X409790Y322701D01*
X409402Y320750D01*
X409790Y318799D01*
X410742Y317375D01*
X409790Y315951D01*
X409402Y314000D01*
X409790Y312049D01*
X410895Y310395D01*
X412549Y309290D01*
X414500Y308902D01*
X416451Y309290D01*
X417595Y310055D01*
X418500Y310292D01*
X419405Y310055D01*
X420549Y309290D01*
X422500Y308902D01*
X424451Y309290D01*
X426105Y310395D01*
X427210Y312049D01*
X427598Y314000D01*
X427210Y315951D01*
X426105Y317605D01*
X425856Y317771D01*
X426710Y319049D01*
X427098Y321000D01*
X426710Y322951D01*
X425605Y324605D01*
X423951Y325710D01*
X422000Y326098D01*
D02*
G37*
G36*
X327000Y337098D02*
X325049Y336710D01*
X323395Y335605D01*
X322290Y333951D01*
X321902Y332000D01*
X322290Y330049D01*
X323395Y328395D01*
X325049Y327290D01*
X327000Y326902D01*
X328951Y327290D01*
X330605Y328395D01*
X331710Y330049D01*
X332098Y332000D01*
X331710Y333951D01*
X330605Y335605D01*
X328951Y336710D01*
X327000Y337098D01*
D02*
G37*
G36*
X170000Y325097D02*
X168049Y324709D01*
X166395Y323604D01*
X165290Y321950D01*
X164902Y319999D01*
X165290Y318048D01*
X166395Y316395D01*
X168049Y315289D01*
X170000Y314901D01*
X171065Y313818D01*
X170902Y313000D01*
X171290Y311049D01*
X170459Y310007D01*
X170000Y310098D01*
X168049Y309710D01*
X166395Y308605D01*
X165290Y306951D01*
X164902Y305000D01*
X165290Y303049D01*
X166395Y301395D01*
X168049Y300290D01*
X170000Y299902D01*
X171951Y300290D01*
X173605Y301395D01*
X174710Y303049D01*
X175098Y305000D01*
X174710Y306951D01*
X175541Y307993D01*
X176000Y307902D01*
X177951Y308290D01*
X179605Y309395D01*
X180710Y311049D01*
X181098Y313000D01*
X180710Y314951D01*
X179605Y316605D01*
X177951Y317710D01*
X176000Y318098D01*
X174935Y319181D01*
X175098Y319999D01*
X174710Y321950D01*
X173605Y323604D01*
X171951Y324709D01*
X170000Y325097D01*
D02*
G37*
G36*
X327000Y293098D02*
X325049Y292710D01*
X323395Y291605D01*
X322290Y289951D01*
X321902Y288000D01*
X322290Y286049D01*
X323395Y284395D01*
X325049Y283290D01*
X327000Y282902D01*
X328951Y283290D01*
X330605Y284395D01*
X331710Y286049D01*
X332098Y288000D01*
X331710Y289951D01*
X330605Y291605D01*
X328951Y292710D01*
X327000Y293098D01*
D02*
G37*
G36*
X206000Y290098D02*
X204049Y289710D01*
X202395Y288605D01*
X201571Y287371D01*
X201054Y286961D01*
X200006Y287005D01*
X198951Y287710D01*
X197000Y288098D01*
X195049Y287710D01*
X193395Y286605D01*
X192290Y284951D01*
X191902Y283000D01*
X192290Y281049D01*
X193395Y279395D01*
X193092Y278070D01*
X192395Y277604D01*
X191290Y275950D01*
X190902Y274000D01*
X191290Y272049D01*
X192395Y270395D01*
X194049Y269290D01*
X196000Y268902D01*
X197950Y269290D01*
X199604Y270395D01*
X200709Y272049D01*
X201098Y274000D01*
X200709Y275950D01*
X199604Y277604D01*
X199907Y278929D01*
X200605Y279395D01*
X201429Y280629D01*
X201946Y281039D01*
X202994Y280995D01*
X204049Y280290D01*
X206000Y279902D01*
X207951Y280290D01*
X209605Y281395D01*
X210710Y283049D01*
X211098Y285000D01*
X210710Y286951D01*
X209605Y288605D01*
X207951Y289710D01*
X206000Y290098D01*
D02*
G37*
G36*
X298000Y285098D02*
X296049Y284710D01*
X294395Y283605D01*
X293290Y281951D01*
X292902Y280000D01*
X293290Y278049D01*
X294395Y276395D01*
X296049Y275290D01*
X298000Y274902D01*
X299951Y275290D01*
X301605Y276395D01*
X302710Y278049D01*
X303098Y280000D01*
X302710Y281951D01*
X301605Y283605D01*
X299951Y284710D01*
X298000Y285098D01*
D02*
G37*
G36*
X469000D02*
X467049Y284710D01*
X465395Y283605D01*
X464290Y281951D01*
X463902Y280000D01*
X464290Y278049D01*
X465395Y276395D01*
X467049Y275290D01*
X469000Y274902D01*
X470951Y275290D01*
X472605Y276395D01*
X473710Y278049D01*
X474098Y280000D01*
X473710Y281951D01*
X472605Y283605D01*
X470951Y284710D01*
X469000Y285098D01*
D02*
G37*
G36*
X458500Y301598D02*
X456549Y301210D01*
X454895Y300105D01*
X453790Y298451D01*
X453402Y296500D01*
X453790Y294549D01*
X454895Y292895D01*
X456549Y291790D01*
X458500Y291402D01*
X460451Y291790D01*
X462105Y292895D01*
X463210Y294549D01*
X463598Y296500D01*
X463210Y298451D01*
X462105Y300105D01*
X460451Y301210D01*
X458500Y301598D01*
D02*
G37*
G36*
X140000Y315098D02*
X138049Y314710D01*
X136395Y313605D01*
X135290Y311951D01*
X134902Y310000D01*
X135290Y308049D01*
X136395Y306395D01*
X138049Y305290D01*
X140000Y304902D01*
X141951Y305290D01*
X143605Y306395D01*
X144710Y308049D01*
X145098Y310000D01*
X144710Y311951D01*
X143605Y313605D01*
X141951Y314710D01*
X140000Y315098D01*
D02*
G37*
G36*
X36500Y318598D02*
X34549Y318210D01*
X32895Y317105D01*
X31790Y315451D01*
X31402Y313500D01*
X31790Y311549D01*
X32895Y309895D01*
X34549Y308790D01*
X36500Y308402D01*
X38451Y308790D01*
X40105Y309895D01*
X41210Y311549D01*
X41598Y313500D01*
X41210Y315451D01*
X40105Y317105D01*
X38451Y318210D01*
X36500Y318598D01*
D02*
G37*
G36*
X124000Y304098D02*
X122049Y303710D01*
X120395Y302605D01*
X119290Y300951D01*
X118902Y299000D01*
X119290Y297049D01*
X120395Y295395D01*
X122049Y294290D01*
X124000Y293902D01*
X125951Y294290D01*
X127605Y295395D01*
X128710Y297049D01*
X129098Y299000D01*
X128710Y300951D01*
X127605Y302605D01*
X125951Y303710D01*
X124000Y304098D01*
D02*
G37*
G36*
X481000Y317382D02*
X478520Y317055D01*
X476209Y316098D01*
X474225Y314575D01*
X472702Y312591D01*
X471744Y310280D01*
X471418Y307800D01*
X471744Y305320D01*
X472702Y303009D01*
X474225Y301024D01*
X476209Y299502D01*
X478520Y298545D01*
X481000Y298218D01*
X483480Y298545D01*
X485791Y299502D01*
X487775Y301024D01*
X489298Y303009D01*
X490256Y305320D01*
X490582Y307800D01*
X490256Y310280D01*
X489298Y312591D01*
X487775Y314575D01*
X485791Y316098D01*
X483480Y317055D01*
X481000Y317382D01*
D02*
G37*
G36*
X116000Y219098D02*
X114049Y218710D01*
X112500Y217675D01*
X110951Y218710D01*
X109000Y219098D01*
X107049Y218710D01*
X105905Y217945D01*
X105000Y217708D01*
X104095Y217945D01*
X102951Y218710D01*
X101000Y219098D01*
X99049Y218710D01*
X97395Y217605D01*
X96290Y215951D01*
X95902Y214000D01*
X96290Y212049D01*
X97395Y210395D01*
X99049Y209290D01*
X101000Y208902D01*
X102951Y209290D01*
X104095Y210055D01*
X105000Y210292D01*
X105905Y210055D01*
X107049Y209290D01*
X109000Y208902D01*
X110951Y209290D01*
X112500Y210325D01*
X114049Y209290D01*
X116000Y208902D01*
X117951Y209290D01*
X119605Y210395D01*
X120710Y212049D01*
X121098Y214000D01*
X120710Y215951D01*
X119605Y217605D01*
X117951Y218710D01*
X116000Y219098D01*
D02*
G37*
G36*
X242999Y67098D02*
X241049Y66710D01*
X239395Y65605D01*
X238290Y63951D01*
X237902Y62000D01*
X238290Y60049D01*
X239395Y58395D01*
X241049Y57290D01*
X242999Y56902D01*
X244950Y57290D01*
X246604Y58395D01*
X247709Y60049D01*
X248097Y62000D01*
X247709Y63951D01*
X246604Y65605D01*
X244950Y66710D01*
X242999Y67098D01*
D02*
G37*
G36*
X257513Y74851D02*
X255562Y74463D01*
X253908Y73358D01*
X252803Y71704D01*
X252415Y69753D01*
X252803Y67803D01*
X253908Y66149D01*
X255562Y65044D01*
X257513Y64655D01*
X259464Y65044D01*
X261117Y66149D01*
X262222Y67803D01*
X262610Y69753D01*
X262222Y71704D01*
X261117Y73358D01*
X259464Y74463D01*
X257513Y74851D01*
D02*
G37*
G36*
X55000Y62332D02*
X52520Y62006D01*
X50209Y61048D01*
X48225Y59525D01*
X46702Y57541D01*
X45745Y55230D01*
X45418Y52750D01*
X45745Y50270D01*
X46702Y47959D01*
X48225Y45975D01*
X50209Y44452D01*
X52520Y43495D01*
X55000Y43168D01*
X57480Y43495D01*
X59791Y44452D01*
X61775Y45975D01*
X63298Y47959D01*
X64255Y50270D01*
X64582Y52750D01*
X64255Y55230D01*
X63298Y57541D01*
X61775Y59525D01*
X59791Y61048D01*
X57480Y62006D01*
X55000Y62332D01*
D02*
G37*
G36*
X321000Y60098D02*
X319049Y59710D01*
X317395Y58605D01*
X316290Y56951D01*
X315902Y55000D01*
X316290Y53049D01*
X317395Y51395D01*
X319049Y50290D01*
X321000Y49902D01*
X322951Y50290D01*
X324605Y51395D01*
X325710Y53049D01*
X326098Y55000D01*
X325710Y56951D01*
X324605Y58605D01*
X322951Y59710D01*
X321000Y60098D01*
D02*
G37*
G36*
X380000Y97598D02*
X378049Y97210D01*
X376395Y96105D01*
X375290Y94451D01*
X374902Y92500D01*
X375290Y90549D01*
X376395Y88895D01*
Y88605D01*
X375290Y86951D01*
X374902Y85000D01*
X375290Y83049D01*
X375824Y82250D01*
X376323Y81250D01*
X375824Y80250D01*
X375290Y79451D01*
X374902Y77500D01*
X375290Y75549D01*
X376395Y73895D01*
Y73605D01*
X375290Y71951D01*
X374902Y70000D01*
X375290Y68049D01*
X376395Y66395D01*
X378049Y65290D01*
X380000Y64902D01*
X381951Y65290D01*
X383605Y66395D01*
X384710Y68049D01*
X385098Y70000D01*
X384710Y71951D01*
X383605Y73605D01*
Y73895D01*
X384710Y75549D01*
X385098Y77500D01*
X384710Y79451D01*
X384176Y80250D01*
X383677Y81250D01*
X384176Y82250D01*
X384710Y83049D01*
X385098Y85000D01*
X384710Y86951D01*
X383605Y88605D01*
Y88895D01*
X384710Y90549D01*
X385098Y92500D01*
X384710Y94451D01*
X383605Y96105D01*
X381951Y97210D01*
X380000Y97598D01*
D02*
G37*
G36*
X55000Y87732D02*
X52520Y87406D01*
X50209Y86448D01*
X48225Y84925D01*
X46702Y82941D01*
X45745Y80630D01*
X45418Y78150D01*
X45745Y75670D01*
X46702Y73359D01*
X48225Y71375D01*
X50209Y69852D01*
X52520Y68895D01*
X55000Y68568D01*
X57480Y68895D01*
X59791Y69852D01*
X61775Y71375D01*
X63298Y73359D01*
X64255Y75670D01*
X64582Y78150D01*
X64255Y80630D01*
X63298Y82941D01*
X61775Y84925D01*
X59791Y86448D01*
X57480Y87406D01*
X55000Y87732D01*
D02*
G37*
G36*
X175000Y90098D02*
X173049Y89710D01*
X171875Y88925D01*
X170701Y89710D01*
X168750Y90098D01*
X166799Y89710D01*
X165145Y88605D01*
X164040Y86951D01*
X163652Y85000D01*
X164040Y83049D01*
X164162Y82867D01*
X163395Y82355D01*
X162290Y80701D01*
X161902Y78750D01*
X162290Y76799D01*
X163395Y75145D01*
X165049Y74040D01*
X167000Y73652D01*
X168951Y74040D01*
X170312Y74950D01*
X171299Y74290D01*
X173250Y73902D01*
X175201Y74290D01*
X176855Y75395D01*
X177960Y77049D01*
X178348Y79000D01*
X177960Y80951D01*
X177954Y80960D01*
X178605Y81395D01*
X179710Y83049D01*
X180098Y85000D01*
X179710Y86951D01*
X178605Y88605D01*
X176951Y89710D01*
X175000Y90098D01*
D02*
G37*
G36*
X227000Y68098D02*
X225049Y67710D01*
X223500Y66675D01*
X221951Y67710D01*
X220000Y68098D01*
X218049Y67710D01*
X216395Y66605D01*
X215290Y64951D01*
X214902Y63000D01*
X215290Y61049D01*
X216395Y59395D01*
X218049Y58290D01*
X220000Y57902D01*
X221951Y58290D01*
X223500Y59325D01*
X225049Y58290D01*
X227000Y57902D01*
X228951Y58290D01*
X230605Y59395D01*
X231710Y61049D01*
X232098Y63000D01*
X231710Y64951D01*
X230605Y66605D01*
X228951Y67710D01*
X227000Y68098D01*
D02*
G37*
G36*
X25000Y87482D02*
X22520Y87156D01*
X20209Y86198D01*
X18225Y84675D01*
X16702Y82691D01*
X15745Y80380D01*
X15418Y77900D01*
X15745Y75420D01*
X16702Y73109D01*
X18225Y71125D01*
X20209Y69602D01*
X22520Y68644D01*
X25000Y68318D01*
X27480Y68644D01*
X29791Y69602D01*
X31776Y71125D01*
X33298Y73109D01*
X34255Y75420D01*
X34582Y77900D01*
X34255Y80380D01*
X33298Y82691D01*
X31776Y84675D01*
X29791Y86198D01*
X27480Y87156D01*
X25000Y87482D01*
D02*
G37*
G36*
Y62082D02*
X22520Y61755D01*
X20209Y60798D01*
X18225Y59275D01*
X16702Y57291D01*
X15745Y54980D01*
X15418Y52500D01*
X15745Y50020D01*
X16702Y47709D01*
X18225Y45725D01*
X20209Y44202D01*
X22520Y43245D01*
X25000Y42918D01*
X27480Y43245D01*
X29791Y44202D01*
X31776Y45725D01*
X33298Y47709D01*
X34255Y50020D01*
X34582Y52500D01*
X34255Y54980D01*
X33298Y57291D01*
X31776Y59275D01*
X29791Y60798D01*
X27480Y61755D01*
X25000Y62082D01*
D02*
G37*
G36*
X222000Y24318D02*
X219659Y23852D01*
X217674Y22526D01*
X216348Y20541D01*
X215882Y18200D01*
Y13200D01*
X216348Y10859D01*
X217674Y8874D01*
X219659Y7548D01*
X222000Y7082D01*
X224341Y7548D01*
X226326Y8874D01*
X227652Y10859D01*
X228118Y13200D01*
Y18200D01*
X227652Y20541D01*
X226326Y22526D01*
X224341Y23852D01*
X222000Y24318D01*
D02*
G37*
G36*
X278100D02*
X275759Y23852D01*
X273774Y22526D01*
X272448Y20541D01*
X271982Y18200D01*
Y13200D01*
X272448Y10859D01*
X273774Y8874D01*
X275759Y7548D01*
X278100Y7082D01*
X280441Y7548D01*
X282426Y8874D01*
X283752Y10859D01*
X284218Y13200D01*
Y18200D01*
X283752Y20541D01*
X282426Y22526D01*
X280441Y23852D01*
X278100Y24318D01*
D02*
G37*
G36*
X93500D02*
X91159Y23852D01*
X89174Y22526D01*
X87848Y20541D01*
X87382Y18200D01*
Y13200D01*
X87848Y10859D01*
X89174Y8874D01*
X91159Y7548D01*
X93500Y7082D01*
X95841Y7548D01*
X97826Y8874D01*
X99152Y10859D01*
X99618Y13200D01*
Y18200D01*
X99152Y20541D01*
X97826Y22526D01*
X95841Y23852D01*
X93500Y24318D01*
D02*
G37*
G36*
X149600D02*
X147259Y23852D01*
X145274Y22526D01*
X143948Y20541D01*
X143483Y18200D01*
Y13200D01*
X143948Y10859D01*
X145274Y8874D01*
X147259Y7548D01*
X149600Y7082D01*
X151941Y7548D01*
X153926Y8874D01*
X155252Y10859D01*
X155717Y13200D01*
Y18200D01*
X155252Y20541D01*
X153926Y22526D01*
X151941Y23852D01*
X149600Y24318D01*
D02*
G37*
G36*
X55000Y36932D02*
X52520Y36606D01*
X50209Y35648D01*
X48225Y34125D01*
X46702Y32141D01*
X45745Y29830D01*
X45418Y27350D01*
X45745Y24870D01*
X46702Y22559D01*
X48225Y20575D01*
X50209Y19052D01*
X52520Y18095D01*
X55000Y17768D01*
X57480Y18095D01*
X59791Y19052D01*
X61775Y20575D01*
X63298Y22559D01*
X64255Y24870D01*
X64582Y27350D01*
X64255Y29830D01*
X63298Y32141D01*
X61775Y34125D01*
X59791Y35648D01*
X57480Y36606D01*
X55000Y36932D01*
D02*
G37*
G36*
X225800Y54117D02*
X223459Y53652D01*
X221474Y52326D01*
X220148Y50341D01*
X219683Y48000D01*
Y44000D01*
X220148Y41659D01*
X221474Y39674D01*
X223459Y38348D01*
X225800Y37882D01*
X228141Y38348D01*
X230126Y39674D01*
X231452Y41659D01*
X231917Y44000D01*
Y48000D01*
X231452Y50341D01*
X230126Y52326D01*
X228141Y53652D01*
X225800Y54117D01*
D02*
G37*
G36*
X274300D02*
X271959Y53652D01*
X269974Y52326D01*
X268648Y50341D01*
X268183Y48000D01*
Y44000D01*
X268648Y41659D01*
X269974Y39674D01*
X271959Y38348D01*
X274300Y37882D01*
X276641Y38348D01*
X278626Y39674D01*
X279952Y41659D01*
X280417Y44000D01*
Y48000D01*
X279952Y50341D01*
X278626Y52326D01*
X276641Y53652D01*
X274300Y54117D01*
D02*
G37*
G36*
X97300D02*
X94959Y53652D01*
X92974Y52326D01*
X91648Y50341D01*
X91182Y48000D01*
Y44000D01*
X91648Y41659D01*
X92974Y39674D01*
X94959Y38348D01*
X97300Y37882D01*
X99641Y38348D01*
X101626Y39674D01*
X102952Y41659D01*
X103418Y44000D01*
Y48000D01*
X102952Y50341D01*
X101626Y52326D01*
X99641Y53652D01*
X97300Y54117D01*
D02*
G37*
G36*
X145800D02*
X143459Y53652D01*
X141474Y52326D01*
X140148Y50341D01*
X139682Y48000D01*
Y44000D01*
X140148Y41659D01*
X141474Y39674D01*
X143459Y38348D01*
X145800Y37882D01*
X148141Y38348D01*
X150126Y39674D01*
X151452Y41659D01*
X151917Y44000D01*
Y48000D01*
X151452Y50341D01*
X150126Y52326D01*
X148141Y53652D01*
X145800Y54117D01*
D02*
G37*
G36*
X272850Y104948D02*
X270899Y104560D01*
X269245Y103455D01*
X268140Y101801D01*
X267752Y99850D01*
X268140Y97899D01*
X269245Y96245D01*
X270899Y95140D01*
X272850Y94752D01*
X274801Y95140D01*
X276455Y96245D01*
X277560Y97899D01*
X277948Y99850D01*
X277560Y101801D01*
X276455Y103455D01*
X274801Y104560D01*
X272850Y104948D01*
D02*
G37*
G36*
X369000Y195098D02*
X367049Y194710D01*
X365395Y193605D01*
X364290Y191951D01*
X363902Y190000D01*
X364290Y188049D01*
X365395Y186395D01*
X367049Y185290D01*
X369000Y184902D01*
X370951Y185290D01*
X372605Y186395D01*
X373710Y188049D01*
X374098Y190000D01*
X373710Y191951D01*
X372605Y193605D01*
X370951Y194710D01*
X369000Y195098D01*
D02*
G37*
G36*
X276000Y211098D02*
X274049Y210710D01*
X272395Y209605D01*
X271290Y207951D01*
X270902Y206000D01*
X271290Y204049D01*
X272055Y202905D01*
X272292Y202000D01*
X272055Y201095D01*
X271290Y199951D01*
X270902Y198000D01*
X271290Y196049D01*
X272395Y194395D01*
X274049Y193290D01*
X276000Y192902D01*
X277951Y193290D01*
X279605Y194395D01*
X280710Y196049D01*
X281098Y198000D01*
X280710Y199951D01*
X279945Y201095D01*
X279708Y202000D01*
X279945Y202905D01*
X280710Y204049D01*
X281098Y206000D01*
X280710Y207951D01*
X279605Y209605D01*
X277951Y210710D01*
X276000Y211098D01*
D02*
G37*
G36*
X281000Y180098D02*
X279049Y179710D01*
X277395Y178605D01*
X276290Y176951D01*
X275902Y175000D01*
X276290Y173049D01*
X277395Y171395D01*
X279049Y170290D01*
X281000Y169902D01*
X282951Y170290D01*
X284605Y171395D01*
X285710Y173049D01*
X286098Y175000D01*
X285710Y176951D01*
X284605Y178605D01*
X282951Y179710D01*
X281000Y180098D01*
D02*
G37*
G36*
X270000Y190098D02*
X268049Y189710D01*
X266395Y188605D01*
X265290Y186951D01*
X264902Y185000D01*
X265290Y183049D01*
X266395Y181395D01*
X268049Y180290D01*
X270000Y179902D01*
X271951Y180290D01*
X273605Y181395D01*
X274710Y183049D01*
X275098Y185000D01*
X274710Y186951D01*
X273605Y188605D01*
X271951Y189710D01*
X270000Y190098D01*
D02*
G37*
G36*
X438000Y203098D02*
X436049Y202710D01*
X434395Y201605D01*
X433290Y199951D01*
X432902Y198000D01*
X433290Y196049D01*
X434395Y194395D01*
X436049Y193290D01*
X438000Y192902D01*
X439951Y193290D01*
X441605Y194395D01*
X442710Y196049D01*
X443098Y198000D01*
X442710Y199951D01*
X441605Y201605D01*
X439951Y202710D01*
X438000Y203098D01*
D02*
G37*
G36*
X189000Y209098D02*
X187049Y208710D01*
X185395Y207605D01*
X184290Y205951D01*
X183902Y204000D01*
X184290Y202049D01*
X185395Y200395D01*
X187049Y199290D01*
X189000Y198902D01*
X190951Y199290D01*
X192605Y200395D01*
X193710Y202049D01*
X194098Y204000D01*
X193710Y205951D01*
X192605Y207605D01*
X190951Y208710D01*
X189000Y209098D01*
D02*
G37*
G36*
X212000Y219098D02*
X210049Y218710D01*
X208395Y217605D01*
X207290Y215951D01*
X206902Y214000D01*
X207106Y212974D01*
X206026Y211894D01*
X205000Y212098D01*
X203049Y211710D01*
X201395Y210605D01*
X200290Y208951D01*
X199902Y207000D01*
X200290Y205049D01*
X201395Y203395D01*
X203049Y202290D01*
X205000Y201902D01*
X206951Y202290D01*
X208605Y203395D01*
X209710Y205049D01*
X210098Y207000D01*
X209894Y208026D01*
X210974Y209106D01*
X212000Y208902D01*
X213951Y209290D01*
X215605Y210395D01*
X216710Y212049D01*
X217098Y214000D01*
X216710Y215951D01*
X215605Y217605D01*
X213951Y218710D01*
X212000Y219098D01*
D02*
G37*
G36*
X178000Y205098D02*
X176049Y204710D01*
X174395Y203605D01*
X173290Y201951D01*
X172902Y200000D01*
X173290Y198049D01*
X174395Y196395D01*
X176049Y195290D01*
X178000Y194902D01*
X179951Y195290D01*
X181605Y196395D01*
X182710Y198049D01*
X183098Y200000D01*
X182710Y201951D01*
X181605Y203605D01*
X179951Y204710D01*
X178000Y205098D01*
D02*
G37*
G36*
X89250Y206098D02*
X87299Y205710D01*
X85645Y204605D01*
X84540Y202951D01*
X84152Y201000D01*
X84540Y199049D01*
X85645Y197395D01*
X87299Y196290D01*
X89250Y195902D01*
X91201Y196290D01*
X92855Y197395D01*
X93960Y199049D01*
X94348Y201000D01*
X93960Y202951D01*
X92855Y204605D01*
X91201Y205710D01*
X89250Y206098D01*
D02*
G37*
G36*
X192000Y185098D02*
X190049Y184710D01*
X188395Y183605D01*
X187290Y181951D01*
X186902Y180000D01*
X187290Y178049D01*
X188395Y176395D01*
X190049Y175290D01*
X192000Y174902D01*
X193951Y175290D01*
X194930Y175944D01*
X195228Y176143D01*
X196143Y175228D01*
X195944Y174930D01*
X195290Y173951D01*
X194902Y172000D01*
X195290Y170049D01*
X196395Y168395D01*
X198049Y167290D01*
X200000Y166902D01*
X201951Y167290D01*
X203605Y168395D01*
X204710Y170049D01*
X205098Y172000D01*
X204710Y173951D01*
X203605Y175605D01*
X201951Y176710D01*
X200000Y177098D01*
X198049Y176710D01*
X197070Y176056D01*
X196772Y175857D01*
X195857Y176772D01*
X196056Y177070D01*
X196710Y178049D01*
X197098Y180000D01*
X196710Y181951D01*
X195605Y183605D01*
X193951Y184710D01*
X192000Y185098D01*
D02*
G37*
G36*
X115000Y137098D02*
X113049Y136710D01*
X111395Y135605D01*
X110290Y133951D01*
X109902Y132000D01*
X110290Y130049D01*
X111395Y128395D01*
X113049Y127290D01*
X115000Y126902D01*
X116951Y127290D01*
X118605Y128395D01*
X119710Y130049D01*
X120098Y132000D01*
X119710Y133951D01*
X118605Y135605D01*
X116951Y136710D01*
X115000Y137098D01*
D02*
G37*
G36*
X240000Y147098D02*
X238049Y146710D01*
X236395Y145605D01*
X235290Y143951D01*
X234902Y142000D01*
X235065Y141181D01*
X234000Y140098D01*
X232049Y139710D01*
X230395Y138604D01*
X229290Y136951D01*
X228902Y135000D01*
X229290Y133049D01*
X230395Y131395D01*
X232049Y130290D01*
X234000Y129902D01*
X235950Y130290D01*
X237604Y131395D01*
X238709Y133049D01*
X239097Y135000D01*
X238934Y135819D01*
X240000Y136902D01*
X241951Y137290D01*
X243605Y138395D01*
X244710Y140049D01*
X245098Y142000D01*
X244710Y143951D01*
X243605Y145605D01*
X241951Y146710D01*
X240000Y147098D01*
D02*
G37*
G36*
X90000D02*
X88049Y146710D01*
X86395Y145605D01*
X85290Y143951D01*
X84902Y142000D01*
X85290Y140049D01*
X86395Y138395D01*
X86785Y138135D01*
Y136865D01*
X86395Y136605D01*
X85290Y134951D01*
X84902Y133000D01*
X85290Y131049D01*
X86395Y129395D01*
X87340Y128764D01*
Y127236D01*
X86395Y126605D01*
X85290Y124951D01*
X84902Y123000D01*
X85290Y121049D01*
X86395Y119395D01*
X86785Y119135D01*
Y117865D01*
X86395Y117605D01*
X85290Y115951D01*
X84902Y114000D01*
X85290Y112049D01*
X86395Y110395D01*
X88049Y109290D01*
X90000Y108902D01*
X91951Y109290D01*
X93605Y110395D01*
X94710Y112049D01*
X95098Y114000D01*
X94710Y115951D01*
X93605Y117605D01*
X93215Y117865D01*
Y119135D01*
X93605Y119395D01*
X94710Y121049D01*
X95098Y123000D01*
X94710Y124951D01*
X93605Y126605D01*
X92660Y127236D01*
Y128764D01*
X93605Y129395D01*
X94710Y131049D01*
X95098Y133000D01*
X94710Y134951D01*
X93605Y136605D01*
X93215Y136865D01*
Y138135D01*
X93605Y138395D01*
X94710Y140049D01*
X95098Y142000D01*
X94710Y143951D01*
X93605Y145605D01*
X91951Y146710D01*
X90000Y147098D01*
D02*
G37*
G36*
X29000Y128098D02*
X27049Y127710D01*
X25395Y126605D01*
X24290Y124951D01*
X23902Y123000D01*
X24290Y121049D01*
X25395Y119395D01*
X27049Y118290D01*
X29000Y117902D01*
X30951Y118290D01*
X32605Y119395D01*
X33710Y121049D01*
X34098Y123000D01*
X33710Y124951D01*
X32605Y126605D01*
X30951Y127710D01*
X29000Y128098D01*
D02*
G37*
G36*
X166000Y159098D02*
X164049Y158710D01*
X162395Y157605D01*
X161290Y155951D01*
X160902Y154000D01*
X161290Y152049D01*
X162325Y150500D01*
X161290Y148951D01*
X160902Y147000D01*
X161290Y145049D01*
X162325Y143500D01*
X161290Y141951D01*
X160902Y140000D01*
X161290Y138049D01*
X162395Y136395D01*
X164049Y135290D01*
X166000Y134902D01*
X167951Y135290D01*
X169605Y136395D01*
X170710Y138049D01*
X171098Y140000D01*
X170710Y141951D01*
X169675Y143500D01*
X170710Y145049D01*
X171098Y147000D01*
X170710Y148951D01*
X169675Y150500D01*
X170710Y152049D01*
X171098Y154000D01*
X170710Y155951D01*
X169605Y157605D01*
X167951Y158710D01*
X166000Y159098D01*
D02*
G37*
G36*
X353000Y158098D02*
X351049Y157710D01*
X349395Y156605D01*
X348290Y154951D01*
X347902Y153000D01*
X348290Y151049D01*
X349395Y149395D01*
X351049Y148290D01*
X353000Y147902D01*
X354951Y148290D01*
X356605Y149395D01*
X357710Y151049D01*
X358098Y153000D01*
X357710Y154951D01*
X356605Y156605D01*
X354951Y157710D01*
X353000Y158098D01*
D02*
G37*
G36*
X82250Y166098D02*
X80299Y165710D01*
X79155Y164945D01*
X78250Y164708D01*
X77345Y164945D01*
X76201Y165710D01*
X74250Y166098D01*
X72299Y165710D01*
X70645Y164605D01*
X69540Y162951D01*
X69152Y161000D01*
X69540Y159049D01*
X70645Y157395D01*
X72299Y156290D01*
X74250Y155902D01*
X76201Y156290D01*
X77345Y157055D01*
X78250Y157292D01*
X79155Y157055D01*
X80299Y156290D01*
X82250Y155902D01*
X83477Y156146D01*
X84928Y155365D01*
X85040Y154799D01*
X86145Y153145D01*
X87799Y152040D01*
X89750Y151652D01*
X91701Y152040D01*
X93355Y153145D01*
X94460Y154799D01*
X94848Y156750D01*
X94460Y158701D01*
X93355Y160355D01*
X91701Y161460D01*
X89750Y161848D01*
X88523Y161604D01*
X87072Y162386D01*
X86960Y162951D01*
X85855Y164605D01*
X84201Y165710D01*
X82250Y166098D01*
D02*
G37*
G36*
X252999Y147098D02*
X251049Y146710D01*
X249395Y145604D01*
X248290Y143951D01*
X247901Y142000D01*
X248290Y140049D01*
X249395Y138395D01*
X251049Y137290D01*
X252999Y136902D01*
X254950Y137290D01*
X256604Y138395D01*
X257709Y140049D01*
X258097Y142000D01*
X257709Y143951D01*
X256604Y145604D01*
X254950Y146710D01*
X252999Y147098D01*
D02*
G37*
G36*
X75000Y149098D02*
X73049Y148710D01*
X71395Y147605D01*
X70290Y145951D01*
X69902Y144000D01*
X70290Y142049D01*
X71395Y140395D01*
X73049Y139290D01*
X75000Y138902D01*
X76951Y139290D01*
X78605Y140395D01*
X79710Y142049D01*
X80098Y144000D01*
X79710Y145951D01*
X78605Y147605D01*
X76951Y148710D01*
X75000Y149098D01*
D02*
G37*
G36*
X209000Y735098D02*
X207049Y734710D01*
X205395Y733605D01*
X204290Y731951D01*
X203902Y730000D01*
X204290Y728049D01*
X205395Y726395D01*
X207049Y725290D01*
X209000Y724902D01*
X210951Y725290D01*
X212605Y726395D01*
X213710Y728049D01*
X214098Y730000D01*
X213710Y731951D01*
X212605Y733605D01*
X210951Y734710D01*
X209000Y735098D01*
D02*
G37*
G36*
X227000Y742098D02*
X225049Y741710D01*
X223395Y740605D01*
X222290Y738951D01*
X221902Y737000D01*
X222290Y735049D01*
X223395Y733395D01*
X225049Y732290D01*
X227000Y731902D01*
X228951Y732290D01*
X230605Y733395D01*
X231710Y735049D01*
X232098Y737000D01*
X231710Y738951D01*
X230605Y740605D01*
X228951Y741710D01*
X227000Y742098D01*
D02*
G37*
G36*
X154000Y727098D02*
X152049Y726710D01*
X150395Y725605D01*
X149290Y723951D01*
X148902Y722000D01*
X149290Y720049D01*
X150395Y718395D01*
X152049Y717290D01*
X154000Y716902D01*
X155951Y717290D01*
X157605Y718395D01*
X158710Y720049D01*
X159098Y722000D01*
X158710Y723951D01*
X157605Y725605D01*
X155951Y726710D01*
X154000Y727098D01*
D02*
G37*
G36*
X197000Y715098D02*
X195049Y714710D01*
X193395Y713605D01*
X192290Y711951D01*
X191902Y710000D01*
X192290Y708049D01*
X193395Y706395D01*
X193785Y706135D01*
Y704865D01*
X193395Y704605D01*
X192290Y702951D01*
X191902Y701000D01*
X192290Y699049D01*
X193395Y697395D01*
X195049Y696290D01*
X197000Y695902D01*
X198951Y696290D01*
X200605Y697395D01*
X201710Y699049D01*
X202098Y701000D01*
X201710Y702951D01*
X200605Y704605D01*
X200215Y704865D01*
Y706135D01*
X200605Y706395D01*
X201710Y708049D01*
X202098Y710000D01*
X201710Y711951D01*
X200605Y713605D01*
X198951Y714710D01*
X197000Y715098D01*
D02*
G37*
G36*
X296000Y721098D02*
X294049Y720710D01*
X292395Y719605D01*
X291290Y717951D01*
X290902Y716000D01*
X291290Y714049D01*
X292395Y712395D01*
X294049Y711290D01*
X296000Y710902D01*
X297951Y711290D01*
X299605Y712395D01*
X300710Y714049D01*
X301098Y716000D01*
X300710Y717951D01*
X299605Y719605D01*
X297951Y720710D01*
X296000Y721098D01*
D02*
G37*
G36*
X209000Y749098D02*
X207049Y748710D01*
X205395Y747605D01*
X204290Y745951D01*
X203902Y744000D01*
X204290Y742049D01*
X205395Y740395D01*
X207049Y739290D01*
X209000Y738902D01*
X210951Y739290D01*
X212605Y740395D01*
X213710Y742049D01*
X214098Y744000D01*
X213710Y745951D01*
X212605Y747605D01*
X210951Y748710D01*
X209000Y749098D01*
D02*
G37*
G36*
X331000Y755098D02*
X329049Y754710D01*
X327395Y753605D01*
X326290Y751951D01*
X325902Y750000D01*
X326290Y748049D01*
X327395Y746395D01*
X329049Y745290D01*
X331000Y744902D01*
X332951Y745290D01*
X334605Y746395D01*
X335710Y748049D01*
X336098Y750000D01*
X335710Y751951D01*
X334605Y753605D01*
X332951Y754710D01*
X331000Y755098D01*
D02*
G37*
G36*
X268000Y742098D02*
X266049Y741710D01*
X264395Y740605D01*
X263290Y738951D01*
X263147Y738234D01*
X261853D01*
X261710Y738951D01*
X260605Y740605D01*
X258951Y741710D01*
X257000Y742098D01*
X255049Y741710D01*
X253395Y740605D01*
X252290Y738951D01*
X251902Y737000D01*
X252290Y735049D01*
X253395Y733395D01*
X255049Y732290D01*
X257000Y731902D01*
X258951Y732290D01*
X260605Y733395D01*
X261710Y735049D01*
X261853Y735766D01*
X263147D01*
X263290Y735049D01*
X264395Y733395D01*
X266049Y732290D01*
X268000Y731902D01*
X269951Y732290D01*
X271605Y733395D01*
X272710Y735049D01*
X273098Y737000D01*
X272710Y738951D01*
X271605Y740605D01*
X269951Y741710D01*
X268000Y742098D01*
D02*
G37*
G36*
X288000Y743098D02*
X286049Y742710D01*
X284395Y741605D01*
X283290Y739951D01*
X282902Y738000D01*
X283290Y736049D01*
X284395Y734395D01*
X286049Y733290D01*
X288000Y732902D01*
X289951Y733290D01*
X291605Y734395D01*
X292710Y736049D01*
X293098Y738000D01*
X292710Y739951D01*
X291605Y741605D01*
X289951Y742710D01*
X288000Y743098D01*
D02*
G37*
G36*
X358575Y746981D02*
X356878Y746758D01*
X355297Y746103D01*
X353939Y745061D01*
X352897Y743703D01*
X352242Y742122D01*
X352019Y740425D01*
X352242Y738728D01*
X352897Y737147D01*
X353939Y735789D01*
X355297Y734747D01*
X356878Y734092D01*
X358575Y733869D01*
X360272Y734092D01*
X361853Y734747D01*
X363211Y735789D01*
X364253Y737147D01*
X364908Y738728D01*
X365131Y740425D01*
X364908Y742122D01*
X364253Y743703D01*
X363211Y745061D01*
X361853Y746103D01*
X360272Y746758D01*
X358575Y746981D01*
D02*
G37*
G36*
X133000Y647098D02*
X131049Y646710D01*
X129395Y645605D01*
X128290Y643951D01*
X127902Y642000D01*
X128290Y640049D01*
X129395Y638395D01*
X131049Y637290D01*
X133000Y636902D01*
X134951Y637290D01*
X136605Y638395D01*
X137710Y640049D01*
X138098Y642000D01*
X137710Y643951D01*
X136605Y645605D01*
X134951Y646710D01*
X133000Y647098D01*
D02*
G37*
G36*
X162000Y651098D02*
X160049Y650710D01*
X158395Y649605D01*
X157290Y647951D01*
X156902Y646000D01*
X157290Y644049D01*
X158395Y642395D01*
X160049Y641290D01*
X162000Y640902D01*
X163951Y641290D01*
X165605Y642395D01*
X166710Y644049D01*
X167098Y646000D01*
X166710Y647951D01*
X165605Y649605D01*
X163951Y650710D01*
X162000Y651098D01*
D02*
G37*
G36*
X247000Y632098D02*
X245049Y631710D01*
X243395Y630605D01*
X242290Y628951D01*
X242276Y628881D01*
X241039Y628592D01*
X240845Y628845D01*
X238547Y630608D01*
X235872Y631717D01*
X233000Y632095D01*
X230128Y631717D01*
X227453Y630608D01*
X225155Y628845D01*
X223391Y626548D01*
X222283Y623872D01*
X221905Y621000D01*
X222283Y618128D01*
X223391Y615452D01*
X225155Y613155D01*
X227453Y611391D01*
X230128Y610283D01*
X233000Y609905D01*
X235872Y610283D01*
X238547Y611391D01*
X240845Y613155D01*
X242609Y615452D01*
X243717Y618128D01*
X244095Y621000D01*
X244020Y621566D01*
X245210Y622258D01*
X247000Y621902D01*
X248951Y622290D01*
X250605Y623395D01*
X251710Y625049D01*
X252098Y627000D01*
X251710Y628951D01*
X250605Y630605D01*
X248951Y631710D01*
X247000Y632098D01*
D02*
G37*
G36*
X179000Y628098D02*
X177049Y627710D01*
X175395Y626605D01*
X174290Y624951D01*
X173902Y623000D01*
X174290Y621049D01*
X175395Y619395D01*
X177049Y618290D01*
X179000Y617902D01*
X180951Y618290D01*
X182605Y619395D01*
X183710Y621049D01*
X184098Y623000D01*
X183710Y624951D01*
X182605Y626605D01*
X180951Y627710D01*
X179000Y628098D01*
D02*
G37*
G36*
X354775Y631331D02*
X353078Y631108D01*
X351497Y630453D01*
X350139Y629411D01*
X349097Y628053D01*
X348442Y626472D01*
X348219Y624775D01*
X348442Y623078D01*
X349097Y621497D01*
X350139Y620139D01*
X351497Y619097D01*
X353078Y618442D01*
X354775Y618219D01*
X356472Y618442D01*
X358053Y619097D01*
X359411Y620139D01*
X360453Y621497D01*
X361108Y623078D01*
X361331Y624775D01*
X361108Y626472D01*
X360453Y628053D01*
X359411Y629411D01*
X358053Y630453D01*
X356472Y631108D01*
X354775Y631331D01*
D02*
G37*
G36*
X202025Y673123D02*
X200074Y672735D01*
X198420Y671630D01*
X197315Y669976D01*
X196927Y668025D01*
X197315Y666074D01*
X198420Y664420D01*
X200074Y663315D01*
X202025Y662927D01*
X203976Y663315D01*
X205630Y664420D01*
X206735Y666074D01*
X207123Y668025D01*
X206735Y669976D01*
X205630Y671630D01*
X203976Y672735D01*
X202025Y673123D01*
D02*
G37*
G36*
X349000Y686098D02*
X347049Y685710D01*
X345395Y684605D01*
X344290Y682951D01*
X343902Y681000D01*
X344290Y679049D01*
X345395Y677395D01*
X347049Y676290D01*
X349000Y675902D01*
X350951Y676290D01*
X352605Y677395D01*
X353710Y679049D01*
X354098Y681000D01*
X353710Y682951D01*
X352605Y684605D01*
X350951Y685710D01*
X349000Y686098D01*
D02*
G37*
G36*
X329000Y669098D02*
X327049Y668710D01*
X325395Y667605D01*
X324290Y665951D01*
X323902Y664000D01*
X324290Y662049D01*
X325395Y660395D01*
X327049Y659290D01*
X329000Y658902D01*
X330951Y659290D01*
X332605Y660395D01*
X333710Y662049D01*
X334098Y664000D01*
X333710Y665951D01*
X332605Y667605D01*
X330951Y668710D01*
X329000Y669098D01*
D02*
G37*
G36*
X348000Y651098D02*
X346049Y650710D01*
X344395Y649605D01*
X343290Y647951D01*
X342902Y646000D01*
X343290Y644049D01*
X344395Y642395D01*
X346049Y641290D01*
X348000Y640902D01*
X349951Y641290D01*
X351605Y642395D01*
X352710Y644049D01*
X353098Y646000D01*
X352710Y647951D01*
X351605Y649605D01*
X349951Y650710D01*
X348000Y651098D01*
D02*
G37*
G36*
X294000Y658098D02*
X292049Y657710D01*
X290395Y656605D01*
X289290Y654951D01*
X288902Y653000D01*
X289290Y651049D01*
X290395Y649395D01*
X292049Y648290D01*
X294000Y647902D01*
X295951Y648290D01*
X297605Y649395D01*
X298710Y651049D01*
X299098Y653000D01*
X298710Y654951D01*
X297605Y656605D01*
X295951Y657710D01*
X294000Y658098D01*
D02*
G37*
G36*
X136250Y1091348D02*
X134299Y1090960D01*
X132645Y1089855D01*
X131540Y1088201D01*
X131152Y1086250D01*
X131540Y1084299D01*
X132645Y1082645D01*
X134299Y1081540D01*
X136250Y1081152D01*
X138201Y1081540D01*
X139855Y1082645D01*
X140960Y1084299D01*
X141348Y1086250D01*
X140960Y1088201D01*
X139855Y1089855D01*
X138201Y1090960D01*
X136250Y1091348D01*
D02*
G37*
G36*
X164500Y1107595D02*
X161628Y1107217D01*
X158953Y1106108D01*
X156655Y1104345D01*
X154892Y1102047D01*
X153783Y1099372D01*
X153405Y1096500D01*
X153783Y1093628D01*
X154892Y1090953D01*
X156655Y1088655D01*
X158953Y1086891D01*
X161628Y1085783D01*
X164500Y1085405D01*
X167372Y1085783D01*
X170047Y1086891D01*
X172345Y1088655D01*
X174109Y1090953D01*
X175217Y1093628D01*
X175595Y1096500D01*
X175217Y1099372D01*
X174109Y1102047D01*
X172345Y1104345D01*
X170047Y1106108D01*
X167372Y1107217D01*
X164500Y1107595D01*
D02*
G37*
G36*
X103500Y1065598D02*
X101549Y1065210D01*
X99895Y1064105D01*
X98790Y1062451D01*
X98402Y1060500D01*
X98790Y1058549D01*
X99895Y1056895D01*
X101549Y1055790D01*
X103500Y1055402D01*
X105451Y1055790D01*
X107105Y1056895D01*
X108210Y1058549D01*
X108598Y1060500D01*
X108210Y1062451D01*
X107105Y1064105D01*
X105451Y1065210D01*
X103500Y1065598D01*
D02*
G37*
G36*
X479000Y1054098D02*
X477049Y1053710D01*
X475395Y1052605D01*
X474290Y1050951D01*
X473902Y1049000D01*
X474290Y1047049D01*
X475395Y1045395D01*
X477049Y1044290D01*
X479000Y1043902D01*
X480951Y1044290D01*
X482605Y1045395D01*
X483710Y1047049D01*
X484098Y1049000D01*
X483710Y1050951D01*
X482605Y1052605D01*
X480951Y1053710D01*
X479000Y1054098D01*
D02*
G37*
G36*
X30000Y1071095D02*
X27128Y1070717D01*
X24453Y1069609D01*
X22155Y1067845D01*
X20391Y1065547D01*
X19283Y1062872D01*
X18905Y1060000D01*
X19283Y1057128D01*
X20391Y1054453D01*
X22155Y1052155D01*
X24453Y1050391D01*
X27128Y1049283D01*
X30000Y1048905D01*
X32872Y1049283D01*
X35547Y1050391D01*
X37845Y1052155D01*
X39609Y1054453D01*
X40717Y1057128D01*
X41095Y1060000D01*
X40717Y1062872D01*
X39609Y1065547D01*
X37845Y1067845D01*
X35547Y1069609D01*
X32872Y1070717D01*
X30000Y1071095D01*
D02*
G37*
G36*
X228000Y1187598D02*
X226049Y1187210D01*
X224395Y1186105D01*
X223290Y1184451D01*
X222902Y1182500D01*
X223290Y1180549D01*
X224395Y1178895D01*
X226049Y1177790D01*
X228000Y1177402D01*
X229951Y1177790D01*
X231605Y1178895D01*
X232710Y1180549D01*
X233098Y1182500D01*
X232710Y1184451D01*
X231605Y1186105D01*
X229951Y1187210D01*
X228000Y1187598D01*
D02*
G37*
G36*
X341000Y1189098D02*
X339049Y1188710D01*
X337905Y1187945D01*
X337000Y1187708D01*
X336095Y1187945D01*
X334951Y1188710D01*
X333000Y1189098D01*
X331049Y1188710D01*
X329395Y1187605D01*
X329135Y1187215D01*
X327865D01*
X327605Y1187605D01*
X325951Y1188710D01*
X324000Y1189098D01*
X322049Y1188710D01*
X320395Y1187605D01*
X319290Y1185951D01*
X318902Y1184000D01*
X319290Y1182049D01*
X320055Y1180905D01*
X320292Y1180000D01*
X320055Y1179095D01*
X319290Y1177951D01*
X318902Y1176000D01*
X319290Y1174049D01*
X320395Y1172395D01*
X322049Y1171290D01*
X324000Y1170902D01*
X325951Y1171290D01*
X327605Y1172395D01*
X327865Y1172785D01*
X329135D01*
X329395Y1172395D01*
X331049Y1171290D01*
X333000Y1170902D01*
X334951Y1171290D01*
X336605Y1172395D01*
X337710Y1174049D01*
X338098Y1176000D01*
X337710Y1177951D01*
X336945Y1179095D01*
X336903Y1179255D01*
X337745Y1180097D01*
X337905Y1180055D01*
X339049Y1179290D01*
X341000Y1178902D01*
X342951Y1179290D01*
X344605Y1180395D01*
X345710Y1182049D01*
X346098Y1184000D01*
X345710Y1185951D01*
X344605Y1187605D01*
X342951Y1188710D01*
X341000Y1189098D01*
D02*
G37*
G36*
X275000Y1178598D02*
X273049Y1178210D01*
X271395Y1177105D01*
X270290Y1175451D01*
X269902Y1173500D01*
X270290Y1171549D01*
X271395Y1169895D01*
X273049Y1168790D01*
X275000Y1168402D01*
X276951Y1168790D01*
X278605Y1169895D01*
X279710Y1171549D01*
X280098Y1173500D01*
X279710Y1175451D01*
X278605Y1177105D01*
X276951Y1178210D01*
X275000Y1178598D01*
D02*
G37*
G36*
X402000Y1097348D02*
X400049Y1096960D01*
X398395Y1095855D01*
X397290Y1094201D01*
X396902Y1092250D01*
X397290Y1090299D01*
X398395Y1088645D01*
X400049Y1087540D01*
X402000Y1087152D01*
X403951Y1087540D01*
X405605Y1088645D01*
X406710Y1090299D01*
X407098Y1092250D01*
X406710Y1094201D01*
X405605Y1095855D01*
X403951Y1096960D01*
X402000Y1097348D01*
D02*
G37*
G36*
X114750Y1098848D02*
X112799Y1098460D01*
X111145Y1097355D01*
X110040Y1095701D01*
X109652Y1093750D01*
X110040Y1091799D01*
X111145Y1090145D01*
X112799Y1089040D01*
X114750Y1088652D01*
X116701Y1089040D01*
X118355Y1090145D01*
X119460Y1091799D01*
X119848Y1093750D01*
X119460Y1095701D01*
X118355Y1097355D01*
X116701Y1098460D01*
X114750Y1098848D01*
D02*
G37*
G36*
X288000Y764098D02*
X286049Y763710D01*
X284395Y762605D01*
X283290Y760951D01*
X282902Y759000D01*
X283290Y757049D01*
X284395Y755395D01*
X286049Y754290D01*
X288000Y753902D01*
X289951Y754290D01*
X291605Y755395D01*
X292710Y757049D01*
X293098Y759000D01*
X292710Y760951D01*
X291605Y762605D01*
X289951Y763710D01*
X288000Y764098D01*
D02*
G37*
G36*
X176000Y772098D02*
X174049Y771710D01*
X172395Y770605D01*
X171290Y768951D01*
X170902Y767000D01*
X171290Y765049D01*
X172395Y763395D01*
X174049Y762290D01*
X176000Y761902D01*
X177951Y762290D01*
X179605Y763395D01*
X180710Y765049D01*
X181098Y767000D01*
X180710Y768951D01*
X179605Y770605D01*
X177951Y771710D01*
X176000Y772098D01*
D02*
G37*
G36*
X255000Y770095D02*
X252128Y769717D01*
X249453Y768608D01*
X247155Y766845D01*
X245392Y764547D01*
X244283Y761872D01*
X243905Y759000D01*
X244283Y756128D01*
X245392Y753453D01*
X247155Y751155D01*
X249453Y749391D01*
X252128Y748283D01*
X255000Y747905D01*
X257872Y748283D01*
X260547Y749391D01*
X262845Y751155D01*
X264608Y753453D01*
X265717Y756128D01*
X266095Y759000D01*
X265717Y761872D01*
X264608Y764547D01*
X262845Y766845D01*
X260547Y768608D01*
X257872Y769717D01*
X255000Y770095D01*
D02*
G37*
G36*
X347500Y758056D02*
X345803Y757833D01*
X344222Y757178D01*
X342864Y756136D01*
X341822Y754778D01*
X341167Y753197D01*
X340944Y751500D01*
X341167Y749803D01*
X341822Y748222D01*
X342864Y746864D01*
X344222Y745822D01*
X345803Y745167D01*
X347500Y744944D01*
X349197Y745167D01*
X350778Y745822D01*
X352136Y746864D01*
X353178Y748222D01*
X353833Y749803D01*
X354056Y751500D01*
X353833Y753197D01*
X353178Y754778D01*
X352136Y756136D01*
X350778Y757178D01*
X349197Y757833D01*
X347500Y758056D01*
D02*
G37*
G36*
X225000Y770095D02*
X222128Y769717D01*
X219453Y768608D01*
X217155Y766845D01*
X215392Y764547D01*
X214283Y761872D01*
X213905Y759000D01*
X214283Y756128D01*
X215392Y753453D01*
X217155Y751155D01*
X219453Y749391D01*
X222128Y748283D01*
X225000Y747905D01*
X227872Y748283D01*
X230547Y749391D01*
X232845Y751155D01*
X234608Y753453D01*
X235717Y756128D01*
X236095Y759000D01*
X235717Y761872D01*
X234608Y764547D01*
X232845Y766845D01*
X230547Y768608D01*
X227872Y769717D01*
X225000Y770095D01*
D02*
G37*
G36*
X281000Y883098D02*
X279049Y882710D01*
X277395Y881605D01*
X276290Y879951D01*
X275902Y878000D01*
X276290Y876049D01*
X277395Y874395D01*
X279049Y873290D01*
X281000Y872902D01*
X282951Y873290D01*
X284605Y874395D01*
X285710Y876049D01*
X286098Y878000D01*
X285710Y879951D01*
X284605Y881605D01*
X282951Y882710D01*
X281000Y883098D01*
D02*
G37*
G36*
X61000Y1053098D02*
X59049Y1052710D01*
X57395Y1051605D01*
X56290Y1049951D01*
X55902Y1048000D01*
X56290Y1046049D01*
X57395Y1044395D01*
X59049Y1043290D01*
X61000Y1042902D01*
X62951Y1043290D01*
X64605Y1044395D01*
X65710Y1046049D01*
X66098Y1048000D01*
X65710Y1049951D01*
X64605Y1051605D01*
X62951Y1052710D01*
X61000Y1053098D01*
D02*
G37*
G36*
X210500Y883098D02*
X208549Y882710D01*
X206895Y881605D01*
X205790Y879951D01*
X205402Y878000D01*
X205790Y876049D01*
X206895Y874395D01*
X208549Y873290D01*
X210500Y872902D01*
X212451Y873290D01*
X214105Y874395D01*
X215210Y876049D01*
X215598Y878000D01*
X215210Y879951D01*
X214105Y881605D01*
X212451Y882710D01*
X210500Y883098D01*
D02*
G37*
G36*
X279000Y795098D02*
X277049Y794710D01*
X275395Y793605D01*
X274290Y791951D01*
X273902Y790000D01*
X274290Y788049D01*
X275395Y786395D01*
X277049Y785290D01*
X279000Y784902D01*
X280951Y785290D01*
X282605Y786395D01*
X283710Y788049D01*
X284098Y790000D01*
X283710Y791951D01*
X282605Y793605D01*
X280951Y794710D01*
X279000Y795098D01*
D02*
G37*
G36*
X210500Y813098D02*
X208549Y812710D01*
X206895Y811605D01*
X205790Y809951D01*
X205402Y808000D01*
X205790Y806049D01*
X206895Y804395D01*
X208549Y803290D01*
X210500Y802902D01*
X212451Y803290D01*
X214105Y804395D01*
X215210Y806049D01*
X215598Y808000D01*
X215210Y809951D01*
X214105Y811605D01*
X212451Y812710D01*
X210500Y813098D01*
D02*
G37*
G36*
X83000Y429098D02*
X81049Y428710D01*
X79395Y427605D01*
X78290Y425951D01*
X77902Y424000D01*
X78290Y422049D01*
X79395Y420395D01*
X81049Y419290D01*
X83000Y418902D01*
X84951Y419290D01*
X86605Y420395D01*
X87710Y422049D01*
X88098Y424000D01*
X87710Y425951D01*
X86605Y427605D01*
X84951Y428710D01*
X83000Y429098D01*
D02*
G37*
G36*
X59000Y431098D02*
X57049Y430710D01*
X55395Y429605D01*
X54290Y427951D01*
X53902Y426000D01*
X54290Y424049D01*
X55395Y422395D01*
X57049Y421290D01*
X59000Y420902D01*
X60951Y421290D01*
X62605Y422395D01*
X63710Y424049D01*
X64098Y426000D01*
X63710Y427951D01*
X62605Y429605D01*
X60951Y430710D01*
X59000Y431098D01*
D02*
G37*
G36*
X19000Y436982D02*
X16520Y436656D01*
X14209Y435698D01*
X12225Y434175D01*
X10702Y432191D01*
X9744Y429880D01*
X9418Y427400D01*
X9744Y424920D01*
X10702Y422609D01*
X12225Y420625D01*
X14209Y419102D01*
X16520Y418145D01*
X19000Y417818D01*
X21480Y418145D01*
X23791Y419102D01*
X25775Y420625D01*
X27298Y422609D01*
X28255Y424920D01*
X28582Y427400D01*
X28255Y429880D01*
X27298Y432191D01*
X25775Y434175D01*
X23791Y435698D01*
X21480Y436656D01*
X19000Y436982D01*
D02*
G37*
G36*
X101000Y424098D02*
X99049Y423710D01*
X97395Y422605D01*
X96290Y420951D01*
X95902Y419000D01*
X96290Y417049D01*
X97395Y415395D01*
X99049Y414290D01*
X101000Y413902D01*
X102951Y414290D01*
X104605Y415395D01*
X105710Y417049D01*
X106098Y419000D01*
X105710Y420951D01*
X104605Y422605D01*
X102951Y423710D01*
X101000Y424098D01*
D02*
G37*
G36*
X395000Y427098D02*
X393049Y426710D01*
X391395Y425605D01*
X390290Y423951D01*
X389902Y422000D01*
X390290Y420049D01*
X391395Y418395D01*
X393049Y417290D01*
X395000Y416902D01*
X396951Y417290D01*
X398605Y418395D01*
X399710Y420049D01*
X400098Y422000D01*
X399710Y423951D01*
X398605Y425605D01*
X396951Y426710D01*
X395000Y427098D01*
D02*
G37*
G36*
X382300Y480891D02*
X379559Y480530D01*
X377005Y479472D01*
X374811Y477789D01*
X373128Y475595D01*
X372070Y473041D01*
X371709Y470300D01*
X372070Y467559D01*
X373128Y465005D01*
X374811Y462811D01*
X377005Y461128D01*
X379559Y460070D01*
X382300Y459709D01*
X385041Y460070D01*
X387595Y461128D01*
X389789Y462811D01*
X391472Y465005D01*
X392530Y467559D01*
X392891Y470300D01*
X392530Y473041D01*
X391472Y475595D01*
X389789Y477789D01*
X387595Y479472D01*
X385041Y480530D01*
X382300Y480891D01*
D02*
G37*
G36*
X407700D02*
X404959Y480530D01*
X402405Y479472D01*
X400211Y477789D01*
X398528Y475595D01*
X397470Y473041D01*
X397109Y470300D01*
X397470Y467559D01*
X398528Y465005D01*
X400211Y462811D01*
X402405Y461128D01*
X404959Y460070D01*
X407700Y459709D01*
X410441Y460070D01*
X412995Y461128D01*
X415189Y462811D01*
X416872Y465005D01*
X417930Y467559D01*
X418291Y470300D01*
X417930Y473041D01*
X416872Y475595D01*
X415189Y477789D01*
X412995Y479472D01*
X410441Y480530D01*
X407700Y480891D01*
D02*
G37*
G36*
X205000Y458098D02*
X203049Y457710D01*
X201395Y456605D01*
X200290Y454951D01*
X199902Y453000D01*
X200290Y451049D01*
X201395Y449395D01*
X203049Y448290D01*
X205000Y447902D01*
X206951Y448290D01*
X208605Y449395D01*
X209710Y451049D01*
X210098Y453000D01*
X209710Y454951D01*
X208605Y456605D01*
X206951Y457710D01*
X205000Y458098D01*
D02*
G37*
G36*
X136000Y432097D02*
X134049Y431709D01*
X132395Y430604D01*
X131290Y428950D01*
X130902Y426999D01*
X131290Y425048D01*
X132395Y423394D01*
X134049Y422289D01*
X136000Y421901D01*
X137951Y422289D01*
X139605Y423394D01*
X140710Y425048D01*
X141098Y426999D01*
X140710Y428950D01*
X139605Y430604D01*
X137951Y431709D01*
X136000Y432097D01*
D02*
G37*
G36*
X481000Y444382D02*
X478520Y444055D01*
X476209Y443098D01*
X474225Y441575D01*
X472702Y439591D01*
X471744Y437280D01*
X471418Y434800D01*
X471744Y432320D01*
X472702Y430009D01*
X474225Y428024D01*
X476209Y426502D01*
X478520Y425545D01*
X481000Y425218D01*
X483480Y425545D01*
X485791Y426502D01*
X487775Y428024D01*
X489298Y430009D01*
X490256Y432320D01*
X490582Y434800D01*
X490256Y437280D01*
X489298Y439591D01*
X487775Y441575D01*
X485791Y443098D01*
X483480Y444055D01*
X481000Y444382D01*
D02*
G37*
G36*
X351000Y397098D02*
X349049Y396710D01*
X347395Y395605D01*
X346290Y393951D01*
X345902Y392000D01*
X346290Y390049D01*
X347395Y388395D01*
X349049Y387290D01*
X351000Y386902D01*
X352951Y387290D01*
X354605Y388395D01*
X355710Y390049D01*
X356098Y392000D01*
X355710Y393951D01*
X354605Y395605D01*
X352951Y396710D01*
X351000Y397098D01*
D02*
G37*
G36*
X168000Y399098D02*
X166049Y398710D01*
X164395Y397605D01*
X163290Y395951D01*
X162902Y394000D01*
X163290Y392049D01*
X164395Y390395D01*
X166049Y389290D01*
X168000Y388902D01*
X169951Y389290D01*
X171605Y390395D01*
X172710Y392049D01*
X173098Y394000D01*
X172710Y395951D01*
X171605Y397605D01*
X169951Y398710D01*
X168000Y399098D01*
D02*
G37*
G36*
X327500Y386598D02*
X325549Y386210D01*
X323895Y385105D01*
X322790Y383451D01*
X322402Y381500D01*
X322790Y379549D01*
X323895Y377895D01*
X325549Y376790D01*
X327500Y376402D01*
X329451Y376790D01*
X331105Y377895D01*
X332210Y379549D01*
X332598Y381500D01*
X332210Y383451D01*
X331105Y385105D01*
X329451Y386210D01*
X327500Y386598D01*
D02*
G37*
G36*
X19000Y386182D02*
X16520Y385855D01*
X14209Y384898D01*
X12225Y383376D01*
X10702Y381391D01*
X9744Y379080D01*
X9418Y376600D01*
X9744Y374120D01*
X10702Y371809D01*
X12225Y369825D01*
X14209Y368302D01*
X16520Y367345D01*
X19000Y367018D01*
X21480Y367345D01*
X23791Y368302D01*
X25775Y369825D01*
X27298Y371809D01*
X28255Y374120D01*
X28582Y376600D01*
X28255Y379080D01*
X27298Y381391D01*
X25775Y383376D01*
X23791Y384898D01*
X21480Y385855D01*
X19000Y386182D01*
D02*
G37*
G36*
X481000Y393582D02*
X478520Y393255D01*
X476209Y392298D01*
X474225Y390775D01*
X472702Y388791D01*
X471744Y386480D01*
X471418Y384000D01*
X471744Y381520D01*
X472702Y379209D01*
X474225Y377225D01*
X476209Y375702D01*
X478520Y374744D01*
X481000Y374418D01*
X483480Y374744D01*
X485791Y375702D01*
X487775Y377225D01*
X489298Y379209D01*
X490256Y381520D01*
X490582Y384000D01*
X490256Y386480D01*
X489298Y388791D01*
X487775Y390775D01*
X485791Y392298D01*
X483480Y393255D01*
X481000Y393582D01*
D02*
G37*
G36*
X285000Y410098D02*
X283049Y409710D01*
X281395Y408605D01*
X280290Y406951D01*
X279902Y405000D01*
X280290Y403049D01*
X281395Y401395D01*
X283049Y400290D01*
X285000Y399902D01*
X286951Y400290D01*
X288605Y401395D01*
X289710Y403049D01*
X290098Y405000D01*
X289710Y406951D01*
X288605Y408605D01*
X286951Y409710D01*
X285000Y410098D01*
D02*
G37*
G36*
X268000Y411098D02*
X266049Y410710D01*
X264395Y409605D01*
X263290Y407951D01*
X262902Y406000D01*
X263290Y404049D01*
X264395Y402395D01*
X266049Y401290D01*
X268000Y400902D01*
X269951Y401290D01*
X271605Y402395D01*
X272710Y404049D01*
X273098Y406000D01*
X272710Y407951D01*
X271605Y409605D01*
X269951Y410710D01*
X268000Y411098D01*
D02*
G37*
G36*
X481000Y418982D02*
X478520Y418655D01*
X476209Y417698D01*
X474225Y416175D01*
X472702Y414191D01*
X471744Y411880D01*
X471418Y409400D01*
X471744Y406920D01*
X472702Y404609D01*
X474225Y402625D01*
X476209Y401102D01*
X478520Y400145D01*
X481000Y399818D01*
X483480Y400145D01*
X485791Y401102D01*
X487775Y402625D01*
X489298Y404609D01*
X490256Y406920D01*
X490582Y409400D01*
X490256Y411880D01*
X489298Y414191D01*
X487775Y416175D01*
X485791Y417698D01*
X483480Y418655D01*
X481000Y418982D01*
D02*
G37*
G36*
X19000Y411582D02*
X16520Y411255D01*
X14209Y410298D01*
X12225Y408775D01*
X10702Y406791D01*
X9744Y404480D01*
X9418Y402000D01*
X9744Y399520D01*
X10702Y397209D01*
X12225Y395225D01*
X14209Y393702D01*
X16520Y392745D01*
X19000Y392418D01*
X21480Y392745D01*
X23791Y393702D01*
X25775Y395225D01*
X27298Y397209D01*
X28255Y399520D01*
X28582Y402000D01*
X28255Y404480D01*
X27298Y406791D01*
X25775Y408775D01*
X23791Y410298D01*
X21480Y411255D01*
X19000Y411582D01*
D02*
G37*
G36*
X365500Y408598D02*
X363549Y408210D01*
X361895Y407105D01*
X360790Y405451D01*
X360402Y403500D01*
X360790Y401549D01*
X361895Y399895D01*
X363549Y398790D01*
X365500Y398402D01*
X367451Y398790D01*
X369105Y399895D01*
X370210Y401549D01*
X370598Y403500D01*
X370210Y405451D01*
X369105Y407105D01*
X367451Y408210D01*
X365500Y408598D01*
D02*
G37*
G36*
X130000Y581095D02*
X127128Y580717D01*
X124452Y579608D01*
X122155Y577845D01*
X120392Y575547D01*
X119283Y572872D01*
X118905Y570000D01*
X119283Y567128D01*
X120392Y564453D01*
X122155Y562155D01*
X124452Y560392D01*
X127128Y559283D01*
X130000Y558905D01*
X132872Y559283D01*
X135548Y560392D01*
X137845Y562155D01*
X139608Y564453D01*
X140717Y567128D01*
X141095Y570000D01*
X140717Y572872D01*
X139608Y575547D01*
X137845Y577845D01*
X135548Y579608D01*
X132872Y580717D01*
X130000Y581095D01*
D02*
G37*
G36*
X212000Y590318D02*
X210303Y590094D01*
X208722Y589440D01*
X207364Y588398D01*
X206322Y587040D01*
X205667Y585459D01*
X205444Y583762D01*
X205667Y582065D01*
X206322Y580484D01*
X207364Y579126D01*
X208722Y578084D01*
X210303Y577429D01*
X212000Y577206D01*
X213697Y577429D01*
X215278Y578084D01*
X216636Y579126D01*
X217678Y580484D01*
X218333Y582065D01*
X218556Y583762D01*
X218333Y585459D01*
X217678Y587040D01*
X216636Y588398D01*
X215278Y589440D01*
X213697Y590094D01*
X212000Y590318D01*
D02*
G37*
G36*
X309000Y579095D02*
X306128Y578717D01*
X303452Y577608D01*
X301155Y575845D01*
X299391Y573547D01*
X298283Y570872D01*
X297905Y568000D01*
X298283Y565128D01*
X299391Y562453D01*
X301155Y560155D01*
X303452Y558391D01*
X306128Y557283D01*
X309000Y556905D01*
X311872Y557283D01*
X314548Y558391D01*
X316845Y560155D01*
X318608Y562453D01*
X319717Y565128D01*
X320095Y568000D01*
X319717Y570872D01*
X318608Y573547D01*
X316845Y575845D01*
X314548Y577608D01*
X311872Y578717D01*
X309000Y579095D01*
D02*
G37*
G36*
X393000Y568556D02*
X391303Y568333D01*
X389722Y567678D01*
X388364Y566636D01*
X387322Y565278D01*
X386667Y563697D01*
X386444Y562000D01*
X386667Y560303D01*
X387322Y558722D01*
X388364Y557364D01*
X389722Y556322D01*
X391303Y555667D01*
X393000Y555444D01*
X394697Y555667D01*
X396278Y556322D01*
X397636Y557364D01*
X398678Y558722D01*
X399333Y560303D01*
X399556Y562000D01*
X399333Y563697D01*
X398678Y565278D01*
X397636Y566636D01*
X396278Y567678D01*
X394697Y568333D01*
X393000Y568556D01*
D02*
G37*
G36*
X340000Y578095D02*
X337128Y577717D01*
X334453Y576609D01*
X332155Y574845D01*
X330392Y572547D01*
X329283Y569872D01*
X328905Y567000D01*
X329283Y564128D01*
X330392Y561452D01*
X332155Y559155D01*
X334453Y557392D01*
X337128Y556283D01*
X340000Y555905D01*
X342872Y556283D01*
X345547Y557392D01*
X347845Y559155D01*
X349608Y561452D01*
X350717Y564128D01*
X351095Y567000D01*
X350717Y569872D01*
X349608Y572547D01*
X347845Y574845D01*
X345547Y576609D01*
X342872Y577717D01*
X340000Y578095D01*
D02*
G37*
G36*
X202000Y632095D02*
X199128Y631717D01*
X196453Y630608D01*
X194155Y628845D01*
X192391Y626548D01*
X191283Y623872D01*
X190905Y621000D01*
X191283Y618128D01*
X192391Y615452D01*
X194155Y613155D01*
X196453Y611391D01*
X199128Y610283D01*
X202000Y609905D01*
X204872Y610283D01*
X207547Y611391D01*
X209845Y613155D01*
X211609Y615452D01*
X212717Y618128D01*
X213095Y621000D01*
X212717Y623872D01*
X211609Y626548D01*
X209845Y628845D01*
X207547Y630608D01*
X204872Y631717D01*
X202000Y632095D01*
D02*
G37*
G36*
X306000Y623098D02*
X304049Y622710D01*
X302395Y621605D01*
X301290Y619951D01*
X300902Y618000D01*
X301290Y616049D01*
X302395Y614395D01*
X304049Y613290D01*
X306000Y612902D01*
X307951Y613290D01*
X309605Y614395D01*
X310710Y616049D01*
X311098Y618000D01*
X310710Y619951D01*
X309605Y621605D01*
X307951Y622710D01*
X306000Y623098D01*
D02*
G37*
G36*
X344000Y620556D02*
X342303Y620333D01*
X340722Y619678D01*
X339364Y618636D01*
X338322Y617278D01*
X337667Y615697D01*
X337444Y614000D01*
X337667Y612303D01*
X338322Y610722D01*
X339364Y609364D01*
X340722Y608322D01*
X342303Y607667D01*
X344000Y607444D01*
X345697Y607667D01*
X347278Y608322D01*
X348636Y609364D01*
X349678Y610722D01*
X350333Y612303D01*
X350556Y614000D01*
X350333Y615697D01*
X349678Y617278D01*
X348636Y618636D01*
X347278Y619678D01*
X345697Y620333D01*
X344000Y620556D01*
D02*
G37*
G36*
X212000Y605556D02*
X210303Y605333D01*
X208722Y604678D01*
X207364Y603636D01*
X206322Y602278D01*
X205667Y600697D01*
X205444Y599000D01*
X205667Y597303D01*
X206322Y595722D01*
X207364Y594364D01*
X208722Y593322D01*
X210303Y592667D01*
X212000Y592444D01*
X213697Y592667D01*
X215278Y593322D01*
X216636Y594364D01*
X217678Y595722D01*
X218333Y597303D01*
X218556Y599000D01*
X218333Y600697D01*
X217678Y602278D01*
X216636Y603636D01*
X215278Y604678D01*
X213697Y605333D01*
X212000Y605556D01*
D02*
G37*
G36*
X286000Y612098D02*
X284049Y611710D01*
X282395Y610605D01*
X281290Y608951D01*
X280902Y607000D01*
X281290Y605049D01*
X282395Y603395D01*
X284049Y602290D01*
X286000Y601902D01*
X287951Y602290D01*
X289605Y603395D01*
X290710Y605049D01*
X291098Y607000D01*
X290710Y608951D01*
X289605Y610605D01*
X287951Y611710D01*
X286000Y612098D01*
D02*
G37*
G36*
X407700Y506291D02*
X404959Y505930D01*
X402405Y504872D01*
X400211Y503189D01*
X398528Y500995D01*
X397470Y498441D01*
X397109Y495700D01*
X397470Y492959D01*
X398528Y490405D01*
X400211Y488211D01*
X402405Y486528D01*
X404959Y485470D01*
X407700Y485109D01*
X410441Y485470D01*
X412995Y486528D01*
X415189Y488211D01*
X416872Y490405D01*
X417930Y492959D01*
X418291Y495700D01*
X417930Y498441D01*
X416872Y500995D01*
X415189Y503189D01*
X412995Y504872D01*
X410441Y505930D01*
X407700Y506291D01*
D02*
G37*
G36*
X390800Y506239D02*
X373800D01*
X373020Y506084D01*
X372358Y505642D01*
X371916Y504980D01*
X371761Y504200D01*
Y487200D01*
X371916Y486420D01*
X372358Y485758D01*
X373020Y485316D01*
X373800Y485161D01*
X390800D01*
X391580Y485316D01*
X392242Y485758D01*
X392684Y486420D01*
X392839Y487200D01*
Y504200D01*
X392684Y504980D01*
X392242Y505642D01*
X391580Y506084D01*
X390800Y506239D01*
D02*
G37*
G36*
X75000Y480098D02*
X73049Y479710D01*
X71395Y478605D01*
X70290Y476951D01*
X69902Y475000D01*
X70290Y473049D01*
X69460Y472006D01*
X69000Y472097D01*
X67049Y471709D01*
X65996Y471006D01*
X64853Y471769D01*
X65098Y473000D01*
X64710Y474951D01*
X63605Y476605D01*
X61951Y477710D01*
X60000Y478098D01*
X58049Y477710D01*
X56395Y476605D01*
X55290Y474951D01*
X54902Y473000D01*
X55290Y471049D01*
X54459Y470007D01*
X54000Y470098D01*
X52049Y469710D01*
X50395Y468605D01*
X49290Y466951D01*
X48902Y465000D01*
X49290Y463049D01*
X50395Y461395D01*
X52049Y460290D01*
X54000Y459902D01*
X55951Y460290D01*
X57605Y461395D01*
X58710Y463049D01*
X59098Y465000D01*
X58710Y466951D01*
X59541Y467993D01*
X60000Y467902D01*
X61951Y468290D01*
X63004Y468994D01*
X64147Y468230D01*
X63902Y466999D01*
X64290Y465048D01*
X65395Y463394D01*
X67049Y462289D01*
X69000Y461901D01*
X70951Y462289D01*
X72605Y463394D01*
X73710Y465048D01*
X74098Y466999D01*
X73710Y468950D01*
X74540Y469994D01*
X75000Y469902D01*
X76951Y470290D01*
X78605Y471395D01*
X79710Y473049D01*
X80098Y475000D01*
X79710Y476951D01*
X78605Y478605D01*
X76951Y479710D01*
X75000Y480098D01*
D02*
G37*
G36*
X119300Y484891D02*
X116559Y484530D01*
X114005Y483472D01*
X111811Y481789D01*
X110128Y479595D01*
X109070Y477041D01*
X108709Y474300D01*
X109070Y471559D01*
X110128Y469005D01*
X111811Y466811D01*
X114005Y465128D01*
X116559Y464070D01*
X119300Y463709D01*
X122041Y464070D01*
X124595Y465128D01*
X126789Y466811D01*
X128472Y469005D01*
X129530Y471559D01*
X129891Y474300D01*
X129530Y477041D01*
X128472Y479595D01*
X126789Y481789D01*
X124595Y483472D01*
X122041Y484530D01*
X119300Y484891D01*
D02*
G37*
G36*
X153200Y484839D02*
X136200D01*
X135420Y484684D01*
X134758Y484242D01*
X134316Y483580D01*
X134161Y482800D01*
Y465800D01*
X134316Y465020D01*
X134758Y464358D01*
X135420Y463916D01*
X136200Y463761D01*
X153200D01*
X153980Y463916D01*
X154642Y464358D01*
X155084Y465020D01*
X155239Y465800D01*
Y482800D01*
X155084Y483580D01*
X154642Y484242D01*
X153980Y484684D01*
X153200Y484839D01*
D02*
G37*
G36*
X350000Y535556D02*
X348303Y535333D01*
X346722Y534678D01*
X345364Y533636D01*
X344322Y532278D01*
X343667Y530697D01*
X343444Y529000D01*
X343667Y527303D01*
X344322Y525722D01*
X345364Y524364D01*
X346722Y523322D01*
X348303Y522667D01*
X350000Y522444D01*
X351697Y522667D01*
X353278Y523322D01*
X354636Y524364D01*
X355678Y525722D01*
X356333Y527303D01*
X356556Y529000D01*
X356333Y530697D01*
X355678Y532278D01*
X354636Y533636D01*
X353278Y534678D01*
X351697Y535333D01*
X350000Y535556D01*
D02*
G37*
G36*
X250000Y561098D02*
X248049Y560710D01*
X246395Y559605D01*
X245290Y557951D01*
X244902Y556000D01*
X245290Y554049D01*
X246395Y552395D01*
X248049Y551290D01*
X250000Y550902D01*
X251951Y551290D01*
X253605Y552395D01*
X254710Y554049D01*
X255098Y556000D01*
X254710Y557951D01*
X253605Y559605D01*
X251951Y560710D01*
X250000Y561098D01*
D02*
G37*
G36*
X398000Y535095D02*
X395128Y534717D01*
X392453Y533609D01*
X390155Y531845D01*
X388391Y529548D01*
X387283Y526872D01*
X386905Y524000D01*
X387283Y521128D01*
X388391Y518452D01*
X390155Y516155D01*
X392453Y514392D01*
X395128Y513283D01*
X398000Y512905D01*
X400872Y513283D01*
X403548Y514392D01*
X405845Y516155D01*
X407608Y518452D01*
X408717Y521128D01*
X409095Y524000D01*
X408717Y526872D01*
X407608Y529548D01*
X405845Y531845D01*
X403548Y533609D01*
X400872Y534717D01*
X398000Y535095D01*
D02*
G37*
G36*
X119300Y510291D02*
X116559Y509930D01*
X114005Y508872D01*
X111811Y507189D01*
X110128Y504995D01*
X109070Y502441D01*
X108709Y499700D01*
X109070Y496959D01*
X110128Y494405D01*
X111811Y492211D01*
X114005Y490528D01*
X116559Y489470D01*
X119300Y489109D01*
X122041Y489470D01*
X124595Y490528D01*
X126789Y492211D01*
X128472Y494405D01*
X129530Y496959D01*
X129891Y499700D01*
X129530Y502441D01*
X128472Y504995D01*
X126789Y507189D01*
X124595Y508872D01*
X122041Y509930D01*
X119300Y510291D01*
D02*
G37*
G36*
X144700D02*
X141959Y509930D01*
X139405Y508872D01*
X137211Y507189D01*
X135528Y504995D01*
X134470Y502441D01*
X134109Y499700D01*
X134470Y496959D01*
X135528Y494405D01*
X137211Y492211D01*
X139405Y490528D01*
X141959Y489470D01*
X144700Y489109D01*
X147441Y489470D01*
X149995Y490528D01*
X152189Y492211D01*
X153872Y494405D01*
X154930Y496959D01*
X155291Y499700D01*
X154930Y502441D01*
X153872Y504995D01*
X152189Y507189D01*
X149995Y508872D01*
X147441Y509930D01*
X144700Y510291D01*
D02*
G37*
%LPD*%
D80*
X338500Y351500D02*
X339000Y351000D01*
D88*
X481500Y23000D02*
D03*
X456100D02*
D03*
X25000Y27100D02*
D03*
X19000Y351200D02*
D03*
X481000Y358600D02*
D03*
D94*
X236000Y922000D02*
D03*
X248000Y921000D02*
D03*
X402750Y660000D02*
D03*
X67500Y974500D02*
D03*
X54250Y694500D02*
D03*
X53250Y678750D02*
D03*
X53500Y1026500D02*
D03*
Y973500D02*
D03*
Y926250D02*
D03*
Y872750D02*
D03*
X119750Y691500D02*
D03*
X108250Y676000D02*
D03*
X229750Y876250D02*
D03*
X244750D02*
D03*
X268250Y877750D02*
D03*
X256750D02*
D03*
X236750Y786500D02*
D03*
X273000Y1183000D02*
D03*
X326000Y882000D02*
D03*
X351750Y907750D02*
D03*
X190500Y878250D02*
D03*
X181500Y878500D02*
D03*
X173250D02*
D03*
X163500Y879000D02*
D03*
X156750Y884250D02*
D03*
X99000Y712000D02*
D03*
X105500Y643000D02*
D03*
X54500Y622500D02*
D03*
X444750Y699000D02*
D03*
X371000Y712000D02*
D03*
X347500Y711750D02*
D03*
X408500Y711000D02*
D03*
X416500Y711500D02*
D03*
X452250Y684000D02*
D03*
X444750Y624250D02*
D03*
X416500Y637750D02*
D03*
X410750Y644750D02*
D03*
X404250Y649750D02*
D03*
X394500Y774250D02*
D03*
X133250Y986000D02*
D03*
X448660Y1027437D02*
D03*
X440183Y1026399D02*
D03*
X431643D02*
D03*
X423103D02*
D03*
X414569Y1026106D02*
D03*
X406163Y1024599D02*
D03*
X398118Y1021733D02*
D03*
X390652Y1017587D02*
D03*
X383987Y1012248D02*
D03*
X377911Y1006246D02*
D03*
X371873Y1000207D02*
D03*
X365834Y994169D02*
D03*
X347718Y976053D02*
D03*
X341679Y970014D02*
D03*
X335641Y963975D02*
D03*
X329602Y957936D02*
D03*
X323563Y951898D02*
D03*
X317525Y945859D02*
D03*
X311486Y939820D02*
D03*
X305447Y933782D02*
D03*
X299409Y927743D02*
D03*
X292554Y922649D02*
D03*
X284014D02*
D03*
X275474D02*
D03*
X208554Y921899D02*
D03*
X200014D02*
D03*
X192825Y926509D02*
D03*
X186786Y932548D02*
D03*
X180748Y938587D02*
D03*
X174709Y944625D02*
D03*
X168670Y950664D02*
D03*
X162632Y956703D02*
D03*
X156593Y962741D02*
D03*
X150554Y968780D02*
D03*
X144516Y974819D02*
D03*
X138477Y980858D02*
D03*
X120361Y998974D02*
D03*
X114322Y1005012D02*
D03*
X108284Y1011051D02*
D03*
X101743Y1016543D02*
D03*
X94435Y1020961D02*
D03*
X86501Y1024119D02*
D03*
X78156Y1025934D02*
D03*
X69628Y1026399D02*
D03*
X74765Y969900D02*
D03*
X80804Y963861D02*
D03*
X98920Y945745D02*
D03*
X104959Y939707D02*
D03*
X110997Y933668D02*
D03*
X150701Y889633D02*
D03*
X144662Y895672D02*
D03*
X138624Y901711D02*
D03*
X132585Y907749D02*
D03*
X126415Y913654D02*
D03*
X119527Y918702D02*
D03*
X111904Y922553D02*
D03*
X103753Y925100D02*
D03*
X95294Y926275D02*
D03*
X86755Y926399D02*
D03*
X78215D02*
D03*
X75560Y873601D02*
D03*
X84100D02*
D03*
X92622Y873044D02*
D03*
X98660Y867005D02*
D03*
X104699Y860966D02*
D03*
X110738Y854928D02*
D03*
X116844Y848957D02*
D03*
X120482Y841231D02*
D03*
X113743Y835986D02*
D03*
X107659Y829993D02*
D03*
X99912Y826399D02*
D03*
X91372D02*
D03*
X82832D02*
D03*
X75250Y826500D02*
D03*
X53753Y773601D02*
D03*
X79373D02*
D03*
X87913D02*
D03*
X136651Y784839D02*
D03*
X142945Y790611D02*
D03*
X148984Y796649D02*
D03*
X157519Y796951D02*
D03*
X166059D02*
D03*
X174599D02*
D03*
X208452Y845101D02*
D03*
X298661Y799866D02*
D03*
X402166Y773601D02*
D03*
X410706D02*
D03*
X419246D02*
D03*
X427786D02*
D03*
X436326D02*
D03*
X444866D02*
D03*
X452351Y828671D02*
D03*
X444118Y826399D02*
D03*
X435578D02*
D03*
X427038D02*
D03*
X418498D02*
D03*
X409958D02*
D03*
X401418D02*
D03*
X392878D02*
D03*
X384338D02*
D03*
X376843Y830492D02*
D03*
X370765Y836491D02*
D03*
X366302Y843772D02*
D03*
X373105Y848936D02*
D03*
X379226Y854891D02*
D03*
X385264Y860930D02*
D03*
X391303Y866968D02*
D03*
X397341Y873007D02*
D03*
X405861Y873601D02*
D03*
X414401D02*
D03*
X422941D02*
D03*
X431481D02*
D03*
X440021D02*
D03*
X448507Y872645D02*
D03*
X448713Y927466D02*
D03*
X440240Y926399D02*
D03*
X431700D02*
D03*
X423160D02*
D03*
X414620D02*
D03*
X406080D02*
D03*
X397540Y926423D02*
D03*
X389037Y925627D02*
D03*
X380754Y923549D02*
D03*
X357750Y913000D02*
D03*
X363500Y919000D02*
D03*
X370073Y923739D02*
D03*
X376112Y929778D02*
D03*
X382151Y935816D02*
D03*
X388189Y941855D02*
D03*
X394228Y947894D02*
D03*
X400267Y953932D02*
D03*
X406305Y959971D02*
D03*
X412344Y966010D02*
D03*
X418383Y972048D02*
D03*
X426780Y973601D02*
D03*
X435320D02*
D03*
X443860D02*
D03*
X452110Y971393D02*
D03*
X49585Y1111916D02*
D03*
X57957Y1113601D02*
D03*
X66497D02*
D03*
X75037D02*
D03*
X83577D02*
D03*
X92117D02*
D03*
X143357D02*
D03*
X151897D02*
D03*
X168976D02*
D03*
X177516D02*
D03*
X186056Y1113701D02*
D03*
X194596D02*
D03*
X203133Y1113911D02*
D03*
X211477Y1115733D02*
D03*
X218892Y1119968D02*
D03*
X188186Y1166499D02*
D03*
X179646Y1166399D02*
D03*
X171106D02*
D03*
X162566D02*
D03*
X154026D02*
D03*
X145486D02*
D03*
X136946D02*
D03*
X128406D02*
D03*
X119866D02*
D03*
X111326D02*
D03*
X102786D02*
D03*
X94246D02*
D03*
X85706D02*
D03*
X77166D02*
D03*
X68626D02*
D03*
X60086D02*
D03*
X51594Y1167301D02*
D03*
X442267Y1166399D02*
D03*
X433727D02*
D03*
X425187D02*
D03*
X416647D02*
D03*
X408107D02*
D03*
X399567D02*
D03*
X391027D02*
D03*
X382487D02*
D03*
X373947D02*
D03*
X365407D02*
D03*
X356867D02*
D03*
X348327D02*
D03*
X339787D02*
D03*
X273293Y1115803D02*
D03*
X281604Y1113837D02*
D03*
X290141Y1113601D02*
D03*
X298681D02*
D03*
X307221D02*
D03*
X315761D02*
D03*
X324300D02*
D03*
X332840D02*
D03*
X341381D02*
D03*
X349921D02*
D03*
X358461D02*
D03*
X367001D02*
D03*
X375541D02*
D03*
X384081D02*
D03*
X392620D02*
D03*
X401160D02*
D03*
X409700D02*
D03*
X418240D02*
D03*
X426780D02*
D03*
X435320D02*
D03*
X443860D02*
D03*
X452110Y1111393D02*
D03*
X241000Y1118000D02*
D03*
X250000D02*
D03*
X246000Y863000D02*
D03*
X261000D02*
D03*
X253000D02*
D03*
X268000D02*
D03*
X253000Y823000D02*
D03*
X246000D02*
D03*
X261000D02*
D03*
X268000D02*
D03*
X245000Y814000D02*
D03*
X257000D02*
D03*
X269000D02*
D03*
X246000Y831000D02*
D03*
X253000D02*
D03*
X261000D02*
D03*
X268000D02*
D03*
X246000Y839000D02*
D03*
X253000D02*
D03*
X261000D02*
D03*
X219000Y1047000D02*
D03*
Y1056000D02*
D03*
Y1038000D02*
D03*
X228000Y1047000D02*
D03*
Y1056000D02*
D03*
Y1038000D02*
D03*
X237000Y1056000D02*
D03*
Y1047000D02*
D03*
X219000Y1029000D02*
D03*
X237000Y1038000D02*
D03*
X246000Y1056000D02*
D03*
Y1047000D02*
D03*
X365750Y680750D02*
D03*
X401750Y680500D02*
D03*
X470000Y840500D02*
D03*
Y858000D02*
D03*
X27250Y959750D02*
D03*
X27750Y943250D02*
D03*
X28000Y859500D02*
D03*
X471750Y940500D02*
D03*
X298000Y292000D02*
D03*
Y304000D02*
D03*
X215000Y326000D02*
D03*
Y300000D02*
D03*
X197000Y590000D02*
D03*
X217000Y612000D02*
D03*
X329000Y611000D02*
D03*
X364000Y633000D02*
D03*
X107000Y124000D02*
D03*
X108000Y141000D02*
D03*
X87000Y181000D02*
D03*
X67000Y123000D02*
D03*
X145000Y257000D02*
D03*
X147000Y219000D02*
D03*
X112000Y311000D02*
D03*
X338500Y351500D02*
D03*
X415000Y96000D02*
D03*
X422000D02*
D03*
Y89000D02*
D03*
X415000D02*
D03*
Y81000D02*
D03*
X422000D02*
D03*
X488000Y67000D02*
D03*
X472000D02*
D03*
X404000Y60000D02*
D03*
X360000Y71000D02*
D03*
Y89000D02*
D03*
X431000Y23000D02*
D03*
X408000Y201000D02*
D03*
X359000Y218000D02*
D03*
X444750Y279000D02*
D03*
X434000Y312000D02*
D03*
X362000Y280000D02*
D03*
X349000Y311000D02*
D03*
X362000Y366000D02*
D03*
X328000Y416000D02*
D03*
X365000Y441000D02*
D03*
X418000Y438000D02*
D03*
X228000Y498000D02*
D03*
X242000Y507000D02*
D03*
X265000Y523000D02*
D03*
X314000Y543000D02*
D03*
X281000Y552000D02*
D03*
X275000Y623000D02*
D03*
X313000Y628000D02*
D03*
X143000Y623000D02*
D03*
X104250Y657750D02*
D03*
X149000Y679500D02*
D03*
X169000Y682000D02*
D03*
X162000Y731000D02*
D03*
X184000Y792000D02*
D03*
X242350Y925900D02*
D03*
X159000Y1045000D02*
D03*
X44049Y1084710D02*
D03*
X74750Y1104000D02*
D03*
X211000Y1124000D02*
D03*
X191000Y1186000D02*
D03*
X286000Y1173000D02*
D03*
X298000D02*
D03*
X357000Y985000D02*
D03*
X364000Y1008000D02*
D03*
X126000Y519000D02*
D03*
X148000Y127000D02*
D03*
X156000D02*
D03*
X148000Y120000D02*
D03*
X156000D02*
D03*
X132000Y155000D02*
D03*
X178000Y165000D02*
D03*
X164000Y185000D02*
D03*
X61000Y191000D02*
D03*
X28000Y152000D02*
D03*
X18000Y184000D02*
D03*
Y205000D02*
D03*
X34000Y241000D02*
D03*
X461000Y84000D02*
D03*
X137000Y94000D02*
D03*
X134000Y80000D02*
D03*
X207000Y84000D02*
D03*
X134000Y30000D02*
D03*
X263000Y29000D02*
D03*
X16000Y313000D02*
D03*
X69000Y304000D02*
D03*
X87000Y292000D02*
D03*
X69000D02*
D03*
X418000Y254000D02*
D03*
X409000D02*
D03*
Y262000D02*
D03*
X418000D02*
D03*
X368000Y261000D02*
D03*
X401000Y227000D02*
D03*
X459000Y336000D02*
D03*
Y313000D02*
D03*
X349000Y329000D02*
D03*
X384279Y310500D02*
D03*
X300000Y350000D02*
D03*
X288000Y380000D02*
D03*
X292000Y350000D02*
D03*
X305000Y33000D02*
D03*
X241000Y1140000D02*
D03*
X247000Y1134000D02*
D03*
Y1146000D02*
D03*
X235000D02*
D03*
Y1134000D02*
D03*
X228000Y1127000D02*
D03*
X254000D02*
D03*
X233000Y1118000D02*
D03*
X248000Y1161000D02*
D03*
X227000Y1153000D02*
D03*
X236350Y930900D02*
D03*
X229350Y938900D02*
D03*
X255350D02*
D03*
X265350Y930900D02*
D03*
Y921900D02*
D03*
X218000Y923900D02*
D03*
Y932900D02*
D03*
X120000Y677000D02*
D03*
Y667000D02*
D03*
X410250Y680500D02*
D03*
X268000Y839000D02*
D03*
X261000Y847000D02*
D03*
X253000D02*
D03*
X246000D02*
D03*
X268000D02*
D03*
X261000Y855000D02*
D03*
X253000D02*
D03*
X246000D02*
D03*
X268000D02*
D03*
X296000Y850000D02*
D03*
Y837000D02*
D03*
X216000D02*
D03*
Y850000D02*
D03*
X255000Y1056000D02*
D03*
X264000D02*
D03*
X273000D02*
D03*
X282000D02*
D03*
X255000Y1047000D02*
D03*
X264000D02*
D03*
X273000D02*
D03*
X282000D02*
D03*
X246000Y1038000D02*
D03*
X255000D02*
D03*
X264000D02*
D03*
X273000D02*
D03*
X282000D02*
D03*
X228000Y1029000D02*
D03*
X237000D02*
D03*
X246000D02*
D03*
X255000D02*
D03*
X264000D02*
D03*
X273000D02*
D03*
X282000D02*
D03*
X219000Y1020000D02*
D03*
X228000D02*
D03*
X237000D02*
D03*
X246000D02*
D03*
X255000D02*
D03*
X264000D02*
D03*
X273000D02*
D03*
X282000D02*
D03*
X219000Y1011000D02*
D03*
X228000D02*
D03*
X237000D02*
D03*
X246000D02*
D03*
X255000D02*
D03*
X264000D02*
D03*
X273000D02*
D03*
X282000D02*
D03*
X219000Y1002000D02*
D03*
X228000D02*
D03*
X237000D02*
D03*
X246000D02*
D03*
X255000D02*
D03*
X264000D02*
D03*
X273000D02*
D03*
X282000D02*
D03*
X219000Y993000D02*
D03*
X228000D02*
D03*
X237000D02*
D03*
X246000D02*
D03*
X255000D02*
D03*
X264000D02*
D03*
X273000D02*
D03*
X282000D02*
D03*
X247000Y931000D02*
D03*
X137000Y402000D02*
D03*
Y414000D02*
D03*
X100750Y1113250D02*
D03*
X109500D02*
D03*
X118750Y1113000D02*
D03*
X128250Y1112750D02*
D03*
X136250Y1113000D02*
D03*
D95*
X30000Y728000D02*
D03*
Y578000D02*
D03*
X470000D02*
D03*
Y728000D02*
D03*
D96*
X246000Y193500D02*
D03*
Y182500D02*
D03*
Y171500D02*
D03*
X235000Y193500D02*
D03*
Y182500D02*
D03*
Y171500D02*
D03*
X224000Y193500D02*
D03*
Y182500D02*
D03*
Y171500D02*
D03*
X271400Y702750D02*
D03*
X258700D02*
D03*
X246000D02*
D03*
X239650D02*
D03*
X226950D02*
D03*
X233300D02*
D03*
X252350D02*
D03*
X265050D02*
D03*
X226950Y696400D02*
D03*
X233300D02*
D03*
X239650D02*
D03*
X246000D02*
D03*
X252350D02*
D03*
X258700D02*
D03*
X265050D02*
D03*
X271400D02*
D03*
X226950Y690050D02*
D03*
X233300D02*
D03*
X239650D02*
D03*
X246000D02*
D03*
X252350D02*
D03*
X258700D02*
D03*
X265050D02*
D03*
X271400D02*
D03*
X226950Y683700D02*
D03*
X233300D02*
D03*
X239650D02*
D03*
X246000D02*
D03*
X252350D02*
D03*
X258700D02*
D03*
X265050D02*
D03*
X271400D02*
D03*
X226950Y677350D02*
D03*
X233300D02*
D03*
X239650D02*
D03*
X246000D02*
D03*
X252350D02*
D03*
X258700D02*
D03*
X265050D02*
D03*
X271400D02*
D03*
X226950Y671000D02*
D03*
X233300D02*
D03*
X239650D02*
D03*
X246000D02*
D03*
X252350D02*
D03*
X258700D02*
D03*
X265050D02*
D03*
X271400D02*
D03*
X226950Y664650D02*
D03*
X233300D02*
D03*
X239650D02*
D03*
X246000D02*
D03*
X252350D02*
D03*
X258700D02*
D03*
X265050D02*
D03*
X271400D02*
D03*
X226950Y658300D02*
D03*
X233300D02*
D03*
X239650D02*
D03*
X246000D02*
D03*
X252350D02*
D03*
X258700D02*
D03*
X265050D02*
D03*
X271400D02*
D03*
M02*
