G04 Layer_Color=8388736*
%FSLAX44Y44*%
%MOMM*%
G71*
G01*
G75*
%ADD75R,2.7900X4.5700*%
%ADD104R,4.4032X1.5532*%
%ADD105R,4.4032X1.4732*%
%ADD106R,1.1032X1.1032*%
%ADD107R,1.1032X1.0032*%
%ADD108R,1.0032X1.1032*%
%ADD109R,0.8032X0.7532*%
%ADD110R,1.1532X1.5532*%
%ADD111R,0.7532X0.8032*%
%ADD112O,0.4532X1.1532*%
%ADD113O,1.1532X0.4532*%
%ADD114R,3.5032X3.5032*%
%ADD115R,0.9032X1.1032*%
%ADD116R,1.1532X1.2032*%
%ADD117R,2.7032X3.3032*%
%ADD118R,1.0832X0.9732*%
%ADD119R,1.1032X0.7032*%
%ADD120R,1.8032X1.6932*%
%ADD121R,0.4532X1.1032*%
%ADD122R,1.4032X0.8032*%
%ADD123R,0.4532X0.9532*%
%ADD124R,0.8032X1.2032*%
%ADD125C,1.2032*%
%ADD126R,1.1032X0.9032*%
%ADD127R,2.4532X3.8032*%
%ADD128R,1.3032X0.9032*%
%ADD129R,0.9032X1.3032*%
%ADD130R,0.8632X0.8232*%
%ADD131R,1.1032X1.6032*%
%ADD132R,1.2032X0.8032*%
%ADD133R,1.8532X0.9632*%
%ADD134R,0.8032X0.7032*%
%ADD135R,0.7032X0.8032*%
%ADD136R,0.8232X0.8632*%
G04:AMPARAMS|DCode=137|XSize=1.1032mm|YSize=1.0032mm|CornerRadius=0mm|HoleSize=0mm|Usage=FLASHONLY|Rotation=315.000|XOffset=0mm|YOffset=0mm|HoleType=Round|Shape=Rectangle|*
%AMROTATEDRECTD137*
4,1,4,-0.7447,0.0353,-0.0353,0.7447,0.7447,-0.0353,0.0353,-0.7447,-0.7447,0.0353,0.0*
%
%ADD137ROTATEDRECTD137*%

G04:AMPARAMS|DCode=138|XSize=1.1032mm|YSize=1.0032mm|CornerRadius=0mm|HoleSize=0mm|Usage=FLASHONLY|Rotation=225.000|XOffset=0mm|YOffset=0mm|HoleType=Round|Shape=Rectangle|*
%AMROTATEDRECTD138*
4,1,4,0.0353,0.7447,0.7447,0.0353,-0.0353,-0.7447,-0.7447,-0.0353,0.0353,0.7447,0.0*
%
%ADD138ROTATEDRECTD138*%

%ADD139R,0.9732X1.0832*%
%ADD140R,0.8632X0.5632*%
%ADD141R,0.5632X0.8632*%
%ADD142R,1.2232X0.5632*%
%ADD143R,0.9532X0.5032*%
%ADD144R,1.1532X1.1532*%
%ADD145R,0.6532X0.5032*%
%ADD146R,1.1032X0.8532*%
%ADD147O,1.8032X0.6532*%
%ADD148R,1.4532X1.4532*%
%ADD149R,0.7132X0.4532*%
%ADD150R,0.4532X0.7132*%
%ADD151R,1.1032X0.6032*%
%ADD152R,1.4532X1.4532*%
%ADD153O,1.2032X0.4532*%
%ADD154R,5.2832X5.2832*%
%ADD155O,0.4532X1.2032*%
%ADD156R,1.6432X2.3532*%
%ADD157R,1.1532X0.4532*%
%ADD158O,1.6532X0.5032*%
%ADD159O,0.5032X1.6532*%
%ADD160R,1.6032X1.1032*%
%ADD161R,2.2032X1.6532*%
%ADD162R,0.6532X2.0032*%
%ADD163R,1.5032X3.4532*%
%ADD164R,0.7532X0.9032*%
%ADD165R,2.2032X1.8032*%
%ADD166R,1.2032X1.1532*%
%ADD167R,1.4732X0.9632*%
%ADD168R,7.8232X7.8232*%
%ADD169R,1.7232X1.7232*%
%ADD170R,1.7232X1.7232*%
%ADD171C,1.7032*%
%ADD172C,2.0032*%
%ADD173R,1.9032X1.9032*%
%ADD174C,1.9032*%
%ADD175O,1.0032X1.5032*%
%ADD176O,1.0032X1.4032*%
%ADD177C,4.2032*%
D75*
X257000Y843000D02*
D03*
D104*
X479000Y471750D02*
D03*
Y527750D02*
D03*
X21000Y928000D02*
D03*
Y872000D02*
D03*
X479000Y1112000D02*
D03*
Y1168000D02*
D03*
X21000Y1028000D02*
D03*
Y972000D02*
D03*
X479000Y772000D02*
D03*
Y828000D02*
D03*
Y972000D02*
D03*
Y1028000D02*
D03*
X21000Y828000D02*
D03*
Y772000D02*
D03*
Y678000D02*
D03*
Y622000D02*
D03*
Y528000D02*
D03*
Y472000D02*
D03*
Y1168000D02*
D03*
Y1112000D02*
D03*
X479000Y872000D02*
D03*
Y928000D02*
D03*
Y622000D02*
D03*
Y678000D02*
D03*
D105*
Y499750D02*
D03*
X21000Y900000D02*
D03*
X479000Y1140000D02*
D03*
X21000Y1000000D02*
D03*
X479000Y800000D02*
D03*
Y1000000D02*
D03*
X21000Y800000D02*
D03*
Y650000D02*
D03*
Y500000D02*
D03*
Y1140000D02*
D03*
X479000Y900000D02*
D03*
Y650000D02*
D03*
D106*
X434250Y287500D02*
D03*
X420750D02*
D03*
X434250Y302500D02*
D03*
X420750D02*
D03*
X406750Y287500D02*
D03*
X393250D02*
D03*
X144250Y80000D02*
D03*
X157750D02*
D03*
X142250Y154000D02*
D03*
X155750D02*
D03*
X408250Y212500D02*
D03*
X421750D02*
D03*
D107*
X335000Y406000D02*
D03*
Y390000D02*
D03*
X320000Y390000D02*
D03*
Y406000D02*
D03*
X359000Y206000D02*
D03*
Y190000D02*
D03*
X295000Y181000D02*
D03*
Y197000D02*
D03*
X342000Y169000D02*
D03*
Y153000D02*
D03*
X97250Y190000D02*
D03*
Y174000D02*
D03*
X67250Y150000D02*
D03*
Y134000D02*
D03*
X38250Y168000D02*
D03*
Y152000D02*
D03*
X135000Y1059500D02*
D03*
Y1075500D02*
D03*
X264500Y495150D02*
D03*
Y511150D02*
D03*
X303000Y527000D02*
D03*
Y543000D02*
D03*
X264500Y478650D02*
D03*
Y462650D02*
D03*
X249500Y532150D02*
D03*
Y516150D02*
D03*
X235000Y532000D02*
D03*
Y516000D02*
D03*
X126000Y530000D02*
D03*
Y546000D02*
D03*
X77000Y659000D02*
D03*
Y675000D02*
D03*
X433000Y660000D02*
D03*
Y676000D02*
D03*
X295000Y615000D02*
D03*
Y599000D02*
D03*
X53250Y152000D02*
D03*
Y168000D02*
D03*
X350000Y65000D02*
D03*
Y49000D02*
D03*
X375000Y312000D02*
D03*
Y328000D02*
D03*
X178000Y174000D02*
D03*
Y190000D02*
D03*
D108*
X347000Y359000D02*
D03*
X331000D02*
D03*
X331000Y344000D02*
D03*
X347000D02*
D03*
X430500Y60000D02*
D03*
X414500D02*
D03*
X73000Y1076000D02*
D03*
X57000D02*
D03*
X215000Y461000D02*
D03*
X231000D02*
D03*
X265000Y562000D02*
D03*
X281000D02*
D03*
X215000Y446000D02*
D03*
X231000D02*
D03*
X343000Y462000D02*
D03*
X327000D02*
D03*
X204000Y515650D02*
D03*
X220000D02*
D03*
X174000Y516000D02*
D03*
X158000D02*
D03*
X354000Y1014890D02*
D03*
X338000D02*
D03*
X354000Y999890D02*
D03*
X338000D02*
D03*
X202000Y1186000D02*
D03*
X218000D02*
D03*
X127000Y1097500D02*
D03*
X143000D02*
D03*
X103000Y1097500D02*
D03*
X87000D02*
D03*
X162850Y692700D02*
D03*
X178850D02*
D03*
X161850Y666700D02*
D03*
X177850D02*
D03*
X357850Y693700D02*
D03*
X341850D02*
D03*
X356850Y667700D02*
D03*
X340850D02*
D03*
X172525Y737025D02*
D03*
X188525D02*
D03*
X172525Y722025D02*
D03*
X188525D02*
D03*
X258850Y612700D02*
D03*
X274850D02*
D03*
X337000Y295000D02*
D03*
X353000D02*
D03*
X353000Y281000D02*
D03*
X337000D02*
D03*
X148000Y406000D02*
D03*
X164000D02*
D03*
X148000Y421000D02*
D03*
X164000D02*
D03*
D109*
X477750Y280000D02*
D03*
X487250D02*
D03*
X477750Y222500D02*
D03*
X487250D02*
D03*
X274250Y166000D02*
D03*
X283750D02*
D03*
D110*
X472925Y264500D02*
D03*
X487075D02*
D03*
X472925Y237500D02*
D03*
X487075D02*
D03*
D111*
X455000Y247250D02*
D03*
Y237750D02*
D03*
D112*
X252500Y206250D02*
D03*
X247500D02*
D03*
X242500D02*
D03*
X237500D02*
D03*
X232500D02*
D03*
X227500D02*
D03*
X222500D02*
D03*
X217500D02*
D03*
Y158750D02*
D03*
X222500D02*
D03*
X227500D02*
D03*
X232500D02*
D03*
X237500D02*
D03*
X242500D02*
D03*
X247500D02*
D03*
X252500D02*
D03*
D113*
X211250Y200000D02*
D03*
Y195000D02*
D03*
Y190000D02*
D03*
Y185000D02*
D03*
Y180000D02*
D03*
Y175000D02*
D03*
Y170000D02*
D03*
Y165000D02*
D03*
X258750D02*
D03*
Y170000D02*
D03*
Y175000D02*
D03*
Y180000D02*
D03*
Y185000D02*
D03*
Y190000D02*
D03*
Y195000D02*
D03*
Y200000D02*
D03*
D114*
X235000Y182500D02*
D03*
D115*
X273500Y219000D02*
D03*
X288500D02*
D03*
X277000Y154000D02*
D03*
X292000D02*
D03*
X140000Y185000D02*
D03*
X155000D02*
D03*
X155000Y172500D02*
D03*
X140000D02*
D03*
X242500Y127000D02*
D03*
X257500D02*
D03*
X447500Y62500D02*
D03*
X462500D02*
D03*
X462500Y50000D02*
D03*
X447500D02*
D03*
X135000Y1045000D02*
D03*
X150000D02*
D03*
X73500Y1060000D02*
D03*
X58500D02*
D03*
X317500Y495000D02*
D03*
X302500D02*
D03*
X327500Y478000D02*
D03*
X342500D02*
D03*
X279500Y479000D02*
D03*
X294500D02*
D03*
X279500Y463150D02*
D03*
X294500D02*
D03*
X230500Y564000D02*
D03*
X215500D02*
D03*
X230500Y580000D02*
D03*
X215500D02*
D03*
X204500Y532000D02*
D03*
X219500D02*
D03*
X285500Y1184000D02*
D03*
X300500D02*
D03*
X203500Y1170000D02*
D03*
X218500D02*
D03*
D116*
X308500Y169500D02*
D03*
X325500D02*
D03*
X308500Y148500D02*
D03*
X325500D02*
D03*
D117*
X453500Y154000D02*
D03*
X385500D02*
D03*
D118*
X257000Y112150D02*
D03*
Y99850D02*
D03*
X479500Y121150D02*
D03*
Y108850D02*
D03*
X338000Y1031850D02*
D03*
Y1044150D02*
D03*
X193000Y63850D02*
D03*
Y76150D02*
D03*
D119*
X170750Y91000D02*
D03*
X193250D02*
D03*
D120*
X413500Y257500D02*
D03*
X151500Y124050D02*
D03*
D121*
X406000Y243550D02*
D03*
X411000D02*
D03*
X416000D02*
D03*
X421000D02*
D03*
X406000Y271450D02*
D03*
X411000D02*
D03*
X416000D02*
D03*
X421000D02*
D03*
X159000Y138000D02*
D03*
X154000D02*
D03*
X149000D02*
D03*
X144000D02*
D03*
X159000Y110100D02*
D03*
X154000D02*
D03*
X149000D02*
D03*
X144000D02*
D03*
D122*
X75250Y181000D02*
D03*
D123*
X82750Y190650D02*
D03*
X77750D02*
D03*
X72750D02*
D03*
X67750D02*
D03*
X82750Y171350D02*
D03*
X77750D02*
D03*
X72750D02*
D03*
X67750D02*
D03*
D124*
X24750Y257750D02*
D03*
X43750D02*
D03*
Y230250D02*
D03*
X34250D02*
D03*
X24750D02*
D03*
D125*
X11000Y258000D02*
D03*
D126*
X73000Y267500D02*
D03*
Y282500D02*
D03*
X39000Y122500D02*
D03*
Y137500D02*
D03*
X338000Y1073500D02*
D03*
Y1058500D02*
D03*
X310000Y1170000D02*
D03*
Y1155000D02*
D03*
X150000Y1075000D02*
D03*
Y1060000D02*
D03*
X288000Y542500D02*
D03*
Y527500D02*
D03*
X320000Y526500D02*
D03*
Y511500D02*
D03*
X282000Y495500D02*
D03*
Y510500D02*
D03*
X408000Y547500D02*
D03*
Y562500D02*
D03*
X198000Y564500D02*
D03*
Y579500D02*
D03*
X175000Y562500D02*
D03*
Y577500D02*
D03*
Y530500D02*
D03*
Y545500D02*
D03*
X157000Y562500D02*
D03*
Y577500D02*
D03*
Y530500D02*
D03*
Y545500D02*
D03*
X420000Y1065750D02*
D03*
Y1080750D02*
D03*
X479000Y1075500D02*
D03*
Y1060500D02*
D03*
X53000Y122500D02*
D03*
Y137500D02*
D03*
X87000Y282500D02*
D03*
Y267500D02*
D03*
X320000Y24500D02*
D03*
Y9500D02*
D03*
X305000Y9500D02*
D03*
Y24500D02*
D03*
X332689Y49174D02*
D03*
Y64174D02*
D03*
D127*
X77750Y229000D02*
D03*
X108250D02*
D03*
D128*
X470000Y75750D02*
D03*
Y94250D02*
D03*
X487500D02*
D03*
Y75750D02*
D03*
X452500D02*
D03*
Y94250D02*
D03*
D129*
X386750Y97500D02*
D03*
X368250D02*
D03*
Y62500D02*
D03*
X386750D02*
D03*
X81000Y150000D02*
D03*
X99500D02*
D03*
X81000Y115000D02*
D03*
X99500D02*
D03*
X368250Y80000D02*
D03*
X386750D02*
D03*
X99500Y133000D02*
D03*
X81000D02*
D03*
D130*
X419400Y227500D02*
D03*
X410600D02*
D03*
X146600Y94000D02*
D03*
X155400D02*
D03*
X311400Y824000D02*
D03*
X302600D02*
D03*
X195500Y823350D02*
D03*
X186700D02*
D03*
X311400Y862000D02*
D03*
X302600D02*
D03*
X195400Y861850D02*
D03*
X186600D02*
D03*
D131*
X57500Y283000D02*
D03*
X36500D02*
D03*
X57500Y304000D02*
D03*
X36500D02*
D03*
X50500Y206000D02*
D03*
X29500D02*
D03*
X50500Y185000D02*
D03*
X29500D02*
D03*
X357500Y262000D02*
D03*
X336500D02*
D03*
D132*
X90500Y1079500D02*
D03*
Y1070000D02*
D03*
Y1060500D02*
D03*
X117500D02*
D03*
Y1079500D02*
D03*
X339750Y189500D02*
D03*
Y199000D02*
D03*
Y208500D02*
D03*
X312250D02*
D03*
Y189500D02*
D03*
D133*
X378950Y693400D02*
D03*
Y680700D02*
D03*
Y668000D02*
D03*
X410750D02*
D03*
Y693400D02*
D03*
X103950Y667000D02*
D03*
Y692400D02*
D03*
X135750D02*
D03*
Y679700D02*
D03*
Y667000D02*
D03*
D134*
X347500Y985000D02*
D03*
X337500D02*
D03*
X185000Y1140000D02*
D03*
X195000D02*
D03*
X284000D02*
D03*
X274000D02*
D03*
D135*
X286000Y1165000D02*
D03*
Y1155000D02*
D03*
X297500Y1165000D02*
D03*
Y1155000D02*
D03*
D136*
X207500Y74400D02*
D03*
Y65600D02*
D03*
D137*
X331657Y735657D02*
D03*
X320343Y724343D02*
D03*
X342507Y724357D02*
D03*
X331193Y713043D02*
D03*
D138*
X343507Y636043D02*
D03*
X332193Y647357D02*
D03*
X332657Y625343D02*
D03*
X321343Y636657D02*
D03*
D139*
X175850Y752000D02*
D03*
X188150D02*
D03*
X271150Y597000D02*
D03*
X258850D02*
D03*
D140*
X211000Y1140000D02*
D03*
Y1131800D02*
D03*
D141*
X273100Y1155000D02*
D03*
X264900D02*
D03*
D142*
X210100Y823450D02*
D03*
Y815250D02*
D03*
Y862250D02*
D03*
Y870450D02*
D03*
D143*
X450050Y1075500D02*
D03*
D144*
X451000Y1065750D02*
D03*
D145*
X441250Y1062500D02*
D03*
Y1069000D02*
D03*
Y1075500D02*
D03*
X460750D02*
D03*
Y1069000D02*
D03*
Y1062500D02*
D03*
D146*
X374000Y1073250D02*
D03*
X402000Y1082750D02*
D03*
Y1063750D02*
D03*
D147*
X200750Y497900D02*
D03*
Y491400D02*
D03*
Y484900D02*
D03*
Y478400D02*
D03*
X243250Y497900D02*
D03*
Y491400D02*
D03*
Y484900D02*
D03*
Y478400D02*
D03*
D148*
X242250Y926250D02*
D03*
D149*
X256500Y931350D02*
D03*
Y926250D02*
D03*
Y921150D02*
D03*
X228000D02*
D03*
Y926250D02*
D03*
Y931350D02*
D03*
X255250Y1145100D02*
D03*
Y1140000D02*
D03*
Y1134900D02*
D03*
X226750D02*
D03*
Y1140000D02*
D03*
Y1145100D02*
D03*
D150*
X247350Y912000D02*
D03*
X242250D02*
D03*
X237150D02*
D03*
Y940500D02*
D03*
X242250D02*
D03*
X247350D02*
D03*
X235900Y1154250D02*
D03*
X241000D02*
D03*
X246100D02*
D03*
Y1125750D02*
D03*
X241000D02*
D03*
X235900D02*
D03*
D151*
X263500Y1173500D02*
D03*
Y1180000D02*
D03*
Y1186500D02*
D03*
X241500Y1173500D02*
D03*
Y1180000D02*
D03*
Y1186500D02*
D03*
D152*
X241000Y1140000D02*
D03*
D153*
X283925Y663025D02*
D03*
Y668025D02*
D03*
Y678025D02*
D03*
Y683025D02*
D03*
Y708025D02*
D03*
Y703025D02*
D03*
Y698025D02*
D03*
Y693025D02*
D03*
Y688025D02*
D03*
Y673025D02*
D03*
Y658025D02*
D03*
Y653025D02*
D03*
X214425D02*
D03*
Y658025D02*
D03*
Y663025D02*
D03*
Y668025D02*
D03*
Y673025D02*
D03*
Y678025D02*
D03*
Y683025D02*
D03*
Y688025D02*
D03*
Y693025D02*
D03*
Y698025D02*
D03*
Y703025D02*
D03*
Y708025D02*
D03*
D154*
X249175Y680525D02*
D03*
D155*
X221675Y715275D02*
D03*
X226675D02*
D03*
X231675D02*
D03*
X236675D02*
D03*
X241675D02*
D03*
X246675D02*
D03*
X251675D02*
D03*
X256675D02*
D03*
X261675D02*
D03*
X266675D02*
D03*
X271675D02*
D03*
X276675D02*
D03*
Y645775D02*
D03*
X271675D02*
D03*
X266675D02*
D03*
X261675D02*
D03*
X256675D02*
D03*
X251675D02*
D03*
X246675D02*
D03*
X241675D02*
D03*
X236675D02*
D03*
X231675D02*
D03*
X226675D02*
D03*
X221675D02*
D03*
D156*
X418500Y89000D02*
D03*
D157*
X432450Y79000D02*
D03*
Y84000D02*
D03*
Y89000D02*
D03*
Y94000D02*
D03*
Y99000D02*
D03*
X404550Y79000D02*
D03*
Y84000D02*
D03*
Y89000D02*
D03*
Y94000D02*
D03*
Y99000D02*
D03*
D158*
X312250Y255000D02*
D03*
Y260000D02*
D03*
Y265000D02*
D03*
Y270000D02*
D03*
Y275000D02*
D03*
Y280000D02*
D03*
Y285000D02*
D03*
Y290000D02*
D03*
Y295000D02*
D03*
Y300000D02*
D03*
Y305000D02*
D03*
Y310000D02*
D03*
Y315000D02*
D03*
Y320000D02*
D03*
Y325000D02*
D03*
Y330000D02*
D03*
Y335000D02*
D03*
Y340000D02*
D03*
Y345000D02*
D03*
Y350000D02*
D03*
Y355000D02*
D03*
Y360000D02*
D03*
Y365000D02*
D03*
Y370000D02*
D03*
Y375000D02*
D03*
X157750D02*
D03*
Y370000D02*
D03*
Y365000D02*
D03*
Y360000D02*
D03*
Y355000D02*
D03*
Y350000D02*
D03*
Y345000D02*
D03*
Y340000D02*
D03*
Y335000D02*
D03*
Y330000D02*
D03*
Y325000D02*
D03*
Y320000D02*
D03*
Y315000D02*
D03*
Y310000D02*
D03*
Y305000D02*
D03*
Y300000D02*
D03*
Y295000D02*
D03*
Y290000D02*
D03*
Y285000D02*
D03*
Y280000D02*
D03*
Y275000D02*
D03*
Y270000D02*
D03*
Y265000D02*
D03*
Y260000D02*
D03*
Y255000D02*
D03*
D159*
X295000Y392250D02*
D03*
X290000D02*
D03*
X285000D02*
D03*
X280000D02*
D03*
X275000D02*
D03*
X270000D02*
D03*
X265000D02*
D03*
X260000D02*
D03*
X255000D02*
D03*
X250000D02*
D03*
X245000D02*
D03*
X240000D02*
D03*
X235000D02*
D03*
X230000D02*
D03*
X225000D02*
D03*
X220000D02*
D03*
X215000D02*
D03*
X210000D02*
D03*
X205000D02*
D03*
X200000D02*
D03*
X195000D02*
D03*
X190000D02*
D03*
X185000D02*
D03*
X180000D02*
D03*
X175000D02*
D03*
Y237750D02*
D03*
X180000D02*
D03*
X185000D02*
D03*
X190000D02*
D03*
X195000D02*
D03*
X200000D02*
D03*
X205000D02*
D03*
X210000D02*
D03*
X215000D02*
D03*
X220000D02*
D03*
X225000D02*
D03*
X230000D02*
D03*
X235000D02*
D03*
X240000D02*
D03*
X245000D02*
D03*
X250000D02*
D03*
X255000D02*
D03*
X260000D02*
D03*
X265000D02*
D03*
X270000D02*
D03*
X275000D02*
D03*
X280000D02*
D03*
X285000D02*
D03*
X290000D02*
D03*
X295000D02*
D03*
D160*
X16000Y280500D02*
D03*
Y301500D02*
D03*
D161*
X279000Y46000D02*
D03*
X221000D02*
D03*
X150500D02*
D03*
X92500D02*
D03*
D162*
X237000Y44000D02*
D03*
X243500D02*
D03*
X250000D02*
D03*
X256500D02*
D03*
X263000D02*
D03*
X108500D02*
D03*
X115000D02*
D03*
X121500D02*
D03*
X128000D02*
D03*
X134500D02*
D03*
D163*
X278000Y19500D02*
D03*
X222000D02*
D03*
X149500D02*
D03*
X93500D02*
D03*
D164*
X287000Y32250D02*
D03*
X213000D02*
D03*
X158500D02*
D03*
X84500D02*
D03*
D165*
X414000Y23000D02*
D03*
X360000D02*
D03*
D166*
X338500Y311500D02*
D03*
Y328500D02*
D03*
X359500Y311500D02*
D03*
Y328500D02*
D03*
D167*
X229100Y862050D02*
D03*
Y849350D02*
D03*
Y836650D02*
D03*
Y823950D02*
D03*
X284900Y862050D02*
D03*
Y849350D02*
D03*
Y836650D02*
D03*
Y823950D02*
D03*
D168*
X250000Y1024000D02*
D03*
D169*
X189000Y989710D02*
D03*
Y1015110D02*
D03*
Y1040510D02*
D03*
Y1065910D02*
D03*
X311000D02*
D03*
Y1040510D02*
D03*
Y1015110D02*
D03*
Y989710D02*
D03*
D170*
X208090Y1084960D02*
D03*
X233490D02*
D03*
X258890D02*
D03*
X284290D02*
D03*
X293180Y963040D02*
D03*
X267780D02*
D03*
X242380D02*
D03*
X216980D02*
D03*
D171*
X481500Y23000D02*
D03*
X456100D02*
D03*
X25000Y77900D02*
D03*
Y52500D02*
D03*
Y27100D02*
D03*
X19000Y427400D02*
D03*
Y402000D02*
D03*
Y376600D02*
D03*
Y351200D02*
D03*
X55000Y78150D02*
D03*
Y52750D02*
D03*
Y27350D02*
D03*
X481000Y307800D02*
D03*
Y333200D02*
D03*
Y358600D02*
D03*
Y434800D02*
D03*
Y409400D02*
D03*
Y384000D02*
D03*
D172*
X164500Y1096500D02*
D03*
X30000Y1060000D02*
D03*
X340000Y567000D02*
D03*
X398000Y524000D02*
D03*
X309000Y568000D02*
D03*
X130000Y570000D02*
D03*
X225000Y759000D02*
D03*
X255000D02*
D03*
X202000Y621000D02*
D03*
X233000D02*
D03*
D173*
X382300Y495700D02*
D03*
X144700Y474300D02*
D03*
D174*
X382300Y470300D02*
D03*
X407700D02*
D03*
Y495700D02*
D03*
X144700Y499700D02*
D03*
X119300D02*
D03*
Y474300D02*
D03*
D175*
X278100Y15700D02*
D03*
X222000D02*
D03*
X149600D02*
D03*
X93500D02*
D03*
D176*
X225800Y46000D02*
D03*
X274300D02*
D03*
X97300D02*
D03*
X145800D02*
D03*
D177*
X30000Y728000D02*
D03*
Y578000D02*
D03*
X470000D02*
D03*
Y728000D02*
D03*
M02*
