M48
;Layer_Color=9474304
;FILE_FORMAT=4:4
METRIC,LZ
;TYPE=PLATED
T1F00S00C0.2000
T2F00S00C0.3000
T3F00S00C0.6000
T5F00S00C0.9000
T6F00S00C1.0000
T7F00S00C1.0200
T8F00S00C3.1000
%
T01
X00224Y001715
X00235
X00246
Y001825
Y001935
X00235
Y001825
X00224
Y001935
X0022695Y006583
Y0066465
Y00671
Y0067735
Y006837
Y0069005
Y006964
Y0070275
X002333
X0023965
X00246
X0025235
X002587
X0026505
X002714
Y006964
X0026505
X002587
X0025235
X00246
X0023965
X002333
Y0069005
X0023965
X00246
X0025235
X002587
X0026505
X002714
Y006837
X0026505
X002587
X0025235
X00246
X0023965
X002333
Y0067735
X0023965
X00246
X0025235
X002587
X0026505
X002714
Y00671
X0026505
X002587
X0025235
X00246
X0023965
X002333
Y0066465
X0023965
X00246
X0025235
X002587
X0026505
X002714
Y006583
X0026505
X002587
X0025235
X00246
X0023965
X002333
T02
X00134Y0003
Y0008
X00137Y00094
X0016875Y00085
X00175
X0017325Y00079
X00167Y0007875
X00207Y00084
X0022Y00063
X00227
X00242999Y00062
X00257513Y00069753
X00263Y00029
X00305Y00033
X00321Y00055
X0036Y00071
Y00089
X0038Y000925
Y00085
Y000775
Y0007
X00404Y0006
X00415Y00081
X00422
Y00089
X00415
Y00096
X00422
X00461Y00084
X00472Y00067
X00488
X00431Y00023
X00438Y00198
Y00228
X00462
X0044425Y0024725
X0044475Y00279
X00469Y0028
X004605Y002645
X004585Y002965
X00459Y00313
Y00336
X004465Y003645
X00434Y00312
X004225Y00314
X00422Y00321
X004145Y0032075
Y00314
X00384279Y003105
X003875Y003275
X00349Y00329
Y00311
X00328Y0032
X00327Y00332
X003385Y003515
X00362Y00366
X00351Y00392
X003655Y004035
X00365Y00441
X00395Y00422
X00418Y00438
X00328Y00416
X003275Y003815
X003Y0035
X00298Y00304
Y00292
Y0028
X00327Y00288
X00362Y0028
X00377Y00275
X00385Y00275
X00389999Y00267999
X00391Y00254
X00409
Y00262
X00418
Y00254
X00401Y00227
X00387Y00231
X00359Y00218
X00369Y0019
X00408Y00201
X00368Y00261
X0030175Y0023775
X00353Y00153
X00281Y00175
X0027Y00185
X00276Y00198
Y00206
X00263Y00215
X00254Y00216
X00255Y00225282
X00245Y00225
X00237
X00226Y00224
X00212Y00214
X00205Y00207
X00189Y00204
X00178Y002
X00179Y00225
X0018Y00251
X00171Y00269
X00146Y00265
X00145Y00257
X00143Y00247
X00153Y00246
X00147Y00219
X00131Y0023
X00116Y00214
X00109
X00101
X0008925Y00201
X00087Y00181
X0008225Y00161
X0007425
X00075Y00144
X0009Y00142
Y00133
Y00123
Y00114
X00107Y00124
X00115Y00132
X00108Y00141
X0008975Y0015675
X00132Y00155
X00166Y00154
Y00147
Y0014
X00156Y00127
Y0012
X00148
Y00127
X00178Y00165
X00192Y0018
X002Y00172
X00164Y00185
X00061Y00191
X00018Y00184
Y00205
X00034Y00241
X000365Y003135
X00016Y00313
X00069Y00304
Y00292
X00087
X00112Y00311
X00113Y00326
X00124Y00299
X0014Y0031
X0017Y00305
X00176Y00313
X0017Y00319999
X00215Y00326
Y003
X00206Y00285
X00197Y00283
X00196Y00274
X00210343Y00268
X00232999Y00266999
X00241Y00266
X00243Y00257
X00258Y00251
X00266Y00255
X00259Y00267
X00279Y00261
X00287Y00262716
X00283Y00317
X00292Y0035
X00288Y0038
X00285Y00405
X00268Y00406
X00205Y00453
X00136Y00426999
X00137Y00414
Y00402
X00168Y00394
X00101Y00419
X00083Y00424
X00059Y00426
X00054Y00465
X0006Y00473
X00069Y00466999
X00075Y00475
X00067Y00123
X00029
X00028Y00152
X0024Y00142
X00252999Y00142
X00234Y00135
X0027285Y0009985
X00265Y00523
X00242Y00507
X00228Y00498
X0025Y00556
X00281Y00552
X00286Y00607
X00275Y00623
X00247Y00627
X00217Y00612
X00197Y0059
X00179Y00623
X00143
X00133Y00642
X001055Y00643
X0010425Y0065775
X0010825Y00676
X0012Y00677
Y00667
X0011975Y006915
X00149Y006795
X00169Y00682
X00162Y00646
X00202025Y00668025
X00197Y00701
Y0071
X00209Y0073
Y00744
X00227Y00737
X00257
X00268
X00288Y00738
Y00759
X00279Y0079
X00269Y00814
X00268Y00823
X00261
X00253
X00246
Y00831
X00253
X00261
X00268
Y00839
X00261
X00253
X00246
Y00847
X00253
X00261
X00268
Y00855
X00261
X00253
X00246
Y00863
X00253
X00261
X00268
X0026825Y0087775
X0025675
X0024475Y0087625
X0022975
X002105Y00878
X001905Y0087825
X001815Y008785
X0017325
X001635Y00879
X0015675Y0088425
X00150701Y00889633
X00116844Y00848957
X00120482Y00841231
X00113743Y00835986
X00107659Y00829993
X00099912Y00826399
X00091372
X00082832
X0007525Y008265
X0007556Y00873601
X000841
X00092622Y00873044
X0009866Y00867005
X00104699Y00860966
X00110738Y00854928
X000535Y0087275
X00028Y008595
X00053753Y00773601
X00079373
X00087913
X00136651Y00784839
X00142945Y00790611
X00148984Y00796649
X00157519Y00796951
X00166059
X00174599
X00184Y00792
X00176Y00767
X00162Y00731
X00154Y00722
X00099Y00712
X0005425Y006945
X0005325Y0067875
X000545Y006225
X00126Y00519
X002105Y00808
X00216Y00837
Y0085
X00208452Y00845101
X00245Y00814
X00257
X0023675Y007865
X00281Y00878
X00296Y0085
Y00837
X00298661Y00799866
X00331Y0075
X003475Y0071175
X00371Y00712
X0036575Y0068075
X00349Y00681
X00348Y00646
X00364Y00633
X00313Y00628
X00306Y00618
X00329Y00611
Y00664
X00294Y00653
X00296Y00716
X004085Y00711
X004165Y007115
X0041025Y006805
X0040175
X0040275Y0066
X0040425Y0064975
X0041075Y0064475
X004165Y0063775
X0044475Y0062425
X0045225Y00684
X0044475Y00699
X00444866Y00773601
X00436326
X00427786
X00419246
X00410706
X00402166
X003945Y0077425
X00392878Y00826399
X00401418
X00409958
X00418498
X00427038
X00435578
X00444118
X00452351Y00828671
X0047Y008405
Y00858
X00448507Y00872645
X00440021Y00873601
X00431481
X00422941
X00414401
X00405861
X00397341Y00873007
X00391303Y00866968
X00385264Y0086093
X00379226Y00854891
X00373105Y00848936
X00366302Y00843772
X00370765Y00836491
X00376843Y00830492
X00384338Y00826399
X00326Y00882
X00314Y00543
X00311486Y0093982
X00317525Y00945859
X00323563Y00951898
X00329602Y00957936
X00335641Y00963975
X00341679Y00970014
X00347718Y00976053
X00357Y00985
X00365834Y00994169
X00371873Y01000207
X00377911Y01006246
X00383987Y01012248
X00390652Y01017587
X00398118Y01021733
X00406163Y01024599
X00414569Y01026106
X00423103Y01026399
X00431643
X00440183
X0044866Y01027437
X00479Y01049
X0045211Y01111393
X0044386Y01113601
X0043532
X0042678
X0041824
X004097
X0040116
X0039262
X00384081
X00375541
X00367001
X00358461
X00349921
X00341381
X0033284
X003243
X00315761
X00307221
X00298681
X00298Y01173
X00324Y01176
Y01184
X00333
Y01176
X00341Y01184
X00339787Y01166399
X00348327
X00356867
X00365407
X00373947
X00382487
X00391027
X00399567
X00408107
X00416647
X00425187
X00433727
X00442267
X00402Y0109225
X00364Y01008
X003635Y00919
X00370073Y00923739
X00380754Y00923549
X00389037Y00925627
X0039754Y00926423
X0040608Y00926399
X0041462
X0042316
X004317
X0044024
X00448713Y00927466
X0047175Y009405
X0045211Y00971393
X0044386Y00973601
X0043532
X0042678
X00418383Y00972048
X00412344Y0096601
X00406305Y00959971
X00400267Y00953932
X00394228Y00947894
X00388189Y00941855
X00382151Y00935816
X00376112Y00929778
X0035775Y00913
X0035175Y0090775
X00305447Y00933782
X00299409Y00927743
X00292554Y00922649
X00284014
X00275474
X0026535Y009219
Y009309
X0025535Y009389
X00247Y00931
X0024235Y009259
X00236Y00922
X0023635Y009309
X0022935Y009389
X00218Y009329
Y009239
X00208554Y00921899
X00200014
X00192825Y00926509
X00186786Y00932548
X00180748Y00938587
X00174709Y00944625
X0016867Y00950664
X00162632Y00956703
X00156593Y00962741
X00150554Y0096878
X00144516Y00974819
X00138477Y00980858
X0013325Y00986
X00120361Y00998974
X00114322Y01005012
X00108284Y01011051
X00101743Y01016543
X00094435Y01020961
X00086501Y01024119
X00078156Y01025934
X00069628Y01026399
X000535Y010265
X00061Y01048
X00044049Y0108471
X00049585Y01111916
X00057957Y01113601
X00066497
X00075037
X00083577
X00092117
X0010075Y0111325
X001095
X0011875Y01113
X0012825Y0111275
X0013625Y01113
X00143357Y01113601
X00151897
X00168976
X00177516
X00186056Y01113701
X00194596
X00203133Y01113911
X00211477Y01115733
X00211Y01124
X00218892Y01119968
X00233Y01118
X00241
X0025
X00254Y01127
X00247Y01134
X00235
X00241Y0114
X00247Y01146
X00235
X00227Y01153
X00228Y01127
X00248Y01161
X00275Y011735
X00273Y01183
X00286Y01173
X00290141Y01113601
X00281604Y01113837
X00273293Y01115803
X00273Y01056
X00264
X00255
X00246
X00237
X00228
X00219
Y01047
Y01038
X00228
Y01047
X00237
Y01038
X00246
Y01047
X00255
Y01038
X00264
Y01047
X00273
Y01038
X00282
Y01047
Y01056
Y01029
X00273
X00264
X00255
X00246
X00237
X00228
X00219
Y0102
X00228
X00237
X00246
X00255
X00264
X00273
X00282
Y01011
Y01002
X00273
Y01011
X00264
Y01002
X00255
Y01011
X00246
Y01002
X00237
Y01011
X00228
Y01002
X00219
Y01011
Y00993
X00228
X00237
X00246
X00255
X00264
X00273
X00282
X00248Y00921
X00144662Y00895672
X00138624Y00901711
X00132585Y00907749
X00126415Y00913654
X00119527Y00918702
X00111904Y00922553
X00103753Y009251
X00095294Y00926275
X00086755Y00926399
X00078215
X000535Y0092625
X0002775Y0094325
X0002725Y0095975
X000535Y009735
X000675Y009745
X00074765Y009699
X00080804Y00963861
X0009892Y00945745
X00104959Y00939707
X00110997Y00933668
X001035Y010605
X0011475Y0109375
X0013625Y0108625
X00159Y01045
X00162566Y01166399
X00171106
X00179646
X00188186Y01166499
X00191Y01186
X00228Y011825
X00154026Y01166399
X00145486
X00136946
X00128406
X00119866
X00111326
X00102786
X00094246
X00085706
X00077166
X00068626
X00060086
X00051594Y01167301
X0007475Y01104
T03
X00212Y00583762
Y00599
X00344Y00614
X00354775Y00624775
X0035Y00529
X00393Y00562
X00358575Y00740425
X003475Y007515
T05
X00025Y000271
Y000525
Y000779
X00055Y0007815
Y0005275
Y0002735
X004561Y00023
X004815
X00481Y003078
Y003332
Y003586
Y00384
Y004094
Y004348
X00019Y004274
Y00402
Y003766
Y003512
T06
X0013Y0057
X00202Y00621
X00233
X00225Y00759
X00255
X00309Y00568
X0034Y00567
X00398Y00524
X001645Y010965
X0003Y0106
T07
X003823Y004703
X004077
X001447Y004743
X001193
Y004997
X001447
X003823Y004957
X004077
T08
X0003Y00578
Y00728
X0047
Y00578
M30
