G04 Layer_Physical_Order=3*
G04 Layer_Color=16440176*
%FSLAX44Y44*%
%MOMM*%
G71*
G01*
G75*
%ADD10C,0.6450*%
%ADD80C,0.2500*%
%ADD81C,0.4000*%
%ADD83C,0.6000*%
%ADD86C,0.2000*%
%ADD88C,1.5000*%
%ADD94C,0.6000*%
%ADD97C,0.9000*%
G36*
X119500Y164500D02*
X105000Y150000D01*
X72000Y150000D01*
X68000Y154000D01*
X68000Y165000D01*
X73000Y170000D01*
X90000D01*
X97000Y177000D01*
Y218250D01*
X119500D01*
Y164500D01*
D02*
G37*
G36*
X265903Y409877D02*
X266125Y409691D01*
X266349Y409527D01*
X266575Y409385D01*
X266803Y409265D01*
X267033Y409168D01*
X267264Y409092D01*
X267498Y409039D01*
X267733Y409009D01*
X267970Y409000D01*
X265000Y406030D01*
X264991Y406267D01*
X264961Y406502D01*
X264907Y406736D01*
X264832Y406967D01*
X264735Y407197D01*
X264615Y407425D01*
X264473Y407651D01*
X264309Y407875D01*
X264123Y408097D01*
X263915Y408317D01*
X265683Y410085D01*
X265903Y409877D01*
D02*
G37*
G36*
X500000Y477500D02*
X467500Y445000D01*
Y315444D01*
X465320Y313127D01*
X463986Y313563D01*
X463710Y314951D01*
X462605Y316605D01*
X460951Y317710D01*
X459000Y318098D01*
X457049Y317710D01*
X455395Y316605D01*
X454290Y314951D01*
X453902Y313000D01*
X454290Y311049D01*
X455395Y309395D01*
X457049Y308290D01*
X458712Y307959D01*
X459339Y306773D01*
X451788Y298750D01*
X407039D01*
X407039Y351000D01*
X407039Y351000D01*
X406884Y351780D01*
X406442Y352442D01*
X406442Y352442D01*
X332442Y426442D01*
X331781Y426884D01*
X331000Y427039D01*
X141737Y427039D01*
X141491Y426990D01*
X141241Y426978D01*
X141105Y426913D01*
X140957Y426884D01*
X140749Y426745D01*
X140522Y426638D01*
X140421Y426526D01*
X140295Y426442D01*
X140156Y426234D01*
X139988Y426048D01*
X139888Y425882D01*
X139796Y425623D01*
X139672Y425378D01*
X139663Y425252D01*
X139620Y425133D01*
X139634Y424858D01*
X139614Y424584D01*
X139235Y424057D01*
X139078Y423905D01*
X138632Y423572D01*
X138613Y423564D01*
X131123D01*
X115314Y439372D01*
Y450000D01*
X115061Y451268D01*
X114343Y452343D01*
X93314Y473373D01*
Y709224D01*
X94584Y709610D01*
X95395Y708395D01*
X97049Y707290D01*
X99000Y706902D01*
X100951Y707290D01*
X102605Y708395D01*
X103710Y710049D01*
X104098Y712000D01*
X103710Y713951D01*
X102605Y715605D01*
X100951Y716710D01*
X99000Y717098D01*
X97049Y716710D01*
X95395Y715605D01*
X94584Y714390D01*
X93314Y714775D01*
Y733000D01*
X93061Y734268D01*
X92343Y735343D01*
X64314Y763372D01*
Y969097D01*
X65355Y969820D01*
X65584Y969783D01*
X67500Y969402D01*
X69451Y969790D01*
X69909Y968685D01*
X70055Y967949D01*
X71161Y966295D01*
X72814Y965190D01*
X74605Y964834D01*
X75027Y964604D01*
X75508Y964123D01*
X75738Y963701D01*
X76094Y961910D01*
X77199Y960257D01*
X78853Y959152D01*
X80804Y958764D01*
X82755Y959152D01*
X84409Y960257D01*
X85514Y961910D01*
X85902Y963861D01*
X85514Y965812D01*
X84409Y967466D01*
X82755Y968571D01*
X80965Y968927D01*
X80542Y969157D01*
X80061Y969638D01*
X79831Y970061D01*
X79475Y971851D01*
X78370Y973505D01*
X76716Y974610D01*
X74765Y974998D01*
X72814Y974610D01*
X72356Y975715D01*
X72210Y976451D01*
X71105Y978105D01*
X69451Y979210D01*
X67500Y979598D01*
X65584Y979217D01*
X65355Y979180D01*
X64314Y979903D01*
Y1023068D01*
X65584Y1023453D01*
X66024Y1022795D01*
X67677Y1021690D01*
X69628Y1021301D01*
X71579Y1021690D01*
X73066Y1022683D01*
X74442Y1022492D01*
X74551Y1022329D01*
X76205Y1021224D01*
X78156Y1020836D01*
X80107Y1021224D01*
X81624Y1022238D01*
X81791Y1022169D01*
X82896Y1020515D01*
X84550Y1019410D01*
X86501Y1019022D01*
X88452Y1019410D01*
X88570Y1019489D01*
X89725Y1019010D01*
X90830Y1017356D01*
X92484Y1016251D01*
X94435Y1015863D01*
X95446Y1016064D01*
X96914Y1015192D01*
X97034Y1014592D01*
X98139Y1012938D01*
X99792Y1011833D01*
X101743Y1011445D01*
X102081Y1011512D01*
X103268Y1010641D01*
X103574Y1009101D01*
X104679Y1007447D01*
X106333Y1006342D01*
X108123Y1005986D01*
X108546Y1005755D01*
X109235Y1005066D01*
X109224Y1005012D01*
X109612Y1003061D01*
X110717Y1001407D01*
X112371Y1000302D01*
X114161Y999946D01*
X114584Y999716D01*
X115065Y999235D01*
X115295Y998813D01*
X115651Y997023D01*
X116756Y995369D01*
X118410Y994264D01*
X120361Y993876D01*
X122312Y994264D01*
X123966Y995369D01*
X125071Y997023D01*
X125459Y998974D01*
X125071Y1000925D01*
X123966Y1002578D01*
X122312Y1003683D01*
X120521Y1004040D01*
X120099Y1004269D01*
X119618Y1004751D01*
X119388Y1005173D01*
X119032Y1006963D01*
X117927Y1008617D01*
X116273Y1009722D01*
X114483Y1010078D01*
X114060Y1010309D01*
X113371Y1010998D01*
X113382Y1011051D01*
X112994Y1013002D01*
X111889Y1014656D01*
X110235Y1015761D01*
X108284Y1016150D01*
X107946Y1016082D01*
X106760Y1016953D01*
X106453Y1018493D01*
X105348Y1020147D01*
X103694Y1021253D01*
X101743Y1021641D01*
X100733Y1021440D01*
X99264Y1022311D01*
X99145Y1022912D01*
X98040Y1024566D01*
X96386Y1025671D01*
X94435Y1026059D01*
X92581Y1025690D01*
X92140Y1025685D01*
X91695Y1025870D01*
X91083Y1026262D01*
X90106Y1027724D01*
X88452Y1028829D01*
X86501Y1029218D01*
X84550Y1028829D01*
X83032Y1027815D01*
X82866Y1027885D01*
X81761Y1029538D01*
X80107Y1030644D01*
X78156Y1031032D01*
X76205Y1030644D01*
X74718Y1029650D01*
X73342Y1029841D01*
X73233Y1030004D01*
X71579Y1031109D01*
X69628Y1031497D01*
X67677Y1031109D01*
X66024Y1030004D01*
X65584Y1029346D01*
X64314Y1029731D01*
Y1044201D01*
X64605Y1044395D01*
X65710Y1046049D01*
X66098Y1048000D01*
X65710Y1049951D01*
X64605Y1051605D01*
X62951Y1052710D01*
X61000Y1053098D01*
X59049Y1052710D01*
X57395Y1051605D01*
X56290Y1049951D01*
X55902Y1048000D01*
X56290Y1046049D01*
X57395Y1044395D01*
X57686Y1044201D01*
Y1031244D01*
X56416Y1030565D01*
X55451Y1031210D01*
X53500Y1031598D01*
X52368Y1031373D01*
X51098Y1032320D01*
Y1037500D01*
X50710Y1039451D01*
X50598Y1039618D01*
Y1066388D01*
X73362Y1089152D01*
X112632D01*
X112799Y1089040D01*
X114750Y1088652D01*
X116701Y1089040D01*
X118355Y1090145D01*
X119460Y1091799D01*
X119848Y1093750D01*
Y1094000D01*
X119460Y1095951D01*
X118355Y1097605D01*
X118105Y1097855D01*
X116451Y1098960D01*
X114500Y1099348D01*
X78899D01*
X78504Y1100618D01*
X79460Y1102049D01*
X79848Y1104000D01*
X79460Y1105951D01*
X78355Y1107605D01*
X77852Y1107941D01*
Y1109468D01*
X78505Y1109905D01*
X78966Y1110041D01*
X79647D01*
X80108Y1109905D01*
X81626Y1108891D01*
X83577Y1108503D01*
X85528Y1108891D01*
X87045Y1109905D01*
X87507Y1110041D01*
X88187D01*
X88648Y1109905D01*
X90166Y1108891D01*
X92117Y1108503D01*
X94068Y1108891D01*
X95715Y1109992D01*
X96921Y1109981D01*
X97145Y1109645D01*
X98799Y1108540D01*
X100750Y1108152D01*
X102701Y1108540D01*
X104355Y1109645D01*
X104490Y1109848D01*
X105760D01*
X105895Y1109645D01*
X107549Y1108540D01*
X109500Y1108152D01*
X111451Y1108540D01*
X113105Y1109645D01*
X113406Y1110097D01*
X114677D01*
X115145Y1109395D01*
X116799Y1108290D01*
X118750Y1107902D01*
X120701Y1108290D01*
X122355Y1109395D01*
X122653Y1109841D01*
X124180D01*
X124645Y1109145D01*
X126299Y1108040D01*
X128250Y1107652D01*
X130201Y1108040D01*
X131855Y1109145D01*
X133151Y1109057D01*
X134299Y1108290D01*
X136250Y1107902D01*
X138201Y1108290D01*
X139855Y1109395D01*
X140100Y1109763D01*
X141406Y1108891D01*
X143357Y1108503D01*
X145308Y1108891D01*
X146825Y1109905D01*
X147286Y1110041D01*
X147967D01*
X148428Y1109905D01*
X149946Y1108891D01*
X151897Y1108503D01*
X153848Y1108891D01*
X155501Y1109996D01*
X156607Y1111650D01*
X156994Y1113601D01*
X156607Y1115552D01*
X155501Y1117205D01*
X153848Y1118310D01*
X151897Y1118699D01*
X149946Y1118310D01*
X148428Y1117296D01*
X147967Y1117160D01*
X147286D01*
X146825Y1117296D01*
X145308Y1118310D01*
X143357Y1118699D01*
X141406Y1118310D01*
X139752Y1117205D01*
X139506Y1116838D01*
X138201Y1117710D01*
X136250Y1118098D01*
X134299Y1117710D01*
X132645Y1116605D01*
X131349Y1116693D01*
X130201Y1117460D01*
X128250Y1117848D01*
X126299Y1117460D01*
X124645Y1116355D01*
X124347Y1115909D01*
X122820D01*
X122355Y1116605D01*
X120701Y1117710D01*
X118750Y1118098D01*
X116799Y1117710D01*
X115145Y1116605D01*
X114844Y1116153D01*
X113574D01*
X113105Y1116855D01*
X111451Y1117960D01*
X109500Y1118348D01*
X107549Y1117960D01*
X105895Y1116855D01*
X105760Y1116652D01*
X104490D01*
X104355Y1116855D01*
X102701Y1117960D01*
X100750Y1118348D01*
X98799Y1117960D01*
X97151Y1116859D01*
X95946Y1116869D01*
X95721Y1117205D01*
X94068Y1118310D01*
X92117Y1118699D01*
X90166Y1118310D01*
X88648Y1117296D01*
X88187Y1117160D01*
X87507D01*
X87045Y1117296D01*
X85528Y1118310D01*
X83577Y1118699D01*
X81626Y1118310D01*
X80108Y1117296D01*
X79647Y1117160D01*
X78966D01*
X78505Y1117296D01*
X76988Y1118310D01*
X75037Y1118699D01*
X73086Y1118310D01*
X71568Y1117296D01*
X71107Y1117160D01*
X70427D01*
X69965Y1117296D01*
X68448Y1118310D01*
X66497Y1118699D01*
X64546Y1118310D01*
X63028Y1117296D01*
X62567Y1117160D01*
X61887D01*
X61425Y1117296D01*
X59908Y1118310D01*
X57957Y1118699D01*
X56006Y1118310D01*
X54352Y1117205D01*
X53867Y1116479D01*
X53222Y1115566D01*
X52239Y1116155D01*
X51536Y1116626D01*
X49585Y1117014D01*
X47634Y1116626D01*
X45980Y1115521D01*
X44875Y1113867D01*
X44487Y1111916D01*
X44875Y1109965D01*
X45980Y1108311D01*
X47634Y1107206D01*
X49585Y1106818D01*
X51536Y1107206D01*
X53189Y1108311D01*
X53675Y1109037D01*
X54320Y1109950D01*
X55302Y1109361D01*
X56006Y1108891D01*
X57957Y1108503D01*
X59908Y1108891D01*
X61425Y1109905D01*
X61887Y1110041D01*
X62567D01*
X63028Y1109905D01*
X64546Y1108891D01*
X66497Y1108503D01*
X68448Y1108891D01*
X69965Y1109905D01*
X70427Y1110041D01*
X70823D01*
X71727Y1109287D01*
X71682Y1107964D01*
X71145Y1107605D01*
X70040Y1105951D01*
X69652Y1104000D01*
X70040Y1102049D01*
X71014Y1100591D01*
X70844Y1099728D01*
X70616Y1099222D01*
X69299Y1098960D01*
X67645Y1097855D01*
X41895Y1072105D01*
X40790Y1070451D01*
X40402Y1068500D01*
Y1066599D01*
X39132Y1066168D01*
X37845Y1067845D01*
X35547Y1069609D01*
X32872Y1070717D01*
X30000Y1071095D01*
X27128Y1070717D01*
X24453Y1069609D01*
X22155Y1067845D01*
X20391Y1065547D01*
X19283Y1062872D01*
X18905Y1060000D01*
X19283Y1057128D01*
X20391Y1054453D01*
X22155Y1052155D01*
X24453Y1050391D01*
X27128Y1049283D01*
X30000Y1048905D01*
X32872Y1049283D01*
X35547Y1050391D01*
X37845Y1052155D01*
X39132Y1053832D01*
X40402Y1053400D01*
Y1038000D01*
X40790Y1036049D01*
X40902Y1035882D01*
Y1031932D01*
X40790Y1031765D01*
X40402Y1029814D01*
Y1023186D01*
X40790Y1021235D01*
X40902Y1021068D01*
Y978932D01*
X40790Y978765D01*
X40402Y976814D01*
Y970186D01*
X40790Y968235D01*
X40902Y968068D01*
Y931682D01*
X40790Y931515D01*
X40402Y929564D01*
Y922936D01*
X40790Y920985D01*
X40902Y920818D01*
Y878182D01*
X40790Y878015D01*
X40402Y876064D01*
Y869436D01*
X40790Y867485D01*
X40902Y867318D01*
Y778156D01*
X40655Y776914D01*
Y770287D01*
X40902Y769045D01*
Y754000D01*
X41290Y752049D01*
X42395Y750395D01*
X62902Y729888D01*
Y502112D01*
X42395Y481605D01*
X41290Y479951D01*
X40902Y478000D01*
Y387500D01*
X0D01*
Y1200000D01*
X500000D01*
Y477500D01*
D02*
G37*
G36*
X57686Y921506D02*
Y877494D01*
X56416Y876815D01*
X55451Y877460D01*
X53500Y877848D01*
X52368Y877623D01*
X51098Y878570D01*
Y920430D01*
X52368Y921377D01*
X53500Y921152D01*
X55451Y921540D01*
X56416Y922185D01*
X57686Y921506D01*
D02*
G37*
G36*
Y1021756D02*
Y978244D01*
X56416Y977565D01*
X55451Y978210D01*
X53500Y978598D01*
X52368Y978373D01*
X51098Y979320D01*
Y1020680D01*
X52368Y1021627D01*
X53500Y1021402D01*
X55451Y1021790D01*
X56416Y1022435D01*
X57686Y1021756D01*
D02*
G37*
G36*
Y868006D02*
Y778513D01*
X56416Y777834D01*
X55704Y778310D01*
X53753Y778699D01*
X52368Y778423D01*
X51098Y779251D01*
Y866930D01*
X52368Y867877D01*
X53500Y867652D01*
X55451Y868040D01*
X56416Y868685D01*
X57686Y868006D01*
D02*
G37*
G36*
X439258Y202224D02*
X439284Y201935D01*
X439327Y201661D01*
X439386Y201401D01*
X439463Y201155D01*
X439556Y200924D01*
X439666Y200707D01*
X439794Y200504D01*
X439939Y200316D01*
X440100Y200142D01*
X435900D01*
X436062Y200316D01*
X436206Y200504D01*
X436334Y200707D01*
X436444Y200924D01*
X436538Y201155D01*
X436614Y201401D01*
X436674Y201661D01*
X436716Y201935D01*
X436741Y202224D01*
X436750Y202527D01*
X439250D01*
X439258Y202224D01*
D02*
G37*
G36*
X57686Y968756D02*
Y930994D01*
X56416Y930315D01*
X55451Y930960D01*
X53500Y931348D01*
X52368Y931123D01*
X51098Y932070D01*
Y967680D01*
X52368Y968627D01*
X53500Y968402D01*
X55451Y968790D01*
X56416Y969435D01*
X57686Y968756D01*
D02*
G37*
G36*
X120314Y425000D02*
X127407Y417907D01*
X128482Y417189D01*
X129750Y416936D01*
X131537D01*
X132233Y415666D01*
X131902Y414000D01*
X132290Y412049D01*
X133395Y410395D01*
X135049Y409290D01*
X137000Y408902D01*
X138951Y409290D01*
X140605Y410395D01*
X141710Y412049D01*
X142098Y414000D01*
X141767Y415666D01*
X142463Y416936D01*
X252377D01*
X262720Y406594D01*
X262785Y406505D01*
X262846Y406407D01*
X262890Y406323D01*
X262920Y406253D01*
X262940Y406193D01*
X262940Y406191D01*
X262902Y406000D01*
X263290Y404049D01*
X264395Y402395D01*
X266049Y401290D01*
X268000Y400902D01*
X269951Y401290D01*
X271605Y402395D01*
X272710Y404049D01*
X273098Y406000D01*
X272710Y407951D01*
X271605Y409605D01*
X269951Y410710D01*
X268000Y411098D01*
X267809Y411060D01*
X267807Y411060D01*
X267747Y411080D01*
X267677Y411110D01*
X267593Y411154D01*
X267495Y411215D01*
X267406Y411280D01*
X256093Y422593D01*
X255018Y423311D01*
X253750Y423564D01*
X142357D01*
X141637Y424834D01*
X141737Y425000D01*
X331000Y425000D01*
X405000Y351000D01*
X405000Y296000D01*
X452000D01*
X471765Y317000D01*
X498000D01*
X498000Y220000D01*
X441314Y220000D01*
Y223846D01*
X441330Y223955D01*
X441356Y224068D01*
X441385Y224158D01*
X441413Y224230D01*
X441441Y224285D01*
X441443Y224287D01*
X441605Y224395D01*
X442710Y226049D01*
X443098Y228000D01*
X442710Y229951D01*
X441605Y231605D01*
X439951Y232710D01*
X438000Y233098D01*
X436049Y232710D01*
X434395Y231605D01*
X433290Y229951D01*
X432902Y228000D01*
X433290Y226049D01*
X434395Y224395D01*
X434557Y224287D01*
X434558Y224285D01*
X434587Y224230D01*
X434616Y224158D01*
X434644Y224068D01*
X434669Y223955D01*
X434686Y223846D01*
Y220000D01*
X388000D01*
X371000Y203000D01*
X371000Y105000D01*
X150000Y105000D01*
X112874Y142126D01*
X112710Y142951D01*
X111605Y144605D01*
X109951Y145710D01*
X109126Y145874D01*
X108000Y147000D01*
Y150116D01*
X120942Y163058D01*
X121384Y163720D01*
X121539Y164500D01*
Y218250D01*
X121384Y219030D01*
X120942Y219692D01*
X120280Y220134D01*
X119500Y220289D01*
X108000D01*
Y306132D01*
X109270Y306811D01*
X110049Y306290D01*
X112000Y305902D01*
X113951Y306290D01*
X115605Y307395D01*
X116710Y309049D01*
X117098Y311000D01*
X116710Y312951D01*
X115605Y314605D01*
X113951Y315710D01*
X112000Y316098D01*
X110049Y315710D01*
X109270Y315189D01*
X108000Y315868D01*
Y425000D01*
X120314D01*
D02*
G37*
G36*
X439939Y225684D02*
X439794Y225496D01*
X439666Y225293D01*
X439556Y225076D01*
X439463Y224845D01*
X439386Y224599D01*
X439327Y224339D01*
X439284Y224065D01*
X439258Y223776D01*
X439250Y223473D01*
X436750D01*
X436741Y223776D01*
X436716Y224065D01*
X436674Y224339D01*
X436614Y224599D01*
X436538Y224845D01*
X436444Y225076D01*
X436334Y225293D01*
X436206Y225496D01*
X436062Y225684D01*
X435900Y225858D01*
X440100D01*
X439939Y225684D01*
D02*
G37*
G36*
X57686Y768688D02*
Y762000D01*
X57939Y760732D01*
X58657Y759657D01*
X86686Y731627D01*
Y472000D01*
Y470000D01*
X86939Y468732D01*
X87657Y467657D01*
X88732Y466939D01*
X90000Y466686D01*
X90523Y466791D01*
X108686Y448627D01*
Y438000D01*
X108939Y436732D01*
X109657Y435657D01*
X117101Y428213D01*
X116615Y427039D01*
X108000D01*
X107220Y426884D01*
X106558Y426442D01*
X106116Y425780D01*
X105961Y425000D01*
Y422861D01*
X104691Y422476D01*
X104605Y422605D01*
X102951Y423710D01*
X101000Y424098D01*
X99049Y423710D01*
X97395Y422605D01*
X96290Y420951D01*
X95902Y419000D01*
X96290Y417049D01*
X97395Y415395D01*
X99049Y414290D01*
X101000Y413902D01*
X102951Y414290D01*
X104605Y415395D01*
X104691Y415524D01*
X105961Y415139D01*
Y397314D01*
X92373D01*
X64280Y425406D01*
X64215Y425495D01*
X64154Y425593D01*
X64110Y425677D01*
X64080Y425748D01*
X64061Y425807D01*
X64060Y425809D01*
X64098Y426000D01*
X63710Y427951D01*
X62605Y429605D01*
X60951Y430710D01*
X59000Y431098D01*
X57049Y430710D01*
X55395Y429605D01*
X54290Y427951D01*
X53902Y426000D01*
X54290Y424049D01*
X55395Y422395D01*
X57049Y421290D01*
X59000Y420902D01*
X59191Y420940D01*
X59193Y420940D01*
X59253Y420920D01*
X59323Y420890D01*
X59407Y420846D01*
X59505Y420785D01*
X59594Y420720D01*
X88657Y391657D01*
X89732Y390939D01*
X91000Y390686D01*
X105961D01*
Y387500D01*
X51098D01*
Y459515D01*
X52368Y460227D01*
X54000Y459902D01*
X55951Y460290D01*
X57605Y461395D01*
X58710Y463049D01*
X59098Y465000D01*
X58710Y466951D01*
X59541Y467993D01*
X60000Y467902D01*
X61951Y468290D01*
X63004Y468994D01*
X64147Y468230D01*
X63902Y466999D01*
X64290Y465048D01*
X65395Y463394D01*
X67049Y462289D01*
X69000Y461901D01*
X70951Y462289D01*
X72605Y463394D01*
X73710Y465048D01*
X74098Y466999D01*
X73710Y468950D01*
X74540Y469994D01*
X75000Y469902D01*
X76951Y470290D01*
X78605Y471395D01*
X79710Y473049D01*
X80098Y475000D01*
X79710Y476951D01*
X78605Y478605D01*
X76951Y479710D01*
X75000Y480098D01*
X73049Y479710D01*
X71395Y478605D01*
X70290Y476951D01*
X69902Y475000D01*
X70290Y473049D01*
X69460Y472006D01*
X69000Y472097D01*
X67049Y471709D01*
X65996Y471006D01*
X64853Y471769D01*
X65098Y473000D01*
X64710Y474951D01*
X63605Y476605D01*
X61951Y477710D01*
X60000Y478098D01*
X58049Y477710D01*
X56395Y476605D01*
X55290Y474951D01*
X54902Y473000D01*
X55290Y471049D01*
X54459Y470007D01*
X54000Y470098D01*
X52368Y469773D01*
X51098Y470485D01*
Y475888D01*
X71605Y496395D01*
X72710Y498049D01*
X73098Y500000D01*
Y732000D01*
X72710Y733951D01*
X71605Y735605D01*
X51098Y756112D01*
Y767950D01*
X52368Y768778D01*
X53753Y768503D01*
X55704Y768891D01*
X56416Y769367D01*
X57686Y768688D01*
D02*
G37*
G36*
X66558Y152558D02*
X66558Y152558D01*
X70558Y148558D01*
X71220Y148116D01*
X72000Y147961D01*
X104691Y147961D01*
X105441Y147520D01*
X105961Y147000D01*
X106116Y146220D01*
X106205Y146086D01*
X106049Y145710D01*
X104395Y144605D01*
X103290Y142951D01*
X102902Y141000D01*
X103290Y139049D01*
X104395Y137395D01*
X106049Y136290D01*
X108000Y135902D01*
X109951Y136290D01*
X111605Y137395D01*
X111638Y137445D01*
X112822Y137513D01*
X112523Y136358D01*
X111395Y135605D01*
X110290Y133951D01*
X109902Y132000D01*
X110290Y130049D01*
X110944Y129070D01*
X111143Y128773D01*
X110227Y127857D01*
X109930Y128056D01*
X108951Y128710D01*
X107000Y129098D01*
X105049Y128710D01*
X103395Y127605D01*
X102290Y125951D01*
X101902Y124000D01*
X102290Y122049D01*
X103395Y120395D01*
X105049Y119290D01*
X107000Y118902D01*
X108951Y119290D01*
X110605Y120395D01*
X111710Y122049D01*
X112098Y124000D01*
X111710Y125951D01*
X111056Y126930D01*
X110857Y127227D01*
X111772Y128143D01*
X112070Y127944D01*
X113049Y127290D01*
X115000Y126902D01*
X116951Y127290D01*
X118605Y128395D01*
X119710Y130049D01*
X119803Y130517D01*
X121181Y130935D01*
X148558Y103558D01*
X149220Y103116D01*
X150000Y102961D01*
X187039D01*
X189000Y101000D01*
X266980D01*
X267785Y100018D01*
X267752Y99850D01*
X268140Y97899D01*
X269245Y96245D01*
X270899Y95140D01*
X272850Y94752D01*
X274801Y95140D01*
X276455Y96245D01*
X277560Y97899D01*
X277948Y99850D01*
X277915Y100018D01*
X278720Y101000D01*
X394000D01*
X400000Y95000D01*
Y63013D01*
X399290Y61951D01*
X398902Y60000D01*
X399290Y58049D01*
X400000Y56987D01*
Y55000D01*
X385000D01*
X365000Y75000D01*
X363013D01*
X361951Y75710D01*
X360000Y76098D01*
X358049Y75710D01*
X356987Y75000D01*
X137803D01*
X137417Y76270D01*
X137605Y76395D01*
X138710Y78049D01*
X139098Y80000D01*
X138710Y81951D01*
X137605Y83605D01*
X135951Y84710D01*
X134000Y85098D01*
X132049Y84710D01*
X130395Y83605D01*
X129290Y81951D01*
X128902Y80000D01*
X129290Y78049D01*
X130395Y76395D01*
X130583Y76270D01*
X130197Y75000D01*
X65000D01*
X65000Y75000D01*
Y117005D01*
X66270Y118047D01*
X67000Y117902D01*
X68951Y118290D01*
X70605Y119395D01*
X71710Y121049D01*
X72098Y123000D01*
X71710Y124951D01*
X70605Y126605D01*
X68951Y127710D01*
X67000Y128098D01*
X66270Y127953D01*
X65000Y128995D01*
Y152778D01*
X65147Y152836D01*
X66270Y152989D01*
X66558Y152558D01*
D02*
G37*
G36*
X62009Y425733D02*
X62039Y425498D01*
X62092Y425264D01*
X62168Y425033D01*
X62265Y424803D01*
X62385Y424575D01*
X62527Y424349D01*
X62691Y424125D01*
X62877Y423903D01*
X63085Y423683D01*
X61317Y421915D01*
X61097Y422123D01*
X60875Y422309D01*
X60651Y422473D01*
X60425Y422615D01*
X60197Y422735D01*
X59967Y422832D01*
X59736Y422907D01*
X59502Y422961D01*
X59267Y422991D01*
X59030Y423000D01*
X62000Y425970D01*
X62009Y425733D01*
D02*
G37*
G36*
X247264Y63496D02*
X247054Y63278D01*
X246685Y62842D01*
X246526Y62625D01*
X246257Y62190D01*
X246148Y61973D01*
X246056Y61756D01*
X245981Y61539D01*
X245922Y61322D01*
X243736Y64908D01*
X243960Y64865D01*
X244184Y64851D01*
X244408Y64864D01*
X244632Y64905D01*
X244856Y64975D01*
X245080Y65072D01*
X245304Y65198D01*
X245527Y65351D01*
X245751Y65533D01*
X245975Y65743D01*
X247264Y63496D01*
D02*
G37*
G36*
X255370Y67653D02*
X255196Y67815D01*
X255008Y67959D01*
X254806Y68087D01*
X254589Y68197D01*
X254357Y68291D01*
X254112Y68367D01*
X253852Y68427D01*
X253577Y68469D01*
X253288Y68495D01*
X252985Y68503D01*
Y71003D01*
X253288Y71012D01*
X253577Y71037D01*
X253852Y71080D01*
X254112Y71139D01*
X254357Y71216D01*
X254589Y71309D01*
X254806Y71420D01*
X255008Y71547D01*
X255196Y71692D01*
X255370Y71853D01*
Y67653D01*
D02*
G37*
%LPC*%
G36*
X19000Y436982D02*
X16520Y436656D01*
X14209Y435698D01*
X12225Y434175D01*
X10702Y432191D01*
X9744Y429880D01*
X9418Y427400D01*
X9744Y424920D01*
X10702Y422609D01*
X12225Y420625D01*
X14209Y419102D01*
X16520Y418145D01*
X19000Y417818D01*
X21480Y418145D01*
X23791Y419102D01*
X25775Y420625D01*
X27298Y422609D01*
X28255Y424920D01*
X28582Y427400D01*
X28255Y429880D01*
X27298Y432191D01*
X25775Y434175D01*
X23791Y435698D01*
X21480Y436656D01*
X19000Y436982D01*
D02*
G37*
G36*
Y411582D02*
X16520Y411255D01*
X14209Y410298D01*
X12225Y408775D01*
X10702Y406791D01*
X9744Y404480D01*
X9418Y402000D01*
X9744Y399520D01*
X10702Y397209D01*
X12225Y395225D01*
X14209Y393702D01*
X16520Y392745D01*
X19000Y392418D01*
X21480Y392745D01*
X23791Y393702D01*
X25775Y395225D01*
X27298Y397209D01*
X28255Y399520D01*
X28582Y402000D01*
X28255Y404480D01*
X27298Y406791D01*
X25775Y408775D01*
X23791Y410298D01*
X21480Y411255D01*
X19000Y411582D01*
D02*
G37*
G36*
X434000Y317098D02*
X432049Y316710D01*
X430395Y315605D01*
X429290Y313951D01*
X428902Y312000D01*
X429290Y310049D01*
X430395Y308395D01*
X432049Y307290D01*
X434000Y306902D01*
X435951Y307290D01*
X437605Y308395D01*
X438710Y310049D01*
X439098Y312000D01*
X438710Y313951D01*
X437605Y315605D01*
X435951Y316710D01*
X434000Y317098D01*
D02*
G37*
G36*
X459000Y341098D02*
X457049Y340710D01*
X455395Y339605D01*
X454290Y337951D01*
X453902Y336000D01*
X454290Y334049D01*
X455395Y332395D01*
X457049Y331290D01*
X459000Y330902D01*
X460951Y331290D01*
X462605Y332395D01*
X463710Y334049D01*
X464098Y336000D01*
X463710Y337951D01*
X462605Y339605D01*
X460951Y340710D01*
X459000Y341098D01*
D02*
G37*
G36*
X126000Y524098D02*
X124049Y523710D01*
X122395Y522605D01*
X121290Y520951D01*
X120902Y519000D01*
X121290Y517049D01*
X122395Y515395D01*
X124049Y514290D01*
X126000Y513902D01*
X127951Y514290D01*
X129605Y515395D01*
X130710Y517049D01*
X131098Y519000D01*
X130710Y520951D01*
X129605Y522605D01*
X127951Y523710D01*
X126000Y524098D01*
D02*
G37*
G36*
X265000Y528098D02*
X263049Y527710D01*
X261395Y526605D01*
X260290Y524951D01*
X259902Y523000D01*
X260290Y521049D01*
X261395Y519395D01*
X263049Y518290D01*
X265000Y517902D01*
X266951Y518290D01*
X268605Y519395D01*
X269710Y521049D01*
X270098Y523000D01*
X269710Y524951D01*
X268605Y526605D01*
X266951Y527710D01*
X265000Y528098D01*
D02*
G37*
G36*
X398000Y535095D02*
X395128Y534717D01*
X392453Y533609D01*
X390155Y531845D01*
X388391Y529548D01*
X387283Y526872D01*
X386905Y524000D01*
X387283Y521128D01*
X388391Y518452D01*
X390155Y516155D01*
X392453Y514392D01*
X395128Y513283D01*
X398000Y512905D01*
X400872Y513283D01*
X403548Y514392D01*
X405845Y516155D01*
X407608Y518452D01*
X408717Y521128D01*
X409095Y524000D01*
X408717Y526872D01*
X407608Y529548D01*
X405845Y531845D01*
X403548Y533609D01*
X400872Y534717D01*
X398000Y535095D01*
D02*
G37*
G36*
X228000Y503098D02*
X226049Y502710D01*
X224395Y501605D01*
X223290Y499951D01*
X222902Y498000D01*
X223290Y496049D01*
X224395Y494395D01*
X226049Y493290D01*
X228000Y492902D01*
X229951Y493290D01*
X231605Y494395D01*
X232710Y496049D01*
X233098Y498000D01*
X232710Y499951D01*
X231605Y501605D01*
X229951Y502710D01*
X228000Y503098D01*
D02*
G37*
G36*
X242000Y512098D02*
X240049Y511710D01*
X238395Y510605D01*
X237290Y508951D01*
X236902Y507000D01*
X237290Y505049D01*
X238395Y503395D01*
X240049Y502290D01*
X242000Y501902D01*
X243951Y502290D01*
X245605Y503395D01*
X246710Y505049D01*
X247098Y507000D01*
X246710Y508951D01*
X245605Y510605D01*
X243951Y511710D01*
X242000Y512098D01*
D02*
G37*
G36*
X314000Y548098D02*
X312049Y547710D01*
X310395Y546605D01*
X309290Y544951D01*
X308902Y543000D01*
X309290Y541049D01*
X310395Y539395D01*
X312049Y538290D01*
X314000Y537902D01*
X315951Y538290D01*
X317605Y539395D01*
X318710Y541049D01*
X319098Y543000D01*
X318710Y544951D01*
X317605Y546605D01*
X315951Y547710D01*
X314000Y548098D01*
D02*
G37*
G36*
X470000Y600106D02*
X465687Y599682D01*
X461540Y598424D01*
X457718Y596381D01*
X454368Y593632D01*
X451619Y590282D01*
X449576Y586460D01*
X448318Y582313D01*
X447894Y578000D01*
X448318Y573687D01*
X449576Y569540D01*
X451619Y565718D01*
X454368Y562368D01*
X457718Y559619D01*
X461540Y557576D01*
X465687Y556318D01*
X470000Y555894D01*
X474313Y556318D01*
X478460Y557576D01*
X482282Y559619D01*
X485632Y562368D01*
X488381Y565718D01*
X490424Y569540D01*
X491682Y573687D01*
X492106Y578000D01*
X491682Y582313D01*
X490424Y586460D01*
X488381Y590282D01*
X485632Y593632D01*
X482282Y596381D01*
X478460Y598424D01*
X474313Y599682D01*
X470000Y600106D01*
D02*
G37*
G36*
X130000Y581095D02*
X127128Y580717D01*
X124452Y579608D01*
X122155Y577845D01*
X120392Y575547D01*
X119283Y572872D01*
X118905Y570000D01*
X119283Y567128D01*
X120392Y564453D01*
X122155Y562155D01*
X124452Y560392D01*
X127128Y559283D01*
X130000Y558905D01*
X132872Y559283D01*
X135548Y560392D01*
X137845Y562155D01*
X139608Y564453D01*
X140717Y567128D01*
X141095Y570000D01*
X140717Y572872D01*
X139608Y575547D01*
X137845Y577845D01*
X135548Y579608D01*
X132872Y580717D01*
X130000Y581095D01*
D02*
G37*
G36*
X30000Y600106D02*
X25687Y599682D01*
X21540Y598424D01*
X17718Y596381D01*
X14368Y593632D01*
X11619Y590282D01*
X9576Y586460D01*
X8318Y582313D01*
X7894Y578000D01*
X8318Y573687D01*
X9576Y569540D01*
X11619Y565718D01*
X14368Y562368D01*
X17718Y559619D01*
X21540Y557576D01*
X25687Y556318D01*
X30000Y555894D01*
X34313Y556318D01*
X38460Y557576D01*
X42282Y559619D01*
X45632Y562368D01*
X48381Y565718D01*
X50424Y569540D01*
X51682Y573687D01*
X52106Y578000D01*
X51682Y582313D01*
X50424Y586460D01*
X48381Y590282D01*
X45632Y593632D01*
X42282Y596381D01*
X38460Y598424D01*
X34313Y599682D01*
X30000Y600106D01*
D02*
G37*
G36*
X281000Y557098D02*
X279049Y556710D01*
X277395Y555605D01*
X276290Y553951D01*
X275902Y552000D01*
X276290Y550049D01*
X277395Y548395D01*
X279049Y547290D01*
X281000Y546902D01*
X282951Y547290D01*
X284605Y548395D01*
X285710Y550049D01*
X286098Y552000D01*
X285710Y553951D01*
X284605Y555605D01*
X282951Y556710D01*
X281000Y557098D01*
D02*
G37*
G36*
X250000Y561098D02*
X248049Y560710D01*
X246395Y559605D01*
X245290Y557951D01*
X244902Y556000D01*
X245290Y554049D01*
X246395Y552395D01*
X248049Y551290D01*
X250000Y550902D01*
X251951Y551290D01*
X253605Y552395D01*
X254710Y554049D01*
X255098Y556000D01*
X254710Y557951D01*
X253605Y559605D01*
X251951Y560710D01*
X250000Y561098D01*
D02*
G37*
G36*
X382300Y480891D02*
X379559Y480530D01*
X377005Y479472D01*
X374811Y477789D01*
X373128Y475595D01*
X372070Y473041D01*
X371709Y470300D01*
X372070Y467559D01*
X373128Y465005D01*
X374811Y462811D01*
X377005Y461128D01*
X379559Y460070D01*
X382300Y459709D01*
X385041Y460070D01*
X387595Y461128D01*
X389789Y462811D01*
X391472Y465005D01*
X392530Y467559D01*
X392891Y470300D01*
X392530Y473041D01*
X391472Y475595D01*
X389789Y477789D01*
X387595Y479472D01*
X385041Y480530D01*
X382300Y480891D01*
D02*
G37*
G36*
X407700D02*
X404959Y480530D01*
X402405Y479472D01*
X400211Y477789D01*
X398528Y475595D01*
X397470Y473041D01*
X397109Y470300D01*
X397470Y467559D01*
X398528Y465005D01*
X400211Y462811D01*
X402405Y461128D01*
X404959Y460070D01*
X407700Y459709D01*
X410441Y460070D01*
X412995Y461128D01*
X415189Y462811D01*
X416872Y465005D01*
X417930Y467559D01*
X418291Y470300D01*
X417930Y473041D01*
X416872Y475595D01*
X415189Y477789D01*
X412995Y479472D01*
X410441Y480530D01*
X407700Y480891D01*
D02*
G37*
G36*
X365000Y446098D02*
X363049Y445710D01*
X361395Y444605D01*
X360290Y442951D01*
X359902Y441000D01*
X360290Y439049D01*
X361395Y437395D01*
X363049Y436290D01*
X365000Y435902D01*
X366951Y436290D01*
X368605Y437395D01*
X369710Y439049D01*
X370098Y441000D01*
X369710Y442951D01*
X368605Y444605D01*
X366951Y445710D01*
X365000Y446098D01*
D02*
G37*
G36*
X418000Y443098D02*
X416049Y442710D01*
X414395Y441605D01*
X413290Y439951D01*
X412902Y438000D01*
X413290Y436049D01*
X414395Y434395D01*
X416049Y433290D01*
X418000Y432902D01*
X419951Y433290D01*
X421605Y434395D01*
X422710Y436049D01*
X423098Y438000D01*
X422710Y439951D01*
X421605Y441605D01*
X419951Y442710D01*
X418000Y443098D01*
D02*
G37*
G36*
X119300Y484891D02*
X116559Y484530D01*
X114005Y483472D01*
X111811Y481789D01*
X110128Y479595D01*
X109070Y477041D01*
X108709Y474300D01*
X109070Y471559D01*
X110128Y469005D01*
X111811Y466811D01*
X114005Y465128D01*
X116559Y464070D01*
X119300Y463709D01*
X122041Y464070D01*
X124595Y465128D01*
X126789Y466811D01*
X128472Y469005D01*
X129530Y471559D01*
X129891Y474300D01*
X129530Y477041D01*
X128472Y479595D01*
X126789Y481789D01*
X124595Y483472D01*
X122041Y484530D01*
X119300Y484891D01*
D02*
G37*
G36*
Y510291D02*
X116559Y509930D01*
X114005Y508872D01*
X111811Y507189D01*
X110128Y504995D01*
X109070Y502441D01*
X108709Y499700D01*
X109070Y496959D01*
X110128Y494405D01*
X111811Y492211D01*
X114005Y490528D01*
X116559Y489470D01*
X119300Y489109D01*
X122041Y489470D01*
X124595Y490528D01*
X126789Y492211D01*
X128472Y494405D01*
X129530Y496959D01*
X129891Y499700D01*
X129530Y502441D01*
X128472Y504995D01*
X126789Y507189D01*
X124595Y508872D01*
X122041Y509930D01*
X119300Y510291D01*
D02*
G37*
G36*
X144700D02*
X141959Y509930D01*
X139405Y508872D01*
X137211Y507189D01*
X135528Y504995D01*
X134470Y502441D01*
X134109Y499700D01*
X134470Y496959D01*
X135528Y494405D01*
X137211Y492211D01*
X139405Y490528D01*
X141959Y489470D01*
X144700Y489109D01*
X147441Y489470D01*
X149995Y490528D01*
X152189Y492211D01*
X153872Y494405D01*
X154930Y496959D01*
X155291Y499700D01*
X154930Y502441D01*
X153872Y504995D01*
X152189Y507189D01*
X149995Y508872D01*
X147441Y509930D01*
X144700Y510291D01*
D02*
G37*
G36*
X390800Y506239D02*
X373800D01*
X373020Y506084D01*
X372358Y505642D01*
X371916Y504980D01*
X371761Y504200D01*
Y487200D01*
X371916Y486420D01*
X372358Y485758D01*
X373020Y485316D01*
X373800Y485161D01*
X390800D01*
X391580Y485316D01*
X392242Y485758D01*
X392684Y486420D01*
X392839Y487200D01*
Y504200D01*
X392684Y504980D01*
X392242Y505642D01*
X391580Y506084D01*
X390800Y506239D01*
D02*
G37*
G36*
X153200Y484839D02*
X136200D01*
X135420Y484684D01*
X134758Y484242D01*
X134316Y483580D01*
X134161Y482800D01*
Y465800D01*
X134316Y465020D01*
X134758Y464358D01*
X135420Y463916D01*
X136200Y463761D01*
X153200D01*
X153980Y463916D01*
X154642Y464358D01*
X155084Y465020D01*
X155239Y465800D01*
Y482800D01*
X155084Y483580D01*
X154642Y484242D01*
X153980Y484684D01*
X153200Y484839D01*
D02*
G37*
G36*
X407700Y506291D02*
X404959Y505930D01*
X402405Y504872D01*
X400211Y503189D01*
X398528Y500995D01*
X397470Y498441D01*
X397109Y495700D01*
X397470Y492959D01*
X398528Y490405D01*
X400211Y488211D01*
X402405Y486528D01*
X404959Y485470D01*
X407700Y485109D01*
X410441Y485470D01*
X412995Y486528D01*
X415189Y488211D01*
X416872Y490405D01*
X417930Y492959D01*
X418291Y495700D01*
X417930Y498441D01*
X416872Y500995D01*
X415189Y503189D01*
X412995Y504872D01*
X410441Y505930D01*
X407700Y506291D01*
D02*
G37*
G36*
X197000Y595098D02*
X195049Y594710D01*
X193395Y593605D01*
X192290Y591951D01*
X191902Y590000D01*
X192290Y588049D01*
X193395Y586395D01*
X195049Y585290D01*
X197000Y584902D01*
X198951Y585290D01*
X200605Y586395D01*
X201710Y588049D01*
X202098Y590000D01*
X201710Y591951D01*
X200605Y593605D01*
X198951Y594710D01*
X197000Y595098D01*
D02*
G37*
G36*
X248000Y1166098D02*
X246049Y1165710D01*
X244395Y1164605D01*
X243290Y1162951D01*
X242902Y1161000D01*
X243290Y1159049D01*
X244395Y1157395D01*
X246049Y1156290D01*
X248000Y1155902D01*
X249951Y1156290D01*
X251605Y1157395D01*
X252710Y1159049D01*
X253098Y1161000D01*
X252710Y1162951D01*
X251605Y1164605D01*
X249951Y1165710D01*
X248000Y1166098D01*
D02*
G37*
G36*
X268000Y868098D02*
X266049Y867710D01*
X264500Y866675D01*
X262951Y867710D01*
X261000Y868098D01*
X259049Y867710D01*
X257395Y866605D01*
X256605D01*
X254951Y867710D01*
X253000Y868098D01*
X251049Y867710D01*
X249500Y866675D01*
X247951Y867710D01*
X246000Y868098D01*
X244049Y867710D01*
X242395Y866605D01*
X241290Y864951D01*
X240902Y863000D01*
X241290Y861049D01*
X242055Y859905D01*
X242292Y859000D01*
X242055Y858095D01*
X241290Y856951D01*
X240902Y855000D01*
X241290Y853049D01*
X242055Y851905D01*
X242292Y851000D01*
X242055Y850095D01*
X241290Y848951D01*
X240902Y847000D01*
X241290Y845049D01*
X242055Y843905D01*
X242292Y843000D01*
X242055Y842095D01*
X241290Y840951D01*
X240902Y839000D01*
X241290Y837049D01*
X242055Y835905D01*
X242292Y835000D01*
X242055Y834095D01*
X241290Y832951D01*
X240902Y831000D01*
X241290Y829049D01*
X242055Y827905D01*
X242292Y827000D01*
X242055Y826095D01*
X241290Y824951D01*
X240902Y823000D01*
X241290Y821049D01*
X242395Y819395D01*
X242092Y818070D01*
X241395Y817605D01*
X240290Y815951D01*
X239902Y814000D01*
X240290Y812049D01*
X241395Y810395D01*
X243049Y809290D01*
X245000Y808902D01*
X246951Y809290D01*
X248605Y810395D01*
X249710Y812049D01*
X250098Y814000D01*
X249710Y815951D01*
X248881Y817192D01*
X249143Y818501D01*
X250099Y818925D01*
X251049Y818290D01*
X252176Y818066D01*
X252763Y816659D01*
X252290Y815951D01*
X251902Y814000D01*
X252290Y812049D01*
X253395Y810395D01*
X255049Y809290D01*
X257000Y808902D01*
X258951Y809290D01*
X260605Y810395D01*
X261710Y812049D01*
X262098Y814000D01*
X261710Y815951D01*
X261237Y816659D01*
X261824Y818066D01*
X262951Y818290D01*
X263901Y818925D01*
X264857Y818501D01*
X265119Y817192D01*
X264290Y815951D01*
X263902Y814000D01*
X264290Y812049D01*
X265395Y810395D01*
X267049Y809290D01*
X269000Y808902D01*
X270951Y809290D01*
X272605Y810395D01*
X273710Y812049D01*
X274098Y814000D01*
X273710Y815951D01*
X272605Y817605D01*
X271908Y818070D01*
X271605Y819395D01*
X272710Y821049D01*
X273098Y823000D01*
X272710Y824951D01*
X271945Y826095D01*
X271708Y827000D01*
X271945Y827905D01*
X272710Y829049D01*
X273098Y831000D01*
X272710Y832951D01*
X271945Y834095D01*
X271708Y835000D01*
X271945Y835905D01*
X272710Y837049D01*
X273098Y839000D01*
X272710Y840951D01*
X271945Y842095D01*
X271708Y843000D01*
X271945Y843905D01*
X272710Y845049D01*
X273098Y847000D01*
X272710Y848951D01*
X271945Y850095D01*
X271708Y851000D01*
X271945Y851905D01*
X272710Y853049D01*
X273098Y855000D01*
X272710Y856951D01*
X271945Y858095D01*
X271708Y859000D01*
X271945Y859905D01*
X272710Y861049D01*
X273098Y863000D01*
X272710Y864951D01*
X271605Y866605D01*
X269951Y867710D01*
X268000Y868098D01*
D02*
G37*
G36*
X51594Y1172399D02*
X49643Y1172011D01*
X47989Y1170906D01*
X46884Y1169252D01*
X46496Y1167301D01*
X46884Y1165350D01*
X47989Y1163697D01*
X49643Y1162591D01*
X51594Y1162203D01*
X53545Y1162591D01*
X55199Y1163697D01*
X55879D01*
X56481Y1162795D01*
X58135Y1161690D01*
X60086Y1161301D01*
X62037Y1161690D01*
X63691Y1162795D01*
X63721Y1162840D01*
X64991D01*
X65021Y1162795D01*
X66675Y1161690D01*
X68626Y1161301D01*
X70577Y1161690D01*
X72231Y1162795D01*
X72261Y1162840D01*
X73531D01*
X73561Y1162795D01*
X75215Y1161690D01*
X77166Y1161301D01*
X79117Y1161690D01*
X80635Y1162704D01*
X81096Y1162840D01*
X81776D01*
X82238Y1162704D01*
X83755Y1161690D01*
X85706Y1161301D01*
X87657Y1161690D01*
X89175Y1162704D01*
X89636Y1162840D01*
X90316D01*
X90778Y1162704D01*
X92295Y1161690D01*
X94246Y1161301D01*
X96197Y1161690D01*
X97715Y1162704D01*
X98176Y1162840D01*
X98856D01*
X99318Y1162704D01*
X100835Y1161690D01*
X102786Y1161301D01*
X104737Y1161690D01*
X106255Y1162704D01*
X106716Y1162840D01*
X107396D01*
X107858Y1162704D01*
X109375Y1161690D01*
X111326Y1161301D01*
X113277Y1161690D01*
X114795Y1162704D01*
X115256Y1162840D01*
X115936D01*
X116398Y1162704D01*
X117915Y1161690D01*
X119866Y1161301D01*
X121817Y1161690D01*
X123335Y1162704D01*
X123796Y1162840D01*
X124476D01*
X124938Y1162704D01*
X126455Y1161690D01*
X128406Y1161301D01*
X130357Y1161690D01*
X131875Y1162704D01*
X132336Y1162840D01*
X133016D01*
X133478Y1162704D01*
X134995Y1161690D01*
X136946Y1161301D01*
X138897Y1161690D01*
X140415Y1162704D01*
X140876Y1162840D01*
X141556D01*
X142017Y1162704D01*
X143535Y1161690D01*
X145486Y1161301D01*
X147437Y1161690D01*
X148955Y1162704D01*
X149416Y1162840D01*
X150096D01*
X150557Y1162704D01*
X152075Y1161690D01*
X154026Y1161301D01*
X155977Y1161690D01*
X157495Y1162704D01*
X157956Y1162840D01*
X158636D01*
X159097Y1162704D01*
X160615Y1161690D01*
X162566Y1161301D01*
X164517Y1161690D01*
X166035Y1162704D01*
X166496Y1162840D01*
X167176D01*
X167638Y1162704D01*
X169155Y1161690D01*
X171106Y1161301D01*
X173057Y1161690D01*
X174575Y1162704D01*
X175036Y1162840D01*
X175716D01*
X176178Y1162704D01*
X177695Y1161690D01*
X179646Y1161301D01*
X181597Y1161690D01*
X183160Y1162734D01*
X183556Y1162895D01*
X184139D01*
X184764Y1162773D01*
X186235Y1161789D01*
X188186Y1161402D01*
X190136Y1161789D01*
X191790Y1162895D01*
X192895Y1164548D01*
X193283Y1166499D01*
X192895Y1168450D01*
X191790Y1170104D01*
X190136Y1171209D01*
X188186Y1171597D01*
X186235Y1171209D01*
X184671Y1170165D01*
X184275Y1170004D01*
X183692D01*
X183068Y1170126D01*
X181597Y1171109D01*
X179646Y1171497D01*
X177695Y1171109D01*
X176178Y1170095D01*
X175716Y1169959D01*
X175036D01*
X174575Y1170095D01*
X173057Y1171109D01*
X171106Y1171497D01*
X169155Y1171109D01*
X167638Y1170095D01*
X167176Y1169959D01*
X166496D01*
X166035Y1170095D01*
X164517Y1171109D01*
X162566Y1171497D01*
X160615Y1171109D01*
X159097Y1170095D01*
X158636Y1169959D01*
X157956D01*
X157495Y1170095D01*
X155977Y1171109D01*
X154026Y1171497D01*
X152075Y1171109D01*
X150557Y1170095D01*
X150096Y1169959D01*
X149416D01*
X148955Y1170095D01*
X147437Y1171109D01*
X145486Y1171497D01*
X143535Y1171109D01*
X142017Y1170095D01*
X141556Y1169959D01*
X140876D01*
X140415Y1170095D01*
X138897Y1171109D01*
X136946Y1171497D01*
X134995Y1171109D01*
X133478Y1170095D01*
X133016Y1169959D01*
X132336D01*
X131875Y1170095D01*
X130357Y1171109D01*
X128406Y1171497D01*
X126455Y1171109D01*
X124938Y1170095D01*
X124476Y1169959D01*
X123796D01*
X123335Y1170095D01*
X121817Y1171109D01*
X119866Y1171497D01*
X117915Y1171109D01*
X116398Y1170095D01*
X115936Y1169959D01*
X115256D01*
X114795Y1170095D01*
X113277Y1171109D01*
X111326Y1171497D01*
X109375Y1171109D01*
X107858Y1170095D01*
X107396Y1169959D01*
X106716D01*
X106255Y1170095D01*
X104737Y1171109D01*
X102786Y1171497D01*
X100835Y1171109D01*
X99318Y1170095D01*
X98856Y1169959D01*
X98176D01*
X97715Y1170095D01*
X96197Y1171109D01*
X94246Y1171497D01*
X92295Y1171109D01*
X90778Y1170095D01*
X90316Y1169959D01*
X89636D01*
X89175Y1170095D01*
X87657Y1171109D01*
X85706Y1171497D01*
X83755Y1171109D01*
X82238Y1170095D01*
X81776Y1169959D01*
X81096D01*
X80635Y1170095D01*
X79117Y1171109D01*
X77166Y1171497D01*
X75215Y1171109D01*
X73698Y1170095D01*
X73236Y1169959D01*
X72556D01*
X72095Y1170095D01*
X70577Y1171109D01*
X68626Y1171497D01*
X66675Y1171109D01*
X65158Y1170095D01*
X64696Y1169959D01*
X64016D01*
X63555Y1170095D01*
X62037Y1171109D01*
X60086Y1171497D01*
X58135Y1171109D01*
X56481Y1170004D01*
X55801D01*
X55199Y1170906D01*
X53545Y1172011D01*
X51594Y1172399D01*
D02*
G37*
G36*
X28000Y864598D02*
X26049Y864210D01*
X24395Y863105D01*
X23290Y861451D01*
X22902Y859500D01*
X23290Y857549D01*
X24395Y855895D01*
X26049Y854790D01*
X28000Y854402D01*
X29951Y854790D01*
X31605Y855895D01*
X32710Y857549D01*
X33098Y859500D01*
X32710Y861451D01*
X31605Y863105D01*
X29951Y864210D01*
X28000Y864598D01*
D02*
G37*
G36*
X273000Y1188098D02*
X271049Y1187710D01*
X269395Y1186605D01*
X268290Y1184951D01*
X267902Y1183000D01*
X268290Y1181049D01*
X269395Y1179395D01*
X271049Y1178290D01*
X271055Y1178289D01*
X271290Y1176947D01*
X270290Y1175451D01*
X269902Y1173500D01*
X270290Y1171549D01*
X271395Y1169895D01*
X273049Y1168790D01*
X275000Y1168402D01*
X276951Y1168790D01*
X278605Y1169895D01*
X279710Y1171549D01*
X279803Y1172016D01*
X281098D01*
X281290Y1171049D01*
X282395Y1169395D01*
X284049Y1168290D01*
X286000Y1167902D01*
X287951Y1168290D01*
X289605Y1169395D01*
X290710Y1171049D01*
X291098Y1173000D01*
X290710Y1174951D01*
X289605Y1176605D01*
X287951Y1177710D01*
X286000Y1178098D01*
X284049Y1177710D01*
X282395Y1176605D01*
X281290Y1174951D01*
X281197Y1174484D01*
X279902D01*
X279710Y1175451D01*
X278605Y1177105D01*
X276951Y1178210D01*
X276945Y1178211D01*
X276710Y1179553D01*
X277710Y1181049D01*
X278098Y1183000D01*
X277710Y1184951D01*
X276605Y1186605D01*
X274951Y1187710D01*
X273000Y1188098D01*
D02*
G37*
G36*
X227000Y1158098D02*
X225049Y1157710D01*
X223395Y1156605D01*
X222290Y1154951D01*
X221902Y1153000D01*
X222290Y1151049D01*
X223395Y1149395D01*
X225049Y1148290D01*
X227000Y1147902D01*
X228951Y1148290D01*
X229193Y1148452D01*
X229331Y1148390D01*
X230223Y1147613D01*
X229902Y1146000D01*
X230290Y1144049D01*
X231395Y1142395D01*
X233049Y1141290D01*
X234795Y1140943D01*
X235075Y1140761D01*
X235159Y1140326D01*
X235000Y1139098D01*
X233049Y1138710D01*
X231395Y1137605D01*
X230290Y1135951D01*
X229902Y1134000D01*
X230106Y1132974D01*
X229026Y1131894D01*
X228000Y1132098D01*
X226049Y1131710D01*
X224395Y1130605D01*
X223290Y1128951D01*
X222902Y1127000D01*
X223290Y1125049D01*
X224395Y1123395D01*
X226049Y1122290D01*
X228000Y1121902D01*
X228077Y1121917D01*
X228840Y1120774D01*
X228290Y1119951D01*
X227902Y1118000D01*
X228290Y1116049D01*
X229395Y1114395D01*
X231049Y1113290D01*
X233000Y1112902D01*
X234951Y1113290D01*
X236095Y1114055D01*
X237000Y1114292D01*
X237905Y1114055D01*
X239049Y1113290D01*
X241000Y1112902D01*
X242951Y1113290D01*
X244605Y1114395D01*
X244865Y1114785D01*
X246135D01*
X246395Y1114395D01*
X248049Y1113290D01*
X250000Y1112902D01*
X251951Y1113290D01*
X253605Y1114395D01*
X254710Y1116049D01*
X255098Y1118000D01*
X254710Y1119951D01*
X254237Y1120659D01*
X254824Y1122066D01*
X255951Y1122290D01*
X257605Y1123395D01*
X258710Y1125049D01*
X259098Y1127000D01*
X258710Y1128951D01*
X257605Y1130605D01*
X255951Y1131710D01*
X254000Y1132098D01*
X252974Y1131894D01*
X251894Y1132974D01*
X252098Y1134000D01*
X251710Y1135951D01*
X250605Y1137605D01*
X248951Y1138710D01*
X247000Y1139098D01*
X246841Y1140326D01*
X246925Y1140761D01*
X247205Y1140943D01*
X248951Y1141290D01*
X250605Y1142395D01*
X251710Y1144049D01*
X252098Y1146000D01*
X251710Y1147951D01*
X250605Y1149605D01*
X248951Y1150710D01*
X247000Y1151098D01*
X245049Y1150710D01*
X243395Y1149605D01*
X242290Y1147951D01*
X242007Y1146527D01*
X241000Y1145974D01*
X239993Y1146527D01*
X239710Y1147951D01*
X238605Y1149605D01*
X236951Y1150710D01*
X235000Y1151098D01*
X233049Y1150710D01*
X232806Y1150548D01*
X232669Y1150611D01*
X231777Y1151387D01*
X232098Y1153000D01*
X231710Y1154951D01*
X230605Y1156605D01*
X228951Y1157710D01*
X227000Y1158098D01*
D02*
G37*
G36*
X164500Y1107595D02*
X161628Y1107217D01*
X158953Y1106108D01*
X156655Y1104345D01*
X154892Y1102047D01*
X153783Y1099372D01*
X153405Y1096500D01*
X153783Y1093628D01*
X154892Y1090953D01*
X156655Y1088655D01*
X158953Y1086891D01*
X161628Y1085783D01*
X164500Y1085405D01*
X167372Y1085783D01*
X170047Y1086891D01*
X172345Y1088655D01*
X174109Y1090953D01*
X175217Y1093628D01*
X175595Y1096500D01*
X175217Y1099372D01*
X174109Y1102047D01*
X172345Y1104345D01*
X170047Y1106108D01*
X167372Y1107217D01*
X164500Y1107595D01*
D02*
G37*
G36*
X244750Y881348D02*
X242799Y880960D01*
X241145Y879855D01*
X240040Y878201D01*
X239652Y876250D01*
X240040Y874299D01*
X241145Y872645D01*
X242799Y871540D01*
X244750Y871152D01*
X246701Y871540D01*
X248355Y872645D01*
X249460Y874299D01*
X249848Y876250D01*
X249460Y878201D01*
X248355Y879855D01*
X246701Y880960D01*
X244750Y881348D01*
D02*
G37*
G36*
X273293Y1120901D02*
X271342Y1120513D01*
X269688Y1119408D01*
X268583Y1117754D01*
X268195Y1115803D01*
X268583Y1113852D01*
X269688Y1112198D01*
X271342Y1111093D01*
X273293Y1110705D01*
X275244Y1111093D01*
X275784Y1111453D01*
X277456Y1111044D01*
X277999Y1110232D01*
X279653Y1109127D01*
X281604Y1108739D01*
X283555Y1109127D01*
X284961Y1110066D01*
X286243Y1110162D01*
X286565Y1109976D01*
X288190Y1108891D01*
X290141Y1108503D01*
X292092Y1108891D01*
X293609Y1109905D01*
X294070Y1110041D01*
X294751D01*
X295212Y1109905D01*
X296730Y1108891D01*
X298681Y1108503D01*
X300632Y1108891D01*
X302149Y1109905D01*
X302610Y1110041D01*
X303291D01*
X303752Y1109905D01*
X305270Y1108891D01*
X307221Y1108503D01*
X309172Y1108891D01*
X310689Y1109905D01*
X311150Y1110041D01*
X311831D01*
X312292Y1109905D01*
X313810Y1108891D01*
X315761Y1108503D01*
X317712Y1108891D01*
X319229Y1109905D01*
X319690Y1110041D01*
X320371D01*
X320832Y1109905D01*
X322350Y1108891D01*
X324300Y1108503D01*
X326251Y1108891D01*
X327769Y1109905D01*
X328230Y1110041D01*
X328911D01*
X329372Y1109905D01*
X330890Y1108891D01*
X332840Y1108503D01*
X334791Y1108891D01*
X336309Y1109905D01*
X336770Y1110041D01*
X337451D01*
X337912Y1109905D01*
X339430Y1108891D01*
X341381Y1108503D01*
X343331Y1108891D01*
X344849Y1109905D01*
X345310Y1110041D01*
X345991D01*
X346452Y1109905D01*
X347970Y1108891D01*
X349921Y1108503D01*
X351871Y1108891D01*
X353389Y1109905D01*
X353850Y1110041D01*
X354531D01*
X354992Y1109905D01*
X356510Y1108891D01*
X358461Y1108503D01*
X360411Y1108891D01*
X361929Y1109905D01*
X362390Y1110041D01*
X363071D01*
X363532Y1109905D01*
X365050Y1108891D01*
X367001Y1108503D01*
X368951Y1108891D01*
X370469Y1109905D01*
X370930Y1110041D01*
X371611D01*
X372072Y1109905D01*
X373590Y1108891D01*
X375541Y1108503D01*
X377491Y1108891D01*
X379009Y1109905D01*
X379470Y1110041D01*
X380151D01*
X380612Y1109905D01*
X382130Y1108891D01*
X384081Y1108503D01*
X386031Y1108891D01*
X387549Y1109905D01*
X388010Y1110041D01*
X388691D01*
X389152Y1109905D01*
X390670Y1108891D01*
X392620Y1108503D01*
X394571Y1108891D01*
X396089Y1109905D01*
X396550Y1110041D01*
X397231D01*
X397692Y1109905D01*
X399210Y1108891D01*
X401160Y1108503D01*
X403111Y1108891D01*
X404629Y1109905D01*
X405090Y1110041D01*
X405771D01*
X406232Y1109905D01*
X407749Y1108891D01*
X409700Y1108503D01*
X411651Y1108891D01*
X413169Y1109905D01*
X413630Y1110041D01*
X414311D01*
X414772Y1109905D01*
X416289Y1108891D01*
X418240Y1108503D01*
X420191Y1108891D01*
X421709Y1109905D01*
X422170Y1110041D01*
X422851D01*
X423312Y1109905D01*
X424829Y1108891D01*
X426780Y1108503D01*
X428731Y1108891D01*
X430249Y1109905D01*
X430710Y1110041D01*
X431391D01*
X431852Y1109905D01*
X433369Y1108891D01*
X435320Y1108503D01*
X437271Y1108891D01*
X438789Y1109905D01*
X439250Y1110041D01*
X439931D01*
X440392Y1109905D01*
X441909Y1108891D01*
X443860Y1108503D01*
X445811Y1108891D01*
X446928Y1109637D01*
X447400Y1109442D01*
X448505Y1107788D01*
X450159Y1106683D01*
X452110Y1106294D01*
X454061Y1106683D01*
X455715Y1107788D01*
X456820Y1109442D01*
X457208Y1111393D01*
X456820Y1113343D01*
X455715Y1114997D01*
X454061Y1116102D01*
X452110Y1116490D01*
X450159Y1116102D01*
X449042Y1115356D01*
X448570Y1115552D01*
X447465Y1117205D01*
X445811Y1118310D01*
X443860Y1118699D01*
X441909Y1118310D01*
X440392Y1117296D01*
X439931Y1117160D01*
X439250D01*
X438789Y1117296D01*
X437271Y1118310D01*
X435320Y1118699D01*
X433369Y1118310D01*
X431852Y1117296D01*
X431391Y1117160D01*
X430710D01*
X430249Y1117296D01*
X428731Y1118310D01*
X426780Y1118699D01*
X424829Y1118310D01*
X423312Y1117296D01*
X422851Y1117160D01*
X422170D01*
X421709Y1117296D01*
X420191Y1118310D01*
X418240Y1118699D01*
X416289Y1118310D01*
X414772Y1117296D01*
X414311Y1117160D01*
X413630D01*
X413169Y1117296D01*
X411651Y1118310D01*
X409700Y1118699D01*
X407749Y1118310D01*
X406232Y1117296D01*
X405771Y1117160D01*
X405090D01*
X404629Y1117296D01*
X403111Y1118310D01*
X401160Y1118699D01*
X399210Y1118310D01*
X397692Y1117296D01*
X397231Y1117160D01*
X396550D01*
X396089Y1117296D01*
X394571Y1118310D01*
X392620Y1118699D01*
X390670Y1118310D01*
X389152Y1117296D01*
X388691Y1117160D01*
X388010D01*
X387549Y1117296D01*
X386031Y1118310D01*
X384081Y1118699D01*
X382130Y1118310D01*
X380612Y1117296D01*
X380151Y1117160D01*
X379470D01*
X379009Y1117296D01*
X377491Y1118310D01*
X375541Y1118699D01*
X373590Y1118310D01*
X372072Y1117296D01*
X371611Y1117160D01*
X370930D01*
X370469Y1117296D01*
X368951Y1118310D01*
X367001Y1118699D01*
X365050Y1118310D01*
X363532Y1117296D01*
X363071Y1117160D01*
X362390D01*
X361929Y1117296D01*
X360411Y1118310D01*
X358461Y1118699D01*
X356510Y1118310D01*
X354992Y1117296D01*
X354531Y1117160D01*
X353850D01*
X353389Y1117296D01*
X351871Y1118310D01*
X349921Y1118699D01*
X347970Y1118310D01*
X346452Y1117296D01*
X345991Y1117160D01*
X345310D01*
X344849Y1117296D01*
X343331Y1118310D01*
X341381Y1118699D01*
X339430Y1118310D01*
X337912Y1117296D01*
X337451Y1117160D01*
X336770D01*
X336309Y1117296D01*
X334791Y1118310D01*
X332840Y1118699D01*
X330890Y1118310D01*
X329372Y1117296D01*
X328911Y1117160D01*
X328230D01*
X327769Y1117296D01*
X326251Y1118310D01*
X324300Y1118699D01*
X322350Y1118310D01*
X320832Y1117296D01*
X320371Y1117160D01*
X319690D01*
X319229Y1117296D01*
X317712Y1118310D01*
X315761Y1118699D01*
X313810Y1118310D01*
X312292Y1117296D01*
X311831Y1117160D01*
X311150D01*
X310689Y1117296D01*
X309172Y1118310D01*
X307221Y1118699D01*
X305270Y1118310D01*
X303752Y1117296D01*
X303291Y1117160D01*
X302610D01*
X302149Y1117296D01*
X300632Y1118310D01*
X298681Y1118699D01*
X296730Y1118310D01*
X295212Y1117296D01*
X294751Y1117160D01*
X294070D01*
X293609Y1117296D01*
X292092Y1118310D01*
X290141Y1118699D01*
X288190Y1118310D01*
X286783Y1117371D01*
X285502Y1117275D01*
X285179Y1117461D01*
X283555Y1118547D01*
X281604Y1118934D01*
X279653Y1118547D01*
X279114Y1118186D01*
X277441Y1118596D01*
X276898Y1119408D01*
X275244Y1120513D01*
X273293Y1120901D01*
D02*
G37*
G36*
X211000Y1129098D02*
X209049Y1128710D01*
X207395Y1127605D01*
X206290Y1125951D01*
X205902Y1124000D01*
X206290Y1122049D01*
X207325Y1120500D01*
X207678Y1119751D01*
X207019Y1118527D01*
X205678Y1118224D01*
X205084Y1118621D01*
X203133Y1119009D01*
X201182Y1118621D01*
X199569Y1117543D01*
X199130Y1117305D01*
X198201D01*
X196547Y1118410D01*
X194596Y1118799D01*
X192645Y1118410D01*
X191127Y1117396D01*
X190666Y1117260D01*
X189986D01*
X189524Y1117396D01*
X188007Y1118410D01*
X186056Y1118799D01*
X184105Y1118410D01*
X182542Y1117366D01*
X182146Y1117205D01*
X181563D01*
X180938Y1117327D01*
X179467Y1118310D01*
X177516Y1118699D01*
X175566Y1118310D01*
X174048Y1117296D01*
X173587Y1117160D01*
X172906D01*
X172445Y1117296D01*
X170927Y1118310D01*
X168976Y1118699D01*
X167026Y1118310D01*
X165372Y1117205D01*
X164267Y1115552D01*
X163879Y1113601D01*
X164267Y1111650D01*
X165372Y1109996D01*
X167026Y1108891D01*
X168976Y1108503D01*
X170927Y1108891D01*
X172445Y1109905D01*
X172906Y1110041D01*
X173587D01*
X174048Y1109905D01*
X175566Y1108891D01*
X177516Y1108503D01*
X179467Y1108891D01*
X181031Y1109935D01*
X181427Y1110096D01*
X182010D01*
X182634Y1109974D01*
X184105Y1108991D01*
X186056Y1108603D01*
X188007Y1108991D01*
X189524Y1110005D01*
X189986Y1110141D01*
X190666D01*
X191127Y1110005D01*
X192645Y1108991D01*
X194596Y1108603D01*
X196547Y1108991D01*
X198160Y1110068D01*
X198599Y1110306D01*
X199529D01*
X201182Y1109201D01*
X203133Y1108813D01*
X205084Y1109201D01*
X206738Y1110306D01*
X207224Y1111033D01*
X208932Y1111420D01*
X209526Y1111023D01*
X211477Y1110635D01*
X213428Y1111023D01*
X215081Y1112128D01*
X216187Y1113782D01*
X216439Y1115050D01*
X216942Y1115258D01*
X218892Y1114870D01*
X220843Y1115258D01*
X222497Y1116363D01*
X223602Y1118017D01*
X223990Y1119968D01*
X223602Y1121919D01*
X222497Y1123573D01*
X220843Y1124678D01*
X218892Y1125066D01*
X216985Y1124687D01*
X215854Y1125226D01*
X215710Y1125951D01*
X214605Y1127605D01*
X212951Y1128710D01*
X211000Y1129098D01*
D02*
G37*
G36*
X229750Y881348D02*
X227799Y880960D01*
X226145Y879855D01*
X225040Y878201D01*
X224652Y876250D01*
X225040Y874299D01*
X226145Y872645D01*
X227799Y871540D01*
X229750Y871152D01*
X231701Y871540D01*
X233355Y872645D01*
X234460Y874299D01*
X234848Y876250D01*
X234460Y878201D01*
X233355Y879855D01*
X231701Y880960D01*
X229750Y881348D01*
D02*
G37*
G36*
X174599Y802048D02*
X172648Y801661D01*
X171130Y800646D01*
X170669Y800510D01*
X169988D01*
X169527Y800646D01*
X168009Y801661D01*
X166059Y802048D01*
X164108Y801661D01*
X162590Y800646D01*
X162129Y800510D01*
X161448D01*
X160987Y800646D01*
X159470Y801661D01*
X157519Y802048D01*
X155568Y801661D01*
X153914Y800555D01*
X153713Y800254D01*
X152589D01*
X150935Y801359D01*
X148984Y801748D01*
X147033Y801359D01*
X145379Y800254D01*
X144274Y798600D01*
X143918Y796810D01*
X143688Y796388D01*
X142999Y795698D01*
X142945Y795709D01*
X140994Y795321D01*
X139340Y794216D01*
X138235Y792562D01*
X137847Y790611D01*
X137087Y789851D01*
X136651Y789937D01*
X134700Y789549D01*
X133046Y788444D01*
X131941Y786790D01*
X131553Y784839D01*
X131941Y782889D01*
X133046Y781235D01*
X134700Y780130D01*
X136651Y779742D01*
X138602Y780130D01*
X140255Y781235D01*
X141361Y782889D01*
X141749Y784839D01*
X142509Y785600D01*
X142945Y785513D01*
X144896Y785901D01*
X146550Y787006D01*
X147655Y788660D01*
X148011Y790450D01*
X148241Y790873D01*
X148931Y791562D01*
X148984Y791552D01*
X150935Y791940D01*
X152589Y793045D01*
X152790Y793346D01*
X153914D01*
X155568Y792241D01*
X157519Y791853D01*
X159470Y792241D01*
X160987Y793255D01*
X161448Y793391D01*
X162129D01*
X162590Y793255D01*
X164108Y792241D01*
X166059Y791853D01*
X168009Y792241D01*
X169527Y793255D01*
X169988Y793391D01*
X170669D01*
X171130Y793255D01*
X172648Y792241D01*
X174599Y791853D01*
X176549Y792241D01*
X177824Y793093D01*
X178981Y792398D01*
X178902Y792000D01*
X179290Y790049D01*
X180395Y788395D01*
X182049Y787290D01*
X184000Y786902D01*
X185951Y787290D01*
X187605Y788395D01*
X188710Y790049D01*
X189098Y792000D01*
X188710Y793951D01*
X187605Y795605D01*
X185951Y796710D01*
X184000Y797098D01*
X182049Y796710D01*
X180774Y795858D01*
X179618Y796553D01*
X179697Y796951D01*
X179308Y798902D01*
X178203Y800555D01*
X176549Y801661D01*
X174599Y802048D01*
D02*
G37*
G36*
X210500Y813098D02*
X208549Y812710D01*
X206895Y811605D01*
X205790Y809951D01*
X205402Y808000D01*
X205790Y806049D01*
X206895Y804395D01*
X208549Y803290D01*
X210500Y802902D01*
X212451Y803290D01*
X214105Y804395D01*
X215210Y806049D01*
X215598Y808000D01*
X215210Y809951D01*
X214105Y811605D01*
X212451Y812710D01*
X210500Y813098D01*
D02*
G37*
G36*
X298661Y804964D02*
X296710Y804576D01*
X295056Y803471D01*
X293951Y801817D01*
X293563Y799866D01*
X293951Y797915D01*
X295056Y796261D01*
X296710Y795156D01*
X298661Y794768D01*
X300612Y795156D01*
X302266Y796261D01*
X303371Y797915D01*
X303759Y799866D01*
X303371Y801817D01*
X302266Y803471D01*
X300612Y804576D01*
X298661Y804964D01*
D02*
G37*
G36*
X87913Y778699D02*
X85962Y778310D01*
X84444Y777296D01*
X83983Y777160D01*
X83303D01*
X82842Y777296D01*
X81324Y778310D01*
X79373Y778699D01*
X77422Y778310D01*
X75768Y777205D01*
X74663Y775552D01*
X74275Y773601D01*
X74663Y771650D01*
X75768Y769996D01*
X77422Y768891D01*
X79373Y768503D01*
X81324Y768891D01*
X82842Y769905D01*
X83303Y770041D01*
X83983D01*
X84444Y769905D01*
X85962Y768891D01*
X87913Y768503D01*
X89864Y768891D01*
X91518Y769996D01*
X92623Y771650D01*
X93011Y773601D01*
X92623Y775552D01*
X91518Y777205D01*
X89864Y778310D01*
X87913Y778699D01*
D02*
G37*
G36*
X236750Y791598D02*
X234799Y791210D01*
X233145Y790105D01*
X232040Y788451D01*
X231652Y786500D01*
X232040Y784549D01*
X233145Y782895D01*
X234799Y781790D01*
X236750Y781402D01*
X238701Y781790D01*
X240355Y782895D01*
X241460Y784549D01*
X241848Y786500D01*
X241460Y788451D01*
X240355Y790105D01*
X238701Y791210D01*
X236750Y791598D01*
D02*
G37*
G36*
X296000Y842098D02*
X294049Y841710D01*
X292395Y840605D01*
X291290Y838951D01*
X290902Y837000D01*
X291290Y835049D01*
X292395Y833395D01*
X294049Y832290D01*
X296000Y831902D01*
X297951Y832290D01*
X299605Y833395D01*
X300710Y835049D01*
X301098Y837000D01*
X300710Y838951D01*
X299605Y840605D01*
X297951Y841710D01*
X296000Y842098D01*
D02*
G37*
G36*
X298000Y1178098D02*
X296049Y1177710D01*
X294395Y1176605D01*
X293290Y1174951D01*
X292902Y1173000D01*
X293290Y1171049D01*
X294395Y1169395D01*
X296049Y1168290D01*
X298000Y1167902D01*
X299951Y1168290D01*
X301605Y1169395D01*
X302710Y1171049D01*
X303098Y1173000D01*
X302710Y1174951D01*
X301605Y1176605D01*
X299951Y1177710D01*
X298000Y1178098D01*
D02*
G37*
G36*
X470000Y863098D02*
X468049Y862710D01*
X466395Y861605D01*
X465290Y859951D01*
X464902Y858000D01*
X465290Y856049D01*
X466395Y854395D01*
X468049Y853290D01*
X470000Y852902D01*
X471951Y853290D01*
X473605Y854395D01*
X474710Y856049D01*
X475098Y858000D01*
X474710Y859951D01*
X473605Y861605D01*
X471951Y862710D01*
X470000Y863098D01*
D02*
G37*
G36*
X216000Y855098D02*
X214049Y854710D01*
X212395Y853605D01*
X211290Y851951D01*
X211076Y850874D01*
X210513Y849985D01*
X209696Y849952D01*
X208452Y850199D01*
X206502Y849811D01*
X204848Y848706D01*
X203743Y847052D01*
X203355Y845101D01*
X203743Y843150D01*
X204848Y841496D01*
X206502Y840391D01*
X208452Y840003D01*
X210403Y840391D01*
X210985Y840780D01*
X211900Y839864D01*
X211290Y838951D01*
X210902Y837000D01*
X211290Y835049D01*
X212395Y833395D01*
X214049Y832290D01*
X216000Y831902D01*
X217951Y832290D01*
X219605Y833395D01*
X220710Y835049D01*
X221098Y837000D01*
X220710Y838951D01*
X219605Y840605D01*
X217951Y841710D01*
X216000Y842098D01*
X214049Y841710D01*
X213468Y841321D01*
X212552Y842237D01*
X213162Y843150D01*
X213377Y844228D01*
X213939Y845117D01*
X214756Y845149D01*
X216000Y844902D01*
X217951Y845290D01*
X219605Y846395D01*
X220710Y848049D01*
X221098Y850000D01*
X220710Y851951D01*
X219605Y853605D01*
X217951Y854710D01*
X216000Y855098D01*
D02*
G37*
G36*
X470000Y845598D02*
X468049Y845210D01*
X466395Y844105D01*
X465290Y842451D01*
X464902Y840500D01*
X465290Y838549D01*
X466395Y836895D01*
X468049Y835790D01*
X470000Y835402D01*
X471951Y835790D01*
X473605Y836895D01*
X474710Y838549D01*
X475098Y840500D01*
X474710Y842451D01*
X473605Y844105D01*
X471951Y845210D01*
X470000Y845598D01*
D02*
G37*
G36*
X296000Y855098D02*
X294049Y854710D01*
X292395Y853605D01*
X291290Y851951D01*
X290902Y850000D01*
X291290Y848049D01*
X292395Y846395D01*
X294049Y845290D01*
X296000Y844902D01*
X297951Y845290D01*
X299605Y846395D01*
X300710Y848049D01*
X301098Y850000D01*
X300710Y851951D01*
X299605Y853605D01*
X297951Y854710D01*
X296000Y855098D01*
D02*
G37*
G36*
X256750Y882848D02*
X254799Y882460D01*
X253145Y881355D01*
X252040Y879701D01*
X251652Y877750D01*
X252040Y875799D01*
X253145Y874145D01*
X254799Y873040D01*
X256750Y872652D01*
X258701Y873040D01*
X260355Y874145D01*
X261460Y875799D01*
X261848Y877750D01*
X261460Y879701D01*
X260355Y881355D01*
X258701Y882460D01*
X256750Y882848D01*
D02*
G37*
G36*
X471750Y945598D02*
X469799Y945210D01*
X468145Y944105D01*
X467040Y942451D01*
X466652Y940500D01*
X467040Y938549D01*
X468145Y936895D01*
X469799Y935790D01*
X471750Y935402D01*
X473701Y935790D01*
X475355Y936895D01*
X476460Y938549D01*
X476848Y940500D01*
X476460Y942451D01*
X475355Y944105D01*
X473701Y945210D01*
X471750Y945598D01*
D02*
G37*
G36*
X159000Y1050098D02*
X157049Y1049710D01*
X155395Y1048605D01*
X154290Y1046951D01*
X153902Y1045000D01*
X154290Y1043049D01*
X155395Y1041395D01*
X157049Y1040290D01*
X159000Y1039902D01*
X160951Y1040290D01*
X162605Y1041395D01*
X163710Y1043049D01*
X164098Y1045000D01*
X163710Y1046951D01*
X162605Y1048605D01*
X160951Y1049710D01*
X159000Y1050098D01*
D02*
G37*
G36*
X255350Y943998D02*
X253399Y943610D01*
X251745Y942505D01*
X250640Y940851D01*
X250252Y938900D01*
X250640Y936949D01*
X251745Y935295D01*
X253399Y934190D01*
X255350Y933802D01*
X257301Y934190D01*
X258955Y935295D01*
X260060Y936949D01*
X260448Y938900D01*
X260060Y940851D01*
X258955Y942505D01*
X257301Y943610D01*
X255350Y943998D01*
D02*
G37*
G36*
X479000Y1054098D02*
X477049Y1053710D01*
X475395Y1052605D01*
X474290Y1050951D01*
X473902Y1049000D01*
X474290Y1047049D01*
X475395Y1045395D01*
X477049Y1044290D01*
X479000Y1043902D01*
X480951Y1044290D01*
X482605Y1045395D01*
X483710Y1047049D01*
X484098Y1049000D01*
X483710Y1050951D01*
X482605Y1052605D01*
X480951Y1053710D01*
X479000Y1054098D01*
D02*
G37*
G36*
X98920Y950843D02*
X96969Y950455D01*
X95315Y949350D01*
X94210Y947696D01*
X93822Y945745D01*
X94210Y943794D01*
X95315Y942141D01*
X96969Y941036D01*
X98759Y940679D01*
X99182Y940450D01*
X99663Y939968D01*
X99893Y939546D01*
X100249Y937756D01*
X101354Y936102D01*
X103008Y934997D01*
X104798Y934641D01*
X105221Y934411D01*
X105910Y933721D01*
X105900Y933668D01*
X106288Y931717D01*
X107217Y930326D01*
X106302Y929410D01*
X105704Y929810D01*
X103753Y930198D01*
X101802Y929810D01*
X100883Y929196D01*
X99211Y929413D01*
X98899Y929880D01*
X97245Y930985D01*
X95294Y931373D01*
X93343Y930985D01*
X91690Y929880D01*
X90443D01*
X90360Y930004D01*
X88706Y931109D01*
X86755Y931497D01*
X84804Y931109D01*
X83287Y930095D01*
X82825Y929959D01*
X82145D01*
X81684Y930095D01*
X80166Y931109D01*
X78215Y931497D01*
X76264Y931109D01*
X74610Y930004D01*
X73505Y928350D01*
X73117Y926399D01*
X73505Y924448D01*
X74610Y922795D01*
X76264Y921690D01*
X78215Y921301D01*
X80166Y921690D01*
X81684Y922704D01*
X82145Y922840D01*
X82825D01*
X83287Y922704D01*
X84804Y921690D01*
X86755Y921301D01*
X88706Y921690D01*
X90360Y922795D01*
X91606D01*
X91690Y922670D01*
X93343Y921565D01*
X95294Y921177D01*
X97245Y921565D01*
X98164Y922179D01*
X99837Y921961D01*
X100148Y921495D01*
X101802Y920390D01*
X103753Y920002D01*
X105704Y920390D01*
X106001Y920588D01*
X107538Y920088D01*
X108300Y918948D01*
X109953Y917843D01*
X111904Y917455D01*
X113326Y917738D01*
X114761Y917037D01*
X114817Y916752D01*
X115922Y915098D01*
X117576Y913993D01*
X119527Y913605D01*
X121061Y913910D01*
X121317Y913654D01*
X121705Y911703D01*
X122810Y910049D01*
X124464Y908944D01*
X126415Y908556D01*
X126637Y908600D01*
X126726Y908510D01*
X127540Y907485D01*
X127875Y905798D01*
X128980Y904145D01*
X130634Y903039D01*
X132424Y902683D01*
X132847Y902454D01*
X133328Y901973D01*
X133558Y901550D01*
X133914Y899760D01*
X135019Y898106D01*
X136673Y897001D01*
X138624Y896613D01*
X138677Y896623D01*
X139367Y895934D01*
X139596Y895511D01*
X139953Y893721D01*
X141058Y892067D01*
X142712Y890962D01*
X144502Y890606D01*
X144924Y890376D01*
X145405Y889895D01*
X145635Y889473D01*
X145991Y887682D01*
X147096Y886029D01*
X148750Y884923D01*
X150701Y884535D01*
X151256Y884646D01*
X151652Y884250D01*
X152040Y882299D01*
X153145Y880645D01*
X154799Y879540D01*
X156750Y879152D01*
X157256Y879253D01*
X158558Y878217D01*
X158790Y877049D01*
X159895Y875395D01*
X161549Y874290D01*
X163500Y873902D01*
X165451Y874290D01*
X167105Y875395D01*
X167466Y875936D01*
X168972Y875903D01*
X169645Y874895D01*
X171299Y873790D01*
X173250Y873402D01*
X175201Y873790D01*
X176518Y874670D01*
X177375Y874810D01*
X178232Y874670D01*
X179549Y873790D01*
X181500Y873402D01*
X183451Y873790D01*
X185105Y874895D01*
X185282Y875160D01*
X186551D01*
X186895Y874645D01*
X188549Y873540D01*
X190500Y873152D01*
X192451Y873540D01*
X194105Y874645D01*
X195210Y876299D01*
X195598Y878250D01*
X195210Y880201D01*
X194105Y881855D01*
X192451Y882960D01*
X190500Y883348D01*
X188549Y882960D01*
X186895Y881855D01*
X186719Y881590D01*
X185448D01*
X185105Y882105D01*
X183451Y883210D01*
X181500Y883598D01*
X179549Y883210D01*
X178232Y882330D01*
X177375Y882190D01*
X176518Y882330D01*
X175201Y883210D01*
X173250Y883598D01*
X171299Y883210D01*
X169645Y882105D01*
X169284Y881564D01*
X167778Y881597D01*
X167105Y882605D01*
X165451Y883710D01*
X163500Y884098D01*
X162994Y883997D01*
X161692Y885033D01*
X161460Y886201D01*
X160355Y887855D01*
X158701Y888960D01*
X156750Y889348D01*
X156195Y889238D01*
X155799Y889633D01*
X155411Y891584D01*
X154306Y893238D01*
X152652Y894343D01*
X150862Y894699D01*
X150439Y894929D01*
X149958Y895410D01*
X149728Y895833D01*
X149372Y897623D01*
X148267Y899277D01*
X146613Y900382D01*
X144662Y900770D01*
X144609Y900759D01*
X143919Y901449D01*
X143690Y901871D01*
X143334Y903662D01*
X142228Y905315D01*
X140575Y906421D01*
X138785Y906777D01*
X138362Y907007D01*
X137881Y907488D01*
X137651Y907910D01*
X137295Y909700D01*
X136190Y911354D01*
X134536Y912459D01*
X132585Y912847D01*
X132363Y912803D01*
X132274Y912893D01*
X131460Y913919D01*
X131125Y915604D01*
X130020Y917258D01*
X128366Y918363D01*
X126415Y918752D01*
X124881Y918447D01*
X124625Y918703D01*
X124237Y920653D01*
X123132Y922307D01*
X121478Y923412D01*
X119527Y923801D01*
X118105Y923518D01*
X116671Y924219D01*
X116614Y924504D01*
X115509Y926158D01*
X113855Y927263D01*
X112395Y927553D01*
Y928848D01*
X112948Y928958D01*
X114602Y930063D01*
X115707Y931717D01*
X116096Y933668D01*
X115707Y935619D01*
X114602Y937273D01*
X112948Y938378D01*
X111158Y938734D01*
X110736Y938964D01*
X110046Y939653D01*
X110057Y939707D01*
X109669Y941658D01*
X108564Y943311D01*
X106910Y944417D01*
X105119Y944773D01*
X104697Y945003D01*
X104216Y945484D01*
X103986Y945906D01*
X103630Y947696D01*
X102525Y949350D01*
X100871Y950455D01*
X98920Y950843D01*
D02*
G37*
G36*
X448660Y1032535D02*
X446709Y1032147D01*
X445055Y1031042D01*
X444781Y1030631D01*
X443129Y1030445D01*
X442134Y1031109D01*
X440183Y1031497D01*
X438233Y1031109D01*
X436715Y1030095D01*
X436254Y1029959D01*
X435573D01*
X435112Y1030095D01*
X433594Y1031109D01*
X431643Y1031497D01*
X429693Y1031109D01*
X428175Y1030095D01*
X427714Y1029959D01*
X427033D01*
X426572Y1030095D01*
X425054Y1031109D01*
X423103Y1031497D01*
X421153Y1031109D01*
X419499Y1030004D01*
X419398Y1029853D01*
X417898Y1029895D01*
X416520Y1030816D01*
X414569Y1031204D01*
X412618Y1030816D01*
X410964Y1029711D01*
X409957Y1028204D01*
X409767D01*
X408114Y1029309D01*
X406163Y1029697D01*
X404212Y1029309D01*
X402558Y1028204D01*
X401453Y1026550D01*
X400500Y1026155D01*
X400069Y1026443D01*
X398118Y1026831D01*
X396167Y1026443D01*
X394513Y1025338D01*
X393408Y1023684D01*
X393318Y1023230D01*
X391866Y1022443D01*
X390652Y1022685D01*
X388701Y1022297D01*
X387047Y1021192D01*
X385942Y1019538D01*
X385667Y1018153D01*
X384423Y1017259D01*
X383987Y1017346D01*
X382036Y1016958D01*
X380382Y1015853D01*
X379277Y1014199D01*
X378927Y1012437D01*
X378647Y1011979D01*
X377995Y1011327D01*
X377911Y1011344D01*
X375961Y1010956D01*
X374307Y1009851D01*
X373202Y1008197D01*
X372845Y1006407D01*
X372616Y1005984D01*
X372135Y1005503D01*
X371712Y1005273D01*
X369922Y1004917D01*
X369125Y1004385D01*
X368210Y1005301D01*
X368710Y1006049D01*
X369098Y1008000D01*
X368710Y1009951D01*
X367605Y1011605D01*
X365951Y1012710D01*
X364000Y1013098D01*
X362049Y1012710D01*
X360395Y1011605D01*
X359290Y1009951D01*
X358902Y1008000D01*
X359290Y1006049D01*
X360395Y1004395D01*
X362049Y1003290D01*
X364000Y1002902D01*
X365951Y1003290D01*
X366748Y1003822D01*
X367663Y1002907D01*
X367163Y1002158D01*
X366807Y1000368D01*
X366577Y999946D01*
X366096Y999464D01*
X365673Y999235D01*
X363883Y998878D01*
X362229Y997773D01*
X361124Y996120D01*
X360736Y994169D01*
X361124Y992218D01*
X362229Y990564D01*
X363883Y989459D01*
X365834Y989071D01*
X367785Y989459D01*
X369439Y990564D01*
X370544Y992218D01*
X370900Y994008D01*
X371130Y994430D01*
X371611Y994911D01*
X372034Y995141D01*
X373824Y995497D01*
X375478Y996602D01*
X376583Y998256D01*
X376939Y1000047D01*
X377169Y1000469D01*
X377650Y1000950D01*
X378072Y1001180D01*
X379862Y1001536D01*
X381516Y1002641D01*
X382621Y1004295D01*
X382972Y1006057D01*
X383251Y1006515D01*
X383903Y1007166D01*
X383987Y1007150D01*
X385938Y1007538D01*
X387592Y1008643D01*
X388697Y1010297D01*
X388972Y1011681D01*
X390216Y1012576D01*
X390652Y1012489D01*
X392603Y1012877D01*
X394257Y1013982D01*
X395362Y1015636D01*
X395452Y1016090D01*
X396904Y1016877D01*
X398118Y1016636D01*
X400069Y1017024D01*
X401723Y1018129D01*
X402828Y1019782D01*
X403781Y1020177D01*
X404212Y1019889D01*
X406163Y1019501D01*
X408114Y1019889D01*
X409767Y1020994D01*
X410774Y1022502D01*
X410964D01*
X412618Y1021397D01*
X414569Y1021009D01*
X416520Y1021397D01*
X418173Y1022502D01*
X418274Y1022653D01*
X419774Y1022611D01*
X421153Y1021690D01*
X423103Y1021301D01*
X425054Y1021690D01*
X426572Y1022704D01*
X427033Y1022840D01*
X427714D01*
X428175Y1022704D01*
X429693Y1021690D01*
X431643Y1021301D01*
X433594Y1021690D01*
X435112Y1022704D01*
X435573Y1022840D01*
X436254D01*
X436715Y1022704D01*
X438233Y1021690D01*
X440183Y1021301D01*
X442134Y1021690D01*
X443788Y1022795D01*
X444063Y1023206D01*
X445715Y1023392D01*
X446709Y1022727D01*
X448660Y1022339D01*
X450611Y1022727D01*
X452265Y1023832D01*
X453370Y1025486D01*
X453758Y1027437D01*
X453370Y1029388D01*
X452265Y1031042D01*
X450611Y1032147D01*
X448660Y1032535D01*
D02*
G37*
G36*
X357000Y990098D02*
X355049Y989710D01*
X353395Y988605D01*
X352290Y986951D01*
X351902Y985000D01*
X352290Y983049D01*
X353395Y981395D01*
X355049Y980290D01*
X357000Y979902D01*
X358951Y980290D01*
X360605Y981395D01*
X361710Y983049D01*
X362098Y985000D01*
X361710Y986951D01*
X360605Y988605D01*
X358951Y989710D01*
X357000Y990098D01*
D02*
G37*
G36*
X443860Y978699D02*
X441909Y978310D01*
X440392Y977296D01*
X439931Y977160D01*
X439250D01*
X438789Y977296D01*
X437271Y978310D01*
X435320Y978699D01*
X433369Y978310D01*
X431852Y977296D01*
X431391Y977160D01*
X430710D01*
X430249Y977296D01*
X428731Y978310D01*
X426780Y978699D01*
X424829Y978310D01*
X423176Y977205D01*
X422744Y976559D01*
X421987Y975653D01*
X420334Y976758D01*
X418383Y977146D01*
X416432Y976758D01*
X414778Y975653D01*
X413673Y973999D01*
X413317Y972209D01*
X413087Y971786D01*
X412606Y971305D01*
X412183Y971076D01*
X410393Y970720D01*
X408739Y969614D01*
X407634Y967961D01*
X407278Y966170D01*
X407048Y965748D01*
X406567Y965267D01*
X406145Y965037D01*
X404354Y964681D01*
X402701Y963576D01*
X401595Y961922D01*
X401239Y960132D01*
X401009Y959709D01*
X400528Y959228D01*
X400106Y958998D01*
X398316Y958642D01*
X396662Y957537D01*
X395557Y955883D01*
X395201Y954093D01*
X394971Y953671D01*
X394490Y953189D01*
X394067Y952960D01*
X392277Y952603D01*
X390623Y951498D01*
X389518Y949844D01*
X389162Y948054D01*
X388932Y947632D01*
X388451Y947151D01*
X388029Y946921D01*
X386238Y946565D01*
X384585Y945460D01*
X383479Y943806D01*
X383123Y942016D01*
X382893Y941593D01*
X382204Y940903D01*
X382151Y940914D01*
X380200Y940526D01*
X378546Y939421D01*
X377441Y937767D01*
X377085Y935977D01*
X376855Y935554D01*
X376165Y934865D01*
X376112Y934875D01*
X374161Y934487D01*
X372507Y933382D01*
X371402Y931728D01*
X371046Y929938D01*
X370816Y929516D01*
X370126Y928826D01*
X370073Y928837D01*
X368122Y928449D01*
X366468Y927344D01*
X365363Y925690D01*
X364988Y923802D01*
X363500Y924098D01*
X361549Y923710D01*
X359895Y922605D01*
X358790Y920951D01*
X358402Y919000D01*
X357304Y918009D01*
X355799Y917710D01*
X354145Y916605D01*
X353040Y914951D01*
X352836Y913927D01*
X351750Y912848D01*
X349799Y912460D01*
X348145Y911355D01*
X347040Y909701D01*
X346652Y907750D01*
X347040Y905799D01*
X348145Y904145D01*
X349799Y903040D01*
X351750Y902652D01*
X353701Y903040D01*
X355355Y904145D01*
X356460Y905799D01*
X356664Y906823D01*
X357750Y907902D01*
X359701Y908290D01*
X361355Y909395D01*
X362460Y911049D01*
X362848Y913000D01*
X363946Y913991D01*
X365451Y914290D01*
X367105Y915395D01*
X368210Y917049D01*
X368585Y918937D01*
X370073Y918641D01*
X372024Y919029D01*
X373678Y920134D01*
X374728Y921705D01*
X375073Y921746D01*
X376042Y921608D01*
X376044Y921598D01*
X377149Y919944D01*
X378803Y918839D01*
X380754Y918451D01*
X382705Y918839D01*
X384359Y919944D01*
X384945Y920820D01*
X386591Y921248D01*
X387086Y920917D01*
X389037Y920529D01*
X390988Y920917D01*
X392642Y922022D01*
X392849Y922332D01*
X394465Y922464D01*
X395589Y921713D01*
X397540Y921325D01*
X399491Y921713D01*
X401145Y922818D01*
X401167Y922851D01*
X402161D01*
X402601Y922711D01*
X404129Y921690D01*
X406080Y921301D01*
X408031Y921690D01*
X409549Y922704D01*
X410010Y922840D01*
X410690D01*
X411152Y922704D01*
X412669Y921690D01*
X414620Y921301D01*
X416571Y921690D01*
X418089Y922704D01*
X418550Y922840D01*
X419230D01*
X419692Y922704D01*
X421209Y921690D01*
X423160Y921301D01*
X425111Y921690D01*
X426629Y922704D01*
X427090Y922840D01*
X427770D01*
X428232Y922704D01*
X429749Y921690D01*
X431700Y921301D01*
X433651Y921690D01*
X435169Y922704D01*
X435630Y922840D01*
X436310D01*
X436772Y922704D01*
X438289Y921690D01*
X440240Y921301D01*
X442191Y921690D01*
X443845Y922795D01*
X444557Y923861D01*
X445108D01*
X446762Y922756D01*
X448713Y922368D01*
X450664Y922756D01*
X452318Y923861D01*
X453423Y925515D01*
X453811Y927466D01*
X453423Y929417D01*
X452318Y931070D01*
X450664Y932176D01*
X448713Y932563D01*
X446762Y932176D01*
X445108Y931070D01*
X444396Y930004D01*
X443845D01*
X442191Y931109D01*
X440240Y931497D01*
X438289Y931109D01*
X436772Y930095D01*
X436310Y929959D01*
X435630D01*
X435169Y930095D01*
X433651Y931109D01*
X431700Y931497D01*
X429749Y931109D01*
X428232Y930095D01*
X427770Y929959D01*
X427090D01*
X426629Y930095D01*
X425111Y931109D01*
X423160Y931497D01*
X421209Y931109D01*
X419692Y930095D01*
X419230Y929959D01*
X418550D01*
X418089Y930095D01*
X416571Y931109D01*
X414620Y931497D01*
X412669Y931109D01*
X411152Y930095D01*
X410690Y929959D01*
X410010D01*
X409549Y930095D01*
X408031Y931109D01*
X406080Y931497D01*
X404129Y931109D01*
X402475Y930004D01*
X402453Y929971D01*
X401459D01*
X401020Y930111D01*
X399491Y931133D01*
X397540Y931521D01*
X395589Y931133D01*
X393935Y930028D01*
X393728Y929718D01*
X392113Y929585D01*
X390988Y930337D01*
X389037Y930725D01*
X387086Y930337D01*
X385433Y929232D01*
X384847Y928355D01*
X383201Y927927D01*
X382705Y928258D01*
X381629Y928473D01*
X381296Y929834D01*
X381408Y930039D01*
X382097Y930729D01*
X382151Y930718D01*
X384101Y931106D01*
X385755Y932211D01*
X386861Y933865D01*
X387217Y935656D01*
X387446Y936078D01*
X388136Y936768D01*
X388189Y936757D01*
X390140Y937145D01*
X391794Y938250D01*
X392899Y939904D01*
X393255Y941694D01*
X393485Y942117D01*
X393966Y942598D01*
X394389Y942828D01*
X396179Y943184D01*
X397833Y944289D01*
X398938Y945943D01*
X399294Y947733D01*
X399524Y948155D01*
X400005Y948636D01*
X400427Y948866D01*
X402217Y949222D01*
X403871Y950327D01*
X404977Y951981D01*
X405333Y953772D01*
X405563Y954194D01*
X406044Y954675D01*
X406466Y954905D01*
X408256Y955261D01*
X409910Y956366D01*
X411015Y958020D01*
X411371Y959810D01*
X411601Y960233D01*
X412082Y960714D01*
X412505Y960944D01*
X414295Y961300D01*
X415949Y962405D01*
X417054Y964059D01*
X417410Y965849D01*
X417640Y966271D01*
X418121Y966752D01*
X418543Y966982D01*
X420334Y967338D01*
X421987Y968444D01*
X422419Y969090D01*
X423176Y969996D01*
X424829Y968891D01*
X426780Y968503D01*
X428731Y968891D01*
X430249Y969905D01*
X430710Y970041D01*
X431391D01*
X431852Y969905D01*
X433369Y968891D01*
X435320Y968503D01*
X437271Y968891D01*
X438789Y969905D01*
X439250Y970041D01*
X439931D01*
X440392Y969905D01*
X441909Y968891D01*
X443860Y968503D01*
X445811Y968891D01*
X446928Y969637D01*
X447400Y969442D01*
X448505Y967788D01*
X450159Y966683D01*
X452110Y966294D01*
X454061Y966683D01*
X455715Y967788D01*
X456820Y969442D01*
X457208Y971393D01*
X456820Y973343D01*
X455715Y974997D01*
X454061Y976102D01*
X452110Y976490D01*
X450159Y976102D01*
X449042Y975356D01*
X448570Y975552D01*
X447465Y977205D01*
X445811Y978310D01*
X443860Y978699D01*
D02*
G37*
G36*
X347718Y981151D02*
X345767Y980762D01*
X344113Y979657D01*
X343008Y978003D01*
X342652Y976213D01*
X342422Y975791D01*
X341733Y975101D01*
X341679Y975112D01*
X339729Y974724D01*
X338075Y973619D01*
X336969Y971965D01*
X336613Y970175D01*
X336384Y969752D01*
X335902Y969271D01*
X335480Y969041D01*
X333690Y968685D01*
X332036Y967580D01*
X330931Y965926D01*
X330543Y963975D01*
X330553Y963922D01*
X329864Y963232D01*
X329441Y963002D01*
X327651Y962646D01*
X325997Y961541D01*
X324892Y959887D01*
X324536Y958097D01*
X324306Y957675D01*
X323617Y956985D01*
X323563Y956996D01*
X321613Y956608D01*
X319959Y955503D01*
X318853Y953849D01*
X318465Y951898D01*
X318476Y951845D01*
X317786Y951155D01*
X317364Y950925D01*
X315574Y950569D01*
X313920Y949464D01*
X312815Y947810D01*
X312459Y946020D01*
X312229Y945597D01*
X311539Y944908D01*
X311486Y944918D01*
X309535Y944530D01*
X307881Y943425D01*
X306776Y941771D01*
X306388Y939820D01*
X306399Y939767D01*
X305709Y939078D01*
X305287Y938848D01*
X303496Y938492D01*
X301842Y937387D01*
X300737Y935733D01*
X300381Y933942D01*
X300152Y933520D01*
X299670Y933039D01*
X299248Y932809D01*
X297458Y932453D01*
X295804Y931348D01*
X294699Y929694D01*
X294492Y928657D01*
X293137Y927632D01*
X292554Y927747D01*
X290603Y927359D01*
X289086Y926345D01*
X288624Y926209D01*
X287944D01*
X287483Y926345D01*
X285965Y927359D01*
X284014Y927747D01*
X282063Y927359D01*
X280546Y926345D01*
X280084Y926209D01*
X279404D01*
X278943Y926345D01*
X277425Y927359D01*
X275474Y927747D01*
X273523Y927359D01*
X271869Y926254D01*
X270925Y924842D01*
X269970Y924665D01*
X269490Y924704D01*
X268955Y925505D01*
X268566Y925765D01*
Y927035D01*
X268955Y927295D01*
X270060Y928949D01*
X270448Y930900D01*
X270060Y932851D01*
X268955Y934505D01*
X267301Y935610D01*
X265350Y935998D01*
X263399Y935610D01*
X261745Y934505D01*
X260640Y932851D01*
X260252Y930900D01*
X260640Y928949D01*
X261745Y927295D01*
X262135Y927035D01*
Y925765D01*
X261745Y925505D01*
X260640Y923851D01*
X260252Y921900D01*
X260640Y919949D01*
X261745Y918295D01*
X263399Y917190D01*
X265350Y916802D01*
X267301Y917190D01*
X268955Y918295D01*
X269899Y919708D01*
X270854Y919884D01*
X271334Y919845D01*
X271869Y919045D01*
X273523Y917940D01*
X275474Y917551D01*
X277425Y917940D01*
X278943Y918954D01*
X279404Y919090D01*
X280084D01*
X280546Y918954D01*
X282063Y917940D01*
X284014Y917551D01*
X285965Y917940D01*
X287483Y918954D01*
X287944Y919090D01*
X288624D01*
X289086Y918954D01*
X290603Y917940D01*
X292554Y917551D01*
X294505Y917940D01*
X296159Y919045D01*
X297264Y920698D01*
X297470Y921736D01*
X298826Y922761D01*
X299409Y922645D01*
X301360Y923033D01*
X303013Y924138D01*
X304118Y925792D01*
X304475Y927582D01*
X304704Y928005D01*
X305186Y928486D01*
X305608Y928716D01*
X307398Y929072D01*
X309052Y930177D01*
X310157Y931831D01*
X310545Y933782D01*
X310535Y933835D01*
X311224Y934525D01*
X311647Y934754D01*
X313437Y935111D01*
X315091Y936216D01*
X316196Y937870D01*
X316552Y939660D01*
X316782Y940082D01*
X317471Y940772D01*
X317525Y940761D01*
X319476Y941149D01*
X321129Y942254D01*
X322235Y943908D01*
X322623Y945859D01*
X322612Y945912D01*
X323302Y946602D01*
X323724Y946832D01*
X325514Y947188D01*
X327168Y948293D01*
X328273Y949947D01*
X328629Y951737D01*
X328859Y952160D01*
X329549Y952849D01*
X329602Y952839D01*
X331553Y953227D01*
X333207Y954332D01*
X334312Y955986D01*
X334700Y957936D01*
X334689Y957990D01*
X335379Y958679D01*
X335801Y958909D01*
X337592Y959265D01*
X339245Y960370D01*
X340351Y962024D01*
X340707Y963814D01*
X340937Y964237D01*
X341418Y964718D01*
X341840Y964948D01*
X343630Y965304D01*
X345284Y966409D01*
X346389Y968063D01*
X346745Y969853D01*
X346975Y970276D01*
X347665Y970965D01*
X347718Y970955D01*
X349669Y971343D01*
X351323Y972448D01*
X352428Y974102D01*
X352816Y976053D01*
X352428Y978003D01*
X351323Y979657D01*
X349669Y980762D01*
X347718Y981151D01*
D02*
G37*
G36*
X27750Y948348D02*
X25799Y947960D01*
X24145Y946855D01*
X23040Y945201D01*
X22652Y943250D01*
X23040Y941299D01*
X24145Y939645D01*
X25799Y938540D01*
X27750Y938152D01*
X29701Y938540D01*
X31355Y939645D01*
X32460Y941299D01*
X32848Y943250D01*
X32460Y945201D01*
X31355Y946855D01*
X29701Y947960D01*
X27750Y948348D01*
D02*
G37*
G36*
X27250Y964848D02*
X25299Y964460D01*
X23645Y963355D01*
X22540Y961701D01*
X22152Y959750D01*
X22540Y957799D01*
X23645Y956145D01*
X25299Y955040D01*
X27250Y954652D01*
X29201Y955040D01*
X30855Y956145D01*
X31960Y957799D01*
X32348Y959750D01*
X31960Y961701D01*
X30855Y963355D01*
X29201Y964460D01*
X27250Y964848D01*
D02*
G37*
G36*
X210500Y883098D02*
X208549Y882710D01*
X206895Y881605D01*
X205790Y879951D01*
X205402Y878000D01*
X205790Y876049D01*
X206895Y874395D01*
X208549Y873290D01*
X210500Y872902D01*
X212451Y873290D01*
X214105Y874395D01*
X215210Y876049D01*
X215598Y878000D01*
X215210Y879951D01*
X214105Y881605D01*
X212451Y882710D01*
X210500Y883098D01*
D02*
G37*
G36*
X326000Y887098D02*
X324049Y886710D01*
X322395Y885605D01*
X321290Y883951D01*
X320902Y882000D01*
X321290Y880049D01*
X322395Y878395D01*
X324049Y877290D01*
X326000Y876902D01*
X327951Y877290D01*
X329605Y878395D01*
X330710Y880049D01*
X331098Y882000D01*
X330710Y883951D01*
X329605Y885605D01*
X327951Y886710D01*
X326000Y887098D01*
D02*
G37*
G36*
X44049Y1089808D02*
X42098Y1089420D01*
X40444Y1088315D01*
X39339Y1086661D01*
X38951Y1084710D01*
X39339Y1082759D01*
X40444Y1081105D01*
X42098Y1080000D01*
X44049Y1079612D01*
X46000Y1080000D01*
X47654Y1081105D01*
X48759Y1082759D01*
X49147Y1084710D01*
X48759Y1086661D01*
X47654Y1088315D01*
X46000Y1089420D01*
X44049Y1089808D01*
D02*
G37*
G36*
X268250Y882848D02*
X266299Y882460D01*
X264645Y881355D01*
X263540Y879701D01*
X263152Y877750D01*
X263540Y875799D01*
X264645Y874145D01*
X266299Y873040D01*
X268250Y872652D01*
X270201Y873040D01*
X271855Y874145D01*
X272960Y875799D01*
X273348Y877750D01*
X272960Y879701D01*
X271855Y881355D01*
X270201Y882460D01*
X268250Y882848D01*
D02*
G37*
G36*
X136250Y1091348D02*
X134299Y1090960D01*
X132645Y1089855D01*
X131540Y1088201D01*
X131152Y1086250D01*
X131540Y1084299D01*
X132645Y1082645D01*
X134299Y1081540D01*
X136250Y1081152D01*
X138201Y1081540D01*
X139855Y1082645D01*
X140960Y1084299D01*
X141348Y1086250D01*
X140960Y1088201D01*
X139855Y1089855D01*
X138201Y1090960D01*
X136250Y1091348D01*
D02*
G37*
G36*
X84100Y878699D02*
X82149Y878310D01*
X80631Y877296D01*
X80170Y877160D01*
X79490D01*
X79029Y877296D01*
X77511Y878310D01*
X75560Y878699D01*
X73609Y878310D01*
X71955Y877205D01*
X70850Y875552D01*
X70462Y873601D01*
X70850Y871650D01*
X71955Y869996D01*
X73609Y868891D01*
X75560Y868503D01*
X77511Y868891D01*
X79029Y869905D01*
X79490Y870041D01*
X80170D01*
X80631Y869905D01*
X82149Y868891D01*
X84100Y868503D01*
X86051Y868891D01*
X87299Y869725D01*
X88880Y869643D01*
X89017Y869439D01*
X90671Y868334D01*
X92461Y867978D01*
X92884Y867748D01*
X93365Y867267D01*
X93594Y866844D01*
X93951Y865054D01*
X95056Y863400D01*
X96709Y862295D01*
X98500Y861939D01*
X98922Y861709D01*
X99403Y861228D01*
X99633Y860806D01*
X99989Y859016D01*
X101094Y857362D01*
X102748Y856256D01*
X104538Y855900D01*
X104961Y855670D01*
X105442Y855189D01*
X105672Y854767D01*
X106028Y852977D01*
X107133Y851323D01*
X108787Y850218D01*
X110629Y849851D01*
X111019Y849685D01*
X111746Y848957D01*
X112134Y847006D01*
X113239Y845352D01*
X114893Y844247D01*
X115052Y844216D01*
X115742Y843030D01*
X115384Y841231D01*
X114989Y840836D01*
X113743Y841084D01*
X111792Y840695D01*
X110138Y839590D01*
X109033Y837937D01*
X108645Y835986D01*
X108648Y835971D01*
X107750Y835073D01*
X107659Y835091D01*
X105708Y834703D01*
X104054Y833598D01*
X102949Y831944D01*
X102921Y831803D01*
X101502Y831181D01*
X99912Y831497D01*
X97961Y831109D01*
X96443Y830095D01*
X95982Y829959D01*
X95301D01*
X94840Y830095D01*
X93322Y831109D01*
X91372Y831497D01*
X89421Y831109D01*
X87903Y830095D01*
X87442Y829959D01*
X86761D01*
X86300Y830095D01*
X84782Y831109D01*
X82832Y831497D01*
X80881Y831109D01*
X80072Y830569D01*
X78963Y830146D01*
X78102Y830608D01*
X77201Y831210D01*
X75250Y831598D01*
X73299Y831210D01*
X71645Y830105D01*
X70540Y828451D01*
X70152Y826500D01*
X70540Y824549D01*
X71645Y822895D01*
X73299Y821790D01*
X75250Y821402D01*
X77201Y821790D01*
X78010Y822330D01*
X79119Y822754D01*
X79979Y822292D01*
X80881Y821690D01*
X82832Y821301D01*
X84782Y821690D01*
X86300Y822704D01*
X86761Y822840D01*
X87442D01*
X87903Y822704D01*
X89421Y821690D01*
X91372Y821301D01*
X93322Y821690D01*
X94840Y822704D01*
X95301Y822840D01*
X95982D01*
X96443Y822704D01*
X97961Y821690D01*
X99912Y821301D01*
X101862Y821690D01*
X103516Y822795D01*
X104621Y824448D01*
X104649Y824589D01*
X106068Y825211D01*
X107659Y824895D01*
X109610Y825283D01*
X111264Y826388D01*
X112369Y828042D01*
X112718Y829797D01*
X113011Y830266D01*
X113652Y830906D01*
X113743Y830888D01*
X115694Y831276D01*
X117348Y832381D01*
X118453Y834035D01*
X118841Y835986D01*
X119236Y836381D01*
X120482Y836133D01*
X122433Y836521D01*
X124087Y837626D01*
X125192Y839280D01*
X125580Y841231D01*
X125192Y843182D01*
X124087Y844836D01*
X122433Y845941D01*
X122274Y845973D01*
X121584Y847158D01*
X121942Y848957D01*
X121554Y850908D01*
X120449Y852562D01*
X118795Y853667D01*
X116953Y854034D01*
X116563Y854200D01*
X115836Y854928D01*
X115448Y856879D01*
X114343Y858532D01*
X112689Y859638D01*
X110899Y859994D01*
X110476Y860223D01*
X109995Y860705D01*
X109765Y861127D01*
X109409Y862917D01*
X108304Y864571D01*
X106650Y865676D01*
X104699Y866064D01*
X104646Y866054D01*
X103956Y866743D01*
X103726Y867166D01*
X103370Y868956D01*
X102265Y870610D01*
X100611Y871715D01*
X98821Y872071D01*
X98399Y872301D01*
X97918Y872782D01*
X97688Y873204D01*
X97332Y874995D01*
X96227Y876648D01*
X94573Y877754D01*
X92622Y878142D01*
X90671Y877754D01*
X89423Y876920D01*
X87841Y877001D01*
X87705Y877205D01*
X86051Y878310D01*
X84100Y878699D01*
D02*
G37*
G36*
X133250Y991098D02*
X131299Y990710D01*
X129645Y989605D01*
X128540Y987951D01*
X128152Y986000D01*
X128540Y984049D01*
X129645Y982395D01*
X131299Y981290D01*
X133250Y980902D01*
X133320Y980916D01*
X133379Y980857D01*
X133767Y978907D01*
X134872Y977253D01*
X136526Y976148D01*
X138316Y975791D01*
X138739Y975562D01*
X139428Y974872D01*
X139418Y974819D01*
X139806Y972868D01*
X140911Y971214D01*
X142565Y970109D01*
X144516Y969721D01*
X144569Y969732D01*
X145258Y969042D01*
X145488Y968620D01*
X145844Y966829D01*
X146949Y965175D01*
X148603Y964070D01*
X150394Y963714D01*
X150816Y963484D01*
X151506Y962795D01*
X151495Y962741D01*
X151883Y960791D01*
X152988Y959137D01*
X154642Y958032D01*
X156593Y957644D01*
X156646Y957654D01*
X157336Y956965D01*
X157566Y956542D01*
X157922Y954752D01*
X159027Y953098D01*
X160681Y951993D01*
X162471Y951637D01*
X162893Y951407D01*
X163374Y950926D01*
X163604Y950503D01*
X163960Y948713D01*
X165065Y947059D01*
X166719Y945954D01*
X168670Y945566D01*
X168724Y945577D01*
X169413Y944887D01*
X169643Y944465D01*
X169999Y942674D01*
X171104Y941021D01*
X172758Y939915D01*
X174548Y939559D01*
X174971Y939330D01*
X175452Y938848D01*
X175682Y938426D01*
X176038Y936636D01*
X177143Y934982D01*
X178797Y933877D01*
X180748Y933489D01*
X180801Y933499D01*
X181490Y932810D01*
X181720Y932387D01*
X182076Y930597D01*
X183181Y928943D01*
X184835Y927838D01*
X186626Y927482D01*
X187048Y927252D01*
X187529Y926771D01*
X187759Y926349D01*
X188115Y924558D01*
X189220Y922905D01*
X190874Y921799D01*
X192825Y921411D01*
X193727Y921591D01*
X195165Y920648D01*
X195304Y919949D01*
X196409Y918295D01*
X198063Y917190D01*
X200014Y916802D01*
X201965Y917190D01*
X203482Y918204D01*
X203944Y918340D01*
X204624D01*
X205085Y918204D01*
X206603Y917190D01*
X208554Y916802D01*
X210505Y917190D01*
X212159Y918295D01*
X213182Y919826D01*
X213660Y920011D01*
X214600Y920158D01*
X216049Y919190D01*
X218000Y918802D01*
X219951Y919190D01*
X221605Y920295D01*
X222710Y921949D01*
X223098Y923900D01*
X222710Y925851D01*
X221605Y927505D01*
X221215Y927765D01*
Y929035D01*
X221605Y929295D01*
X222710Y930949D01*
X223098Y932900D01*
X222710Y934851D01*
X221605Y936505D01*
X219951Y937610D01*
X218000Y937998D01*
X216049Y937610D01*
X214395Y936505D01*
X213290Y934851D01*
X212902Y932900D01*
X213290Y930949D01*
X214395Y929295D01*
X214785Y929035D01*
Y927765D01*
X214395Y927505D01*
X213372Y925974D01*
X212894Y925789D01*
X211954Y925641D01*
X210505Y926609D01*
X208554Y926997D01*
X206603Y926609D01*
X205085Y925595D01*
X204624Y925459D01*
X203944D01*
X203482Y925595D01*
X201965Y926609D01*
X200014Y926997D01*
X199112Y926818D01*
X197674Y927761D01*
X197535Y928460D01*
X196430Y930114D01*
X194776Y931219D01*
X192986Y931575D01*
X192563Y931805D01*
X192082Y932286D01*
X191852Y932709D01*
X191496Y934499D01*
X190391Y936153D01*
X188737Y937258D01*
X186786Y937646D01*
X186733Y937635D01*
X186043Y938325D01*
X185814Y938747D01*
X185457Y940538D01*
X184352Y942192D01*
X182698Y943297D01*
X180908Y943653D01*
X180486Y943883D01*
X180005Y944364D01*
X179775Y944786D01*
X179419Y946576D01*
X178314Y948230D01*
X176660Y949335D01*
X174709Y949723D01*
X174656Y949713D01*
X173966Y950402D01*
X173736Y950825D01*
X173380Y952615D01*
X172275Y954269D01*
X170621Y955374D01*
X168831Y955730D01*
X168409Y955960D01*
X167927Y956441D01*
X167698Y956863D01*
X167341Y958654D01*
X166236Y960308D01*
X164583Y961413D01*
X162632Y961801D01*
X162578Y961790D01*
X161889Y962480D01*
X161659Y962902D01*
X161303Y964692D01*
X160198Y966346D01*
X158544Y967451D01*
X156754Y967807D01*
X156331Y968037D01*
X155642Y968727D01*
X155652Y968780D01*
X155264Y970731D01*
X154159Y972385D01*
X152505Y973490D01*
X150554Y973878D01*
X150501Y973867D01*
X149811Y974557D01*
X149582Y974980D01*
X149226Y976770D01*
X148120Y978424D01*
X146467Y979529D01*
X144676Y979885D01*
X144254Y980115D01*
X143564Y980804D01*
X143575Y980858D01*
X143187Y982808D01*
X142082Y984462D01*
X140428Y985567D01*
X138477Y985956D01*
X138406Y985941D01*
X138348Y986000D01*
X137960Y987951D01*
X136855Y989605D01*
X135201Y990710D01*
X133250Y991098D01*
D02*
G37*
G36*
X103500Y1065598D02*
X101549Y1065210D01*
X99895Y1064105D01*
X98790Y1062451D01*
X98402Y1060500D01*
X98790Y1058549D01*
X99895Y1056895D01*
X101549Y1055790D01*
X103500Y1055402D01*
X105451Y1055790D01*
X107105Y1056895D01*
X108210Y1058549D01*
X108598Y1060500D01*
X108210Y1062451D01*
X107105Y1064105D01*
X105451Y1065210D01*
X103500Y1065598D01*
D02*
G37*
G36*
X229350Y943998D02*
X227399Y943610D01*
X225745Y942505D01*
X224640Y940851D01*
X224252Y938900D01*
X224640Y936949D01*
X225745Y935295D01*
X227399Y934190D01*
X229350Y933802D01*
X230963Y934123D01*
X231740Y933231D01*
X231802Y933093D01*
X231640Y932851D01*
X231252Y930900D01*
X231640Y928949D01*
X232745Y927295D01*
X232885Y927202D01*
Y925932D01*
X232395Y925605D01*
X231290Y923951D01*
X230902Y922000D01*
X231290Y920049D01*
X232395Y918395D01*
X234049Y917290D01*
X236000Y916902D01*
X237951Y917290D01*
X239605Y918395D01*
X240710Y920049D01*
X240916Y921087D01*
X242350Y920802D01*
X242919Y920915D01*
X243290Y919049D01*
X244395Y917395D01*
X246049Y916290D01*
X248000Y915902D01*
X249951Y916290D01*
X251605Y917395D01*
X252710Y919049D01*
X253098Y921000D01*
X252710Y922951D01*
X251605Y924605D01*
X250160Y925570D01*
X249982Y926460D01*
X250005Y926994D01*
X250605Y927395D01*
X251710Y929049D01*
X252098Y931000D01*
X251710Y932951D01*
X250605Y934605D01*
X248951Y935710D01*
X247000Y936098D01*
X245049Y935710D01*
X243395Y934605D01*
X242325Y933003D01*
X241595Y932894D01*
X241549Y932891D01*
X240995Y932949D01*
X239955Y934505D01*
X238301Y935610D01*
X236350Y935998D01*
X234738Y935677D01*
X233961Y936569D01*
X233898Y936706D01*
X234060Y936949D01*
X234448Y938900D01*
X234060Y940851D01*
X232955Y942505D01*
X231301Y943610D01*
X229350Y943998D01*
D02*
G37*
G36*
X440021Y878699D02*
X438070Y878310D01*
X436552Y877296D01*
X436091Y877160D01*
X435411D01*
X434949Y877296D01*
X433432Y878310D01*
X431481Y878699D01*
X429530Y878310D01*
X428012Y877296D01*
X427551Y877160D01*
X426871D01*
X426409Y877296D01*
X424892Y878310D01*
X422941Y878699D01*
X420990Y878310D01*
X419472Y877296D01*
X419011Y877160D01*
X418331D01*
X417869Y877296D01*
X416352Y878310D01*
X414401Y878699D01*
X412450Y878310D01*
X410932Y877296D01*
X410471Y877160D01*
X409791D01*
X409329Y877296D01*
X407812Y878310D01*
X405861Y878699D01*
X403910Y878310D01*
X402256Y877205D01*
X402108Y876984D01*
X400522Y876896D01*
X399292Y877717D01*
X397341Y878105D01*
X395391Y877717D01*
X393737Y876612D01*
X392632Y874958D01*
X392276Y873168D01*
X392046Y872745D01*
X391565Y872264D01*
X391142Y872035D01*
X389352Y871678D01*
X387698Y870573D01*
X386593Y868919D01*
X386237Y867129D01*
X386007Y866707D01*
X385317Y866017D01*
X385264Y866028D01*
X383313Y865640D01*
X381659Y864535D01*
X380554Y862881D01*
X380198Y861090D01*
X379968Y860668D01*
X379487Y860187D01*
X379065Y859957D01*
X377275Y859601D01*
X375621Y858496D01*
X374516Y856842D01*
X374128Y854891D01*
X373415Y854179D01*
X373007Y854014D01*
X371154Y853645D01*
X369500Y852540D01*
X368395Y850887D01*
X368177Y849792D01*
X366845Y848763D01*
X366302Y848870D01*
X364351Y848482D01*
X362697Y847377D01*
X361592Y845723D01*
X361204Y843772D01*
X361592Y841822D01*
X362697Y840168D01*
X364351Y839062D01*
X365928Y838749D01*
X366055Y838442D01*
X365667Y836491D01*
X366055Y834540D01*
X367160Y832887D01*
X368814Y831781D01*
X370634Y831419D01*
X371031Y831231D01*
X371749Y830512D01*
X371745Y830492D01*
X372133Y828541D01*
X373238Y826887D01*
X374892Y825782D01*
X376843Y825394D01*
X378096Y825643D01*
X379544Y824872D01*
X379628Y824448D01*
X380733Y822795D01*
X382387Y821690D01*
X384338Y821301D01*
X386289Y821690D01*
X387807Y822704D01*
X388268Y822840D01*
X388949D01*
X389410Y822704D01*
X390927Y821690D01*
X392878Y821301D01*
X394829Y821690D01*
X396347Y822704D01*
X396808Y822840D01*
X397489D01*
X397950Y822704D01*
X399467Y821690D01*
X401418Y821301D01*
X403369Y821690D01*
X404887Y822704D01*
X405348Y822840D01*
X406029D01*
X406490Y822704D01*
X408007Y821690D01*
X409958Y821301D01*
X411909Y821690D01*
X413427Y822704D01*
X413888Y822840D01*
X414568D01*
X415030Y822704D01*
X416547Y821690D01*
X418498Y821301D01*
X420449Y821690D01*
X421967Y822704D01*
X422428Y822840D01*
X423108D01*
X423570Y822704D01*
X425087Y821690D01*
X427038Y821301D01*
X428989Y821690D01*
X430507Y822704D01*
X430968Y822840D01*
X431648D01*
X432110Y822704D01*
X433627Y821690D01*
X435578Y821301D01*
X437529Y821690D01*
X439047Y822704D01*
X439508Y822840D01*
X440188D01*
X440650Y822704D01*
X442167Y821690D01*
X444118Y821301D01*
X446069Y821690D01*
X447723Y822795D01*
X448828Y824448D01*
X449348Y824664D01*
X450400Y823961D01*
X452351Y823573D01*
X454301Y823961D01*
X455955Y825066D01*
X457060Y826720D01*
X457449Y828671D01*
X457060Y830622D01*
X455955Y832276D01*
X454301Y833381D01*
X452351Y833769D01*
X450400Y833381D01*
X448746Y832276D01*
X447641Y830622D01*
X447121Y830407D01*
X446069Y831109D01*
X444118Y831497D01*
X442167Y831109D01*
X440650Y830095D01*
X440188Y829959D01*
X439508D01*
X439047Y830095D01*
X437529Y831109D01*
X435578Y831497D01*
X433627Y831109D01*
X432110Y830095D01*
X431648Y829959D01*
X430968D01*
X430507Y830095D01*
X428989Y831109D01*
X427038Y831497D01*
X425087Y831109D01*
X423570Y830095D01*
X423108Y829959D01*
X422428D01*
X421967Y830095D01*
X420449Y831109D01*
X418498Y831497D01*
X416547Y831109D01*
X415030Y830095D01*
X414568Y829959D01*
X413888D01*
X413427Y830095D01*
X411909Y831109D01*
X409958Y831497D01*
X408007Y831109D01*
X406490Y830095D01*
X406029Y829959D01*
X405348D01*
X404887Y830095D01*
X403369Y831109D01*
X401418Y831497D01*
X399467Y831109D01*
X397950Y830095D01*
X397489Y829959D01*
X396808D01*
X396347Y830095D01*
X394829Y831109D01*
X392878Y831497D01*
X390927Y831109D01*
X389410Y830095D01*
X388949Y829959D01*
X388268D01*
X387807Y830095D01*
X386289Y831109D01*
X384338Y831497D01*
X383085Y831248D01*
X381637Y832019D01*
X381553Y832443D01*
X380448Y834097D01*
X378794Y835202D01*
X376973Y835564D01*
X376577Y835752D01*
X375859Y836471D01*
X375863Y836491D01*
X375475Y838442D01*
X374370Y840096D01*
X372716Y841201D01*
X372092Y841325D01*
X371191Y842722D01*
X371230Y842916D01*
X372562Y843945D01*
X373105Y843838D01*
X375056Y844226D01*
X376710Y845331D01*
X377815Y846985D01*
X378203Y848935D01*
X378915Y849648D01*
X379323Y849812D01*
X381176Y850181D01*
X382830Y851286D01*
X383935Y852940D01*
X384291Y854730D01*
X384521Y855153D01*
X385003Y855634D01*
X385425Y855864D01*
X387215Y856220D01*
X388869Y857325D01*
X389974Y858979D01*
X390330Y860769D01*
X390560Y861191D01*
X391250Y861881D01*
X391303Y861870D01*
X393254Y862259D01*
X394908Y863364D01*
X396013Y865017D01*
X396369Y866808D01*
X396599Y867230D01*
X397080Y867711D01*
X397502Y867941D01*
X399292Y868297D01*
X400946Y869402D01*
X401094Y869623D01*
X402681Y869712D01*
X403910Y868891D01*
X405861Y868503D01*
X407812Y868891D01*
X409329Y869905D01*
X409791Y870041D01*
X410471D01*
X410932Y869905D01*
X412450Y868891D01*
X414401Y868503D01*
X416352Y868891D01*
X417869Y869905D01*
X418331Y870041D01*
X419011D01*
X419472Y869905D01*
X420990Y868891D01*
X422941Y868503D01*
X424892Y868891D01*
X426409Y869905D01*
X426871Y870041D01*
X427551D01*
X428012Y869905D01*
X429530Y868891D01*
X431481Y868503D01*
X433432Y868891D01*
X434949Y869905D01*
X435411Y870041D01*
X436091D01*
X436552Y869905D01*
X438070Y868891D01*
X440021Y868503D01*
X441972Y868891D01*
X443011Y869585D01*
X444650Y869417D01*
X444902Y869040D01*
X446556Y867935D01*
X448507Y867547D01*
X450458Y867935D01*
X452112Y869040D01*
X453217Y870694D01*
X453605Y872645D01*
X453217Y874595D01*
X452112Y876249D01*
X450458Y877355D01*
X448507Y877742D01*
X446556Y877355D01*
X445517Y876660D01*
X443878Y876828D01*
X443626Y877205D01*
X441972Y878310D01*
X440021Y878699D01*
D02*
G37*
G36*
X282000Y1061098D02*
X280049Y1060710D01*
X278395Y1059605D01*
X278135Y1059215D01*
X276865D01*
X276605Y1059605D01*
X274951Y1060710D01*
X273000Y1061098D01*
X271049Y1060710D01*
X269395Y1059605D01*
X269135Y1059215D01*
X267865D01*
X267605Y1059605D01*
X265951Y1060710D01*
X264000Y1061098D01*
X262049Y1060710D01*
X260395Y1059605D01*
X260135Y1059215D01*
X258865D01*
X258605Y1059605D01*
X256951Y1060710D01*
X255000Y1061098D01*
X253049Y1060710D01*
X251395Y1059605D01*
X251135Y1059215D01*
X249865D01*
X249605Y1059605D01*
X247951Y1060710D01*
X246000Y1061098D01*
X244049Y1060710D01*
X242395Y1059605D01*
X242135Y1059215D01*
X240865D01*
X240605Y1059605D01*
X238951Y1060710D01*
X237000Y1061098D01*
X235049Y1060710D01*
X233395Y1059605D01*
X233135Y1059215D01*
X231865D01*
X231605Y1059605D01*
X229951Y1060710D01*
X228000Y1061098D01*
X226049Y1060710D01*
X224395Y1059605D01*
X224135Y1059215D01*
X222865D01*
X222605Y1059605D01*
X220951Y1060710D01*
X219000Y1061098D01*
X217049Y1060710D01*
X215395Y1059605D01*
X214290Y1057951D01*
X213902Y1056000D01*
X214290Y1054049D01*
X215395Y1052395D01*
X215785Y1052135D01*
Y1050865D01*
X215395Y1050605D01*
X214290Y1048951D01*
X213902Y1047000D01*
X214290Y1045049D01*
X215395Y1043395D01*
X215785Y1043135D01*
Y1041865D01*
X215395Y1041605D01*
X214290Y1039951D01*
X213902Y1038000D01*
X214290Y1036049D01*
X215395Y1034395D01*
X215785Y1034135D01*
Y1032865D01*
X215395Y1032605D01*
X214290Y1030951D01*
X213902Y1029000D01*
X214290Y1027049D01*
X215395Y1025395D01*
X215785Y1025135D01*
Y1023865D01*
X215395Y1023605D01*
X214290Y1021951D01*
X213902Y1020000D01*
X214290Y1018049D01*
X215395Y1016395D01*
X215785Y1016135D01*
Y1014865D01*
X215395Y1014605D01*
X214290Y1012951D01*
X213902Y1011000D01*
X214290Y1009049D01*
X215395Y1007395D01*
X215785Y1007135D01*
Y1005865D01*
X215395Y1005605D01*
X214290Y1003951D01*
X213902Y1002000D01*
X214290Y1000049D01*
X215395Y998395D01*
X215785Y998135D01*
Y996865D01*
X215395Y996605D01*
X214290Y994951D01*
X213902Y993000D01*
X214290Y991049D01*
X215395Y989395D01*
X217049Y988290D01*
X219000Y987902D01*
X220951Y988290D01*
X222605Y989395D01*
X222865Y989785D01*
X224135D01*
X224395Y989395D01*
X226049Y988290D01*
X228000Y987902D01*
X229951Y988290D01*
X231605Y989395D01*
X231865Y989785D01*
X233135D01*
X233395Y989395D01*
X235049Y988290D01*
X237000Y987902D01*
X238951Y988290D01*
X240605Y989395D01*
X240865Y989785D01*
X242135D01*
X242395Y989395D01*
X244049Y988290D01*
X246000Y987902D01*
X247951Y988290D01*
X249605Y989395D01*
X249865Y989785D01*
X251135D01*
X251395Y989395D01*
X253049Y988290D01*
X255000Y987902D01*
X256951Y988290D01*
X258605Y989395D01*
X258865Y989785D01*
X260135D01*
X260395Y989395D01*
X262049Y988290D01*
X264000Y987902D01*
X265951Y988290D01*
X267605Y989395D01*
X267865Y989785D01*
X269135D01*
X269395Y989395D01*
X271049Y988290D01*
X273000Y987902D01*
X274951Y988290D01*
X276605Y989395D01*
X276865Y989785D01*
X278135D01*
X278395Y989395D01*
X280049Y988290D01*
X282000Y987902D01*
X283951Y988290D01*
X285605Y989395D01*
X286710Y991049D01*
X287098Y993000D01*
X286710Y994951D01*
X285605Y996605D01*
X285215Y996865D01*
Y998135D01*
X285605Y998395D01*
X286710Y1000049D01*
X287098Y1002000D01*
X286710Y1003951D01*
X285605Y1005605D01*
X285215Y1005865D01*
Y1007135D01*
X285605Y1007395D01*
X286710Y1009049D01*
X287098Y1011000D01*
X286710Y1012951D01*
X285605Y1014605D01*
X285215Y1014865D01*
Y1016135D01*
X285605Y1016395D01*
X286710Y1018049D01*
X287098Y1020000D01*
X286710Y1021951D01*
X285605Y1023605D01*
X285215Y1023865D01*
Y1025135D01*
X285605Y1025395D01*
X286710Y1027049D01*
X287098Y1029000D01*
X286710Y1030951D01*
X285605Y1032605D01*
X285215Y1032865D01*
Y1034135D01*
X285605Y1034395D01*
X286710Y1036049D01*
X287098Y1038000D01*
X286710Y1039951D01*
X285605Y1041605D01*
X285215Y1041865D01*
Y1043135D01*
X285605Y1043395D01*
X286710Y1045049D01*
X287098Y1047000D01*
X286710Y1048951D01*
X285605Y1050605D01*
X285215Y1050865D01*
Y1052135D01*
X285605Y1052395D01*
X286710Y1054049D01*
X287098Y1056000D01*
X286710Y1057951D01*
X285605Y1059605D01*
X283951Y1060710D01*
X282000Y1061098D01*
D02*
G37*
G36*
X329000Y669098D02*
X327049Y668710D01*
X325395Y667605D01*
X324290Y665951D01*
X323902Y664000D01*
X324290Y662049D01*
X325395Y660395D01*
X327049Y659290D01*
X329000Y658902D01*
X330951Y659290D01*
X332605Y660395D01*
X333710Y662049D01*
X334098Y664000D01*
X333710Y665951D01*
X332605Y667605D01*
X330951Y668710D01*
X329000Y669098D01*
D02*
G37*
G36*
X120000Y682098D02*
X118049Y681710D01*
X116395Y680605D01*
X115290Y678951D01*
X114902Y677000D01*
X115290Y675049D01*
X116395Y673395D01*
X117340Y672764D01*
Y671236D01*
X116395Y670605D01*
X115290Y668951D01*
X114902Y667000D01*
X115290Y665049D01*
X116395Y663395D01*
X118049Y662290D01*
X120000Y661902D01*
X121951Y662290D01*
X123605Y663395D01*
X124710Y665049D01*
X125098Y667000D01*
X124710Y668951D01*
X123605Y670605D01*
X122660Y671236D01*
Y672764D01*
X123605Y673395D01*
X124710Y675049D01*
X125098Y677000D01*
X124710Y678951D01*
X123605Y680605D01*
X121951Y681710D01*
X120000Y682098D01*
D02*
G37*
G36*
X104250Y662848D02*
X102299Y662460D01*
X100645Y661355D01*
X99540Y659701D01*
X99152Y657750D01*
X99540Y655799D01*
X100645Y654145D01*
X102299Y653040D01*
X104250Y652652D01*
X106201Y653040D01*
X107855Y654145D01*
X108960Y655799D01*
X109348Y657750D01*
X108960Y659701D01*
X107855Y661355D01*
X106201Y662460D01*
X104250Y662848D01*
D02*
G37*
G36*
X105500Y648098D02*
X103549Y647710D01*
X101895Y646605D01*
X100790Y644951D01*
X100402Y643000D01*
X100790Y641049D01*
X101895Y639395D01*
X103549Y638290D01*
X105500Y637902D01*
X107451Y638290D01*
X109105Y639395D01*
X110210Y641049D01*
X110598Y643000D01*
X110210Y644951D01*
X109105Y646605D01*
X107451Y647710D01*
X105500Y648098D01*
D02*
G37*
G36*
X294000Y658098D02*
X292049Y657710D01*
X290395Y656605D01*
X289290Y654951D01*
X288902Y653000D01*
X289290Y651049D01*
X290395Y649395D01*
X292049Y648290D01*
X294000Y647902D01*
X295951Y648290D01*
X297605Y649395D01*
X298710Y651049D01*
X299098Y653000D01*
X298710Y654951D01*
X297605Y656605D01*
X295951Y657710D01*
X294000Y658098D01*
D02*
G37*
G36*
X202025Y673123D02*
X200074Y672735D01*
X198420Y671630D01*
X197315Y669976D01*
X196927Y668025D01*
X197315Y666074D01*
X198420Y664420D01*
X200074Y663315D01*
X202025Y662927D01*
X203976Y663315D01*
X205630Y664420D01*
X206735Y666074D01*
X207123Y668025D01*
X206735Y669976D01*
X205630Y671630D01*
X203976Y672735D01*
X202025Y673123D01*
D02*
G37*
G36*
X365750Y685848D02*
X363799Y685460D01*
X362145Y684355D01*
X361040Y682701D01*
X360652Y680750D01*
X361040Y678799D01*
X362145Y677145D01*
X363799Y676040D01*
X365750Y675652D01*
X367701Y676040D01*
X369355Y677145D01*
X370460Y678799D01*
X370848Y680750D01*
X370460Y682701D01*
X369355Y684355D01*
X367701Y685460D01*
X365750Y685848D01*
D02*
G37*
G36*
X169000Y687098D02*
X167049Y686710D01*
X165395Y685605D01*
X164290Y683951D01*
X163902Y682000D01*
X164290Y680049D01*
X165395Y678395D01*
X167049Y677290D01*
X169000Y676902D01*
X170951Y677290D01*
X172605Y678395D01*
X173710Y680049D01*
X174098Y682000D01*
X173710Y683951D01*
X172605Y685605D01*
X170951Y686710D01*
X169000Y687098D01*
D02*
G37*
G36*
X149000Y684598D02*
X147049Y684210D01*
X145395Y683105D01*
X144290Y681451D01*
X143902Y679500D01*
X144290Y677549D01*
X145395Y675895D01*
X147049Y674790D01*
X149000Y674402D01*
X150951Y674790D01*
X152605Y675895D01*
X153710Y677549D01*
X154098Y679500D01*
X153710Y681451D01*
X152605Y683105D01*
X150951Y684210D01*
X149000Y684598D01*
D02*
G37*
G36*
X108250Y681098D02*
X106299Y680710D01*
X104645Y679605D01*
X103540Y677951D01*
X103152Y676000D01*
X103540Y674049D01*
X104645Y672395D01*
X106299Y671290D01*
X108250Y670902D01*
X110201Y671290D01*
X111855Y672395D01*
X112960Y674049D01*
X113348Y676000D01*
X112960Y677951D01*
X111855Y679605D01*
X110201Y680710D01*
X108250Y681098D01*
D02*
G37*
G36*
X53250Y683848D02*
X51299Y683460D01*
X49645Y682355D01*
X48540Y680701D01*
X48152Y678750D01*
X48540Y676799D01*
X49645Y675145D01*
X51299Y674040D01*
X53250Y673652D01*
X55201Y674040D01*
X56855Y675145D01*
X57960Y676799D01*
X58348Y678750D01*
X57960Y680701D01*
X56855Y682355D01*
X55201Y683460D01*
X53250Y683848D01*
D02*
G37*
G36*
X306000Y623098D02*
X304049Y622710D01*
X302395Y621605D01*
X301290Y619951D01*
X300902Y618000D01*
X301290Y616049D01*
X302395Y614395D01*
X304049Y613290D01*
X306000Y612902D01*
X307951Y613290D01*
X309605Y614395D01*
X310710Y616049D01*
X311098Y618000D01*
X310710Y619951D01*
X309605Y621605D01*
X307951Y622710D01*
X306000Y623098D01*
D02*
G37*
G36*
X54500Y627598D02*
X52549Y627210D01*
X50895Y626105D01*
X49790Y624451D01*
X49402Y622500D01*
X49790Y620549D01*
X50895Y618895D01*
X52549Y617790D01*
X54500Y617402D01*
X56451Y617790D01*
X58105Y618895D01*
X59210Y620549D01*
X59598Y622500D01*
X59210Y624451D01*
X58105Y626105D01*
X56451Y627210D01*
X54500Y627598D01*
D02*
G37*
G36*
X202000Y632095D02*
X199128Y631717D01*
X196453Y630608D01*
X194155Y628845D01*
X192391Y626548D01*
X191283Y623872D01*
X190905Y621000D01*
X191283Y618128D01*
X192391Y615452D01*
X194155Y613155D01*
X196453Y611391D01*
X199128Y610283D01*
X202000Y609905D01*
X204872Y610283D01*
X207547Y611391D01*
X209845Y613155D01*
X211609Y615452D01*
X212717Y618128D01*
X213095Y621000D01*
X212717Y623872D01*
X211609Y626548D01*
X209845Y628845D01*
X207547Y630608D01*
X204872Y631717D01*
X202000Y632095D01*
D02*
G37*
G36*
X191000Y1191098D02*
X189049Y1190710D01*
X187395Y1189605D01*
X186290Y1187951D01*
X185902Y1186000D01*
X186290Y1184049D01*
X187395Y1182395D01*
X189049Y1181290D01*
X191000Y1180902D01*
X192951Y1181290D01*
X194605Y1182395D01*
X195710Y1184049D01*
X196098Y1186000D01*
X195710Y1187951D01*
X194605Y1189605D01*
X192951Y1190710D01*
X191000Y1191098D01*
D02*
G37*
G36*
X217000Y617098D02*
X215049Y616710D01*
X213395Y615605D01*
X212290Y613951D01*
X211902Y612000D01*
X212290Y610049D01*
X213395Y608395D01*
X215049Y607290D01*
X217000Y606902D01*
X218951Y607290D01*
X220605Y608395D01*
X221710Y610049D01*
X222098Y612000D01*
X221710Y613951D01*
X220605Y615605D01*
X218951Y616710D01*
X217000Y617098D01*
D02*
G37*
G36*
X143000Y628098D02*
X141049Y627710D01*
X139395Y626605D01*
X138290Y624951D01*
X137902Y623000D01*
X138290Y621049D01*
X139395Y619395D01*
X141049Y618290D01*
X143000Y617902D01*
X144951Y618290D01*
X146605Y619395D01*
X147710Y621049D01*
X148098Y623000D01*
X147710Y624951D01*
X146605Y626605D01*
X144951Y627710D01*
X143000Y628098D01*
D02*
G37*
G36*
X247000Y632098D02*
X245049Y631710D01*
X243395Y630605D01*
X242290Y628951D01*
X242276Y628881D01*
X241039Y628592D01*
X240845Y628845D01*
X238547Y630608D01*
X235872Y631717D01*
X233000Y632095D01*
X230128Y631717D01*
X227453Y630608D01*
X225155Y628845D01*
X223391Y626548D01*
X222283Y623872D01*
X221905Y621000D01*
X222283Y618128D01*
X223391Y615452D01*
X225155Y613155D01*
X227453Y611391D01*
X230128Y610283D01*
X233000Y609905D01*
X235872Y610283D01*
X238547Y611391D01*
X240845Y613155D01*
X242609Y615452D01*
X243717Y618128D01*
X244095Y621000D01*
X244020Y621566D01*
X245210Y622258D01*
X247000Y621902D01*
X248951Y622290D01*
X250605Y623395D01*
X251710Y625049D01*
X252098Y627000D01*
X251710Y628951D01*
X250605Y630605D01*
X248951Y631710D01*
X247000Y632098D01*
D02*
G37*
G36*
X364000Y638098D02*
X362049Y637710D01*
X360395Y636605D01*
X359290Y634951D01*
X358902Y633000D01*
X359277Y631114D01*
X359205Y631018D01*
X358088Y630426D01*
X358053Y630453D01*
X356472Y631108D01*
X354775Y631331D01*
X353078Y631108D01*
X351497Y630453D01*
X350139Y629411D01*
X349097Y628053D01*
X348442Y626472D01*
X348219Y624775D01*
X348442Y623078D01*
X349097Y621497D01*
X349448Y621040D01*
Y619576D01*
X348178Y618987D01*
X347278Y619678D01*
X345697Y620333D01*
X344000Y620556D01*
X342303Y620333D01*
X340722Y619678D01*
X339364Y618636D01*
X338322Y617278D01*
X337667Y615697D01*
X337444Y614000D01*
X337667Y612303D01*
X337990Y611524D01*
X334678Y608212D01*
X333691Y609022D01*
X333710Y609049D01*
X334098Y611000D01*
X333710Y612951D01*
X332605Y614605D01*
X330951Y615710D01*
X329000Y616098D01*
X327049Y615710D01*
X325395Y614605D01*
X324290Y612951D01*
X323902Y611000D01*
X324290Y609049D01*
X325395Y607395D01*
X327049Y606290D01*
X329000Y605902D01*
X330951Y606290D01*
X330978Y606309D01*
X331788Y605322D01*
X330568Y604102D01*
X216028D01*
X215278Y604678D01*
X213697Y605333D01*
X212000Y605556D01*
X210303Y605333D01*
X208722Y604678D01*
X207364Y603636D01*
X206322Y602278D01*
X205667Y600697D01*
X205444Y599000D01*
X205667Y597303D01*
X206322Y595722D01*
X207364Y594364D01*
X208722Y593322D01*
X210303Y592667D01*
X212000Y592444D01*
X213697Y592667D01*
X215278Y593322D01*
X215441Y593448D01*
X332775D01*
X334814Y593853D01*
X336542Y595008D01*
X347767Y606233D01*
X348178Y606848D01*
X349448Y606462D01*
Y601432D01*
X337105Y589089D01*
X215735D01*
X215278Y589440D01*
X213697Y590094D01*
X212000Y590318D01*
X210303Y590094D01*
X208722Y589440D01*
X207364Y588398D01*
X206322Y587040D01*
X205667Y585459D01*
X205444Y583762D01*
X205667Y582065D01*
X206322Y580484D01*
X207364Y579126D01*
X208722Y578084D01*
X210303Y577429D01*
X212000Y577206D01*
X213697Y577429D01*
X215278Y578084D01*
X215735Y578434D01*
X302443D01*
X302874Y577164D01*
X301155Y575845D01*
X299391Y573547D01*
X298283Y570872D01*
X297905Y568000D01*
X298283Y565128D01*
X299391Y562453D01*
X301155Y560155D01*
X303452Y558391D01*
X306128Y557283D01*
X309000Y556905D01*
X311872Y557283D01*
X314548Y558391D01*
X316845Y560155D01*
X318608Y562453D01*
X319717Y565128D01*
X320095Y568000D01*
X319717Y570872D01*
X318608Y573547D01*
X316845Y575845D01*
X315126Y577164D01*
X315557Y578434D01*
X335542D01*
X335795Y577164D01*
X334453Y576609D01*
X332155Y574845D01*
X330392Y572547D01*
X329283Y569872D01*
X328905Y567000D01*
X329283Y564128D01*
X330392Y561452D01*
X332155Y559155D01*
X334453Y557392D01*
X337128Y556283D01*
X340000Y555905D01*
X342872Y556283D01*
X345547Y557392D01*
X347845Y559155D01*
X349608Y561452D01*
X350717Y564128D01*
X351095Y567000D01*
X350717Y569872D01*
X349608Y572547D01*
X347845Y574845D01*
X345547Y576609D01*
X342872Y577717D01*
X342106Y577818D01*
X341798Y579139D01*
X343079Y579995D01*
X358542Y595458D01*
X359697Y597186D01*
X360102Y599225D01*
Y621040D01*
X360453Y621497D01*
X361108Y623078D01*
X361331Y624775D01*
X361108Y626472D01*
X360581Y627744D01*
X361524Y628641D01*
X362049Y628290D01*
X364000Y627902D01*
X365951Y628290D01*
X367605Y629395D01*
X368710Y631049D01*
X369098Y633000D01*
X368710Y634951D01*
X367605Y636605D01*
X365951Y637710D01*
X364000Y638098D01*
D02*
G37*
G36*
X313000Y633098D02*
X311049Y632710D01*
X309395Y631605D01*
X308290Y629951D01*
X307902Y628000D01*
X308290Y626049D01*
X309395Y624395D01*
X311049Y623290D01*
X313000Y622902D01*
X314951Y623290D01*
X316605Y624395D01*
X317710Y626049D01*
X318098Y628000D01*
X317710Y629951D01*
X316605Y631605D01*
X314951Y632710D01*
X313000Y633098D01*
D02*
G37*
G36*
X275000Y628098D02*
X273049Y627710D01*
X271395Y626605D01*
X270290Y624951D01*
X269902Y623000D01*
X270290Y621049D01*
X271395Y619395D01*
X273049Y618290D01*
X275000Y617902D01*
X276951Y618290D01*
X278605Y619395D01*
X279710Y621049D01*
X280098Y623000D01*
X279710Y624951D01*
X278605Y626605D01*
X276951Y627710D01*
X275000Y628098D01*
D02*
G37*
G36*
X444750Y629348D02*
X442799Y628960D01*
X441145Y627855D01*
X440040Y626201D01*
X439652Y624250D01*
X440040Y622299D01*
X441145Y620645D01*
X442799Y619540D01*
X444750Y619152D01*
X446701Y619540D01*
X448355Y620645D01*
X449460Y622299D01*
X449848Y624250D01*
X449460Y626201D01*
X448355Y627855D01*
X446701Y628960D01*
X444750Y629348D01*
D02*
G37*
G36*
X452250Y689098D02*
X450299Y688710D01*
X448645Y687605D01*
X447540Y685951D01*
X447152Y684000D01*
X447540Y682049D01*
X448645Y680395D01*
X450299Y679290D01*
X452250Y678902D01*
X454201Y679290D01*
X455855Y680395D01*
X456960Y682049D01*
X457348Y684000D01*
X456960Y685951D01*
X455855Y687605D01*
X454201Y688710D01*
X452250Y689098D01*
D02*
G37*
G36*
X227000Y742098D02*
X225049Y741710D01*
X223395Y740605D01*
X222290Y738951D01*
X221902Y737000D01*
X222290Y735049D01*
X223395Y733395D01*
X225049Y732290D01*
X227000Y731902D01*
X228951Y732290D01*
X230605Y733395D01*
X231710Y735049D01*
X232098Y737000D01*
X231710Y738951D01*
X230605Y740605D01*
X228951Y741710D01*
X227000Y742098D01*
D02*
G37*
G36*
X288000Y743098D02*
X286049Y742710D01*
X284395Y741605D01*
X283290Y739951D01*
X282902Y738000D01*
X283290Y736049D01*
X284395Y734395D01*
X286049Y733290D01*
X288000Y732902D01*
X289951Y733290D01*
X291605Y734395D01*
X292710Y736049D01*
X293098Y738000D01*
X292710Y739951D01*
X291605Y741605D01*
X289951Y742710D01*
X288000Y743098D01*
D02*
G37*
G36*
X162000Y736098D02*
X160049Y735710D01*
X158395Y734605D01*
X157290Y732951D01*
X156902Y731000D01*
X157290Y729049D01*
X158395Y727395D01*
X160049Y726290D01*
X162000Y725902D01*
X163951Y726290D01*
X165605Y727395D01*
X166710Y729049D01*
X167098Y731000D01*
X166710Y732951D01*
X165605Y734605D01*
X163951Y735710D01*
X162000Y736098D01*
D02*
G37*
G36*
X347500Y758056D02*
X345803Y757833D01*
X344222Y757178D01*
X342864Y756136D01*
X341822Y754778D01*
X341167Y753197D01*
X340944Y751500D01*
X341167Y749803D01*
X341822Y748222D01*
X342864Y746864D01*
X344222Y745822D01*
X345803Y745167D01*
X347500Y744944D01*
X349197Y745167D01*
X350778Y745822D01*
X351235Y746173D01*
X353302D01*
X353670Y745531D01*
X353818Y744903D01*
X352897Y743703D01*
X352242Y742122D01*
X352019Y740425D01*
X352242Y738728D01*
X352897Y737147D01*
X353939Y735789D01*
X355297Y734747D01*
X356878Y734092D01*
X358575Y733869D01*
X360272Y734092D01*
X361853Y734747D01*
X362310Y735098D01*
X366368D01*
X374673Y726793D01*
Y717087D01*
X373403Y716408D01*
X372951Y716710D01*
X371000Y717098D01*
X369049Y716710D01*
X367395Y715605D01*
X366290Y713951D01*
X365902Y712000D01*
X366290Y710049D01*
X367395Y708395D01*
X369049Y707290D01*
X371000Y706902D01*
X372951Y707290D01*
X373403Y707592D01*
X374673Y706913D01*
Y561207D01*
X348874Y535408D01*
X348303Y535333D01*
X346722Y534678D01*
X345364Y533636D01*
X344322Y532278D01*
X343667Y530697D01*
X343444Y529000D01*
X343667Y527303D01*
X344322Y525722D01*
X345364Y524364D01*
X346722Y523322D01*
X348303Y522667D01*
X350000Y522444D01*
X351697Y522667D01*
X353278Y523322D01*
X354636Y524364D01*
X355678Y525722D01*
X356333Y527303D01*
X356408Y527874D01*
X383767Y555233D01*
X384922Y556961D01*
X385327Y559000D01*
Y560751D01*
X386597Y560835D01*
X386667Y560303D01*
X387322Y558722D01*
X388364Y557364D01*
X389722Y556322D01*
X391303Y555667D01*
X393000Y555444D01*
X394697Y555667D01*
X396278Y556322D01*
X397636Y557364D01*
X398678Y558722D01*
X399333Y560303D01*
X399556Y562000D01*
X399333Y563697D01*
X398678Y565278D01*
X398327Y565735D01*
Y646975D01*
X399505Y647726D01*
X399597Y647713D01*
X400645Y646145D01*
X402299Y645040D01*
X404250Y644652D01*
X405501Y644901D01*
X405652Y644750D01*
X406040Y642799D01*
X407145Y641145D01*
X408799Y640040D01*
X410750Y639652D01*
X411555Y638517D01*
X411402Y637750D01*
X411790Y635799D01*
X412895Y634145D01*
X414549Y633040D01*
X416500Y632652D01*
X418451Y633040D01*
X420105Y634145D01*
X421210Y635799D01*
X421598Y637750D01*
X421210Y639701D01*
X420105Y641355D01*
X418451Y642460D01*
X416500Y642848D01*
X415695Y643983D01*
X415848Y644750D01*
X415460Y646701D01*
X414355Y648355D01*
X412701Y649460D01*
X410750Y649848D01*
X409499Y649599D01*
X409348Y649750D01*
X408960Y651701D01*
X407855Y653355D01*
X406201Y654460D01*
X405849Y654530D01*
X405581Y655878D01*
X406355Y656395D01*
X407460Y658049D01*
X407848Y660000D01*
X407460Y661951D01*
X406355Y663605D01*
X404701Y664710D01*
X402750Y665098D01*
X400799Y664710D01*
X399597Y663907D01*
X398327Y664493D01*
Y675426D01*
X399447Y676025D01*
X399799Y675790D01*
X401750Y675402D01*
X403701Y675790D01*
X405355Y676895D01*
X405365Y676910D01*
X406635D01*
X406645Y676895D01*
X408299Y675790D01*
X410250Y675402D01*
X412201Y675790D01*
X413855Y676895D01*
X414960Y678549D01*
X415348Y680500D01*
X414960Y682451D01*
X413855Y684105D01*
X412201Y685210D01*
X410250Y685598D01*
X408299Y685210D01*
X406645Y684105D01*
X406635Y684090D01*
X405365D01*
X405355Y684105D01*
X403701Y685210D01*
X401750Y685598D01*
X399799Y685210D01*
X399447Y684975D01*
X398327Y685574D01*
Y734000D01*
X397922Y736039D01*
X396767Y737767D01*
X379267Y755267D01*
X377539Y756422D01*
X375500Y756827D01*
X351235D01*
X350778Y757178D01*
X349197Y757833D01*
X347500Y758056D01*
D02*
G37*
G36*
X209000Y735098D02*
X207049Y734710D01*
X205395Y733605D01*
X204290Y731951D01*
X203902Y730000D01*
X204290Y728049D01*
X205395Y726395D01*
X207049Y725290D01*
X209000Y724902D01*
X210951Y725290D01*
X212605Y726395D01*
X213710Y728049D01*
X214098Y730000D01*
X213710Y731951D01*
X212605Y733605D01*
X210951Y734710D01*
X209000Y735098D01*
D02*
G37*
G36*
X268000Y742098D02*
X266049Y741710D01*
X264395Y740605D01*
X263290Y738951D01*
X263147Y738234D01*
X261853D01*
X261710Y738951D01*
X260605Y740605D01*
X258951Y741710D01*
X257000Y742098D01*
X255049Y741710D01*
X253395Y740605D01*
X252290Y738951D01*
X251902Y737000D01*
X252290Y735049D01*
X253395Y733395D01*
X255049Y732290D01*
X257000Y731902D01*
X258951Y732290D01*
X260605Y733395D01*
X261710Y735049D01*
X261853Y735766D01*
X263147D01*
X263290Y735049D01*
X264395Y733395D01*
X266049Y732290D01*
X268000Y731902D01*
X269951Y732290D01*
X271605Y733395D01*
X272710Y735049D01*
X273098Y737000D01*
X272710Y738951D01*
X271605Y740605D01*
X269951Y741710D01*
X268000Y742098D01*
D02*
G37*
G36*
X288000Y764098D02*
X286049Y763710D01*
X284395Y762605D01*
X283290Y760951D01*
X282902Y759000D01*
X283290Y757049D01*
X284395Y755395D01*
X286049Y754290D01*
X288000Y753902D01*
X289951Y754290D01*
X291605Y755395D01*
X292710Y757049D01*
X293098Y759000D01*
X292710Y760951D01*
X291605Y762605D01*
X289951Y763710D01*
X288000Y764098D01*
D02*
G37*
G36*
X394500Y779348D02*
X392549Y778960D01*
X390895Y777855D01*
X389790Y776201D01*
X389402Y774250D01*
X389790Y772299D01*
X390895Y770645D01*
X392549Y769540D01*
X394500Y769152D01*
X396451Y769540D01*
X398105Y770645D01*
X398127D01*
X398561Y769996D01*
X400215Y768891D01*
X402166Y768503D01*
X404117Y768891D01*
X405635Y769905D01*
X406096Y770041D01*
X406776D01*
X407238Y769905D01*
X408755Y768891D01*
X410706Y768503D01*
X412657Y768891D01*
X414175Y769905D01*
X414636Y770041D01*
X415316D01*
X415778Y769905D01*
X417295Y768891D01*
X419246Y768503D01*
X421197Y768891D01*
X422715Y769905D01*
X423176Y770041D01*
X423856D01*
X424318Y769905D01*
X425835Y768891D01*
X427786Y768503D01*
X429737Y768891D01*
X431255Y769905D01*
X431716Y770041D01*
X432396D01*
X432858Y769905D01*
X434375Y768891D01*
X436326Y768503D01*
X438277Y768891D01*
X439795Y769905D01*
X440256Y770041D01*
X440936D01*
X441398Y769905D01*
X442915Y768891D01*
X444866Y768503D01*
X446817Y768891D01*
X448471Y769996D01*
X449576Y771650D01*
X449964Y773601D01*
X449576Y775552D01*
X448471Y777205D01*
X446817Y778310D01*
X444866Y778699D01*
X442915Y778310D01*
X441398Y777296D01*
X440936Y777160D01*
X440256D01*
X439795Y777296D01*
X438277Y778310D01*
X436326Y778699D01*
X434375Y778310D01*
X432858Y777296D01*
X432396Y777160D01*
X431716D01*
X431255Y777296D01*
X429737Y778310D01*
X427786Y778699D01*
X425835Y778310D01*
X424318Y777296D01*
X423856Y777160D01*
X423176D01*
X422715Y777296D01*
X421197Y778310D01*
X419246Y778699D01*
X417295Y778310D01*
X415778Y777296D01*
X415316Y777160D01*
X414636D01*
X414175Y777296D01*
X412657Y778310D01*
X410706Y778699D01*
X408755Y778310D01*
X407238Y777296D01*
X406776Y777160D01*
X406096D01*
X405635Y777296D01*
X404117Y778310D01*
X402166Y778699D01*
X400215Y778310D01*
X398561Y777205D01*
X398539D01*
X398105Y777855D01*
X396451Y778960D01*
X394500Y779348D01*
D02*
G37*
G36*
X255000Y770095D02*
X252128Y769717D01*
X249453Y768608D01*
X247155Y766845D01*
X245392Y764547D01*
X244283Y761872D01*
X243905Y759000D01*
X244283Y756128D01*
X245392Y753453D01*
X247155Y751155D01*
X249453Y749391D01*
X252128Y748283D01*
X255000Y747905D01*
X257872Y748283D01*
X260547Y749391D01*
X262845Y751155D01*
X264608Y753453D01*
X265717Y756128D01*
X266095Y759000D01*
X265717Y761872D01*
X264608Y764547D01*
X262845Y766845D01*
X260547Y768608D01*
X257872Y769717D01*
X255000Y770095D01*
D02*
G37*
G36*
X209000Y749098D02*
X207049Y748710D01*
X205395Y747605D01*
X204290Y745951D01*
X203902Y744000D01*
X204290Y742049D01*
X205395Y740395D01*
X207049Y739290D01*
X209000Y738902D01*
X210951Y739290D01*
X212605Y740395D01*
X213710Y742049D01*
X214098Y744000D01*
X213710Y745951D01*
X212605Y747605D01*
X210951Y748710D01*
X209000Y749098D01*
D02*
G37*
G36*
X225000Y770095D02*
X222128Y769717D01*
X219453Y768608D01*
X217155Y766845D01*
X215392Y764547D01*
X214283Y761872D01*
X213905Y759000D01*
X214283Y756128D01*
X215392Y753453D01*
X217155Y751155D01*
X219453Y749391D01*
X222128Y748283D01*
X225000Y747905D01*
X227872Y748283D01*
X230547Y749391D01*
X232845Y751155D01*
X234608Y753453D01*
X235717Y756128D01*
X236095Y759000D01*
X235717Y761872D01*
X234608Y764547D01*
X232845Y766845D01*
X230547Y768608D01*
X227872Y769717D01*
X225000Y770095D01*
D02*
G37*
G36*
X30000Y750106D02*
X25687Y749682D01*
X21540Y748424D01*
X17718Y746381D01*
X14368Y743632D01*
X11619Y740282D01*
X9576Y736460D01*
X8318Y732313D01*
X7894Y728000D01*
X8318Y723687D01*
X9576Y719540D01*
X11619Y715718D01*
X14368Y712368D01*
X17718Y709619D01*
X21540Y707576D01*
X25687Y706318D01*
X30000Y705894D01*
X34313Y706318D01*
X38460Y707576D01*
X42282Y709619D01*
X45632Y712368D01*
X48381Y715718D01*
X50424Y719540D01*
X51682Y723687D01*
X52106Y728000D01*
X51682Y732313D01*
X50424Y736460D01*
X48381Y740282D01*
X45632Y743632D01*
X42282Y746381D01*
X38460Y748424D01*
X34313Y749682D01*
X30000Y750106D01*
D02*
G37*
G36*
X470000D02*
X465687Y749682D01*
X461540Y748424D01*
X457718Y746381D01*
X454368Y743632D01*
X451619Y740282D01*
X449576Y736460D01*
X448318Y732313D01*
X447894Y728000D01*
X448318Y723687D01*
X449576Y719540D01*
X451619Y715718D01*
X454368Y712368D01*
X457718Y709619D01*
X461540Y707576D01*
X465687Y706318D01*
X470000Y705894D01*
X474313Y706318D01*
X478460Y707576D01*
X482282Y709619D01*
X485632Y712368D01*
X488381Y715718D01*
X490424Y719540D01*
X491682Y723687D01*
X492106Y728000D01*
X491682Y732313D01*
X490424Y736460D01*
X488381Y740282D01*
X485632Y743632D01*
X482282Y746381D01*
X478460Y748424D01*
X474313Y749682D01*
X470000Y750106D01*
D02*
G37*
G36*
X197000Y715098D02*
X195049Y714710D01*
X193395Y713605D01*
X192290Y711951D01*
X191902Y710000D01*
X192290Y708049D01*
X193395Y706395D01*
X193785Y706135D01*
Y704865D01*
X193395Y704605D01*
X192290Y702951D01*
X191902Y701000D01*
X192290Y699049D01*
X193395Y697395D01*
X195049Y696290D01*
X197000Y695902D01*
X198951Y696290D01*
X200605Y697395D01*
X201710Y699049D01*
X202098Y701000D01*
X201710Y702951D01*
X200605Y704605D01*
X200215Y704865D01*
Y706135D01*
X200605Y706395D01*
X201710Y708049D01*
X202098Y710000D01*
X201710Y711951D01*
X200605Y713605D01*
X198951Y714710D01*
X197000Y715098D01*
D02*
G37*
G36*
X54250Y699598D02*
X52299Y699210D01*
X50645Y698105D01*
X49540Y696451D01*
X49152Y694500D01*
X49540Y692549D01*
X50645Y690895D01*
X52299Y689790D01*
X54250Y689402D01*
X56201Y689790D01*
X57855Y690895D01*
X58960Y692549D01*
X59348Y694500D01*
X58960Y696451D01*
X57855Y698105D01*
X56201Y699210D01*
X54250Y699598D01*
D02*
G37*
G36*
X444750Y704098D02*
X442799Y703710D01*
X441145Y702605D01*
X440040Y700951D01*
X439652Y699000D01*
X440040Y697049D01*
X441145Y695395D01*
X442799Y694290D01*
X444750Y693902D01*
X446701Y694290D01*
X448355Y695395D01*
X449460Y697049D01*
X449848Y699000D01*
X449460Y700951D01*
X448355Y702605D01*
X446701Y703710D01*
X444750Y704098D01*
D02*
G37*
G36*
X119750Y696598D02*
X117799Y696210D01*
X116145Y695105D01*
X115040Y693451D01*
X114652Y691500D01*
X115040Y689549D01*
X116145Y687895D01*
X117799Y686790D01*
X119750Y686402D01*
X121701Y686790D01*
X123355Y687895D01*
X124460Y689549D01*
X124848Y691500D01*
X124460Y693451D01*
X123355Y695105D01*
X121701Y696210D01*
X119750Y696598D01*
D02*
G37*
G36*
X416500Y716598D02*
X414549Y716210D01*
X413174Y715291D01*
X412105Y714605D01*
X410451Y715710D01*
X408500Y716098D01*
X406549Y715710D01*
X404895Y714605D01*
X403790Y712951D01*
X403402Y711000D01*
X403790Y709049D01*
X404895Y707395D01*
X406549Y706290D01*
X408500Y705902D01*
X410451Y706290D01*
X411826Y707209D01*
X412895Y707895D01*
X414549Y706790D01*
X416500Y706402D01*
X418451Y706790D01*
X420105Y707895D01*
X421210Y709549D01*
X421598Y711500D01*
X421210Y713451D01*
X420105Y715105D01*
X418451Y716210D01*
X416500Y716598D01*
D02*
G37*
G36*
X442267Y1171497D02*
X440316Y1171109D01*
X438798Y1170095D01*
X438337Y1169959D01*
X437656D01*
X437195Y1170095D01*
X435677Y1171109D01*
X433727Y1171497D01*
X431776Y1171109D01*
X430258Y1170095D01*
X429797Y1169959D01*
X429116D01*
X428655Y1170095D01*
X427138Y1171109D01*
X425187Y1171497D01*
X423236Y1171109D01*
X421718Y1170095D01*
X421257Y1169959D01*
X420577D01*
X420115Y1170095D01*
X418598Y1171109D01*
X416647Y1171497D01*
X414696Y1171109D01*
X413178Y1170095D01*
X412717Y1169959D01*
X412037D01*
X411575Y1170095D01*
X410058Y1171109D01*
X408107Y1171497D01*
X406156Y1171109D01*
X404638Y1170095D01*
X404177Y1169959D01*
X403497D01*
X403035Y1170095D01*
X401518Y1171109D01*
X399567Y1171497D01*
X397616Y1171109D01*
X396098Y1170095D01*
X395637Y1169959D01*
X394957D01*
X394495Y1170095D01*
X392978Y1171109D01*
X391027Y1171497D01*
X389076Y1171109D01*
X387558Y1170095D01*
X387097Y1169959D01*
X386417D01*
X385955Y1170095D01*
X384438Y1171109D01*
X382487Y1171497D01*
X380536Y1171109D01*
X379018Y1170095D01*
X378557Y1169959D01*
X377877D01*
X377415Y1170095D01*
X375898Y1171109D01*
X373947Y1171497D01*
X371996Y1171109D01*
X370478Y1170095D01*
X370017Y1169959D01*
X369337D01*
X368875Y1170095D01*
X367358Y1171109D01*
X365407Y1171497D01*
X363456Y1171109D01*
X361938Y1170095D01*
X361477Y1169959D01*
X360797D01*
X360335Y1170095D01*
X358818Y1171109D01*
X356867Y1171497D01*
X354916Y1171109D01*
X353398Y1170095D01*
X352937Y1169959D01*
X352257D01*
X351795Y1170095D01*
X350278Y1171109D01*
X348327Y1171497D01*
X346376Y1171109D01*
X344858Y1170095D01*
X344397Y1169959D01*
X343717D01*
X343255Y1170095D01*
X341738Y1171109D01*
X339787Y1171497D01*
X337836Y1171109D01*
X336182Y1170004D01*
X335077Y1168350D01*
X334689Y1166399D01*
X335077Y1164448D01*
X336182Y1162795D01*
X337836Y1161690D01*
X339787Y1161301D01*
X341738Y1161690D01*
X343255Y1162704D01*
X343717Y1162840D01*
X344397D01*
X344858Y1162704D01*
X346376Y1161690D01*
X348327Y1161301D01*
X350278Y1161690D01*
X351795Y1162704D01*
X352257Y1162840D01*
X352937D01*
X353398Y1162704D01*
X354916Y1161690D01*
X356867Y1161301D01*
X358818Y1161690D01*
X360335Y1162704D01*
X360797Y1162840D01*
X361477D01*
X361938Y1162704D01*
X363456Y1161690D01*
X365407Y1161301D01*
X367358Y1161690D01*
X368875Y1162704D01*
X369337Y1162840D01*
X370017D01*
X370478Y1162704D01*
X371996Y1161690D01*
X373947Y1161301D01*
X375898Y1161690D01*
X377415Y1162704D01*
X377877Y1162840D01*
X378557D01*
X379018Y1162704D01*
X380536Y1161690D01*
X382487Y1161301D01*
X384438Y1161690D01*
X385955Y1162704D01*
X386417Y1162840D01*
X387097D01*
X387558Y1162704D01*
X389076Y1161690D01*
X391027Y1161301D01*
X392978Y1161690D01*
X394495Y1162704D01*
X394957Y1162840D01*
X395637D01*
X396098Y1162704D01*
X397616Y1161690D01*
X399567Y1161301D01*
X401518Y1161690D01*
X403035Y1162704D01*
X403497Y1162840D01*
X404177D01*
X404638Y1162704D01*
X406156Y1161690D01*
X408107Y1161301D01*
X410058Y1161690D01*
X411575Y1162704D01*
X412037Y1162840D01*
X412717D01*
X413178Y1162704D01*
X414696Y1161690D01*
X416647Y1161301D01*
X418598Y1161690D01*
X420115Y1162704D01*
X420577Y1162840D01*
X421257D01*
X421718Y1162704D01*
X423236Y1161690D01*
X425187Y1161301D01*
X427138Y1161690D01*
X428655Y1162704D01*
X429116Y1162840D01*
X429797D01*
X430258Y1162704D01*
X431776Y1161690D01*
X433727Y1161301D01*
X435677Y1161690D01*
X437195Y1162704D01*
X437656Y1162840D01*
X438337D01*
X438798Y1162704D01*
X440316Y1161690D01*
X442267Y1161301D01*
X444217Y1161690D01*
X445871Y1162795D01*
X446977Y1164448D01*
X447365Y1166399D01*
X446977Y1168350D01*
X445871Y1170004D01*
X444217Y1171109D01*
X442267Y1171497D01*
D02*
G37*
G36*
X296000Y721098D02*
X294049Y720710D01*
X292395Y719605D01*
X291290Y717951D01*
X290902Y716000D01*
X291290Y714049D01*
X292395Y712395D01*
X294049Y711290D01*
X296000Y710902D01*
X297951Y711290D01*
X299605Y712395D01*
X300710Y714049D01*
X301098Y716000D01*
X300710Y717951D01*
X299605Y719605D01*
X297951Y720710D01*
X296000Y721098D01*
D02*
G37*
G36*
X271400Y707338D02*
X269644Y706989D01*
X268225Y706041D01*
X266806Y706989D01*
X265050Y707338D01*
X263294Y706989D01*
X261875Y706041D01*
X260456Y706989D01*
X258700Y707338D01*
X256944Y706989D01*
X255525Y706041D01*
X254106Y706989D01*
X252350Y707338D01*
X250594Y706989D01*
X249175Y706041D01*
X247756Y706989D01*
X246000Y707338D01*
X244244Y706989D01*
X242825Y706041D01*
X241406Y706989D01*
X239650Y707338D01*
X237894Y706989D01*
X236475Y706041D01*
X235056Y706989D01*
X233300Y707338D01*
X231544Y706989D01*
X230125Y706041D01*
X228706Y706989D01*
X226950Y707338D01*
X225194Y706989D01*
X223706Y705994D01*
X222711Y704506D01*
X222362Y702750D01*
X222711Y700994D01*
X223659Y699575D01*
X222711Y698156D01*
X222362Y696400D01*
X222711Y694644D01*
X223659Y693225D01*
X222711Y691806D01*
X222362Y690050D01*
X222711Y688294D01*
X223659Y686875D01*
X222711Y685456D01*
X222362Y683700D01*
X222711Y681944D01*
X223659Y680525D01*
X222711Y679106D01*
X222362Y677350D01*
X222711Y675594D01*
X223659Y674175D01*
X222711Y672756D01*
X222362Y671000D01*
X222711Y669244D01*
X223659Y667825D01*
X222711Y666406D01*
X222362Y664650D01*
X222711Y662894D01*
X223659Y661475D01*
X222711Y660056D01*
X222362Y658300D01*
X222711Y656544D01*
X223706Y655056D01*
X225194Y654061D01*
X226950Y653712D01*
X228706Y654061D01*
X230125Y655009D01*
X231544Y654061D01*
X233300Y653712D01*
X235056Y654061D01*
X236475Y655009D01*
X237894Y654061D01*
X239650Y653712D01*
X241406Y654061D01*
X242825Y655009D01*
X244244Y654061D01*
X246000Y653712D01*
X247756Y654061D01*
X249175Y655009D01*
X250594Y654061D01*
X252350Y653712D01*
X254106Y654061D01*
X255525Y655009D01*
X256944Y654061D01*
X258700Y653712D01*
X260456Y654061D01*
X261875Y655009D01*
X263294Y654061D01*
X265050Y653712D01*
X266806Y654061D01*
X268225Y655009D01*
X269644Y654061D01*
X271400Y653712D01*
X273156Y654061D01*
X274644Y655056D01*
X275639Y656544D01*
X275988Y658300D01*
X275639Y660056D01*
X274691Y661475D01*
X275639Y662894D01*
X275988Y664650D01*
X275639Y666406D01*
X274691Y667825D01*
X275639Y669244D01*
X275988Y671000D01*
X275639Y672756D01*
X274691Y674175D01*
X275639Y675594D01*
X275988Y677350D01*
X275639Y679106D01*
X274691Y680525D01*
X275639Y681944D01*
X275988Y683700D01*
X275639Y685456D01*
X274691Y686875D01*
X275639Y688294D01*
X275988Y690050D01*
X275639Y691806D01*
X274691Y693225D01*
X275639Y694644D01*
X275988Y696400D01*
X275639Y698156D01*
X274691Y699575D01*
X275639Y700994D01*
X275988Y702750D01*
X275639Y704506D01*
X274644Y705994D01*
X273156Y706989D01*
X271400Y707338D01*
D02*
G37*
G36*
X347500Y716848D02*
X345549Y716460D01*
X343895Y715355D01*
X342790Y713701D01*
X342402Y711750D01*
X342790Y709799D01*
X343895Y708145D01*
X345549Y707040D01*
X347500Y706652D01*
X349451Y707040D01*
X351105Y708145D01*
X352210Y709799D01*
X352598Y711750D01*
X352210Y713701D01*
X351105Y715355D01*
X349451Y716460D01*
X347500Y716848D01*
D02*
G37*
%LPD*%
G36*
X387673Y731793D02*
Y565735D01*
X387322Y565278D01*
X386667Y563697D01*
X386597Y563165D01*
X385327Y563249D01*
Y729000D01*
X384922Y731039D01*
X383767Y732767D01*
X372342Y744192D01*
X371278Y744903D01*
X371664Y746173D01*
X373293D01*
X387673Y731793D01*
D02*
G37*
%LPC*%
G36*
X288000Y385098D02*
X286049Y384710D01*
X284395Y383605D01*
X283290Y381951D01*
X282902Y380000D01*
X283290Y378049D01*
X284395Y376395D01*
X286049Y375290D01*
X288000Y374902D01*
X289951Y375290D01*
X291605Y376395D01*
X292710Y378049D01*
X293098Y380000D01*
X292710Y381951D01*
X291605Y383605D01*
X289951Y384710D01*
X288000Y385098D01*
D02*
G37*
G36*
X328000Y421098D02*
X326049Y420710D01*
X324395Y419605D01*
X323290Y417951D01*
X322902Y416000D01*
X323290Y414049D01*
X324395Y412395D01*
X326049Y411290D01*
X328000Y410902D01*
X329951Y411290D01*
X331605Y412395D01*
X332710Y414049D01*
X333098Y416000D01*
X332710Y417951D01*
X331605Y419605D01*
X329951Y420710D01*
X328000Y421098D01*
D02*
G37*
G36*
X137000Y407098D02*
X135049Y406710D01*
X133395Y405605D01*
X132290Y403951D01*
X131902Y402000D01*
X132290Y400049D01*
X133395Y398395D01*
X135049Y397290D01*
X137000Y396902D01*
X138951Y397290D01*
X140605Y398395D01*
X141710Y400049D01*
X142098Y402000D01*
X141710Y403951D01*
X140605Y405605D01*
X138951Y406710D01*
X137000Y407098D01*
D02*
G37*
G36*
X170000Y325097D02*
X168049Y324709D01*
X166395Y323604D01*
X165290Y321950D01*
X164902Y319999D01*
X165290Y318048D01*
X166395Y316395D01*
X168049Y315289D01*
X170000Y314901D01*
X171065Y313818D01*
X170902Y313000D01*
X171290Y311049D01*
X170459Y310007D01*
X170000Y310098D01*
X168049Y309710D01*
X166395Y308605D01*
X165290Y306951D01*
X164902Y305000D01*
X165290Y303049D01*
X166395Y301395D01*
X168049Y300290D01*
X170000Y299902D01*
X171951Y300290D01*
X173605Y301395D01*
X174710Y303049D01*
X175098Y305000D01*
X174710Y306951D01*
X175541Y307993D01*
X176000Y307902D01*
X177951Y308290D01*
X179605Y309395D01*
X180710Y311049D01*
X181098Y313000D01*
X180710Y314951D01*
X179605Y316605D01*
X177951Y317710D01*
X176000Y318098D01*
X174935Y319181D01*
X175098Y319999D01*
X174710Y321950D01*
X173605Y323604D01*
X171951Y324709D01*
X170000Y325097D01*
D02*
G37*
G36*
X283000Y322098D02*
X281049Y321710D01*
X279395Y320605D01*
X278290Y318951D01*
X277902Y317000D01*
X278290Y315049D01*
X279395Y313395D01*
X281049Y312290D01*
X283000Y311902D01*
X284951Y312290D01*
X286605Y313395D01*
X287710Y315049D01*
X288098Y317000D01*
X287710Y318951D01*
X286605Y320605D01*
X284951Y321710D01*
X283000Y322098D01*
D02*
G37*
G36*
X328000Y325098D02*
X326049Y324710D01*
X324395Y323605D01*
X323290Y321951D01*
X322902Y320000D01*
X323290Y318049D01*
X324395Y316395D01*
X326049Y315290D01*
X328000Y314902D01*
X329951Y315290D01*
X331605Y316395D01*
X332710Y318049D01*
X333098Y320000D01*
X332710Y321951D01*
X331605Y323605D01*
X329951Y324710D01*
X328000Y325098D01*
D02*
G37*
G36*
X384279Y315598D02*
X382328Y315210D01*
X380674Y314105D01*
X379569Y312451D01*
X379181Y310500D01*
X379569Y308549D01*
X380674Y306895D01*
X382328Y305790D01*
X384279Y305402D01*
X386230Y305790D01*
X387884Y306895D01*
X388989Y308549D01*
X389377Y310500D01*
X388989Y312451D01*
X387884Y314105D01*
X386230Y315210D01*
X384279Y315598D01*
D02*
G37*
G36*
X349000Y316098D02*
X347049Y315710D01*
X345395Y314605D01*
X344290Y312951D01*
X343902Y311000D01*
X344290Y309049D01*
X345395Y307395D01*
X347049Y306290D01*
X349000Y305902D01*
X350951Y306290D01*
X352605Y307395D01*
X353710Y309049D01*
X354098Y311000D01*
X353710Y312951D01*
X352605Y314605D01*
X350951Y315710D01*
X349000Y316098D01*
D02*
G37*
G36*
X300000Y355098D02*
X298049Y354710D01*
X296905Y353945D01*
X296000Y353708D01*
X295095Y353945D01*
X293951Y354710D01*
X292000Y355098D01*
X290049Y354710D01*
X288395Y353605D01*
X287290Y351951D01*
X286902Y350000D01*
X287290Y348049D01*
X288395Y346395D01*
X290049Y345290D01*
X292000Y344902D01*
X293951Y345290D01*
X295095Y346055D01*
X296000Y346292D01*
X296905Y346055D01*
X298049Y345290D01*
X300000Y344902D01*
X301951Y345290D01*
X303605Y346395D01*
X304710Y348049D01*
X305098Y350000D01*
X304710Y351951D01*
X303605Y353605D01*
X301951Y354710D01*
X300000Y355098D01*
D02*
G37*
G36*
X362000Y371098D02*
X360049Y370710D01*
X358395Y369605D01*
X357290Y367951D01*
X356902Y366000D01*
X357290Y364049D01*
X358395Y362395D01*
X360049Y361290D01*
X362000Y360902D01*
X363951Y361290D01*
X365605Y362395D01*
X366710Y364049D01*
X367098Y366000D01*
X366710Y367951D01*
X365605Y369605D01*
X363951Y370710D01*
X362000Y371098D01*
D02*
G37*
G36*
X215000Y331098D02*
X213049Y330710D01*
X211395Y329605D01*
X210290Y327951D01*
X209902Y326000D01*
X210290Y324049D01*
X211395Y322395D01*
X213049Y321290D01*
X215000Y320902D01*
X216951Y321290D01*
X218605Y322395D01*
X219710Y324049D01*
X220098Y326000D01*
X219710Y327951D01*
X218605Y329605D01*
X216951Y330710D01*
X215000Y331098D01*
D02*
G37*
G36*
X349000Y334098D02*
X347049Y333710D01*
X345395Y332605D01*
X344290Y330951D01*
X343902Y329000D01*
X344290Y327049D01*
X345395Y325395D01*
X347049Y324290D01*
X349000Y323902D01*
X350951Y324290D01*
X352605Y325395D01*
X353710Y327049D01*
X354098Y329000D01*
X353710Y330951D01*
X352605Y332605D01*
X350951Y333710D01*
X349000Y334098D01*
D02*
G37*
G36*
X327000Y337098D02*
X325049Y336710D01*
X323395Y335605D01*
X323287Y335443D01*
X323285Y335442D01*
X323230Y335413D01*
X323158Y335384D01*
X323068Y335356D01*
X322955Y335331D01*
X322846Y335314D01*
X314000D01*
X312732Y335061D01*
X311657Y334343D01*
X246447Y269133D01*
X244812Y269294D01*
X244604Y269604D01*
X242950Y270709D01*
X241000Y271097D01*
X239049Y270709D01*
X238366Y270253D01*
X236628Y270569D01*
X236604Y270604D01*
X234950Y271709D01*
X232999Y272097D01*
X231049Y271709D01*
X229395Y270604D01*
X228290Y268950D01*
X227902Y266999D01*
X227940Y266808D01*
X227939Y266806D01*
X227920Y266747D01*
X227890Y266676D01*
X227846Y266593D01*
X227784Y266494D01*
X227719Y266406D01*
X223657Y262343D01*
X222939Y261268D01*
X222686Y260000D01*
Y228154D01*
X222670Y228045D01*
X222644Y227932D01*
X222616Y227842D01*
X222587Y227770D01*
X222558Y227715D01*
X222557Y227713D01*
X222395Y227605D01*
X221290Y225951D01*
X220902Y224000D01*
X221290Y222049D01*
X222395Y220395D01*
X224049Y219290D01*
X226000Y218902D01*
X227951Y219290D01*
X229605Y220395D01*
X230710Y222049D01*
X230952Y223266D01*
X232247D01*
X232290Y223049D01*
X233395Y221395D01*
X235049Y220290D01*
X237000Y219902D01*
X238951Y220290D01*
X240605Y221395D01*
X241395D01*
X242808Y220451D01*
X243102Y219443D01*
X243131Y218979D01*
X229466Y205314D01*
X221000D01*
X219732Y205061D01*
X218657Y204343D01*
X215657Y201343D01*
X214939Y200268D01*
X214686Y199000D01*
Y187372D01*
X210627Y183314D01*
X196154D01*
X196045Y183330D01*
X195932Y183356D01*
X195842Y183384D01*
X195770Y183413D01*
X195715Y183442D01*
X195713Y183443D01*
X195605Y183605D01*
X193951Y184710D01*
X192000Y185098D01*
X190049Y184710D01*
X188395Y183605D01*
X187290Y181951D01*
X186902Y180000D01*
X187290Y178049D01*
X188395Y176395D01*
X190049Y175290D01*
X192000Y174902D01*
X193951Y175290D01*
X195605Y176395D01*
X195713Y176557D01*
X195715Y176558D01*
X195770Y176587D01*
X195842Y176616D01*
X195932Y176644D01*
X196045Y176670D01*
X196154Y176686D01*
X212000D01*
X213268Y176939D01*
X214343Y177657D01*
X218294Y181608D01*
X219672Y181190D01*
X219761Y180744D01*
X220756Y179256D01*
X222244Y178261D01*
X224000Y177912D01*
X225756Y178261D01*
X227244Y179256D01*
X228239Y180744D01*
X228588Y182500D01*
X228239Y184256D01*
X227244Y185744D01*
X225756Y186739D01*
X224000Y187088D01*
X222722Y186834D01*
X221658Y187599D01*
Y188401D01*
X222722Y189166D01*
X224000Y188912D01*
X225756Y189261D01*
X227244Y190256D01*
X228239Y191744D01*
X228588Y193500D01*
X228239Y195256D01*
X227244Y196744D01*
X226239Y197416D01*
X226624Y198686D01*
X230839D01*
X232107Y198939D01*
X233182Y199657D01*
X247971Y214445D01*
X249175Y214172D01*
X249322Y214001D01*
X250395Y212395D01*
X252049Y211290D01*
X254000Y210902D01*
X255951Y211290D01*
X257605Y212395D01*
X258930Y212092D01*
X259395Y211395D01*
X261049Y210290D01*
X263000Y209902D01*
X264951Y210290D01*
X266605Y211395D01*
X267710Y213049D01*
X268098Y215000D01*
X268060Y215191D01*
X268060Y215193D01*
X268080Y215253D01*
X268110Y215323D01*
X268154Y215407D01*
X268215Y215505D01*
X268280Y215594D01*
X274593Y221906D01*
X274744Y222134D01*
X276372Y222302D01*
X278941Y219733D01*
Y204782D01*
X277278Y203119D01*
X277220Y203082D01*
X277161Y203052D01*
X277101Y203029D01*
X277036Y203011D01*
X276960Y202997D01*
X276868Y202990D01*
X276758Y202990D01*
X276548Y203008D01*
X276485Y203001D01*
X276000Y203098D01*
X274049Y202710D01*
X272395Y201605D01*
X271290Y199951D01*
X270902Y198000D01*
X271290Y196049D01*
X272395Y194395D01*
X273808Y193451D01*
X274214Y192061D01*
X271877Y189725D01*
X270000Y190098D01*
X268049Y189710D01*
X266395Y188605D01*
X265290Y186951D01*
X264902Y185000D01*
X265290Y183049D01*
X266395Y181395D01*
X268049Y180290D01*
X270000Y179902D01*
X271951Y180290D01*
X273605Y181395D01*
X274710Y183049D01*
X274725Y183123D01*
X275247Y183722D01*
X289343Y197818D01*
X290061Y198893D01*
X290314Y200161D01*
Y258562D01*
X290331Y258671D01*
X290356Y258784D01*
X290384Y258874D01*
X290413Y258946D01*
X290441Y259001D01*
X290443Y259003D01*
X290605Y259111D01*
X291710Y260765D01*
X292098Y262716D01*
X291710Y264667D01*
X290605Y266321D01*
X288951Y267426D01*
X287000Y267814D01*
X285049Y267426D01*
X283395Y266321D01*
X282359Y264769D01*
X280951Y265710D01*
X279000Y266098D01*
X277049Y265710D01*
X275395Y264605D01*
X274290Y262951D01*
X274137Y262183D01*
X272759Y261765D01*
X265181Y269343D01*
X264106Y270061D01*
X262838Y270314D01*
X262799D01*
X262605Y270605D01*
X260951Y271710D01*
X260318Y271836D01*
X259900Y273214D01*
X291836Y305150D01*
X293006Y304524D01*
X292902Y304000D01*
X293290Y302049D01*
X294395Y300395D01*
X296049Y299290D01*
X298000Y298902D01*
X299951Y299290D01*
X301605Y300395D01*
X302710Y302049D01*
X303098Y304000D01*
X302710Y305951D01*
X301605Y307605D01*
X299951Y308710D01*
X298000Y309098D01*
X297476Y308994D01*
X296850Y310164D01*
X315373Y328686D01*
X322846D01*
X322955Y328670D01*
X323068Y328644D01*
X323158Y328615D01*
X323230Y328587D01*
X323285Y328559D01*
X323287Y328557D01*
X323395Y328395D01*
X325049Y327290D01*
X327000Y326902D01*
X328951Y327290D01*
X330605Y328395D01*
X331710Y330049D01*
X332098Y332000D01*
X331710Y333951D01*
X330605Y335605D01*
X328951Y336710D01*
X327000Y337098D01*
D02*
G37*
G36*
X164000Y190098D02*
X162049Y189710D01*
X160395Y188605D01*
X159290Y186951D01*
X158902Y185000D01*
X159290Y183049D01*
X160395Y181395D01*
X162049Y180290D01*
X164000Y179902D01*
X165951Y180290D01*
X167605Y181395D01*
X168710Y183049D01*
X169098Y185000D01*
X168710Y186951D01*
X167605Y188605D01*
X165951Y189710D01*
X164000Y190098D01*
D02*
G37*
G36*
X235000Y198088D02*
X233244Y197739D01*
X231756Y196744D01*
X230761Y195256D01*
X230412Y193500D01*
X230761Y191744D01*
X231756Y190256D01*
X233244Y189261D01*
X235000Y188912D01*
X236756Y189261D01*
X238244Y190256D01*
X239239Y191744D01*
X239588Y193500D01*
X239239Y195256D01*
X238244Y196744D01*
X236756Y197739D01*
X235000Y198088D01*
D02*
G37*
G36*
X246000Y187088D02*
X244244Y186739D01*
X242756Y185744D01*
X241761Y184256D01*
X241412Y182500D01*
X241761Y180744D01*
X242756Y179256D01*
X244244Y178261D01*
X246000Y177912D01*
X247756Y178261D01*
X249244Y179256D01*
X250239Y180744D01*
X250588Y182500D01*
X250239Y184256D01*
X249244Y185744D01*
X247756Y186739D01*
X246000Y187088D01*
D02*
G37*
G36*
X281000Y180098D02*
X279049Y179710D01*
X277395Y178605D01*
X276290Y176951D01*
X275902Y175000D01*
X276290Y173049D01*
X277395Y171395D01*
X279049Y170290D01*
X281000Y169902D01*
X282951Y170290D01*
X284605Y171395D01*
X285710Y173049D01*
X286098Y175000D01*
X285710Y176951D01*
X284605Y178605D01*
X282951Y179710D01*
X281000Y180098D01*
D02*
G37*
G36*
X235000Y187088D02*
X233244Y186739D01*
X231756Y185744D01*
X230761Y184256D01*
X230412Y182500D01*
X230761Y180744D01*
X231756Y179256D01*
X233244Y178261D01*
X235000Y177912D01*
X236756Y178261D01*
X238244Y179256D01*
X239239Y180744D01*
X239588Y182500D01*
X239239Y184256D01*
X238244Y185744D01*
X236756Y186739D01*
X235000Y187088D01*
D02*
G37*
G36*
X147000Y224098D02*
X145049Y223710D01*
X143395Y222605D01*
X142290Y220951D01*
X141902Y219000D01*
X142290Y217049D01*
X143395Y215395D01*
X145049Y214290D01*
X147000Y213902D01*
X148951Y214290D01*
X150605Y215395D01*
X151710Y217049D01*
X152098Y219000D01*
X151710Y220951D01*
X150605Y222605D01*
X148951Y223710D01*
X147000Y224098D01*
D02*
G37*
G36*
X179000Y230098D02*
X177049Y229709D01*
X175395Y228604D01*
X174290Y226950D01*
X173902Y225000D01*
X174290Y223049D01*
X175395Y221395D01*
X177049Y220290D01*
X179000Y219902D01*
X180950Y220290D01*
X182604Y221395D01*
X183709Y223049D01*
X184097Y225000D01*
X183709Y226950D01*
X182604Y228604D01*
X180950Y229709D01*
X179000Y230098D01*
D02*
G37*
G36*
X359000Y223098D02*
X357049Y222710D01*
X355395Y221605D01*
X354290Y219951D01*
X353902Y218000D01*
X354290Y216049D01*
X355395Y214395D01*
X357049Y213290D01*
X359000Y212902D01*
X360951Y213290D01*
X362605Y214395D01*
X363710Y216049D01*
X364098Y218000D01*
X363710Y219951D01*
X362605Y221605D01*
X360951Y222710D01*
X359000Y223098D01*
D02*
G37*
G36*
X246000Y198088D02*
X244244Y197739D01*
X242756Y196744D01*
X241761Y195256D01*
X241412Y193500D01*
X241761Y191744D01*
X242756Y190256D01*
X244244Y189261D01*
X246000Y188912D01*
X247756Y189261D01*
X249244Y190256D01*
X250239Y191744D01*
X250588Y193500D01*
X250239Y195256D01*
X249244Y196744D01*
X247756Y197739D01*
X246000Y198088D01*
D02*
G37*
G36*
X205000Y212098D02*
X203049Y211710D01*
X201395Y210605D01*
X200362Y209059D01*
X198000D01*
X196829Y208826D01*
X195837Y208163D01*
X194733Y207059D01*
X193405D01*
X193312Y207078D01*
X193220Y207106D01*
X193129Y207142D01*
X193034Y207188D01*
X192935Y207247D01*
X192830Y207322D01*
X192748Y207390D01*
X192605Y207605D01*
X190951Y208710D01*
X189000Y209098D01*
X187049Y208710D01*
X185395Y207605D01*
X184290Y205951D01*
X183902Y204000D01*
X184290Y202049D01*
X185395Y200395D01*
X187049Y199290D01*
X189000Y198902D01*
X190951Y199290D01*
X192605Y200395D01*
X192748Y200610D01*
X192830Y200678D01*
X192935Y200753D01*
X193034Y200812D01*
X193129Y200858D01*
X193220Y200894D01*
X193312Y200922D01*
X193405Y200941D01*
X196000D01*
X196000Y200941D01*
X197171Y201174D01*
X198163Y201837D01*
X199267Y202941D01*
X201239D01*
X201466Y202917D01*
X201587Y202895D01*
X201995Y202791D01*
X202145Y202742D01*
X202588Y202565D01*
X202751Y202489D01*
X203049Y202290D01*
X205000Y201902D01*
X206951Y202290D01*
X208605Y203395D01*
X209710Y205049D01*
X210098Y207000D01*
X209710Y208951D01*
X208605Y210605D01*
X206951Y211710D01*
X205000Y212098D01*
D02*
G37*
G36*
X246000Y176088D02*
X244244Y175739D01*
X242756Y174744D01*
X241761Y173256D01*
X241412Y171500D01*
X241761Y169744D01*
X242756Y168256D01*
X244244Y167261D01*
X246000Y166912D01*
X247756Y167261D01*
X249244Y168256D01*
X250239Y169744D01*
X250588Y171500D01*
X250239Y173256D01*
X249244Y174744D01*
X247756Y175739D01*
X246000Y176088D01*
D02*
G37*
G36*
X234000Y140098D02*
X232049Y139710D01*
X230395Y138604D01*
X229290Y136951D01*
X228902Y135000D01*
X229290Y133049D01*
X230395Y131395D01*
X232049Y130290D01*
X234000Y129902D01*
X235950Y130290D01*
X237604Y131395D01*
X238709Y133049D01*
X239097Y135000D01*
X238709Y136951D01*
X237604Y138604D01*
X235950Y139710D01*
X234000Y140098D01*
D02*
G37*
G36*
X156000Y132098D02*
X154049Y131710D01*
X152905Y130945D01*
X152000Y130708D01*
X151095Y130945D01*
X149951Y131710D01*
X148000Y132098D01*
X146049Y131710D01*
X144395Y130605D01*
X143290Y128951D01*
X142902Y127000D01*
X143290Y125049D01*
X144325Y123500D01*
X143290Y121951D01*
X142902Y120000D01*
X143290Y118049D01*
X144395Y116395D01*
X146049Y115290D01*
X148000Y114902D01*
X149951Y115290D01*
X151095Y116055D01*
X152000Y116292D01*
X152905Y116055D01*
X154049Y115290D01*
X156000Y114902D01*
X157951Y115290D01*
X159605Y116395D01*
X160710Y118049D01*
X161098Y120000D01*
X160710Y121951D01*
X159675Y123500D01*
X160710Y125049D01*
X161098Y127000D01*
X160710Y128951D01*
X159605Y130605D01*
X157951Y131710D01*
X156000Y132098D01*
D02*
G37*
G36*
X224000Y176088D02*
X222244Y175739D01*
X220756Y174744D01*
X219761Y173256D01*
X219412Y171500D01*
X219761Y169744D01*
X220756Y168256D01*
X222244Y167261D01*
X224000Y166912D01*
X225756Y167261D01*
X227244Y168256D01*
X228239Y169744D01*
X228588Y171500D01*
X228239Y173256D01*
X227244Y174744D01*
X225756Y175739D01*
X224000Y176088D01*
D02*
G37*
G36*
X235000D02*
X233244Y175739D01*
X231756Y174744D01*
X230761Y173256D01*
X230412Y171500D01*
X230761Y169744D01*
X231756Y168256D01*
X233244Y167261D01*
X235000Y166912D01*
X236756Y167261D01*
X238244Y168256D01*
X239239Y169744D01*
X239588Y171500D01*
X239239Y173256D01*
X238244Y174744D01*
X236756Y175739D01*
X235000Y176088D01*
D02*
G37*
G36*
X178000Y170098D02*
X176049Y169710D01*
X174395Y168605D01*
X173290Y166951D01*
X172902Y165000D01*
X173290Y163049D01*
X174395Y161395D01*
X176049Y160290D01*
X178000Y159902D01*
X179951Y160290D01*
X181605Y161395D01*
X182710Y163049D01*
X183098Y165000D01*
X182710Y166951D01*
X181605Y168605D01*
X179951Y169710D01*
X178000Y170098D01*
D02*
G37*
G36*
X252999Y147098D02*
X251049Y146710D01*
X249395Y145604D01*
X248290Y143951D01*
X247901Y142000D01*
X248290Y140049D01*
X249395Y138395D01*
X251049Y137290D01*
X252999Y136902D01*
X254950Y137290D01*
X256604Y138395D01*
X257709Y140049D01*
X258097Y142000D01*
X257709Y143951D01*
X256604Y145604D01*
X254950Y146710D01*
X252999Y147098D01*
D02*
G37*
G36*
X132000Y160098D02*
X130049Y159710D01*
X128395Y158605D01*
X127290Y156951D01*
X126902Y155000D01*
X127290Y153049D01*
X128395Y151395D01*
X130049Y150290D01*
X132000Y149902D01*
X133951Y150290D01*
X135605Y151395D01*
X136710Y153049D01*
X137098Y155000D01*
X136710Y156951D01*
X135605Y158605D01*
X133951Y159710D01*
X132000Y160098D01*
D02*
G37*
G36*
X362000Y285098D02*
X360049Y284710D01*
X358395Y283605D01*
X357290Y281951D01*
X356902Y280000D01*
X357290Y278049D01*
X358395Y276395D01*
X360049Y275290D01*
X362000Y274902D01*
X363951Y275290D01*
X365605Y276395D01*
X366710Y278049D01*
X367098Y280000D01*
X366710Y281951D01*
X365605Y283605D01*
X363951Y284710D01*
X362000Y285098D01*
D02*
G37*
G36*
X469000D02*
X467049Y284710D01*
X465395Y283605D01*
X464290Y281951D01*
X463902Y280000D01*
X464290Y278049D01*
X465395Y276395D01*
X467049Y275290D01*
X469000Y274902D01*
X470951Y275290D01*
X472605Y276395D01*
X473710Y278049D01*
X474098Y280000D01*
X473710Y281951D01*
X472605Y283605D01*
X470951Y284710D01*
X469000Y285098D01*
D02*
G37*
G36*
X444750Y284098D02*
X442799Y283710D01*
X441145Y282605D01*
X440040Y280951D01*
X439652Y279000D01*
X440040Y277049D01*
X441145Y275395D01*
X442799Y274290D01*
X444750Y273902D01*
X446701Y274290D01*
X448355Y275395D01*
X449460Y277049D01*
X449848Y279000D01*
X449460Y280951D01*
X448355Y282605D01*
X446701Y283710D01*
X444750Y284098D01*
D02*
G37*
G36*
X171000Y274098D02*
X169049Y273710D01*
X167395Y272605D01*
X166290Y270951D01*
X165902Y269000D01*
X166290Y267049D01*
X167395Y265395D01*
X169049Y264290D01*
X171000Y263902D01*
X172951Y264290D01*
X174605Y265395D01*
X175710Y267049D01*
X176098Y269000D01*
X175710Y270951D01*
X174605Y272605D01*
X172951Y273710D01*
X171000Y274098D01*
D02*
G37*
G36*
X418000Y267098D02*
X416049Y266710D01*
X414395Y265605D01*
X414135Y265215D01*
X412865D01*
X412605Y265605D01*
X410951Y266710D01*
X409000Y267098D01*
X407049Y266710D01*
X405395Y265605D01*
X404290Y263951D01*
X403902Y262000D01*
X404290Y260049D01*
X405055Y258905D01*
X405292Y258000D01*
X405055Y257095D01*
X404290Y255951D01*
X403902Y254000D01*
X404290Y252049D01*
X405395Y250395D01*
X407049Y249290D01*
X409000Y248902D01*
X410951Y249290D01*
X412605Y250395D01*
X412865Y250785D01*
X414135D01*
X414395Y250395D01*
X416049Y249290D01*
X418000Y248902D01*
X419951Y249290D01*
X421605Y250395D01*
X422710Y252049D01*
X423098Y254000D01*
X422710Y255951D01*
X421945Y257095D01*
X421708Y258000D01*
X421945Y258905D01*
X422710Y260049D01*
X423098Y262000D01*
X422710Y263951D01*
X421605Y265605D01*
X419951Y266710D01*
X418000Y267098D01*
D02*
G37*
G36*
X215000Y305098D02*
X213049Y304710D01*
X211395Y303605D01*
X210290Y301951D01*
X209902Y300000D01*
X210290Y298049D01*
X211395Y296395D01*
X213049Y295290D01*
X215000Y294902D01*
X216951Y295290D01*
X218605Y296395D01*
X219710Y298049D01*
X220098Y300000D01*
X219710Y301951D01*
X218605Y303605D01*
X216951Y304710D01*
X215000Y305098D01*
D02*
G37*
G36*
X140000Y315098D02*
X138049Y314710D01*
X136395Y313605D01*
X135290Y311951D01*
X134902Y310000D01*
X135290Y308049D01*
X136395Y306395D01*
X138049Y305290D01*
X140000Y304902D01*
X141951Y305290D01*
X143605Y306395D01*
X144710Y308049D01*
X145098Y310000D01*
X144710Y311951D01*
X143605Y313605D01*
X141951Y314710D01*
X140000Y315098D01*
D02*
G37*
G36*
X124000Y304098D02*
X122049Y303710D01*
X120395Y302605D01*
X119290Y300951D01*
X118902Y299000D01*
X119290Y297049D01*
X120395Y295395D01*
X122049Y294290D01*
X124000Y293902D01*
X125951Y294290D01*
X127605Y295395D01*
X128710Y297049D01*
X129098Y299000D01*
X128710Y300951D01*
X127605Y302605D01*
X125951Y303710D01*
X124000Y304098D01*
D02*
G37*
G36*
X298000Y297098D02*
X296049Y296710D01*
X294395Y295605D01*
X293290Y293951D01*
X292902Y292000D01*
X293290Y290049D01*
X294395Y288395D01*
X296049Y287290D01*
X298000Y286902D01*
X299951Y287290D01*
X301605Y288395D01*
X302710Y290049D01*
X303098Y292000D01*
X302710Y293951D01*
X301605Y295605D01*
X299951Y296710D01*
X298000Y297098D01*
D02*
G37*
G36*
X206000Y290098D02*
X204049Y289710D01*
X202395Y288605D01*
X201571Y287371D01*
X201054Y286961D01*
X200006Y287005D01*
X198951Y287710D01*
X197000Y288098D01*
X195049Y287710D01*
X193395Y286605D01*
X192290Y284951D01*
X191902Y283000D01*
X192290Y281049D01*
X193395Y279395D01*
X193092Y278070D01*
X192395Y277604D01*
X191290Y275950D01*
X190902Y274000D01*
X191290Y272049D01*
X192395Y270395D01*
X194049Y269290D01*
X196000Y268902D01*
X197950Y269290D01*
X199604Y270395D01*
X200709Y272049D01*
X201098Y274000D01*
X200709Y275950D01*
X199604Y277604D01*
X199907Y278929D01*
X200605Y279395D01*
X201429Y280629D01*
X201946Y281039D01*
X202994Y280995D01*
X204049Y280290D01*
X206000Y279902D01*
X207951Y280290D01*
X209605Y281395D01*
X210710Y283049D01*
X211098Y285000D01*
X210710Y286951D01*
X209605Y288605D01*
X207951Y289710D01*
X206000Y290098D01*
D02*
G37*
G36*
X210343Y273098D02*
X208392Y272710D01*
X206738Y271605D01*
X205633Y269951D01*
X205245Y268000D01*
X205633Y266049D01*
X206738Y264395D01*
X208392Y263290D01*
X210343Y262902D01*
X212294Y263290D01*
X213948Y264395D01*
X215053Y266049D01*
X215441Y268000D01*
X215053Y269951D01*
X213948Y271605D01*
X212294Y272710D01*
X210343Y273098D01*
D02*
G37*
G36*
X387000Y236098D02*
X385049Y235710D01*
X383395Y234605D01*
X382290Y232951D01*
X381902Y231000D01*
X382290Y229049D01*
X383395Y227395D01*
X385049Y226290D01*
X387000Y225902D01*
X388951Y226290D01*
X390605Y227395D01*
X391710Y229049D01*
X392098Y231000D01*
X391710Y232951D01*
X390605Y234605D01*
X388951Y235710D01*
X387000Y236098D01*
D02*
G37*
G36*
X146000Y270098D02*
X144049Y269710D01*
X142395Y268605D01*
X141290Y266951D01*
X140902Y265000D01*
X141290Y263049D01*
X141746Y262367D01*
X141431Y260629D01*
X141395Y260605D01*
X140290Y258951D01*
X139902Y257000D01*
X140290Y255049D01*
X141395Y253395D01*
X141766Y253147D01*
X141498Y251799D01*
X141049Y251710D01*
X139395Y250605D01*
X138290Y248951D01*
X137902Y247000D01*
X138290Y245049D01*
X139395Y243395D01*
X141049Y242290D01*
X143000Y241902D01*
X144951Y242290D01*
X146605Y243395D01*
X147710Y245049D01*
X148098Y247000D01*
X147710Y248951D01*
X146605Y250605D01*
X146234Y250853D01*
X146502Y252201D01*
X146951Y252290D01*
X148605Y253395D01*
X149710Y255049D01*
X150098Y257000D01*
X149710Y258951D01*
X149254Y259633D01*
X149569Y261371D01*
X149605Y261395D01*
X150710Y263049D01*
X151098Y265000D01*
X150710Y266951D01*
X149605Y268605D01*
X147951Y269710D01*
X146000Y270098D01*
D02*
G37*
G36*
X131000Y235098D02*
X129049Y234710D01*
X127395Y233605D01*
X126290Y231951D01*
X125902Y230000D01*
X126290Y228049D01*
X127395Y226395D01*
X129049Y225290D01*
X131000Y224902D01*
X132951Y225290D01*
X134605Y226395D01*
X135710Y228049D01*
X136098Y230000D01*
X135710Y231951D01*
X134605Y233605D01*
X132951Y234710D01*
X131000Y235098D01*
D02*
G37*
G36*
X401000Y232098D02*
X399049Y231710D01*
X397395Y230605D01*
X396290Y228951D01*
X395902Y227000D01*
X396290Y225049D01*
X397395Y223395D01*
X399049Y222290D01*
X401000Y221902D01*
X402951Y222290D01*
X404605Y223395D01*
X405710Y225049D01*
X406098Y227000D01*
X405710Y228951D01*
X404605Y230605D01*
X402951Y231710D01*
X401000Y232098D01*
D02*
G37*
G36*
X462000Y233098D02*
X460049Y232710D01*
X458395Y231605D01*
X457290Y229951D01*
X456902Y228000D01*
X457290Y226049D01*
X458395Y224395D01*
X460049Y223290D01*
X462000Y222902D01*
X463951Y223290D01*
X465605Y224395D01*
X466710Y226049D01*
X467098Y228000D01*
X466710Y229951D01*
X465605Y231605D01*
X463951Y232710D01*
X462000Y233098D01*
D02*
G37*
G36*
X368000Y266098D02*
X366049Y265710D01*
X364395Y264605D01*
X363290Y262951D01*
X362902Y261000D01*
X363290Y259049D01*
X364395Y257395D01*
X366049Y256290D01*
X368000Y255902D01*
X369951Y256290D01*
X371605Y257395D01*
X372710Y259049D01*
X373098Y261000D01*
X372710Y262951D01*
X371605Y264605D01*
X369951Y265710D01*
X368000Y266098D01*
D02*
G37*
G36*
X377000Y280098D02*
X375049Y279710D01*
X373395Y278605D01*
X372290Y276951D01*
X371902Y275000D01*
X372290Y273049D01*
X373395Y271395D01*
X375049Y270290D01*
X377000Y269902D01*
X378951Y270290D01*
X380095Y271055D01*
X381395Y271395D01*
X383049Y270290D01*
X385000Y269902D01*
X385040Y268698D01*
X384901Y267999D01*
X385289Y266049D01*
X386394Y264395D01*
X388048Y263290D01*
X389999Y262901D01*
X391950Y263290D01*
X393604Y264395D01*
X394709Y266049D01*
X395097Y267999D01*
X394709Y269950D01*
X393604Y271604D01*
X391950Y272709D01*
X389999Y273097D01*
X389959Y274302D01*
X390098Y275000D01*
X389710Y276951D01*
X388605Y278605D01*
X386951Y279710D01*
X385000Y280098D01*
X383049Y279710D01*
X381905Y278945D01*
X380605Y278605D01*
X378951Y279710D01*
X377000Y280098D01*
D02*
G37*
G36*
X391000Y259098D02*
X389049Y258710D01*
X387395Y257605D01*
X386290Y255951D01*
X385902Y254000D01*
X386290Y252049D01*
X387395Y250395D01*
X389049Y249290D01*
X391000Y248902D01*
X392951Y249290D01*
X394605Y250395D01*
X395710Y252049D01*
X396098Y254000D01*
X395710Y255951D01*
X394605Y257605D01*
X392951Y258710D01*
X391000Y259098D01*
D02*
G37*
G36*
X444250Y252348D02*
X442299Y251960D01*
X440645Y250855D01*
X439540Y249201D01*
X439152Y247250D01*
X439540Y245299D01*
X440645Y243645D01*
X442299Y242540D01*
X444250Y242152D01*
X446201Y242540D01*
X447855Y243645D01*
X448960Y245299D01*
X449348Y247250D01*
X448960Y249201D01*
X447855Y250855D01*
X446201Y251960D01*
X444250Y252348D01*
D02*
G37*
G36*
X180000Y256098D02*
X178049Y255710D01*
X176395Y254605D01*
X175290Y252951D01*
X174902Y251000D01*
X175290Y249049D01*
X176395Y247395D01*
X178049Y246290D01*
X180000Y245902D01*
X181951Y246290D01*
X183605Y247395D01*
X184710Y249049D01*
X185098Y251000D01*
X184710Y252951D01*
X183605Y254605D01*
X181951Y255710D01*
X180000Y256098D01*
D02*
G37*
%LPD*%
G36*
X194316Y181938D02*
X194504Y181794D01*
X194707Y181667D01*
X194924Y181556D01*
X195155Y181462D01*
X195401Y181386D01*
X195661Y181327D01*
X195935Y181284D01*
X196224Y181259D01*
X196527Y181250D01*
Y178750D01*
X196224Y178741D01*
X195935Y178716D01*
X195661Y178673D01*
X195401Y178614D01*
X195155Y178538D01*
X194924Y178444D01*
X194707Y178333D01*
X194504Y178206D01*
X194316Y178062D01*
X194142Y177900D01*
Y182100D01*
X194316Y181938D01*
D02*
G37*
G36*
X254164Y265682D02*
X254290Y265049D01*
X255395Y263395D01*
X257049Y262290D01*
X259000Y261902D01*
X260951Y262290D01*
X262096Y263055D01*
X264213Y260938D01*
X263807Y259548D01*
X262395Y258604D01*
X261290Y256950D01*
X261138Y256187D01*
X259964Y255701D01*
X259951Y255710D01*
X258000Y256098D01*
X256049Y255710D01*
X254395Y254605D01*
X253290Y252951D01*
X252902Y251000D01*
X252940Y250809D01*
X252940Y250807D01*
X252920Y250747D01*
X252890Y250677D01*
X252846Y250593D01*
X252785Y250495D01*
X252720Y250406D01*
X242949Y240635D01*
X242230Y239560D01*
X241978Y238292D01*
Y229436D01*
X241266Y228944D01*
X241193Y228908D01*
X240805Y228759D01*
X240095Y228945D01*
X238951Y229710D01*
X237814Y229936D01*
Y253476D01*
X239084Y253862D01*
X239395Y253395D01*
X241049Y252290D01*
X243000Y251902D01*
X244951Y252290D01*
X246605Y253395D01*
X247710Y255049D01*
X248098Y257000D01*
X248060Y257191D01*
X248060Y257193D01*
X248080Y257253D01*
X248110Y257323D01*
X248154Y257407D01*
X248215Y257505D01*
X248280Y257594D01*
X250343Y259657D01*
X251061Y260732D01*
X251314Y262000D01*
Y264627D01*
X252786Y266100D01*
X254164Y265682D01*
D02*
G37*
G36*
X247085Y259317D02*
X246877Y259097D01*
X246691Y258875D01*
X246527Y258651D01*
X246385Y258425D01*
X246265Y258197D01*
X246168Y257967D01*
X246092Y257736D01*
X246039Y257502D01*
X246009Y257267D01*
X246000Y257030D01*
X243030Y260000D01*
X243267Y260009D01*
X243502Y260039D01*
X243736Y260093D01*
X243967Y260168D01*
X244197Y260265D01*
X244425Y260385D01*
X244651Y260527D01*
X244875Y260691D01*
X245097Y260877D01*
X245317Y261085D01*
X247085Y259317D01*
D02*
G37*
G36*
X257970Y248000D02*
X257733Y247992D01*
X257498Y247961D01*
X257264Y247908D01*
X257033Y247832D01*
X256803Y247735D01*
X256575Y247615D01*
X256349Y247473D01*
X256125Y247309D01*
X255903Y247123D01*
X255683Y246915D01*
X253915Y248683D01*
X254123Y248903D01*
X254309Y249125D01*
X254473Y249349D01*
X254615Y249575D01*
X254735Y249803D01*
X254832Y250033D01*
X254907Y250264D01*
X254961Y250498D01*
X254991Y250733D01*
X255000Y250970D01*
X257970Y248000D01*
D02*
G37*
G36*
X267890Y252638D02*
X267703Y252413D01*
X267539Y252181D01*
X267395Y251942D01*
X267274Y251696D01*
X267176Y251445D01*
X267099Y251186D01*
X267043Y250921D01*
X267010Y250649D01*
X266999Y250371D01*
X265000D01*
X264988Y250649D01*
X264956Y250921D01*
X264900Y251186D01*
X264823Y251445D01*
X264725Y251696D01*
X264604Y251942D01*
X264461Y252181D01*
X264296Y252413D01*
X264109Y252638D01*
X263899Y252857D01*
X268099D01*
X267890Y252638D01*
D02*
G37*
G36*
X288939Y260400D02*
X288794Y260212D01*
X288666Y260009D01*
X288556Y259792D01*
X288463Y259561D01*
X288386Y259315D01*
X288326Y259055D01*
X288284Y258781D01*
X288258Y258492D01*
X288250Y258189D01*
X285750D01*
X285742Y258492D01*
X285716Y258781D01*
X285674Y259055D01*
X285614Y259315D01*
X285537Y259561D01*
X285444Y259792D01*
X285333Y260009D01*
X285206Y260212D01*
X285061Y260400D01*
X284900Y260574D01*
X289100D01*
X288939Y260400D01*
D02*
G37*
G36*
X324858Y329900D02*
X324684Y330061D01*
X324496Y330206D01*
X324293Y330334D01*
X324076Y330444D01*
X323845Y330537D01*
X323599Y330614D01*
X323339Y330673D01*
X323065Y330716D01*
X322776Y330742D01*
X322473Y330750D01*
Y333250D01*
X322776Y333259D01*
X323065Y333284D01*
X323339Y333326D01*
X323599Y333386D01*
X323845Y333462D01*
X324076Y333556D01*
X324293Y333666D01*
X324496Y333794D01*
X324684Y333938D01*
X324858Y334100D01*
Y329900D01*
D02*
G37*
G36*
X241677Y263077D02*
X241460Y263018D01*
X241243Y262943D01*
X241026Y262851D01*
X240809Y262742D01*
X240592Y262616D01*
X240374Y262473D01*
X239939Y262138D01*
X239721Y261945D01*
X239503Y261735D01*
X237257Y263024D01*
X237466Y263248D01*
X237648Y263472D01*
X237801Y263696D01*
X237927Y263919D01*
X238024Y264143D01*
X238094Y264367D01*
X238135Y264591D01*
X238149Y264815D01*
X238134Y265039D01*
X238091Y265263D01*
X241677Y263077D01*
D02*
G37*
G36*
X232969Y264000D02*
X232732Y263991D01*
X232497Y263960D01*
X232264Y263907D01*
X232032Y263832D01*
X231803Y263734D01*
X231575Y263615D01*
X231349Y263473D01*
X231125Y263309D01*
X230903Y263123D01*
X230682Y262914D01*
X228915Y264682D01*
X229123Y264903D01*
X229309Y265125D01*
X229473Y265349D01*
X229615Y265575D01*
X229734Y265803D01*
X229832Y266032D01*
X229907Y266264D01*
X229960Y266497D01*
X229991Y266732D01*
X230000Y266970D01*
X232969Y264000D01*
D02*
G37*
G36*
X262941Y247108D02*
Y229064D01*
X260940Y227063D01*
X259551Y227470D01*
X258605Y228887D01*
X256951Y229992D01*
X255000Y230380D01*
X253049Y229992D01*
X251395Y228887D01*
X250669Y227801D01*
X249192Y227726D01*
X248973Y228054D01*
X248915Y228171D01*
X248823Y228291D01*
X248785Y228349D01*
X248749Y228417D01*
X248714Y228498D01*
X248680Y228594D01*
X248649Y228710D01*
X248622Y228844D01*
X248606Y228963D01*
Y236919D01*
X257406Y245720D01*
X257495Y245785D01*
X257593Y245846D01*
X257677Y245890D01*
X257747Y245920D01*
X257807Y245940D01*
X257809Y245940D01*
X258000Y245902D01*
X259951Y246290D01*
X261605Y247395D01*
X261671Y247494D01*
X262941Y247108D01*
D02*
G37*
G36*
X274193Y185587D02*
X273969Y185359D01*
X273110Y184375D01*
X272991Y184209D01*
X272805Y183908D01*
X272738Y183773D01*
X271327Y187691D01*
X271521Y187612D01*
X271719Y187565D01*
X271920Y187551D01*
X272125Y187570D01*
X272333Y187621D01*
X272545Y187703D01*
X272761Y187819D01*
X272980Y187966D01*
X273203Y188146D01*
X273429Y188358D01*
X274193Y185587D01*
D02*
G37*
G36*
X280119Y200220D02*
X279933Y200020D01*
X279763Y199808D01*
X279609Y199584D01*
X279471Y199348D01*
X279349Y199101D01*
X279244Y198841D01*
X279155Y198570D01*
X279081Y198288D01*
X279025Y197993D01*
X278984Y197687D01*
X276373Y200977D01*
X276666Y200951D01*
X276949Y200950D01*
X277223Y200973D01*
X277488Y201020D01*
X277743Y201091D01*
X277989Y201186D01*
X278226Y201305D01*
X278453Y201448D01*
X278670Y201616D01*
X278878Y201807D01*
X280119Y200220D01*
D02*
G37*
G36*
X267085Y217317D02*
X266877Y217097D01*
X266691Y216875D01*
X266527Y216651D01*
X266385Y216425D01*
X266265Y216197D01*
X266168Y215967D01*
X266092Y215736D01*
X266039Y215502D01*
X266009Y215267D01*
X266000Y215030D01*
X263030Y218000D01*
X263267Y218009D01*
X263502Y218039D01*
X263736Y218092D01*
X263967Y218168D01*
X264197Y218265D01*
X264425Y218385D01*
X264651Y218527D01*
X264875Y218691D01*
X265097Y218877D01*
X265317Y219085D01*
X267085Y217317D01*
D02*
G37*
G36*
X227258Y228224D02*
X227284Y227935D01*
X227327Y227661D01*
X227386Y227401D01*
X227463Y227155D01*
X227556Y226924D01*
X227666Y226707D01*
X227794Y226504D01*
X227938Y226316D01*
X228100Y226142D01*
X223900D01*
X224062Y226316D01*
X224206Y226504D01*
X224333Y226707D01*
X224444Y226924D01*
X224538Y227155D01*
X224614Y227401D01*
X224674Y227661D01*
X224716Y227935D01*
X224741Y228224D01*
X224750Y228527D01*
X227250D01*
X227258Y228224D01*
D02*
G37*
G36*
X246542Y229373D02*
X246549Y229071D01*
X246572Y228782D01*
X246610Y228505D01*
X246663Y228241D01*
X246731Y227990D01*
X246814Y227752D01*
X246913Y227527D01*
X247026Y227314D01*
X247155Y227115D01*
X247299Y226928D01*
X243118Y227337D01*
X243294Y227493D01*
X243451Y227667D01*
X243589Y227857D01*
X243710Y228063D01*
X243811Y228285D01*
X243894Y228524D01*
X243959Y228779D01*
X244005Y229051D01*
X244033Y229339D01*
X244042Y229643D01*
X246542Y229373D01*
D02*
G37*
G36*
X258043Y218426D02*
X257855Y218223D01*
X257685Y218008D01*
X257534Y217783D01*
X257402Y217546D01*
X257288Y217298D01*
X257193Y217038D01*
X257117Y216767D01*
X257058Y216485D01*
X257019Y216192D01*
X256998Y215887D01*
X254173Y218995D01*
X254473Y218988D01*
X254762Y219003D01*
X255040Y219041D01*
X255308Y219099D01*
X255566Y219180D01*
X255814Y219283D01*
X256051Y219407D01*
X256278Y219553D01*
X256494Y219722D01*
X256700Y219911D01*
X258043Y218426D01*
D02*
G37*
G36*
X254349Y222354D02*
X254122Y222391D01*
X253896Y222400D01*
X253669Y222382D01*
X253444Y222337D01*
X253218Y222264D01*
X252993Y222164D01*
X252769Y222037D01*
X252544Y221882D01*
X252321Y221700D01*
X252097Y221491D01*
X250746Y223675D01*
X250955Y223893D01*
X251322Y224331D01*
X251479Y224550D01*
X251619Y224770D01*
X251742Y224990D01*
X251847Y225210D01*
X251935Y225431D01*
X252006Y225653D01*
X252059Y225875D01*
X254349Y222354D01*
D02*
G37*
G36*
X191361Y205891D02*
X191587Y205704D01*
X191819Y205539D01*
X192058Y205396D01*
X192303Y205275D01*
X192555Y205176D01*
X192813Y205099D01*
X193078Y205044D01*
X193350Y205011D01*
X193628Y205000D01*
Y203000D01*
X193350Y202989D01*
X193078Y202956D01*
X192813Y202901D01*
X192555Y202824D01*
X192303Y202725D01*
X192058Y202604D01*
X191819Y202461D01*
X191587Y202296D01*
X191361Y202109D01*
X191142Y201900D01*
Y206100D01*
X191361Y205891D01*
D02*
G37*
G36*
X203680Y204306D02*
X203398Y204438D01*
X202841Y204660D01*
X202565Y204750D01*
X202022Y204889D01*
X201754Y204937D01*
X201225Y204993D01*
X200964Y205000D01*
X200200Y207000D01*
X200489Y207013D01*
X200760Y207051D01*
X201014Y207114D01*
X201248Y207202D01*
X201466Y207316D01*
X201665Y207456D01*
X201845Y207620D01*
X202008Y207810D01*
X202153Y208025D01*
X202280Y208266D01*
X203680Y204306D01*
D02*
G37*
%LPC*%
G36*
X83000Y429098D02*
X81049Y428710D01*
X79395Y427605D01*
X78290Y425951D01*
X77902Y424000D01*
X78290Y422049D01*
X79395Y420395D01*
X81049Y419290D01*
X83000Y418902D01*
X84951Y419290D01*
X86605Y420395D01*
X87710Y422049D01*
X88098Y424000D01*
X87710Y425951D01*
X86605Y427605D01*
X84951Y428710D01*
X83000Y429098D01*
D02*
G37*
G36*
X137000Y99098D02*
X135049Y98710D01*
X133395Y97605D01*
X132290Y95951D01*
X131902Y94000D01*
X132290Y92049D01*
X133395Y90395D01*
X135049Y89290D01*
X137000Y88902D01*
X138951Y89290D01*
X140605Y90395D01*
X141710Y92049D01*
X142098Y94000D01*
X141710Y95951D01*
X140605Y97605D01*
X138951Y98710D01*
X137000Y99098D01*
D02*
G37*
G36*
X207000Y89098D02*
X205049Y88710D01*
X203395Y87605D01*
X202290Y85951D01*
X201902Y84000D01*
X202290Y82049D01*
X203395Y80395D01*
X205049Y79290D01*
X207000Y78902D01*
X208951Y79290D01*
X210605Y80395D01*
X211710Y82049D01*
X212098Y84000D01*
X211710Y85951D01*
X210605Y87605D01*
X208951Y88710D01*
X207000Y89098D01*
D02*
G37*
G36*
X360000Y94098D02*
X358049Y93710D01*
X356395Y92605D01*
X355290Y90951D01*
X354902Y89000D01*
X355290Y87049D01*
X356395Y85395D01*
X358049Y84290D01*
X360000Y83902D01*
X361951Y84290D01*
X363605Y85395D01*
X364710Y87049D01*
X365098Y89000D01*
X364710Y90951D01*
X363605Y92605D01*
X361951Y93710D01*
X360000Y94098D01*
D02*
G37*
%LPD*%
D10*
X393000Y562000D02*
Y734000D01*
X354775Y599225D02*
Y624775D01*
X380000Y559000D02*
Y729000D01*
X350000Y529000D02*
X380000Y559000D01*
X368575Y740425D02*
X380000Y729000D01*
X212000Y583762D02*
X339312D01*
X354775Y599225D01*
X344000Y610000D02*
Y614000D01*
X358575Y740425D02*
X368575D01*
X212000Y599000D02*
X212225Y598775D01*
X332775D01*
X344000Y610000D01*
X347500Y751500D02*
X375500D01*
X393000Y734000D01*
D80*
X90000Y472000D02*
X112000Y450000D01*
X90000Y472000D02*
Y733000D01*
Y470000D02*
Y472000D01*
X61000Y762000D02*
Y1048000D01*
Y762000D02*
X90000Y733000D01*
X168000Y394000D02*
X168000Y394000D01*
X314000Y332000D02*
X327000D01*
X248000Y266000D02*
X314000Y332000D01*
X287000Y200161D02*
Y262716D01*
X271839Y185000D02*
X287000Y200161D01*
X259000Y267000D02*
X262838D01*
X272250Y224249D02*
Y257588D01*
X262838Y267000D02*
X272250Y257588D01*
X248000Y262000D02*
Y266000D01*
X243000Y257000D02*
X248000Y262000D01*
X241000Y265000D02*
Y266000D01*
X438000Y198000D02*
Y228000D01*
X270000Y185000D02*
X271839D01*
X218000Y199000D02*
X221000Y202000D01*
X218000Y186000D02*
Y199000D01*
X212000Y180000D02*
X218000Y186000D01*
X192000Y180000D02*
X212000D01*
X242999Y61000D02*
X243000Y61000D01*
X242999Y61000D02*
Y62000D01*
X251753Y69753D02*
X257513D01*
X60000Y1047000D02*
X61000Y1048000D01*
X226000Y260000D02*
X232999Y266999D01*
X221000Y202000D02*
X230839D01*
X245292Y238292D02*
X258000Y251000D01*
X254121Y225282D02*
X255000D01*
X226000Y224000D02*
Y260000D01*
X263000Y215000D02*
X272250Y224249D01*
X245000Y223292D02*
X245292Y223000D01*
X245000Y223292D02*
Y225000D01*
X230839Y202000D02*
X254121Y225282D01*
X234500Y227500D02*
X237000Y225000D01*
X234500Y258500D02*
X241000Y265000D01*
X234500Y227500D02*
Y258500D01*
X232999Y266999D02*
X232999D01*
X59000Y426000D02*
X91000Y394000D01*
X168000D01*
X253750Y420250D02*
X268000Y406000D01*
X112000Y438000D02*
Y450000D01*
Y438000D02*
X129750Y420250D01*
X253750D01*
X243000Y61000D02*
X251753Y69753D01*
X245292Y223000D02*
Y238292D01*
D81*
X306000Y618000D02*
Y619000D01*
D83*
X46000Y323000D02*
Y478000D01*
Y754000D02*
Y770040D01*
Y1030314D02*
Y1037500D01*
X45500Y1029814D02*
X46000Y1030314D01*
X45500Y1023186D02*
Y1029814D01*
Y1023186D02*
X46000Y1022686D01*
Y977314D02*
Y1022686D01*
X45500Y976814D02*
X46000Y977314D01*
X45500Y970186D02*
Y976814D01*
Y970186D02*
X46000Y969686D01*
Y930064D02*
Y969686D01*
X45500Y929564D02*
X46000Y930064D01*
X45500Y922936D02*
Y929564D01*
Y922936D02*
X46000Y922436D01*
Y876564D02*
Y922436D01*
X45500Y876064D02*
X46000Y876564D01*
X45500Y869436D02*
Y876064D01*
Y869436D02*
X46000Y868936D01*
Y777161D02*
Y868936D01*
X45753Y776914D02*
X46000Y777161D01*
X45753Y770287D02*
Y776914D01*
Y770287D02*
X46000Y770040D01*
X45500Y1038000D02*
X46000Y1037500D01*
X45500Y1038000D02*
Y1068500D01*
X71250Y1094250D01*
X36500Y313500D02*
X46000Y323000D01*
X71250Y1094250D02*
X114500D01*
X114750Y1094000D01*
Y1093750D02*
Y1094000D01*
X46000Y478000D02*
X68000Y500000D01*
Y732000D01*
X46000Y754000D02*
X68000Y732000D01*
D86*
X276499Y258499D02*
X279000Y261000D01*
X266000Y227797D02*
Y255000D01*
X205000Y207000D02*
X206000Y206000D01*
X254203Y216000D02*
X266000Y227797D01*
X276000Y198000D02*
X276485D01*
X282000Y203515D01*
Y221000D01*
X276499Y226501D02*
X282000Y221000D01*
X276499Y226501D02*
Y258499D01*
X254000Y216000D02*
X254203D01*
X196000Y204000D02*
X198000Y206000D01*
X189000Y204000D02*
X196000D01*
X198000Y206000D02*
X206000D01*
D88*
X481000Y307800D02*
D03*
D94*
X205000Y453000D02*
D03*
X281000Y878000D02*
D03*
X168000Y394000D02*
D03*
X287000Y262716D02*
D03*
X116000Y214000D02*
D03*
X178000Y200000D02*
D03*
X279000Y261000D02*
D03*
X259000Y267000D02*
D03*
X266000Y255000D02*
D03*
X241000Y266000D02*
D03*
X298000Y280000D02*
D03*
X113000Y326000D02*
D03*
X438000Y198000D02*
D03*
Y228000D02*
D03*
X270000Y185000D02*
D03*
X306000Y618000D02*
D03*
X200000Y172000D02*
D03*
X192000Y180000D02*
D03*
X36500Y313500D02*
D03*
X82250Y161000D02*
D03*
X74250D02*
D03*
X240000Y142000D02*
D03*
X166000Y147000D02*
D03*
Y140000D02*
D03*
Y154000D02*
D03*
X242999Y62000D02*
D03*
X257513Y69753D02*
D03*
X380000Y70000D02*
D03*
Y77500D02*
D03*
Y85000D02*
D03*
Y92500D02*
D03*
X75000Y144000D02*
D03*
X90000Y114000D02*
D03*
Y133000D02*
D03*
Y123000D02*
D03*
Y142000D02*
D03*
X101000Y214000D02*
D03*
X109000D02*
D03*
X89750Y156750D02*
D03*
X414500Y314000D02*
D03*
X422500D02*
D03*
X414500Y320750D02*
D03*
X422000Y321000D02*
D03*
X279000Y790000D02*
D03*
X333000Y1176000D02*
D03*
Y1184000D02*
D03*
X324000D02*
D03*
Y1176000D02*
D03*
X341000Y1184000D02*
D03*
X228000Y1182500D02*
D03*
X402000Y1092250D02*
D03*
X154000Y722000D02*
D03*
X162000Y646000D02*
D03*
X179000Y623000D02*
D03*
X133000Y642000D02*
D03*
X331000Y750000D02*
D03*
X349000Y681000D02*
D03*
X348000Y646000D02*
D03*
X286000Y607000D02*
D03*
X446500Y364500D02*
D03*
X395000Y422000D02*
D03*
X61000Y1048000D02*
D03*
X285000Y405000D02*
D03*
X351000Y392000D02*
D03*
X301750Y237750D02*
D03*
X176000Y767000D02*
D03*
X365500Y403500D02*
D03*
X327000Y288000D02*
D03*
X369000Y190000D02*
D03*
X353000Y153000D02*
D03*
X338500Y351500D02*
D03*
X153000Y246000D02*
D03*
X205000Y207000D02*
D03*
X212000Y214000D02*
D03*
X276000Y206000D02*
D03*
X258000Y251000D02*
D03*
X255000Y225282D02*
D03*
X276000Y198000D02*
D03*
X226000Y224000D02*
D03*
X254000Y216000D02*
D03*
X263000Y215000D02*
D03*
X245000Y225000D02*
D03*
X237000D02*
D03*
X268000Y406000D02*
D03*
X189000Y204000D02*
D03*
X387500Y327500D02*
D03*
X327000Y332000D02*
D03*
X243000Y257000D02*
D03*
X232999Y266999D02*
D03*
X168750Y85000D02*
D03*
X175000D02*
D03*
X167000Y78750D02*
D03*
X173250Y79000D02*
D03*
X327500Y381500D02*
D03*
X460500Y264500D02*
D03*
X458500Y296500D02*
D03*
X59000Y426000D02*
D03*
X136000Y426999D02*
D03*
X114750Y1093750D02*
D03*
D97*
X393000Y562000D02*
D03*
X212000Y583762D02*
D03*
Y599000D02*
D03*
X344000Y614000D02*
D03*
X354775Y624775D02*
D03*
X350000Y529000D02*
D03*
X358575Y740425D02*
D03*
X347500Y751500D02*
D03*
M02*
