G04 Layer_Color=8388736*
%FSLAX44Y44*%
%MOMM*%
%TF.FileFunction,Soldermask,Top*%
%TF.Part,Single*%
G01*
G75*
%TA.AperFunction,SMDPad*%
%ADD97O,1.5532X0.6532*%
%TA.AperFunction,SMDPad*%
%ADD98O,1.5532X0.5032*%
%TA.AperFunction,SMDPad*%
%ADD99R,0.6532X2.0032*%
%TA.AperFunction,SMDPad*%
%ADD100R,2.2032X1.6532*%
%TA.AperFunction,SMDPad*%
%ADD101R,1.5032X3.4532*%
%TA.AperFunction,SMDPad*%
%ADD102R,0.7532X0.9032*%
%TA.AperFunction,SMDPad*%
%ADD103R,1.9532X4.1032*%
%TA.AperFunction,SMDPad*%
%ADD104R,1.2032X0.8032*%
%TA.AperFunction,SMDPad*%
%ADD105R,1.3532X0.8032*%
%TA.AperFunction,SMDPad*%
%ADD106R,1.1032X0.4532*%
%TA.AperFunction,SMDPad*%
%ADD107R,1.6932X1.8032*%
%TA.AperFunction,SMDPad*%
%ADD108R,1.1532X0.4532*%
%TA.AperFunction,SMDPad*%
%ADD109R,0.5832X1.9432*%
%TA.AperFunction,SMDPad*%
%ADD110R,0.7032X1.4632*%
%TA.AperFunction,SMDPad*%
%ADD111R,0.9032X0.4532*%
%TA.AperFunction,SMDPad*%
%ADD112R,1.1032X0.7032*%
%TA.AperFunction,SMDPad*%
%ADD113R,0.7532X0.8032*%
%TA.AperFunction,SMDPad*%
%ADD114O,0.9532X0.4532*%
%TA.AperFunction,SMDPad*%
%ADD115O,0.4532X0.9532*%
%TA.AperFunction,SMDPad*%
%ADD116R,2.4032X2.4032*%
%TA.AperFunction,SMDPad*%
%ADD117R,1.6532X1.6532*%
%TA.AperFunction,SMDPad*%
%ADD118O,0.4532X1.1032*%
%TA.AperFunction,SMDPad*%
%ADD119O,1.1032X0.4532*%
%TA.AperFunction,SMDPad*%
%ADD120R,3.5032X3.5032*%
%TA.AperFunction,SMDPad*%
%ADD121O,1.1532X0.4532*%
%TA.AperFunction,SMDPad*%
%ADD122O,0.4532X1.1532*%
%TA.AperFunction,SMDPad*%
%ADD123O,1.8032X0.6532*%
%TA.AperFunction,SMDPad*%
G04:AMPARAMS|DCode=124|XSize=0.5032mm|YSize=1.6532mm|CornerRadius=0mm|HoleSize=0mm|Usage=FLASHONLY|Rotation=45.000|XOffset=0mm|YOffset=0mm|HoleType=Round|Shape=Round|*
%AMOVALD124*
21,1,1.1500,0.5032,0.0000,0.0000,135.0*
1,1,0.5032,0.4066,-0.4066*
1,1,0.5032,-0.4066,0.4066*
%
%ADD124OVALD124*%

%TA.AperFunction,SMDPad*%
G04:AMPARAMS|DCode=125|XSize=0.5032mm|YSize=1.6532mm|CornerRadius=0mm|HoleSize=0mm|Usage=FLASHONLY|Rotation=135.000|XOffset=0mm|YOffset=0mm|HoleType=Round|Shape=Round|*
%AMOVALD125*
21,1,1.1500,0.5032,0.0000,0.0000,225.0*
1,1,0.5032,0.4066,0.4066*
1,1,0.5032,-0.4066,-0.4066*
%
%ADD125OVALD125*%

%TA.AperFunction,SMDPad*%
%ADD126R,1.2232X0.8432*%
%TA.AperFunction,SMDPad*%
%ADD127R,0.9732X1.0832*%
%TA.AperFunction,SMDPad*%
%ADD128R,0.7032X0.7432*%
%TA.AperFunction,SMDPad*%
%ADD129R,0.5032X0.4032*%
%TA.AperFunction,SMDPad*%
%ADD130R,1.1532X1.5532*%
%TA.AperFunction,SMDPad*%
G04:AMPARAMS|DCode=131|XSize=1.1532mm|YSize=1.2032mm|CornerRadius=0mm|HoleSize=0mm|Usage=FLASHONLY|Rotation=135.000|XOffset=0mm|YOffset=0mm|HoleType=Round|Shape=Rectangle|*
%AMROTATEDRECTD131*
4,1,4,0.8331,0.0177,-0.0177,-0.8331,-0.8331,-0.0177,0.0177,0.8331,0.8331,0.0177,0.0*
%
%ADD131ROTATEDRECTD131*%

%TA.AperFunction,SMDPad*%
%ADD132R,0.8232X0.8632*%
%TA.AperFunction,SMDPad*%
%ADD133R,1.3532X1.9532*%
%TA.AperFunction,SMDPad*%
%ADD134R,1.1032X1.1032*%
%TA.AperFunction,SMDPad*%
%ADD135R,0.7032X0.8032*%
%TA.AperFunction,SMDPad*%
%ADD136R,5.2832X2.6162*%
%TA.AperFunction,SMDPad*%
%ADD137R,2.1082X0.7112*%
%TA.AperFunction,SMDPad*%
%ADD138R,1.1032X1.6032*%
%TA.AperFunction,SMDPad*%
G04:AMPARAMS|DCode=139|XSize=1.6032mm|YSize=1.1032mm|CornerRadius=0mm|HoleSize=0mm|Usage=FLASHONLY|Rotation=315.000|XOffset=0mm|YOffset=0mm|HoleType=Round|Shape=Rectangle|*
%AMROTATEDRECTD139*
4,1,4,-0.9569,0.1768,-0.1768,0.9569,0.9569,-0.1768,0.1768,-0.9569,-0.9569,0.1768,0.0*
%
%ADD139ROTATEDRECTD139*%

%TA.AperFunction,SMDPad*%
%ADD140R,1.1032X0.9032*%
%TA.AperFunction,SMDPad*%
%ADD141R,1.1032X1.0032*%
%TA.AperFunction,SMDPad*%
%ADD142R,1.1532X1.2032*%
%TA.AperFunction,SMDPad*%
%ADD143R,0.8032X0.7532*%
%TA.AperFunction,SMDPad*%
%ADD144R,1.0032X1.1032*%
%TA.AperFunction,SMDPad*%
%ADD145R,1.1032X1.1032*%
%TA.AperFunction,SMDPad*%
%ADD146R,0.9032X1.1032*%
%TA.AperFunction,SMDPad*%
G04:AMPARAMS|DCode=147|XSize=0.7032mm|YSize=0.7432mm|CornerRadius=0mm|HoleSize=0mm|Usage=FLASHONLY|Rotation=135.000|XOffset=0mm|YOffset=0mm|HoleType=Round|Shape=Rectangle|*
%AMROTATEDRECTD147*
4,1,4,0.5114,0.0141,-0.0141,-0.5114,-0.5114,-0.0141,0.0141,0.5114,0.5114,0.0141,0.0*
%
%ADD147ROTATEDRECTD147*%

%TA.AperFunction,SMDPad*%
%ADD148R,0.8032X0.7032*%
%TA.AperFunction,SMDPad*%
G04:AMPARAMS|DCode=149|XSize=0.7032mm|YSize=0.8032mm|CornerRadius=0mm|HoleSize=0mm|Usage=FLASHONLY|Rotation=135.000|XOffset=0mm|YOffset=0mm|HoleType=Round|Shape=Rectangle|*
%AMROTATEDRECTD149*
4,1,4,0.5326,0.0354,-0.0354,-0.5326,-0.5326,-0.0354,0.0354,0.5326,0.5326,0.0354,0.0*
%
%ADD149ROTATEDRECTD149*%

%TA.AperFunction,SMDPad*%
%ADD150R,0.8632X0.8232*%
%TA.AperFunction,SMDPad*%
G04:AMPARAMS|DCode=151|XSize=0.7032mm|YSize=0.8032mm|CornerRadius=0mm|HoleSize=0mm|Usage=FLASHONLY|Rotation=45.000|XOffset=0mm|YOffset=0mm|HoleType=Round|Shape=Rectangle|*
%AMROTATEDRECTD151*
4,1,4,0.0354,-0.5326,-0.5326,0.0354,-0.0354,0.5326,0.5326,-0.0354,0.0354,-0.5326,0.0*
%
%ADD151ROTATEDRECTD151*%

%TA.AperFunction,SMDPad*%
G04:AMPARAMS|DCode=152|XSize=1.1032mm|YSize=1.0032mm|CornerRadius=0mm|HoleSize=0mm|Usage=FLASHONLY|Rotation=135.000|XOffset=0mm|YOffset=0mm|HoleType=Round|Shape=Rectangle|*
%AMROTATEDRECTD152*
4,1,4,0.7447,-0.0354,0.0354,-0.7447,-0.7447,0.0354,-0.0354,0.7447,0.7447,-0.0354,0.0*
%
%ADD152ROTATEDRECTD152*%

%TA.AperFunction,SMDPad*%
G04:AMPARAMS|DCode=153|XSize=1.1032mm|YSize=1.0032mm|CornerRadius=0mm|HoleSize=0mm|Usage=FLASHONLY|Rotation=225.000|XOffset=0mm|YOffset=0mm|HoleType=Round|Shape=Rectangle|*
%AMROTATEDRECTD153*
4,1,4,0.0354,0.7447,0.7447,0.0354,-0.0354,-0.7447,-0.7447,-0.0354,0.0354,0.7447,0.0*
%
%ADD153ROTATEDRECTD153*%

%TA.AperFunction,SMDPad*%
%ADD154R,1.0832X0.9732*%
%TA.AperFunction,SMDPad*%
%ADD155R,1.6032X1.1032*%
%TA.AperFunction,SMDPad*%
%ADD156R,0.7432X0.7032*%
%TA.AperFunction,SMDPad*%
G04:AMPARAMS|DCode=157|XSize=1.1032mm|YSize=0.9032mm|CornerRadius=0mm|HoleSize=0mm|Usage=FLASHONLY|Rotation=225.000|XOffset=0mm|YOffset=0mm|HoleType=Round|Shape=Rectangle|*
%AMROTATEDRECTD157*
4,1,4,0.0707,0.7094,0.7094,0.0707,-0.0707,-0.7094,-0.7094,-0.0707,0.0707,0.7094,0.0*
%
%ADD157ROTATEDRECTD157*%

%TA.AperFunction,SMDPad*%
%ADD158R,0.8732X0.7432*%
%TA.AperFunction,SMDPad*%
G04:AMPARAMS|DCode=159|XSize=0.8732mm|YSize=0.7432mm|CornerRadius=0mm|HoleSize=0mm|Usage=FLASHONLY|Rotation=45.000|XOffset=0mm|YOffset=0mm|HoleType=Round|Shape=Rectangle|*
%AMROTATEDRECTD159*
4,1,4,-0.0460,-0.5715,-0.5715,-0.0460,0.0460,0.5715,0.5715,0.0460,-0.0460,-0.5715,0.0*
%
%ADD159ROTATEDRECTD159*%

%TA.AperFunction,ViaPad*%
%ADD160O,1.0032X1.5032*%
%TA.AperFunction,ViaPad*%
%ADD161O,1.0032X1.4032*%
%TA.AperFunction,ViaPad*%
%ADD162C,1.9032*%
%TA.AperFunction,ViaPad*%
%ADD163C,1.7032*%
%TA.AperFunction,ConnectorPad*%
%ADD164C,4.2032*%
%TA.AperFunction,ViaPad*%
%ADD165C,0.8032*%
D97*
X153750Y1257400D02*
D03*
Y1250900D02*
D03*
Y1244400D02*
D03*
Y1237900D02*
D03*
X198250Y1257400D02*
D03*
Y1250900D02*
D03*
Y1244400D02*
D03*
Y1237900D02*
D03*
D98*
X507750Y578500D02*
D03*
Y573500D02*
D03*
Y568500D02*
D03*
Y563500D02*
D03*
Y558500D02*
D03*
X552250Y578500D02*
D03*
Y573500D02*
D03*
Y568500D02*
D03*
Y563500D02*
D03*
Y558500D02*
D03*
D99*
X349500Y43000D02*
D03*
X356000D02*
D03*
X343000D02*
D03*
X362500D02*
D03*
X369000D02*
D03*
X221000D02*
D03*
X227500D02*
D03*
X234000D02*
D03*
X240500D02*
D03*
X247000D02*
D03*
D100*
X385000Y45000D02*
D03*
X327000D02*
D03*
X263000D02*
D03*
X205000D02*
D03*
D101*
X384000Y18500D02*
D03*
X328000D02*
D03*
X262000D02*
D03*
X206000D02*
D03*
D102*
X393000Y31250D02*
D03*
X319000D02*
D03*
X271000D02*
D03*
X197000D02*
D03*
D103*
X332000Y579000D02*
D03*
X485000Y543000D02*
D03*
D104*
X511750Y144500D02*
D03*
Y154000D02*
D03*
Y163500D02*
D03*
X484250D02*
D03*
Y144500D02*
D03*
D105*
X506252Y672501D02*
D03*
Y682001D02*
D03*
Y691501D02*
D03*
X482752D02*
D03*
Y672501D02*
D03*
D106*
X245050Y105000D02*
D03*
Y100000D02*
D03*
Y95000D02*
D03*
Y90000D02*
D03*
X272950Y105000D02*
D03*
Y100000D02*
D03*
Y95000D02*
D03*
Y90000D02*
D03*
D107*
X259000Y97500D02*
D03*
D108*
X302050Y831000D02*
D03*
Y826000D02*
D03*
Y821000D02*
D03*
Y816000D02*
D03*
X320950Y831000D02*
D03*
Y826000D02*
D03*
Y821000D02*
D03*
Y816000D02*
D03*
D109*
X311500Y823500D02*
D03*
D110*
X340000Y1339500D02*
D03*
D111*
X331900Y1344500D02*
D03*
Y1339500D02*
D03*
Y1334500D02*
D03*
X348100Y1344500D02*
D03*
Y1339500D02*
D03*
Y1334500D02*
D03*
D112*
X415750Y75000D02*
D03*
X438250D02*
D03*
D113*
X654500Y253750D02*
D03*
Y244250D02*
D03*
X332000Y537250D02*
D03*
Y546750D02*
D03*
X344150Y1436430D02*
D03*
Y1445930D02*
D03*
X289150Y1450930D02*
D03*
Y1441430D02*
D03*
X324150Y1403430D02*
D03*
Y1393930D02*
D03*
X344150Y1425930D02*
D03*
Y1416430D02*
D03*
X299150Y1441430D02*
D03*
Y1450930D02*
D03*
X269150Y1416430D02*
D03*
Y1425930D02*
D03*
X334150Y1403430D02*
D03*
Y1393930D02*
D03*
X301500Y968750D02*
D03*
Y959250D02*
D03*
X316500Y966750D02*
D03*
Y976250D02*
D03*
Y1111750D02*
D03*
Y1121250D02*
D03*
X301500D02*
D03*
Y1111750D02*
D03*
X316500Y1081750D02*
D03*
Y1091250D02*
D03*
X254000Y1056250D02*
D03*
Y1046750D02*
D03*
X667500Y253750D02*
D03*
Y244250D02*
D03*
X347500Y190250D02*
D03*
Y199750D02*
D03*
D114*
X326250Y1041500D02*
D03*
Y1046500D02*
D03*
Y1051500D02*
D03*
Y1056500D02*
D03*
X291750D02*
D03*
Y1051500D02*
D03*
Y1046500D02*
D03*
Y1041500D02*
D03*
D115*
X316500Y1066250D02*
D03*
X311500D02*
D03*
X306500D02*
D03*
X301500D02*
D03*
Y1031750D02*
D03*
X306500D02*
D03*
X311500D02*
D03*
X316500D02*
D03*
D116*
X309000Y1049000D02*
D03*
D117*
X296650Y1413680D02*
D03*
D118*
X289150Y1427430D02*
D03*
X294150D02*
D03*
X299150D02*
D03*
X304150D02*
D03*
Y1399930D02*
D03*
X299150D02*
D03*
X294150D02*
D03*
X289150D02*
D03*
D119*
X310400Y1421180D02*
D03*
Y1416180D02*
D03*
Y1411180D02*
D03*
Y1406180D02*
D03*
X282900D02*
D03*
Y1411180D02*
D03*
Y1416180D02*
D03*
Y1421180D02*
D03*
D120*
X365000Y150000D02*
D03*
D121*
X388750Y167500D02*
D03*
Y162500D02*
D03*
Y157500D02*
D03*
Y152500D02*
D03*
Y147500D02*
D03*
Y142500D02*
D03*
Y137500D02*
D03*
Y132500D02*
D03*
X341250D02*
D03*
Y137500D02*
D03*
Y142500D02*
D03*
Y147500D02*
D03*
Y152500D02*
D03*
Y157500D02*
D03*
Y162500D02*
D03*
Y167500D02*
D03*
D122*
X382500Y126250D02*
D03*
X377500D02*
D03*
X372500D02*
D03*
X367500D02*
D03*
X362500D02*
D03*
X357500D02*
D03*
X352500D02*
D03*
X347500D02*
D03*
Y173750D02*
D03*
X352500D02*
D03*
X357500D02*
D03*
X362500D02*
D03*
X367500D02*
D03*
X372500D02*
D03*
X377500D02*
D03*
X382500D02*
D03*
D123*
X398750Y608250D02*
D03*
Y601750D02*
D03*
Y595250D02*
D03*
Y588750D02*
D03*
X441250Y608250D02*
D03*
Y601750D02*
D03*
Y595250D02*
D03*
Y588750D02*
D03*
D124*
X249915Y362295D02*
D03*
X253450Y365830D02*
D03*
X256986Y369366D02*
D03*
X260522Y372901D02*
D03*
X264057Y376437D02*
D03*
X267593Y379972D02*
D03*
X271128Y383508D02*
D03*
X274664Y387043D02*
D03*
X278199Y390579D02*
D03*
X281735Y394114D02*
D03*
X285270Y397650D02*
D03*
X288806Y401185D02*
D03*
X292341Y404721D02*
D03*
X295877Y408257D02*
D03*
X299412Y411792D02*
D03*
X302948Y415328D02*
D03*
X306483Y418863D02*
D03*
X310019Y422399D02*
D03*
X313554Y425934D02*
D03*
X317090Y429470D02*
D03*
X320626Y433005D02*
D03*
X324161Y436541D02*
D03*
X327697Y440076D02*
D03*
X331232Y443612D02*
D03*
X334768Y447147D02*
D03*
X444016Y337900D02*
D03*
X440480Y334364D02*
D03*
X436945Y330828D02*
D03*
X433409Y327293D02*
D03*
X429874Y323757D02*
D03*
X426338Y320222D02*
D03*
X422803Y316686D02*
D03*
X419267Y313151D02*
D03*
X415732Y309615D02*
D03*
X412196Y306080D02*
D03*
X408660Y302544D02*
D03*
X405125Y299009D02*
D03*
X401589Y295473D02*
D03*
X398054Y291938D02*
D03*
X394518Y288402D02*
D03*
X390983Y284867D02*
D03*
X387447Y281331D02*
D03*
X383912Y277795D02*
D03*
X380376Y274260D02*
D03*
X376841Y270724D02*
D03*
X373305Y267189D02*
D03*
X369770Y263653D02*
D03*
X366234Y260118D02*
D03*
X362698Y256582D02*
D03*
X359163Y253047D02*
D03*
D125*
Y447147D02*
D03*
X362698Y443612D02*
D03*
X366234Y440076D02*
D03*
X369770Y436541D02*
D03*
X373305Y433005D02*
D03*
X376841Y429470D02*
D03*
X380376Y425934D02*
D03*
X383912Y422399D02*
D03*
X387447Y418863D02*
D03*
X390983Y415328D02*
D03*
X394518Y411792D02*
D03*
X398054Y408257D02*
D03*
X401589Y404721D02*
D03*
X405125Y401185D02*
D03*
X408660Y397650D02*
D03*
X412196Y394114D02*
D03*
X415732Y390579D02*
D03*
X419267Y387043D02*
D03*
X422803Y383508D02*
D03*
X426338Y379972D02*
D03*
X429874Y376437D02*
D03*
X433409Y372901D02*
D03*
X436945Y369366D02*
D03*
X440480Y365830D02*
D03*
X444016Y362295D02*
D03*
X334768Y253047D02*
D03*
X331232Y256582D02*
D03*
X327697Y260118D02*
D03*
X324161Y263653D02*
D03*
X320626Y267189D02*
D03*
X317090Y270724D02*
D03*
X313554Y274260D02*
D03*
X310019Y277795D02*
D03*
X306483Y281331D02*
D03*
X302948Y284867D02*
D03*
X299412Y288402D02*
D03*
X295877Y291938D02*
D03*
X292341Y295473D02*
D03*
X288806Y299009D02*
D03*
X285270Y302544D02*
D03*
X281735Y306080D02*
D03*
X278199Y309615D02*
D03*
X274664Y313151D02*
D03*
X271128Y316686D02*
D03*
X267593Y320222D02*
D03*
X264057Y323757D02*
D03*
X260522Y327293D02*
D03*
X256986Y330828D02*
D03*
X253450Y334364D02*
D03*
X249915Y337900D02*
D03*
D126*
X301500Y1015400D02*
D03*
Y1002600D02*
D03*
D127*
X383850Y75000D02*
D03*
X396150D02*
D03*
D128*
X360000Y1046700D02*
D03*
Y1057300D02*
D03*
X316500Y1006200D02*
D03*
Y1016800D02*
D03*
D129*
X446000Y1411500D02*
D03*
Y1416000D02*
D03*
X452000Y1411500D02*
D03*
Y1416000D02*
D03*
D130*
X669575Y273500D02*
D03*
X655425D02*
D03*
X669575Y300500D02*
D03*
X655425D02*
D03*
D131*
X265295Y249334D02*
D03*
X253274Y261355D02*
D03*
X280144Y264184D02*
D03*
X268123Y276204D02*
D03*
D132*
X302000Y56600D02*
D03*
Y65400D02*
D03*
D133*
X321750Y1367500D02*
D03*
X348250D02*
D03*
D134*
X285750Y959000D02*
D03*
X272250D02*
D03*
X323250Y782000D02*
D03*
X336750D02*
D03*
X287250Y105500D02*
D03*
X300750D02*
D03*
D135*
X391500Y1046800D02*
D03*
Y1056800D02*
D03*
X360000Y1344500D02*
D03*
Y1334500D02*
D03*
X484750Y581500D02*
D03*
Y591500D02*
D03*
X354150Y1406180D02*
D03*
Y1416180D02*
D03*
X384150Y1406180D02*
D03*
Y1416180D02*
D03*
X282500Y1375000D02*
D03*
Y1385000D02*
D03*
X295000Y1350000D02*
D03*
Y1360000D02*
D03*
D136*
X670000Y1090815D02*
D03*
Y1003185D02*
D03*
X671500Y787435D02*
D03*
Y875065D02*
D03*
X28500Y710315D02*
D03*
Y622685D02*
D03*
X672000Y1372185D02*
D03*
Y1459815D02*
D03*
X671000Y1192185D02*
D03*
Y1279815D02*
D03*
X671500Y567185D02*
D03*
Y654815D02*
D03*
X28250Y1090065D02*
D03*
Y1002435D02*
D03*
X28500Y896565D02*
D03*
Y808935D02*
D03*
X30000Y1459815D02*
D03*
Y1372185D02*
D03*
X28500Y1288315D02*
D03*
Y1200685D02*
D03*
D137*
X685875Y1047000D02*
D03*
X687375Y831250D02*
D03*
X12625Y666500D02*
D03*
X687875Y1416000D02*
D03*
X686875Y1236000D02*
D03*
X687375Y611000D02*
D03*
X12375Y1046250D02*
D03*
X12625Y852750D02*
D03*
X14125Y1416000D02*
D03*
X12625Y1244500D02*
D03*
D138*
X182500Y103000D02*
D03*
X161500D02*
D03*
D139*
X225343Y316863D02*
D03*
X210494Y302014D02*
D03*
D140*
X385000Y105000D02*
D03*
Y90000D02*
D03*
X420000Y15500D02*
D03*
Y30500D02*
D03*
X200000Y1290000D02*
D03*
Y1275000D02*
D03*
X179000Y1199500D02*
D03*
Y1214500D02*
D03*
X467250Y579000D02*
D03*
Y594000D02*
D03*
X375000Y626000D02*
D03*
Y611000D02*
D03*
X175000Y37500D02*
D03*
Y22500D02*
D03*
X462500Y628500D02*
D03*
Y643500D02*
D03*
X157500Y22500D02*
D03*
Y37500D02*
D03*
X414000Y120500D02*
D03*
Y105500D02*
D03*
X437000Y31500D02*
D03*
Y16500D02*
D03*
D141*
X331650Y1446680D02*
D03*
Y1430680D02*
D03*
X467000Y120000D02*
D03*
Y104000D02*
D03*
X332500Y1315000D02*
D03*
Y1299000D02*
D03*
X375000Y1347500D02*
D03*
Y1331500D02*
D03*
X315000Y1345000D02*
D03*
Y1329000D02*
D03*
X397500Y625500D02*
D03*
Y641500D02*
D03*
X155000Y1277000D02*
D03*
Y1293000D02*
D03*
X355000Y595500D02*
D03*
Y611500D02*
D03*
X179000Y1293000D02*
D03*
Y1277000D02*
D03*
X467000Y162000D02*
D03*
Y146000D02*
D03*
X533000Y162000D02*
D03*
Y146000D02*
D03*
X208000Y157000D02*
D03*
Y141000D02*
D03*
X370000Y89500D02*
D03*
Y105500D02*
D03*
X449000Y162000D02*
D03*
Y146000D02*
D03*
X400000Y89500D02*
D03*
Y105500D02*
D03*
X355000Y89500D02*
D03*
Y105500D02*
D03*
D142*
X431500Y125500D02*
D03*
X448500D02*
D03*
X431500Y104500D02*
D03*
X448500D02*
D03*
D143*
X405250Y136000D02*
D03*
X414750D02*
D03*
X470750Y1403000D02*
D03*
X461250D02*
D03*
X327250Y157500D02*
D03*
X317750D02*
D03*
X326750Y142000D02*
D03*
X317250D02*
D03*
X333900Y1416180D02*
D03*
X324400D02*
D03*
X256750Y1416000D02*
D03*
X247250D02*
D03*
X373900Y1416180D02*
D03*
X364400D02*
D03*
X311750Y1386000D02*
D03*
X302250D02*
D03*
X303750Y1374000D02*
D03*
X294250D02*
D03*
X273750Y1046500D02*
D03*
X264250D02*
D03*
X670750Y318000D02*
D03*
X661250D02*
D03*
D144*
X213000Y1214000D02*
D03*
X197000D02*
D03*
X581500Y568500D02*
D03*
X597500D02*
D03*
X382000Y567000D02*
D03*
X398000D02*
D03*
Y549500D02*
D03*
X382000D02*
D03*
X478000Y611000D02*
D03*
X462000D02*
D03*
X235000Y1238250D02*
D03*
X219000D02*
D03*
X120000Y258000D02*
D03*
X104000D02*
D03*
X178000Y83000D02*
D03*
X162000D02*
D03*
X425000Y171500D02*
D03*
X409000D02*
D03*
D145*
X464000Y685250D02*
D03*
Y671750D02*
D03*
X530000Y672250D02*
D03*
Y685750D02*
D03*
X228000Y102750D02*
D03*
Y116250D02*
D03*
D146*
X442500Y568500D02*
D03*
X427500D02*
D03*
X104500Y276000D02*
D03*
X119500D02*
D03*
D147*
X278302Y809202D02*
D03*
X285798Y816698D02*
D03*
D148*
X358500Y831250D02*
D03*
X368500D02*
D03*
X336500Y796000D02*
D03*
X326500D02*
D03*
X346500Y841000D02*
D03*
X336500D02*
D03*
X291500Y979000D02*
D03*
X301500D02*
D03*
X301500Y989000D02*
D03*
X291500D02*
D03*
X326500Y996500D02*
D03*
X316500D02*
D03*
X316500Y986500D02*
D03*
X326500D02*
D03*
X326500Y1101500D02*
D03*
X316500D02*
D03*
X291500Y1081500D02*
D03*
X301500D02*
D03*
X244000Y1046500D02*
D03*
X234000D02*
D03*
X349000Y1046800D02*
D03*
X339000D02*
D03*
D149*
X262964Y794414D02*
D03*
X270036Y801486D02*
D03*
D150*
X297400Y91000D02*
D03*
X288600D02*
D03*
D151*
X286071Y831429D02*
D03*
X279000Y838500D02*
D03*
D152*
X221100Y365653D02*
D03*
X232414Y376967D02*
D03*
X374896Y469952D02*
D03*
X386210Y481265D02*
D03*
X398584Y468891D02*
D03*
X387270Y457577D02*
D03*
X208726Y378028D02*
D03*
X220040Y389342D02*
D03*
X373835Y493640D02*
D03*
X362522Y482326D02*
D03*
X253627Y288579D02*
D03*
X242314Y277265D02*
D03*
X241253Y300953D02*
D03*
X229939Y289639D02*
D03*
X291657Y253657D02*
D03*
X280343Y242343D02*
D03*
X293579Y229535D02*
D03*
X304893Y240849D02*
D03*
X317267Y228475D02*
D03*
X305953Y217161D02*
D03*
D153*
X492276Y332066D02*
D03*
X480962Y343380D02*
D03*
X239839Y247213D02*
D03*
X251152Y235899D02*
D03*
X479901Y319692D02*
D03*
X468588Y331005D02*
D03*
X378432Y240849D02*
D03*
X389745Y229535D02*
D03*
X467527Y307317D02*
D03*
X456213Y318631D02*
D03*
D154*
X288000Y78150D02*
D03*
Y65850D02*
D03*
D155*
X208000Y102500D02*
D03*
Y123500D02*
D03*
D156*
X336200Y831000D02*
D03*
X346800D02*
D03*
X371200Y1046800D02*
D03*
X381800D02*
D03*
D157*
X256809Y397827D02*
D03*
X246203Y408433D02*
D03*
D158*
X336000Y811700D02*
D03*
Y820300D02*
D03*
D159*
X272041Y845959D02*
D03*
X265959Y852040D02*
D03*
D160*
X384100Y14700D02*
D03*
X328000D02*
D03*
X262100D02*
D03*
X206000D02*
D03*
D161*
X331800Y45000D02*
D03*
X380300D02*
D03*
X209800D02*
D03*
X258300D02*
D03*
D162*
X67500Y320000D02*
D03*
X22500Y261000D02*
D03*
Y320000D02*
D03*
X67500Y261000D02*
D03*
D163*
X25000Y530400D02*
D03*
Y505000D02*
D03*
Y479600D02*
D03*
Y403400D02*
D03*
Y428800D02*
D03*
Y454200D02*
D03*
X665000Y463400D02*
D03*
Y438000D02*
D03*
Y412600D02*
D03*
Y387200D02*
D03*
X32000Y93600D02*
D03*
Y119000D02*
D03*
Y144400D02*
D03*
X665000Y64000D02*
D03*
Y38600D02*
D03*
Y120600D02*
D03*
Y146000D02*
D03*
Y171400D02*
D03*
D164*
X120000Y1470000D02*
D03*
X580000D02*
D03*
X120000Y40000D02*
D03*
X580000D02*
D03*
D165*
X309000Y1049000D02*
D03*
X409000Y506000D02*
D03*
X301000Y445000D02*
D03*
X273747Y453747D02*
D03*
X286873Y450873D02*
D03*
X416000Y500000D02*
D03*
X415000Y513000D02*
D03*
X282000Y979000D02*
D03*
X337000Y986000D02*
D03*
X311000Y781000D02*
D03*
%TF.MD5,B678E2CEF8EA6321EB50FAC4294801B3*%
M02*
