M48
;Layer_Color=9474304
;FILE_FORMAT=4:4
METRIC,LZ
;TYPE=PLATED
T1F00S00C0.3000
T3F00S00C0.9000
T4F00S00C1.2000
T5F00S00C3.1000
%
T01
X0012Y00085
Y00102
X00131Y00094
X00142Y00086
Y00102
X00195Y00103
X00219
X00237Y00102
X00259
Y00093
X0026Y00078
X00247Y00057
X00302Y00045
X00318Y00066
X0033
X00332Y00076
X00343Y00072
X00341Y0006
X00356Y00067
X00355Y00079
X0037
X00369Y00061
X00384Y00063
X00405Y00045
X0043825Y0005525
Y00065
X0044Y00115
X00429Y00143
X00464Y00131
X00413Y00094
X003675Y00115
X00365Y00139
X00376
X00354
X00307Y00142
X0030475Y00121
X00313
X002965
X00312Y00105
X00307Y00091
X00259Y00117
X00239Y00124
X00219979Y00131
X00208
X00195
X00178Y0007
X00186Y00047
X001575Y0005
X00548Y00162
X00637Y00244
X006675Y002325
X00654Y00331
X0049Y00353
X00424Y00355
Y00346
Y00420061
X00431Y00427
X00438Y00433
X00352
X003575Y00424271
X00361Y00469
X00387Y00494
X00402Y00484
X00409Y00506
X00416Y005
X00415Y00513
X00301Y00445
X00286873Y00450873
X00273747Y00453747
X00206Y00454
X00195Y00455
X00181Y00469
X00238Y00417
X00234Y00392
X00206Y00363
X00214Y00327
Y00288
X00228Y00274
X0023Y00238
X00243Y00227
X0028Y00229
X00291Y00215
X00294Y00241
X00296Y00269
X00289Y00274
X00328Y00281
X00333Y002885
X00311Y0029999
X00307Y0031
X00297Y00313
X00277Y00332
X00244Y00318
X00292Y00379
X00351Y00324
X00362Y00278
X00357Y00268
X00364Y00238
X00372Y00232
X00383Y00221
X00411
X00398Y00205
Y00183
X00392Y00176
X00387Y00191
X00376Y00161
X00365
Y0015
X00376
X00354
Y00161
X00317Y00166
X00322Y00214
X00339Y002
Y00236
Y00245
X00386Y00255
X004Y00274
X00416Y0026
X00425Y00183
X004105Y001525
X00522Y00147
Y00159
X00221Y00157
X00104Y00241
X00107288Y00629455
X00116288
X00125288Y00629467
X00135Y00629
X00144Y0063
X00098288Y00629455
X00089288
X00080288
X00071288
X00062288
X00063034Y00703546
X00072034
X00081034
X00090034
X00099034
X00108034
X00117034
X00124592Y00708432
X00130956Y00714796
X0013732Y0072116
X00143684Y00727524
X00138253Y00815705
X00129253
X00120253
X00111253
X00102253
X00093253
X00084253
X00075253
X00066253
X00061Y00808
X00027Y00789
X00028Y00729
X00059071Y00889796
X00068071
X0007707
X0008607
X0009507
X00104071
X0011307
X0012207
X0013107
X0014007
X0014907
X0015807
X0016707
X0017607
X0018507
X0019407
X0020307
X0021207
X0022107
X0023007
X0023907
X0024807
X0025707
X00266648Y00889741
X00274Y00884
X00281Y00877
X00302467Y00847054
X00311Y00842
X00312Y00803
X00318Y00793
X00311Y00781
X00336Y00767
X0028128Y0076034
X00274917Y00753976
X00268553Y00747612
X00262189Y00741248
X00255825Y00734884
X00249461Y00728521
X00243097Y00722157
X00236733Y00715793
X00230369Y00709429
X00224005Y00703065
X00217641Y00696701
X00211277Y00690337
X00204913Y00683973
X00198549Y00677609
X00192185Y00671245
X00185821Y00664881
X00179457Y00658517
X00173093Y00652153
X00166646Y00645874
X0015924Y0064076
X00153Y00635
X00150048Y00733888
X00156412Y00740252
X00162776Y00746616
X0016914Y0075298
X00175504Y00759344
X00181868Y00765708
X00188232Y00772072
X00194595Y00778436
X00200959Y00784799
X00207323Y00791163
X00213687Y00797527
X00220051Y00803891
X00219252Y00815705
X00210252
X00201252
X00192253
X00183253
X00174252
X00165252
X00156252
X00147253
X00226415Y00810255
X00377876Y00794204
X00386876
X00395876
X00404876
X00413876
X00422876
X00437Y00795
X00449876Y00794204
X00458876
X00467876
X00476876
X00485876
X00494876
X00503876
X00512876
X00521876
X00530876
X00539876
X00540209Y00868295
X00531209
X00522209
X00513209
X00504209
X00495209
X00486209
X00477209
X00468209
X00459209
X00450209
X00438Y00869
X00423209Y00868295
X00414209
X00405209
X00396209
X00387209
X00378209
X00369209
X00464Y00697
X00494Y00682
X00519Y006815
X0053Y00698
X00533719Y00647841
X00524719
X00515719
X00506719
X00497719
X00488719
X00471Y00656
X00411Y00642
X00413Y00558
X00477995Y00574159
X00522Y00576
X00534Y00581
X00540994Y00574158
X00542719Y00647841
X00551719
X00560719
X00569719
X00578719
X00587719
X00596719
X00605719
X00614719
X00623719
X00632719
X00630994Y00574158
X00639994
X00621994
X00612Y0057375
X00603Y0058
X0059175Y0058025
X0058075Y0057975
X005695Y005785
X005815Y005555
X00584876Y00794204
X00593876
X00602876
X00611876
X00620876
X00629876
X00638876
X00575876
X00566876
X00557876
X00548876
X00549209Y00868295
X00558209
X00567209
X00576208
X00585209
X00594208
X00603208
X00612208
X00621208
X00630208
X00639208
X00639126Y01009955
X00630126
X00621126
X00612126
X00603126
X00594126
X00585126
X00576126
X00567126
X00558126
X00549126
X00548542Y01084045
X00557542
X00566542
X00575542
X00584542
X00593542
X00602542
X00611542
X00620542
X00629542
X00638541
X00632492Y01201165
X00623492
X00614492
X00605492
X00596492
X00587492
X00578492
X00569492
X00560492
X00551492
X00553248Y01270835
X00562248
X00571248
X00580248
X00589248
X00598248
X00607248
X00616248
X00625248
X00634248
X00544465Y012728
X00538101Y01279164
X00531737Y01285528
X00525373Y01291892
X00519009Y01298255
X00512645Y01304619
X00506281Y01310983
X00499917Y01317347
X00493553Y01323711
X00487189Y01330075
X00480835Y01336449
X00411165Y01333384
Y01324384
X00411827Y01315408
X00414677Y01306871
X00419632Y01299358
X00425867Y01292868
X00432231Y01286504
X00438595Y0128014
X00444959Y01273776
X00451323Y01267412
X00457687Y01261048
X00464051Y01254684
X00470415Y0124832
X00476779Y01241956
X00483143Y01235592
X00489507Y01229229
X00495871Y01222865
X00502235Y01216501
X00508653Y01210192
X00516073Y01205098
X00524534Y0120203
X00533492Y01201165
X00542492
X00539542Y01084045
X00530542
X00521542
X00512542
X00503542
X00494542
X00485542
X00476542
X00467542
X00458542
X00449542
X00439Y01084
X00422542Y01084045
X00413542
X00404542
X00395542
X00386544Y01083845
X003915Y010655
X00359Y01066
X003145Y010545
Y010435
X003035
Y010545
X00309Y01049
Y01075
X00281Y01082
Y01056
X00254Y01066
X00253Y01083
X00234
X0022582Y01083295
X0021682
X0020782
X0019882
X0018982
X0018082
X0017182
X0016282
X0015382
X00151001Y01009205
X00160001
X00169001
X00178001
X00187001
X00196
X00205
X00214
X00223001
X00232001
X00282Y00989
Y00979
X00294Y00949
X00317Y00957
X00337Y00986
Y00996
X00309Y01023
X00387128Y01009754
X00396126Y01009955
X00405126
X00414126
X00423126
X00438Y0101
X00450126Y01009955
X00459126
X00468126
X00477126
X00486126
X00495126
X00504126
X00513126
X00522126
X00531126
X00540126
X00335Y01101
X003165Y011325
X003015Y011315
X00227Y01214
X00248Y01238
X00212Y01254
X00217Y01264
X002Y01302
X00179Y01306
X00155
X00167Y01277
X00187721Y0123014
X00179Y01176
X003325Y01287
X0034Y01326
X00315Y01317
X00375Y01319
X00259Y00958
X00142001Y01009205
X00133001
X00124001
X00115001
X00106001
X00097001
X00088001
X00079001
X00070001
X00061001
X00063821Y01083295
X00072821
X0008182
X0009082
X0009982
X0010882
X0011782
X0012682
X0013582
X0014482
X001429Y01207455
X001339
X001249
X001159
X001069
X000979
X000889
X000799
X00070901
X00061901
X00063429Y01281545
X00072429
X00081429
X00090429
X00099429
X00108429
X00117429
X00126429
X00135429
X00137501Y01378954
X00146501
X00128501
X00119501
X00110501
X00101501
X00092501
X00083501
X00074501
X00065501
X00062821Y01453045
X00071821
X00080821
X00089821
X00098821
X00143821
X00152821
X00161821
X00170821
X00179821
X00188821
X00197821
X00206821
X00215821
X00224821
X00233821
X00245Y0145275
X00255
X00265Y014525
X0028Y01451
X00269Y01435
X0029319Y01417
X0029315Y0141043
X003Y0141048
Y01417
X00318Y01411
X0032Y0143
X00309Y01451
X00336Y0146
X0035325Y0145225
X003625Y0145175
X00371166Y0145082
X00380164Y01451015
X00389164
X00398164
X00407164
X00416164
X00425164
X00434164
X00443649Y01450964
X00452648Y01450835
X00461648
X00470648
X00479648
X00488648
X00497648
X00506648
X00515648
X00524648
X00533648
X00542648
X0053708Y01381165
X0052808
X0051908
X0051008
X0050108
X0049208
X0048308
X00480835Y01372449
Y01363449
Y01354449
Y01345449
X00482Y01403
X00411165Y01378383
Y01369384
Y01360384
Y01351384
Y01342384
X0040175Y013785
X0039325Y0137875
X0038475
X0037675Y0137825
X00384Y01397
X00362Y01406
X0035Y01392
X00329Y01385
X00361Y01367
X00363Y01355
X00295Y01339
X00282Y01363
X00271Y01385
X00263Y013805
X00254469Y01379703
X002455Y01378954
X002365
X002275
X002185
X00209501
X00200501
X00191501
X00182501
X00173501
X00164501
X00155501
X0054608Y01381165
X0055508
X0056408
X0057308
X0058208
X0059108
X0060008
X0060908
X0061808
X0062708
X0063608
X00632648Y01450835
X00641647
X00623647
X00614647
X00605648
X0059675Y01451
X0056125
X00551648Y01450835
T03
X00032Y000936
Y00119
Y001444
X00665Y00146
Y001206
Y00064
Y000386
Y001714
Y003872
Y004126
Y00438
Y004634
X00025Y004542
Y004796
Y00505
Y005304
Y004288
Y004034
T04
X000225Y00261
X000675
Y0032
X000225
T05
X0012Y0004
X0058
X0012Y0147
X0058
M30
