G04 Layer_Physical_Order=2*
G04 Layer_Color=36540*
%FSLAX44Y44*%
%MOMM*%
%TF.FileFunction,Copper,L2,Inr,Signal*%
%TF.Part,Single*%
G01*
G75*
%TA.AperFunction,ViaPad*%
%ADD85O,0.8000X1.3000*%
%TA.AperFunction,ViaPad*%
%ADD86O,0.8000X1.2000*%
%TA.AperFunction,ViaPad*%
%ADD87C,1.7000*%
%TA.AperFunction,ViaPad*%
%ADD88C,1.5000*%
%TA.AperFunction,ConnectorPad*%
%ADD89C,4.0000*%
%TA.AperFunction,ViaPad*%
%ADD90C,0.6000*%
G36*
X698000Y2000D02*
X2000D01*
Y1498000D01*
X698000D01*
Y2000D01*
D02*
G37*
%LPC*%
G36*
X410500Y156833D02*
X408842Y156503D01*
X407436Y155564D01*
X406497Y154158D01*
X406167Y152500D01*
X406497Y150842D01*
X407436Y149436D01*
X408842Y148497D01*
X410500Y148167D01*
X412158Y148497D01*
X413564Y149436D01*
X414503Y150842D01*
X414833Y152500D01*
X414503Y154158D01*
X413564Y155564D01*
X412158Y156503D01*
X410500Y156833D01*
D02*
G37*
G36*
X522000Y151333D02*
X520342Y151003D01*
X518936Y150064D01*
X517997Y148658D01*
X517667Y147000D01*
X517997Y145342D01*
X518936Y143936D01*
X520342Y142997D01*
X522000Y142667D01*
X523658Y142997D01*
X525064Y143936D01*
X526003Y145342D01*
X526333Y147000D01*
X526003Y148658D01*
X525064Y150064D01*
X523658Y151003D01*
X522000Y151333D01*
D02*
G37*
G36*
X429000Y147333D02*
X427342Y147003D01*
X425936Y146064D01*
X424997Y144658D01*
X424667Y143000D01*
X424997Y141342D01*
X425936Y139936D01*
X427342Y138997D01*
X429000Y138667D01*
X430658Y138997D01*
X432064Y139936D01*
X433003Y141342D01*
X433333Y143000D01*
X433003Y144658D01*
X432064Y146064D01*
X430658Y147003D01*
X429000Y147333D01*
D02*
G37*
G36*
X522000Y163333D02*
X520342Y163003D01*
X518936Y162064D01*
X517997Y160658D01*
X517667Y159000D01*
X517997Y157342D01*
X518936Y155936D01*
X520342Y154997D01*
X522000Y154667D01*
X523658Y154997D01*
X525064Y155936D01*
X526003Y157342D01*
X526333Y159000D01*
X526003Y160658D01*
X525064Y162064D01*
X523658Y163003D01*
X522000Y163333D01*
D02*
G37*
G36*
X398000Y187333D02*
X396342Y187003D01*
X394936Y186064D01*
X393997Y184658D01*
X393667Y183000D01*
X393997Y181342D01*
X394158Y181100D01*
X394098Y180969D01*
X393318Y180071D01*
X392000Y180333D01*
X390342Y180003D01*
X388936Y179064D01*
X387997Y177658D01*
X387667Y176000D01*
X387997Y174342D01*
X388936Y172936D01*
X390342Y171997D01*
X392000Y171667D01*
X393658Y171997D01*
X395064Y172936D01*
X396003Y174342D01*
X396333Y176000D01*
X396003Y177658D01*
X395842Y177900D01*
X395902Y178031D01*
X396682Y178929D01*
X398000Y178667D01*
X399658Y178997D01*
X401064Y179936D01*
X402003Y181342D01*
X402333Y183000D01*
X402003Y184658D01*
X401064Y186064D01*
X399658Y187003D01*
X398000Y187333D01*
D02*
G37*
G36*
X665000Y180226D02*
X662716Y179925D01*
X660587Y179043D01*
X658759Y177641D01*
X657357Y175813D01*
X656475Y173684D01*
X656174Y171400D01*
X656475Y169116D01*
X657357Y166987D01*
X658759Y165159D01*
X660587Y163757D01*
X662716Y162875D01*
X665000Y162575D01*
X667284Y162875D01*
X669413Y163757D01*
X671241Y165159D01*
X672643Y166987D01*
X673525Y169116D01*
X673826Y171400D01*
X673525Y173684D01*
X672643Y175813D01*
X671241Y177641D01*
X669413Y179043D01*
X667284Y179925D01*
X665000Y180226D01*
D02*
G37*
G36*
X317000Y170333D02*
X315342Y170003D01*
X313936Y169064D01*
X312997Y167658D01*
X312667Y166000D01*
X312997Y164342D01*
X313936Y162936D01*
X315342Y161997D01*
X317000Y161667D01*
X318658Y161997D01*
X320064Y162936D01*
X321003Y164342D01*
X321333Y166000D01*
X321003Y167658D01*
X320064Y169064D01*
X318658Y170003D01*
X317000Y170333D01*
D02*
G37*
G36*
X195000Y135333D02*
X193342Y135003D01*
X191936Y134064D01*
X190997Y132658D01*
X190667Y131000D01*
X190997Y129342D01*
X191936Y127936D01*
X193342Y126997D01*
X195000Y126667D01*
X196658Y126997D01*
X198064Y127936D01*
X199003Y129342D01*
X199333Y131000D01*
X199003Y132658D01*
X198064Y134064D01*
X196658Y135003D01*
X195000Y135333D01*
D02*
G37*
G36*
X313000Y125333D02*
X311342Y125003D01*
X309936Y124064D01*
X309639Y123619D01*
X308111D01*
X307814Y124064D01*
X306408Y125003D01*
X304750Y125333D01*
X303092Y125003D01*
X301686Y124064D01*
X301389Y123619D01*
X299861D01*
X299564Y124064D01*
X298158Y125003D01*
X296500Y125333D01*
X294842Y125003D01*
X293436Y124064D01*
X292496Y122658D01*
X292167Y121000D01*
X292496Y119342D01*
X293436Y117936D01*
X294842Y116997D01*
X296500Y116667D01*
X298158Y116997D01*
X299564Y117936D01*
X299861Y118381D01*
X301389D01*
X301686Y117936D01*
X303092Y116997D01*
X304750Y116667D01*
X306408Y116997D01*
X307814Y117936D01*
X308111Y118381D01*
X309639D01*
X309936Y117936D01*
X311342Y116997D01*
X313000Y116667D01*
X314658Y116997D01*
X316064Y117936D01*
X317003Y119342D01*
X317333Y121000D01*
X317003Y122658D01*
X316064Y124064D01*
X314658Y125003D01*
X313000Y125333D01*
D02*
G37*
G36*
X665000Y129425D02*
X662716Y129125D01*
X660587Y128243D01*
X658759Y126841D01*
X657357Y125013D01*
X656475Y122884D01*
X656174Y120600D01*
X656475Y118316D01*
X657357Y116187D01*
X658759Y114359D01*
X660587Y112957D01*
X662716Y112075D01*
X665000Y111775D01*
X667284Y112075D01*
X669413Y112957D01*
X671241Y114359D01*
X672643Y116187D01*
X673525Y118316D01*
X673826Y120600D01*
X673525Y122884D01*
X672643Y125013D01*
X671241Y126841D01*
X669413Y128243D01*
X667284Y129125D01*
X665000Y129425D01*
D02*
G37*
G36*
X208000Y135333D02*
X206342Y135003D01*
X204936Y134064D01*
X203997Y132658D01*
X203667Y131000D01*
X203997Y129342D01*
X204936Y127936D01*
X206342Y126997D01*
X208000Y126667D01*
X209658Y126997D01*
X211064Y127936D01*
X212003Y129342D01*
X212333Y131000D01*
X212003Y132658D01*
X211064Y134064D01*
X209658Y135003D01*
X208000Y135333D01*
D02*
G37*
G36*
X307000Y146333D02*
X305342Y146003D01*
X303936Y145064D01*
X302997Y143658D01*
X302667Y142000D01*
X302997Y140342D01*
X303936Y138936D01*
X305342Y137997D01*
X307000Y137667D01*
X308658Y137997D01*
X310064Y138936D01*
X311003Y140342D01*
X311333Y142000D01*
X311003Y143658D01*
X310064Y145064D01*
X308658Y146003D01*
X307000Y146333D01*
D02*
G37*
G36*
X665000Y154825D02*
X662716Y154525D01*
X660587Y153643D01*
X658759Y152241D01*
X657357Y150413D01*
X656475Y148284D01*
X656174Y146000D01*
X656475Y143716D01*
X657357Y141587D01*
X658759Y139759D01*
X660587Y138357D01*
X662716Y137475D01*
X665000Y137175D01*
X667284Y137475D01*
X669413Y138357D01*
X671241Y139759D01*
X672643Y141587D01*
X673525Y143716D01*
X673826Y146000D01*
X673525Y148284D01*
X672643Y150413D01*
X671241Y152241D01*
X669413Y153643D01*
X667284Y154525D01*
X665000Y154825D01*
D02*
G37*
G36*
X219979Y135333D02*
X218321Y135003D01*
X216915Y134064D01*
X215976Y132658D01*
X215646Y131000D01*
X215976Y129342D01*
X216915Y127936D01*
X218321Y126997D01*
X219979Y126667D01*
X221637Y126997D01*
X223043Y127936D01*
X223983Y129342D01*
X224312Y131000D01*
X223983Y132658D01*
X223043Y134064D01*
X221637Y135003D01*
X219979Y135333D01*
D02*
G37*
G36*
X387000Y195333D02*
X385342Y195003D01*
X383936Y194064D01*
X382997Y192658D01*
X382667Y191000D01*
X382997Y189342D01*
X383936Y187936D01*
X385342Y186997D01*
X387000Y186667D01*
X388658Y186997D01*
X390064Y187936D01*
X391003Y189342D01*
X391333Y191000D01*
X391003Y192658D01*
X390064Y194064D01*
X388658Y195003D01*
X387000Y195333D01*
D02*
G37*
G36*
X104000Y245333D02*
X102342Y245003D01*
X100936Y244064D01*
X99997Y242658D01*
X99667Y241000D01*
X99997Y239342D01*
X100936Y237936D01*
X102342Y236997D01*
X104000Y236667D01*
X105658Y236997D01*
X107064Y237936D01*
X108003Y239342D01*
X108333Y241000D01*
X108003Y242658D01*
X107064Y244064D01*
X105658Y245003D01*
X104000Y245333D01*
D02*
G37*
G36*
X364000Y242333D02*
X362342Y242003D01*
X360936Y241064D01*
X359997Y239658D01*
X359667Y238000D01*
X359997Y236342D01*
X360936Y234936D01*
X362342Y233997D01*
X364000Y233667D01*
X365658Y233997D01*
X367064Y234936D01*
X368003Y236342D01*
X368333Y238000D01*
X368003Y239658D01*
X367064Y241064D01*
X365658Y242003D01*
X364000Y242333D01*
D02*
G37*
G36*
X339000Y249333D02*
X337342Y249003D01*
X335936Y248064D01*
X334997Y246658D01*
X334667Y245000D01*
X334997Y243342D01*
X335936Y241936D01*
X337029Y241206D01*
X337107Y240904D01*
Y240096D01*
X337029Y239794D01*
X335936Y239064D01*
X334997Y237658D01*
X334667Y236000D01*
X334997Y234342D01*
X335936Y232936D01*
X337342Y231997D01*
X339000Y231667D01*
X340658Y231997D01*
X342064Y232936D01*
X343003Y234342D01*
X343333Y236000D01*
X343003Y237658D01*
X342064Y239064D01*
X340971Y239794D01*
X340893Y240096D01*
Y240904D01*
X340971Y241206D01*
X342064Y241936D01*
X343003Y243342D01*
X343333Y245000D01*
X343003Y246658D01*
X342064Y248064D01*
X340658Y249003D01*
X339000Y249333D01*
D02*
G37*
G36*
X294000Y245333D02*
X292342Y245003D01*
X290936Y244064D01*
X289997Y242658D01*
X289667Y241000D01*
X289997Y239342D01*
X290936Y237936D01*
X292342Y236997D01*
X294000Y236667D01*
X295658Y236997D01*
X297064Y237936D01*
X298003Y239342D01*
X298333Y241000D01*
X298003Y242658D01*
X297064Y244064D01*
X295658Y245003D01*
X294000Y245333D01*
D02*
G37*
G36*
X67500Y270834D02*
X64955Y270499D01*
X62583Y269517D01*
X60546Y267954D01*
X58983Y265917D01*
X58001Y263545D01*
X57666Y261000D01*
X58001Y258455D01*
X58983Y256083D01*
X60546Y254046D01*
X62583Y252483D01*
X64955Y251501D01*
X67500Y251166D01*
X70045Y251501D01*
X72417Y252483D01*
X74454Y254046D01*
X76017Y256083D01*
X76999Y258455D01*
X77334Y261000D01*
X76999Y263545D01*
X76017Y265917D01*
X74454Y267954D01*
X72417Y269517D01*
X70045Y270499D01*
X67500Y270834D01*
D02*
G37*
G36*
X386000Y259333D02*
X384342Y259003D01*
X382936Y258064D01*
X381997Y256658D01*
X381667Y255000D01*
X381997Y253342D01*
X382936Y251936D01*
X384342Y250997D01*
X386000Y250667D01*
X387658Y250997D01*
X389064Y251936D01*
X390003Y253342D01*
X390333Y255000D01*
X390003Y256658D01*
X389064Y258064D01*
X387658Y259003D01*
X386000Y259333D01*
D02*
G37*
G36*
X637000Y248333D02*
X635342Y248003D01*
X633936Y247064D01*
X632997Y245658D01*
X632667Y244000D01*
X632997Y242342D01*
X633936Y240936D01*
X635342Y239997D01*
X637000Y239667D01*
X638658Y239997D01*
X640064Y240936D01*
X641003Y242342D01*
X641333Y244000D01*
X641003Y245658D01*
X640064Y247064D01*
X638658Y248003D01*
X637000Y248333D01*
D02*
G37*
G36*
X322000Y218333D02*
X320342Y218003D01*
X318936Y217064D01*
X317997Y215658D01*
X317667Y214000D01*
X317997Y212342D01*
X318936Y210936D01*
X320342Y209997D01*
X322000Y209667D01*
X323658Y209997D01*
X325064Y210936D01*
X326003Y212342D01*
X326333Y214000D01*
X326003Y215658D01*
X325064Y217064D01*
X323658Y218003D01*
X322000Y218333D01*
D02*
G37*
G36*
X398000Y209333D02*
X396342Y209003D01*
X394936Y208064D01*
X393997Y206658D01*
X393667Y205000D01*
X393997Y203342D01*
X394936Y201936D01*
X396342Y200997D01*
X398000Y200667D01*
X399658Y200997D01*
X401064Y201936D01*
X402003Y203342D01*
X402333Y205000D01*
X402003Y206658D01*
X401064Y208064D01*
X399658Y209003D01*
X398000Y209333D01*
D02*
G37*
G36*
X339000Y204333D02*
X337342Y204003D01*
X335936Y203064D01*
X334997Y201658D01*
X334667Y200000D01*
X334997Y198342D01*
X335936Y196936D01*
X337342Y195997D01*
X339000Y195667D01*
X340658Y195997D01*
X342064Y196936D01*
X343003Y198342D01*
X343333Y200000D01*
X343003Y201658D01*
X342064Y203064D01*
X340658Y204003D01*
X339000Y204333D01*
D02*
G37*
G36*
X411000Y225333D02*
X409342Y225003D01*
X407936Y224064D01*
X406997Y222658D01*
X406667Y221000D01*
X406997Y219342D01*
X407936Y217936D01*
X409342Y216997D01*
X411000Y216667D01*
X412658Y216997D01*
X414064Y217936D01*
X415003Y219342D01*
X415333Y221000D01*
X415003Y222658D01*
X414064Y224064D01*
X412658Y225003D01*
X411000Y225333D01*
D02*
G37*
G36*
X667500Y236833D02*
X665842Y236503D01*
X664436Y235564D01*
X663496Y234158D01*
X663167Y232500D01*
X663496Y230842D01*
X664436Y229436D01*
X665842Y228496D01*
X667500Y228167D01*
X669158Y228496D01*
X670564Y229436D01*
X671503Y230842D01*
X671833Y232500D01*
X671503Y234158D01*
X670564Y235564D01*
X669158Y236503D01*
X667500Y236833D01*
D02*
G37*
G36*
X372000Y236333D02*
X370342Y236003D01*
X368936Y235064D01*
X367997Y233658D01*
X367667Y232000D01*
X367997Y230342D01*
X368936Y228936D01*
X370342Y227997D01*
X372000Y227667D01*
X373658Y227997D01*
X375064Y228936D01*
X376003Y230342D01*
X376333Y232000D01*
X376003Y233658D01*
X375064Y235064D01*
X373658Y236003D01*
X372000Y236333D01*
D02*
G37*
G36*
X243000Y231333D02*
X241342Y231003D01*
X239936Y230064D01*
X238997Y228658D01*
X238667Y227000D01*
X238997Y225342D01*
X239936Y223936D01*
X241342Y222997D01*
X243000Y222667D01*
X244658Y222997D01*
X246064Y223936D01*
X247003Y225342D01*
X247333Y227000D01*
X247003Y228658D01*
X246064Y230064D01*
X244658Y231003D01*
X243000Y231333D01*
D02*
G37*
G36*
X380300Y52353D02*
X378251Y51945D01*
X376515Y50785D01*
X375355Y49048D01*
X374947Y47000D01*
Y43000D01*
X375355Y40952D01*
X376515Y39215D01*
X378251Y38055D01*
X380300Y37647D01*
X382348Y38055D01*
X384085Y39215D01*
X385245Y40952D01*
X385653Y43000D01*
Y47000D01*
X385245Y49048D01*
X384085Y50785D01*
X382348Y51945D01*
X380300Y52353D01*
D02*
G37*
G36*
X331800D02*
X329752Y51945D01*
X328015Y50785D01*
X326855Y49048D01*
X326447Y47000D01*
Y43000D01*
X326855Y40952D01*
X328015Y39215D01*
X329752Y38055D01*
X331800Y37647D01*
X333848Y38055D01*
X335585Y39215D01*
X336745Y40952D01*
X337153Y43000D01*
Y47000D01*
X336745Y49048D01*
X335585Y50785D01*
X333848Y51945D01*
X331800Y52353D01*
D02*
G37*
G36*
X258300D02*
X256252Y51945D01*
X254515Y50785D01*
X253355Y49048D01*
X252947Y47000D01*
Y43000D01*
X253355Y40952D01*
X254515Y39215D01*
X256252Y38055D01*
X258300Y37647D01*
X260348Y38055D01*
X262085Y39215D01*
X263245Y40952D01*
X263653Y43000D01*
Y47000D01*
X263245Y49048D01*
X262085Y50785D01*
X260348Y51945D01*
X258300Y52353D01*
D02*
G37*
G36*
X438250Y69333D02*
X436592Y69003D01*
X435186Y68064D01*
X434247Y66658D01*
X433917Y65000D01*
X434247Y63342D01*
X435186Y61936D01*
X436592Y60997D01*
X437527Y60810D01*
X437719Y60772D01*
Y59478D01*
X437527Y59440D01*
X436592Y59253D01*
X435186Y58314D01*
X434247Y56908D01*
X433917Y55250D01*
X434247Y53592D01*
X435186Y52186D01*
X436592Y51247D01*
X438250Y50917D01*
X439908Y51247D01*
X441314Y52186D01*
X442253Y53592D01*
X442583Y55250D01*
X442253Y56908D01*
X441314Y58314D01*
X439908Y59253D01*
X438973Y59440D01*
X438782Y59478D01*
Y60772D01*
X438973Y60810D01*
X439908Y60997D01*
X441314Y61936D01*
X442253Y63342D01*
X442583Y65000D01*
X442253Y66658D01*
X441314Y68064D01*
X439908Y69003D01*
X438250Y69333D01*
D02*
G37*
G36*
X318000Y70333D02*
X316342Y70003D01*
X314936Y69064D01*
X313997Y67658D01*
X313667Y66000D01*
X313997Y64342D01*
X314936Y62936D01*
X316342Y61997D01*
X318000Y61667D01*
X319658Y61997D01*
X321064Y62936D01*
X322003Y64342D01*
X322333Y66000D01*
X322003Y67658D01*
X321064Y69064D01*
X319658Y70003D01*
X318000Y70333D01*
D02*
G37*
G36*
X384000Y67333D02*
X382342Y67003D01*
X380936Y66064D01*
X379997Y64658D01*
X379667Y63000D01*
X379997Y61342D01*
X380936Y59936D01*
X382342Y58997D01*
X384000Y58667D01*
X385658Y58997D01*
X387064Y59936D01*
X388003Y61342D01*
X388333Y63000D01*
X388003Y64658D01*
X387064Y66064D01*
X385658Y67003D01*
X384000Y67333D01*
D02*
G37*
G36*
X341000Y64333D02*
X339342Y64003D01*
X337936Y63064D01*
X336997Y61658D01*
X336667Y60000D01*
X336997Y58342D01*
X337936Y56936D01*
X339342Y55997D01*
X341000Y55667D01*
X342658Y55997D01*
X344064Y56936D01*
X345003Y58342D01*
X345333Y60000D01*
X345003Y61658D01*
X344064Y63064D01*
X342658Y64003D01*
X341000Y64333D01*
D02*
G37*
G36*
X328000Y22553D02*
X325951Y22145D01*
X324215Y20985D01*
X323055Y19248D01*
X322647Y17200D01*
Y12200D01*
X323055Y10152D01*
X324215Y8415D01*
X325951Y7255D01*
X328000Y6847D01*
X330048Y7255D01*
X331785Y8415D01*
X332945Y10152D01*
X333353Y12200D01*
Y17200D01*
X332945Y19248D01*
X331785Y20985D01*
X330048Y22145D01*
X328000Y22553D01*
D02*
G37*
G36*
X262100D02*
X260052Y22145D01*
X258315Y20985D01*
X257155Y19248D01*
X256747Y17200D01*
Y12200D01*
X257155Y10152D01*
X258315Y8415D01*
X260052Y7255D01*
X262100Y6847D01*
X264148Y7255D01*
X265885Y8415D01*
X267045Y10152D01*
X267453Y12200D01*
Y17200D01*
X267045Y19248D01*
X265885Y20985D01*
X264148Y22145D01*
X262100Y22553D01*
D02*
G37*
G36*
X206000D02*
X203951Y22145D01*
X202215Y20985D01*
X201055Y19248D01*
X200647Y17200D01*
Y12200D01*
X201055Y10152D01*
X202215Y8415D01*
X203951Y7255D01*
X206000Y6847D01*
X208048Y7255D01*
X209785Y8415D01*
X210945Y10152D01*
X211353Y12200D01*
Y17200D01*
X210945Y19248D01*
X209785Y20985D01*
X208048Y22145D01*
X206000Y22553D01*
D02*
G37*
G36*
X384100D02*
X382052Y22145D01*
X380315Y20985D01*
X379155Y19248D01*
X378747Y17200D01*
Y12200D01*
X379155Y10152D01*
X380315Y8415D01*
X382052Y7255D01*
X384100Y6847D01*
X386148Y7255D01*
X387885Y8415D01*
X389045Y10152D01*
X389453Y12200D01*
Y17200D01*
X389045Y19248D01*
X387885Y20985D01*
X386148Y22145D01*
X384100Y22553D01*
D02*
G37*
G36*
X209800Y52353D02*
X207752Y51945D01*
X206015Y50785D01*
X204855Y49048D01*
X204447Y47000D01*
Y43000D01*
X204855Y40952D01*
X206015Y39215D01*
X207752Y38055D01*
X209800Y37647D01*
X211848Y38055D01*
X213585Y39215D01*
X214745Y40952D01*
X215153Y43000D01*
Y47000D01*
X214745Y49048D01*
X213585Y50785D01*
X211848Y51945D01*
X209800Y52353D01*
D02*
G37*
G36*
X580000Y61353D02*
X575834Y60943D01*
X571829Y59727D01*
X568137Y57754D01*
X564901Y55099D01*
X562246Y51863D01*
X560273Y48171D01*
X559058Y44166D01*
X558647Y40000D01*
X559058Y35834D01*
X560273Y31829D01*
X562246Y28137D01*
X564901Y24901D01*
X568137Y22246D01*
X571829Y20273D01*
X575834Y19058D01*
X580000Y18647D01*
X584166Y19058D01*
X588171Y20273D01*
X591863Y22246D01*
X595099Y24901D01*
X597754Y28137D01*
X599727Y31829D01*
X600942Y35834D01*
X601353Y40000D01*
X600942Y44166D01*
X599727Y48171D01*
X597754Y51863D01*
X595099Y55099D01*
X591863Y57754D01*
X588171Y59727D01*
X584166Y60943D01*
X580000Y61353D01*
D02*
G37*
G36*
X120000D02*
X115834Y60943D01*
X111829Y59727D01*
X108137Y57754D01*
X104901Y55099D01*
X102246Y51863D01*
X100273Y48171D01*
X99058Y44166D01*
X98647Y40000D01*
X99058Y35834D01*
X100273Y31829D01*
X102246Y28137D01*
X104901Y24901D01*
X108137Y22246D01*
X111829Y20273D01*
X115834Y19058D01*
X120000Y18647D01*
X124166Y19058D01*
X128171Y20273D01*
X131863Y22246D01*
X135099Y24901D01*
X137754Y28137D01*
X139727Y31829D01*
X140942Y35834D01*
X141353Y40000D01*
X140942Y44166D01*
X139727Y48171D01*
X137754Y51863D01*
X135099Y55099D01*
X131863Y57754D01*
X128171Y59727D01*
X124166Y60943D01*
X120000Y61353D01*
D02*
G37*
G36*
X330000Y70333D02*
X328342Y70003D01*
X326936Y69064D01*
X325997Y67658D01*
X325667Y66000D01*
X325997Y64342D01*
X326936Y62936D01*
X328342Y61997D01*
X330000Y61667D01*
X331658Y61997D01*
X333064Y62936D01*
X334003Y64342D01*
X334333Y66000D01*
X334003Y67658D01*
X333064Y69064D01*
X331658Y70003D01*
X330000Y70333D01*
D02*
G37*
G36*
X195000Y107333D02*
X193342Y107003D01*
X191936Y106064D01*
X190997Y104658D01*
X190667Y103000D01*
X190997Y101342D01*
X191936Y99936D01*
X193342Y98997D01*
X195000Y98667D01*
X196658Y98997D01*
X198064Y99936D01*
X199003Y101342D01*
X199333Y103000D01*
X199003Y104658D01*
X198064Y106064D01*
X196658Y107003D01*
X195000Y107333D01*
D02*
G37*
G36*
X237000Y106333D02*
X235342Y106003D01*
X233936Y105064D01*
X232997Y103658D01*
X232667Y102000D01*
X232997Y100342D01*
X233936Y98936D01*
X235342Y97997D01*
X237000Y97667D01*
X238658Y97997D01*
X240064Y98936D01*
X241003Y100342D01*
X241333Y102000D01*
X241003Y103658D01*
X240064Y105064D01*
X238658Y106003D01*
X237000Y106333D01*
D02*
G37*
G36*
X142000D02*
X140342Y106003D01*
X138936Y105064D01*
X137997Y103658D01*
X137667Y102000D01*
X137997Y100342D01*
X138936Y98936D01*
X140342Y97997D01*
X142000Y97667D01*
X143658Y97997D01*
X145064Y98936D01*
X146003Y100342D01*
X146333Y102000D01*
X146003Y103658D01*
X145064Y105064D01*
X143658Y106003D01*
X142000Y106333D01*
D02*
G37*
G36*
X219000Y107333D02*
X217342Y107003D01*
X215936Y106064D01*
X214997Y104658D01*
X214667Y103000D01*
X214997Y101342D01*
X215936Y99936D01*
X217342Y98997D01*
X219000Y98667D01*
X220658Y98997D01*
X222064Y99936D01*
X223003Y101342D01*
X223333Y103000D01*
X223003Y104658D01*
X222064Y106064D01*
X220658Y107003D01*
X219000Y107333D01*
D02*
G37*
G36*
X440000Y119333D02*
X438342Y119003D01*
X436936Y118064D01*
X435997Y116658D01*
X435667Y115000D01*
X435997Y113342D01*
X436936Y111936D01*
X438342Y110997D01*
X440000Y110667D01*
X441658Y110997D01*
X443064Y111936D01*
X444003Y113342D01*
X444333Y115000D01*
X444003Y116658D01*
X443064Y118064D01*
X441658Y119003D01*
X440000Y119333D01*
D02*
G37*
G36*
X367500D02*
X365842Y119003D01*
X364436Y118064D01*
X363497Y116658D01*
X363167Y115000D01*
X363497Y113342D01*
X364436Y111936D01*
X365842Y110997D01*
X367500Y110667D01*
X369158Y110997D01*
X370564Y111936D01*
X371503Y113342D01*
X371833Y115000D01*
X371503Y116658D01*
X370564Y118064D01*
X369158Y119003D01*
X367500Y119333D01*
D02*
G37*
G36*
X32000Y127825D02*
X29716Y127525D01*
X27587Y126643D01*
X25759Y125241D01*
X24357Y123413D01*
X23475Y121284D01*
X23175Y119000D01*
X23475Y116716D01*
X24357Y114587D01*
X25759Y112759D01*
X27587Y111357D01*
X29716Y110475D01*
X32000Y110175D01*
X34284Y110475D01*
X36413Y111357D01*
X38241Y112759D01*
X39643Y114587D01*
X40525Y116716D01*
X40826Y119000D01*
X40525Y121284D01*
X39643Y123413D01*
X38241Y125241D01*
X36413Y126643D01*
X34284Y127525D01*
X32000Y127825D01*
D02*
G37*
G36*
X120000Y89333D02*
X118342Y89003D01*
X116936Y88064D01*
X115997Y86658D01*
X115667Y85000D01*
X115997Y83342D01*
X116936Y81936D01*
X118342Y80997D01*
X120000Y80667D01*
X121658Y80997D01*
X123064Y81936D01*
X124003Y83342D01*
X124333Y85000D01*
X124003Y86658D01*
X123064Y88064D01*
X121658Y89003D01*
X120000Y89333D01*
D02*
G37*
G36*
X343000Y76333D02*
X341342Y76003D01*
X339936Y75064D01*
X338997Y73658D01*
X338667Y72000D01*
X338997Y70342D01*
X339936Y68936D01*
X341342Y67997D01*
X343000Y67667D01*
X344658Y67997D01*
X346064Y68936D01*
X347003Y70342D01*
X347333Y72000D01*
X347003Y73658D01*
X346064Y75064D01*
X344658Y76003D01*
X343000Y76333D01*
D02*
G37*
G36*
X356000Y71333D02*
X354342Y71003D01*
X352936Y70064D01*
X351996Y68658D01*
X351667Y67000D01*
X351996Y65342D01*
X352936Y63936D01*
X354342Y62997D01*
X356000Y62667D01*
X357658Y62997D01*
X359064Y63936D01*
X360003Y65342D01*
X360333Y67000D01*
X360003Y68658D01*
X359064Y70064D01*
X357658Y71003D01*
X356000Y71333D01*
D02*
G37*
G36*
X142000Y90333D02*
X140342Y90003D01*
X138936Y89064D01*
X137997Y87658D01*
X137667Y86000D01*
X137997Y84342D01*
X138936Y82936D01*
X140342Y81997D01*
X142000Y81667D01*
X143658Y81997D01*
X145064Y82936D01*
X146003Y84342D01*
X146333Y86000D01*
X146003Y87658D01*
X145064Y89064D01*
X143658Y90003D01*
X142000Y90333D01*
D02*
G37*
G36*
X120000Y106333D02*
X118342Y106003D01*
X116936Y105064D01*
X115997Y103658D01*
X115667Y102000D01*
X115997Y100342D01*
X116936Y98936D01*
X118342Y97997D01*
X120000Y97667D01*
X121658Y97997D01*
X123064Y98936D01*
X124003Y100342D01*
X124333Y102000D01*
X124003Y103658D01*
X123064Y105064D01*
X121658Y106003D01*
X120000Y106333D01*
D02*
G37*
G36*
X131000Y98333D02*
X129342Y98003D01*
X127936Y97064D01*
X126997Y95658D01*
X126667Y94000D01*
X126997Y92342D01*
X127936Y90936D01*
X129342Y89997D01*
X131000Y89667D01*
X132658Y89997D01*
X134064Y90936D01*
X135003Y92342D01*
X135333Y94000D01*
X135003Y95658D01*
X134064Y97064D01*
X132658Y98003D01*
X131000Y98333D01*
D02*
G37*
G36*
X32000Y102425D02*
X29716Y102125D01*
X27587Y101243D01*
X25759Y99841D01*
X24357Y98013D01*
X23475Y95884D01*
X23175Y93600D01*
X23475Y91316D01*
X24357Y89187D01*
X25759Y87359D01*
X27587Y85957D01*
X29716Y85075D01*
X32000Y84775D01*
X34284Y85075D01*
X36413Y85957D01*
X38241Y87359D01*
X39643Y89187D01*
X40525Y91316D01*
X40826Y93600D01*
X40525Y95884D01*
X39643Y98013D01*
X38241Y99841D01*
X36413Y101243D01*
X34284Y102125D01*
X32000Y102425D01*
D02*
G37*
G36*
X416000Y264333D02*
X414342Y264003D01*
X412936Y263064D01*
X411997Y261658D01*
X411667Y260000D01*
X411997Y258342D01*
X412936Y256936D01*
X414342Y255997D01*
X416000Y255667D01*
X417658Y255997D01*
X419064Y256936D01*
X420003Y258342D01*
X420333Y260000D01*
X420003Y261658D01*
X419064Y263064D01*
X417658Y264003D01*
X416000Y264333D01*
D02*
G37*
G36*
X519000Y685833D02*
X517342Y685503D01*
X515936Y684564D01*
X514997Y683158D01*
X514667Y681500D01*
X514997Y679842D01*
X515936Y678436D01*
X517342Y677497D01*
X519000Y677167D01*
X520658Y677497D01*
X522064Y678436D01*
X523003Y679842D01*
X523333Y681500D01*
X523003Y683158D01*
X522064Y684564D01*
X520658Y685503D01*
X519000Y685833D01*
D02*
G37*
G36*
X471000Y660333D02*
X469342Y660003D01*
X467936Y659064D01*
X466997Y657658D01*
X466667Y656000D01*
X466997Y654342D01*
X467936Y652936D01*
X469342Y651997D01*
X471000Y651667D01*
X472658Y651997D01*
X474064Y652936D01*
X475003Y654342D01*
X475333Y656000D01*
X475003Y657658D01*
X474064Y659064D01*
X472658Y660003D01*
X471000Y660333D01*
D02*
G37*
G36*
X411000Y646333D02*
X409342Y646003D01*
X407936Y645064D01*
X406997Y643658D01*
X406667Y642000D01*
X406997Y640342D01*
X407936Y638936D01*
X409342Y637997D01*
X411000Y637667D01*
X412658Y637997D01*
X414064Y638936D01*
X415003Y640342D01*
X415333Y642000D01*
X415003Y643658D01*
X414064Y645064D01*
X412658Y646003D01*
X411000Y646333D01*
D02*
G37*
G36*
X336000Y771333D02*
X334342Y771003D01*
X332936Y770064D01*
X331997Y768658D01*
X331667Y767000D01*
X331997Y765342D01*
X332936Y763936D01*
X334342Y762997D01*
X336000Y762667D01*
X337658Y762997D01*
X339064Y763936D01*
X340003Y765342D01*
X340333Y767000D01*
X340003Y768658D01*
X339064Y770064D01*
X337658Y771003D01*
X336000Y771333D01*
D02*
G37*
G36*
X282000Y983333D02*
X280342Y983003D01*
X278936Y982064D01*
X277997Y980658D01*
X277667Y979000D01*
X277997Y977342D01*
X278936Y975936D01*
X280342Y974997D01*
X282000Y974667D01*
X283658Y974997D01*
X285064Y975936D01*
X286003Y977342D01*
X286333Y979000D01*
X286003Y980658D01*
X285064Y982064D01*
X283658Y983003D01*
X282000Y983333D01*
D02*
G37*
G36*
X317000Y961333D02*
X315342Y961003D01*
X313936Y960064D01*
X312997Y958658D01*
X312667Y957000D01*
X312997Y955342D01*
X313936Y953936D01*
X315342Y952997D01*
X317000Y952667D01*
X318658Y952997D01*
X320064Y953936D01*
X321003Y955342D01*
X321333Y957000D01*
X321003Y958658D01*
X320064Y960064D01*
X318658Y961003D01*
X317000Y961333D01*
D02*
G37*
G36*
X294000Y953333D02*
X292342Y953003D01*
X290936Y952064D01*
X289997Y950658D01*
X289667Y949000D01*
X289997Y947342D01*
X290936Y945936D01*
X292342Y944997D01*
X294000Y944667D01*
X295658Y944997D01*
X297064Y945936D01*
X298003Y947342D01*
X298333Y949000D01*
X298003Y950658D01*
X297064Y952064D01*
X295658Y953003D01*
X294000Y953333D01*
D02*
G37*
G36*
X415000Y517333D02*
X413342Y517003D01*
X411936Y516064D01*
X410997Y514658D01*
X410667Y513000D01*
X410997Y511342D01*
X411158Y511100D01*
X411098Y510969D01*
X410318Y510071D01*
X409000Y510333D01*
X407342Y510003D01*
X405936Y509064D01*
X404997Y507658D01*
X404667Y506000D01*
X404997Y504342D01*
X405936Y502936D01*
X407342Y501997D01*
X409000Y501667D01*
X410658Y501997D01*
X410900Y502158D01*
X411031Y502098D01*
X411929Y501318D01*
X411667Y500000D01*
X411997Y498342D01*
X412936Y496936D01*
X414342Y495997D01*
X416000Y495667D01*
X417658Y495997D01*
X419064Y496936D01*
X420003Y498342D01*
X420333Y500000D01*
X420003Y501658D01*
X419064Y503064D01*
X417658Y504003D01*
X416000Y504333D01*
X414342Y504003D01*
X414100Y503842D01*
X413969Y503902D01*
X413071Y504682D01*
X413333Y506000D01*
X413003Y507658D01*
X412842Y507900D01*
X412902Y508032D01*
X413682Y508929D01*
X415000Y508667D01*
X416658Y508997D01*
X418064Y509936D01*
X419003Y511342D01*
X419333Y513000D01*
X419003Y514658D01*
X418064Y516064D01*
X416658Y517003D01*
X415000Y517333D01*
D02*
G37*
G36*
X25000Y513825D02*
X22716Y513525D01*
X20587Y512643D01*
X18759Y511241D01*
X17357Y509413D01*
X16475Y507284D01*
X16174Y505000D01*
X16475Y502716D01*
X17357Y500587D01*
X18759Y498759D01*
X20587Y497357D01*
X22716Y496475D01*
X25000Y496175D01*
X27284Y496475D01*
X29413Y497357D01*
X31241Y498759D01*
X32643Y500587D01*
X33525Y502716D01*
X33826Y505000D01*
X33525Y507284D01*
X32643Y509413D01*
X31241Y511241D01*
X29413Y512643D01*
X27284Y513525D01*
X25000Y513825D01*
D02*
G37*
G36*
X361000Y473333D02*
X359342Y473003D01*
X357936Y472064D01*
X356997Y470658D01*
X356667Y469000D01*
X356997Y467342D01*
X357936Y465936D01*
X359342Y464997D01*
X361000Y464667D01*
X362658Y464997D01*
X364064Y465936D01*
X365003Y467342D01*
X365333Y469000D01*
X365003Y470658D01*
X364064Y472064D01*
X362658Y473003D01*
X361000Y473333D01*
D02*
G37*
G36*
X25000Y539226D02*
X22716Y538925D01*
X20587Y538043D01*
X18759Y536641D01*
X17357Y534813D01*
X16475Y532684D01*
X16174Y530400D01*
X16475Y528116D01*
X17357Y525987D01*
X18759Y524159D01*
X20587Y522757D01*
X22716Y521875D01*
X25000Y521575D01*
X27284Y521875D01*
X29413Y522757D01*
X31241Y524159D01*
X32643Y525987D01*
X33525Y528116D01*
X33826Y530400D01*
X33525Y532684D01*
X32643Y534813D01*
X31241Y536641D01*
X29413Y538043D01*
X27284Y538925D01*
X25000Y539226D01*
D02*
G37*
G36*
X534000Y585333D02*
X532342Y585003D01*
X530936Y584064D01*
X529997Y582658D01*
X529667Y581000D01*
X529997Y579342D01*
X530936Y577936D01*
X532342Y576997D01*
X534000Y576667D01*
X535658Y576997D01*
X537064Y577936D01*
X538003Y579342D01*
X538333Y581000D01*
X538003Y582658D01*
X537064Y584064D01*
X535658Y585003D01*
X534000Y585333D01*
D02*
G37*
G36*
X413000Y562333D02*
X411342Y562003D01*
X409936Y561064D01*
X408997Y559658D01*
X408667Y558000D01*
X408997Y556342D01*
X409936Y554936D01*
X411342Y553997D01*
X413000Y553667D01*
X414658Y553997D01*
X416064Y554936D01*
X417003Y556342D01*
X417333Y558000D01*
X417003Y559658D01*
X416064Y561064D01*
X414658Y562003D01*
X413000Y562333D01*
D02*
G37*
G36*
X581500Y559833D02*
X579842Y559503D01*
X578436Y558564D01*
X577497Y557158D01*
X577167Y555500D01*
X577497Y553842D01*
X578436Y552436D01*
X579842Y551497D01*
X581500Y551167D01*
X583158Y551497D01*
X584564Y552436D01*
X585504Y553842D01*
X585833Y555500D01*
X585504Y557158D01*
X584564Y558564D01*
X583158Y559503D01*
X581500Y559833D01*
D02*
G37*
G36*
X301500Y1135833D02*
X299842Y1135503D01*
X298436Y1134564D01*
X297497Y1133158D01*
X297167Y1131500D01*
X297497Y1129842D01*
X298436Y1128436D01*
X299842Y1127497D01*
X301500Y1127167D01*
X303158Y1127497D01*
X304564Y1128436D01*
X305503Y1129842D01*
X305833Y1131500D01*
X305503Y1133158D01*
X304564Y1134564D01*
X303158Y1135503D01*
X301500Y1135833D01*
D02*
G37*
G36*
X318000Y1415333D02*
X316342Y1415003D01*
X314936Y1414064D01*
X313997Y1412658D01*
X313667Y1411000D01*
X313997Y1409342D01*
X314936Y1407936D01*
X316342Y1406997D01*
X318000Y1406667D01*
X319658Y1406997D01*
X321064Y1407936D01*
X322003Y1409342D01*
X322333Y1411000D01*
X322003Y1412658D01*
X321064Y1414064D01*
X319658Y1415003D01*
X318000Y1415333D01*
D02*
G37*
G36*
X350000Y1396333D02*
X348342Y1396003D01*
X346936Y1395064D01*
X345997Y1393658D01*
X345667Y1392000D01*
X345997Y1390342D01*
X346936Y1388936D01*
X348342Y1387997D01*
X350000Y1387667D01*
X351658Y1387997D01*
X353064Y1388936D01*
X354003Y1390342D01*
X354333Y1392000D01*
X354003Y1393658D01*
X353064Y1395064D01*
X351658Y1396003D01*
X350000Y1396333D01*
D02*
G37*
G36*
X271000Y1389333D02*
X269342Y1389003D01*
X267936Y1388064D01*
X266997Y1386658D01*
X266667Y1385000D01*
X266997Y1383342D01*
X267936Y1381936D01*
X269342Y1380997D01*
X271000Y1380667D01*
X272658Y1380997D01*
X274064Y1381936D01*
X275003Y1383342D01*
X275333Y1385000D01*
X275003Y1386658D01*
X274064Y1388064D01*
X272658Y1389003D01*
X271000Y1389333D01*
D02*
G37*
G36*
X320000Y1434333D02*
X318342Y1434003D01*
X316936Y1433064D01*
X315997Y1431658D01*
X315667Y1430000D01*
X315997Y1428342D01*
X316936Y1426936D01*
X318342Y1425997D01*
X320000Y1425667D01*
X321658Y1425997D01*
X323064Y1426936D01*
X324003Y1428342D01*
X324333Y1430000D01*
X324003Y1431658D01*
X323064Y1433064D01*
X321658Y1434003D01*
X320000Y1434333D01*
D02*
G37*
G36*
X580000Y1491353D02*
X575834Y1490943D01*
X571829Y1489727D01*
X568137Y1487754D01*
X564901Y1485099D01*
X562246Y1481863D01*
X560273Y1478171D01*
X559058Y1474166D01*
X558647Y1470000D01*
X559058Y1465834D01*
X560273Y1461829D01*
X562246Y1458137D01*
X564901Y1454901D01*
X568137Y1452246D01*
X571829Y1450273D01*
X575834Y1449057D01*
X580000Y1448647D01*
X584166Y1449057D01*
X588171Y1450273D01*
X591863Y1452246D01*
X595099Y1454901D01*
X597754Y1458137D01*
X599727Y1461829D01*
X600942Y1465834D01*
X601353Y1470000D01*
X600942Y1474166D01*
X599727Y1478171D01*
X597754Y1481863D01*
X595099Y1485099D01*
X591863Y1487754D01*
X588171Y1489727D01*
X584166Y1490943D01*
X580000Y1491353D01*
D02*
G37*
G36*
X120000D02*
X115834Y1490943D01*
X111829Y1489727D01*
X108137Y1487754D01*
X104901Y1485099D01*
X102246Y1481863D01*
X100273Y1478171D01*
X99058Y1474166D01*
X98647Y1470000D01*
X99058Y1465834D01*
X100273Y1461829D01*
X102246Y1458137D01*
X104901Y1454901D01*
X108137Y1452246D01*
X111829Y1450273D01*
X115834Y1449057D01*
X120000Y1448647D01*
X124166Y1449057D01*
X128171Y1450273D01*
X131863Y1452246D01*
X135099Y1454901D01*
X137754Y1458137D01*
X139727Y1461829D01*
X140942Y1465834D01*
X141353Y1470000D01*
X140942Y1474166D01*
X139727Y1478171D01*
X137754Y1481863D01*
X135099Y1485099D01*
X131863Y1487754D01*
X128171Y1489727D01*
X124166Y1490943D01*
X120000Y1491353D01*
D02*
G37*
G36*
X309000Y1455333D02*
X307342Y1455003D01*
X305936Y1454064D01*
X304997Y1452658D01*
X304667Y1451000D01*
X304997Y1449342D01*
X305936Y1447936D01*
X307342Y1446997D01*
X309000Y1446667D01*
X310658Y1446997D01*
X312064Y1447936D01*
X313003Y1449342D01*
X313333Y1451000D01*
X313003Y1452658D01*
X312064Y1454064D01*
X310658Y1455003D01*
X309000Y1455333D01*
D02*
G37*
G36*
X217000Y1268333D02*
X215342Y1268003D01*
X213936Y1267064D01*
X212997Y1265658D01*
X212667Y1264000D01*
X212997Y1262342D01*
X213936Y1260936D01*
X215342Y1259997D01*
X217000Y1259667D01*
X218658Y1259997D01*
X220064Y1260936D01*
X221003Y1262342D01*
X221333Y1264000D01*
X221003Y1265658D01*
X220064Y1267064D01*
X218658Y1268003D01*
X217000Y1268333D01*
D02*
G37*
G36*
X179000Y1180333D02*
X177342Y1180003D01*
X175936Y1179064D01*
X174997Y1177658D01*
X174667Y1176000D01*
X174997Y1174342D01*
X175936Y1172936D01*
X177342Y1171997D01*
X179000Y1171667D01*
X180658Y1171997D01*
X182064Y1172936D01*
X183003Y1174342D01*
X183333Y1176000D01*
X183003Y1177658D01*
X182064Y1179064D01*
X180658Y1180003D01*
X179000Y1180333D01*
D02*
G37*
G36*
X316500Y1136833D02*
X314842Y1136503D01*
X313436Y1135564D01*
X312497Y1134158D01*
X312167Y1132500D01*
X312497Y1130842D01*
X313436Y1129436D01*
X314842Y1128497D01*
X316500Y1128167D01*
X318158Y1128497D01*
X319564Y1129436D01*
X320503Y1130842D01*
X320833Y1132500D01*
X320503Y1134158D01*
X319564Y1135564D01*
X318158Y1136503D01*
X316500Y1136833D01*
D02*
G37*
G36*
X167000Y1281333D02*
X165342Y1281003D01*
X163936Y1280064D01*
X162997Y1278658D01*
X162667Y1277000D01*
X162997Y1275342D01*
X163936Y1273936D01*
X165342Y1272997D01*
X167000Y1272667D01*
X168658Y1272997D01*
X170064Y1273936D01*
X171003Y1275342D01*
X171333Y1277000D01*
X171003Y1278658D01*
X170064Y1280064D01*
X168658Y1281003D01*
X167000Y1281333D01*
D02*
G37*
G36*
X375000Y1323333D02*
X373342Y1323003D01*
X371936Y1322064D01*
X370997Y1320658D01*
X370667Y1319000D01*
X370997Y1317342D01*
X371936Y1315936D01*
X373342Y1314997D01*
X375000Y1314667D01*
X376658Y1314997D01*
X378064Y1315936D01*
X379003Y1317342D01*
X379333Y1319000D01*
X379003Y1320658D01*
X378064Y1322064D01*
X376658Y1323003D01*
X375000Y1323333D01*
D02*
G37*
G36*
X179000Y1310333D02*
X177342Y1310003D01*
X175936Y1309064D01*
X174997Y1307658D01*
X174667Y1306000D01*
X174997Y1304342D01*
X175936Y1302936D01*
X177342Y1301997D01*
X179000Y1301667D01*
X180658Y1301997D01*
X182064Y1302936D01*
X183003Y1304342D01*
X183333Y1306000D01*
X183003Y1307658D01*
X182064Y1309064D01*
X180658Y1310003D01*
X179000Y1310333D01*
D02*
G37*
G36*
X155000D02*
X153342Y1310003D01*
X151936Y1309064D01*
X150997Y1307658D01*
X150667Y1306000D01*
X150997Y1304342D01*
X151936Y1302936D01*
X153342Y1301997D01*
X155000Y1301667D01*
X156658Y1301997D01*
X158064Y1302936D01*
X159003Y1304342D01*
X159333Y1306000D01*
X159003Y1307658D01*
X158064Y1309064D01*
X156658Y1310003D01*
X155000Y1310333D01*
D02*
G37*
G36*
X181000Y473333D02*
X179342Y473003D01*
X177936Y472064D01*
X176997Y470658D01*
X176667Y469000D01*
X176997Y467342D01*
X177936Y465936D01*
X179342Y464997D01*
X181000Y464667D01*
X182658Y464997D01*
X184064Y465936D01*
X185003Y467342D01*
X185333Y469000D01*
X185003Y470658D01*
X184064Y472064D01*
X182658Y473003D01*
X181000Y473333D01*
D02*
G37*
G36*
X214000Y331333D02*
X212342Y331003D01*
X210936Y330064D01*
X209997Y328658D01*
X209667Y327000D01*
X209997Y325342D01*
X210936Y323936D01*
X212342Y322997D01*
X214000Y322667D01*
X215658Y322997D01*
X217064Y323936D01*
X218003Y325342D01*
X218333Y327000D01*
X218003Y328658D01*
X217064Y330064D01*
X215658Y331003D01*
X214000Y331333D01*
D02*
G37*
G36*
X351000Y328333D02*
X349342Y328003D01*
X347936Y327064D01*
X346997Y325658D01*
X346667Y324000D01*
X346997Y322342D01*
X347936Y320936D01*
X349342Y319997D01*
X351000Y319667D01*
X352658Y319997D01*
X354064Y320936D01*
X355003Y322342D01*
X355333Y324000D01*
X355003Y325658D01*
X354064Y327064D01*
X352658Y328003D01*
X351000Y328333D01*
D02*
G37*
G36*
X244000Y322333D02*
X242342Y322003D01*
X240936Y321064D01*
X239997Y319658D01*
X239667Y318000D01*
X239997Y316342D01*
X240936Y314936D01*
X242342Y313997D01*
X244000Y313667D01*
X245658Y313997D01*
X247064Y314936D01*
X248003Y316342D01*
X248333Y318000D01*
X248003Y319658D01*
X247064Y321064D01*
X245658Y322003D01*
X244000Y322333D01*
D02*
G37*
G36*
X654000Y335333D02*
X652342Y335003D01*
X650936Y334064D01*
X649997Y332658D01*
X649667Y331000D01*
X649997Y329342D01*
X650936Y327936D01*
X652342Y326997D01*
X654000Y326667D01*
X655658Y326997D01*
X657064Y327936D01*
X658003Y329342D01*
X658333Y331000D01*
X658003Y332658D01*
X657064Y334064D01*
X655658Y335003D01*
X654000Y335333D01*
D02*
G37*
G36*
X490000Y357333D02*
X488342Y357003D01*
X486936Y356064D01*
X485997Y354658D01*
X485667Y353000D01*
X485997Y351342D01*
X486936Y349936D01*
X488342Y348997D01*
X490000Y348667D01*
X491658Y348997D01*
X493064Y349936D01*
X494003Y351342D01*
X494333Y353000D01*
X494003Y354658D01*
X493064Y356064D01*
X491658Y357003D01*
X490000Y357333D01*
D02*
G37*
G36*
X424000Y359333D02*
X422342Y359003D01*
X420936Y358064D01*
X419997Y356658D01*
X419667Y355000D01*
X419997Y353342D01*
X420936Y351936D01*
X422029Y351206D01*
X422107Y350904D01*
Y350096D01*
X422029Y349794D01*
X420936Y349064D01*
X419997Y347658D01*
X419667Y346000D01*
X419997Y344342D01*
X420936Y342936D01*
X422342Y341997D01*
X424000Y341667D01*
X425658Y341997D01*
X427064Y342936D01*
X428003Y344342D01*
X428333Y346000D01*
X428003Y347658D01*
X427064Y349064D01*
X425971Y349794D01*
X425892Y350096D01*
Y350904D01*
X425971Y351206D01*
X427064Y351936D01*
X428003Y353342D01*
X428333Y355000D01*
X428003Y356658D01*
X427064Y358064D01*
X425658Y359003D01*
X424000Y359333D01*
D02*
G37*
G36*
X277000Y336333D02*
X275342Y336003D01*
X273936Y335064D01*
X272997Y333658D01*
X272667Y332000D01*
X272997Y330342D01*
X273936Y328936D01*
X275342Y327997D01*
X277000Y327667D01*
X278658Y327997D01*
X280064Y328936D01*
X281003Y330342D01*
X281333Y332000D01*
X281003Y333658D01*
X280064Y335064D01*
X278658Y336003D01*
X277000Y336333D01*
D02*
G37*
G36*
X362000Y282333D02*
X360342Y282003D01*
X358936Y281064D01*
X357997Y279658D01*
X357667Y278000D01*
X357997Y276342D01*
X358936Y274936D01*
X360342Y273997D01*
X362000Y273667D01*
X363658Y273997D01*
X365064Y274936D01*
X366003Y276342D01*
X366333Y278000D01*
X366003Y279658D01*
X365064Y281064D01*
X363658Y282003D01*
X362000Y282333D01*
D02*
G37*
G36*
X400000Y278333D02*
X398342Y278003D01*
X396936Y277064D01*
X395997Y275658D01*
X395667Y274000D01*
X395997Y272342D01*
X396936Y270936D01*
X398342Y269997D01*
X400000Y269667D01*
X401658Y269997D01*
X403064Y270936D01*
X404003Y272342D01*
X404333Y274000D01*
X404003Y275658D01*
X403064Y277064D01*
X401658Y278003D01*
X400000Y278333D01*
D02*
G37*
G36*
X289000D02*
X287342Y278003D01*
X285936Y277064D01*
X284997Y275658D01*
X284667Y274000D01*
X284997Y272342D01*
X285936Y270936D01*
X287342Y269997D01*
X289000Y269667D01*
X290658Y269997D01*
X291700Y269165D01*
X291667Y269000D01*
X291997Y267342D01*
X292936Y265936D01*
X294342Y264997D01*
X296000Y264667D01*
X297658Y264997D01*
X299064Y265936D01*
X300003Y267342D01*
X300333Y269000D01*
X300003Y270658D01*
X299064Y272064D01*
X297658Y273003D01*
X296000Y273333D01*
X294342Y273003D01*
X293300Y273835D01*
X293333Y274000D01*
X293003Y275658D01*
X292064Y277064D01*
X290658Y278003D01*
X289000Y278333D01*
D02*
G37*
G36*
X333000Y292833D02*
X331342Y292503D01*
X329936Y291564D01*
X328997Y290158D01*
X328667Y288500D01*
X328997Y286842D01*
X329936Y285436D01*
X331342Y284497D01*
X333000Y284167D01*
X334658Y284497D01*
X336064Y285436D01*
X337003Y286842D01*
X337333Y288500D01*
X337003Y290158D01*
X336064Y291564D01*
X334658Y292503D01*
X333000Y292833D01*
D02*
G37*
G36*
X67500Y329834D02*
X64955Y329499D01*
X62583Y328517D01*
X60546Y326954D01*
X58983Y324917D01*
X58001Y322545D01*
X57666Y320000D01*
X58001Y317455D01*
X58983Y315083D01*
X60546Y313046D01*
X62583Y311483D01*
X64955Y310501D01*
X67500Y310166D01*
X70045Y310501D01*
X72417Y311483D01*
X74454Y313046D01*
X76017Y315083D01*
X76999Y317455D01*
X77334Y320000D01*
X76999Y322545D01*
X76017Y324917D01*
X74454Y326954D01*
X72417Y328517D01*
X70045Y329499D01*
X67500Y329834D01*
D02*
G37*
G36*
X307000Y314333D02*
X305342Y314003D01*
X303936Y313064D01*
X302997Y311658D01*
X302667Y310000D01*
X302997Y308342D01*
X303936Y306936D01*
X305342Y305997D01*
X307000Y305667D01*
X308658Y305997D01*
X310064Y306936D01*
X311003Y308342D01*
X311333Y310000D01*
X311003Y311658D01*
X310064Y313064D01*
X308658Y314003D01*
X307000Y314333D01*
D02*
G37*
G36*
X311000Y304323D02*
X309342Y303993D01*
X307936Y303054D01*
X306997Y301648D01*
X306667Y299990D01*
X306997Y298331D01*
X307936Y296926D01*
X309342Y295986D01*
X311000Y295656D01*
X312658Y295986D01*
X314064Y296926D01*
X315003Y298331D01*
X315333Y299990D01*
X315003Y301648D01*
X314064Y303054D01*
X312658Y303993D01*
X311000Y304323D01*
D02*
G37*
G36*
X292000Y383333D02*
X290342Y383003D01*
X288936Y382064D01*
X287997Y380658D01*
X287667Y379000D01*
X287997Y377342D01*
X288936Y375936D01*
X290342Y374997D01*
X292000Y374667D01*
X293658Y374997D01*
X295064Y375936D01*
X296003Y377342D01*
X296333Y379000D01*
X296003Y380658D01*
X295064Y382064D01*
X293658Y383003D01*
X292000Y383333D01*
D02*
G37*
G36*
X286873Y455207D02*
X285215Y454877D01*
X283809Y453937D01*
X282870Y452532D01*
X282540Y450873D01*
X282870Y449215D01*
X283809Y447809D01*
X285215Y446870D01*
X286873Y446540D01*
X288532Y446870D01*
X289938Y447809D01*
X290877Y449215D01*
X291207Y450873D01*
X290877Y452532D01*
X289938Y453937D01*
X288532Y454877D01*
X286873Y455207D01*
D02*
G37*
G36*
X25000Y463026D02*
X22716Y462725D01*
X20587Y461843D01*
X18759Y460441D01*
X17357Y458613D01*
X16475Y456484D01*
X16174Y454200D01*
X16475Y451916D01*
X17357Y449787D01*
X18759Y447959D01*
X20587Y446557D01*
X22716Y445675D01*
X25000Y445374D01*
X27284Y445675D01*
X29413Y446557D01*
X31241Y447959D01*
X32643Y449787D01*
X33525Y451916D01*
X33826Y454200D01*
X33525Y456484D01*
X32643Y458613D01*
X31241Y460441D01*
X29413Y461843D01*
X27284Y462725D01*
X25000Y463026D01*
D02*
G37*
G36*
X301000Y449333D02*
X299342Y449003D01*
X297936Y448064D01*
X296997Y446658D01*
X296667Y445000D01*
X296997Y443342D01*
X297936Y441936D01*
X299342Y440997D01*
X301000Y440667D01*
X302658Y440997D01*
X304064Y441936D01*
X305003Y443342D01*
X305333Y445000D01*
X305003Y446658D01*
X304064Y448064D01*
X302658Y449003D01*
X301000Y449333D01*
D02*
G37*
G36*
X273747Y458080D02*
X272089Y457750D01*
X270683Y456811D01*
X269743Y455405D01*
X269414Y453747D01*
X269743Y452089D01*
X270683Y450683D01*
X272089Y449744D01*
X273747Y449414D01*
X275405Y449744D01*
X276811Y450683D01*
X277750Y452089D01*
X278080Y453747D01*
X277750Y455405D01*
X276811Y456811D01*
X275405Y457750D01*
X273747Y458080D01*
D02*
G37*
G36*
X665000Y472225D02*
X662716Y471925D01*
X660587Y471043D01*
X658759Y469641D01*
X657357Y467813D01*
X656475Y465684D01*
X656174Y463400D01*
X656475Y461116D01*
X657357Y458987D01*
X658759Y457159D01*
X660587Y455757D01*
X662716Y454875D01*
X665000Y454575D01*
X667284Y454875D01*
X669413Y455757D01*
X671241Y457159D01*
X672643Y458987D01*
X673525Y461116D01*
X673826Y463400D01*
X673525Y465684D01*
X672643Y467813D01*
X671241Y469641D01*
X669413Y471043D01*
X667284Y471925D01*
X665000Y472225D01*
D02*
G37*
G36*
X195000Y459333D02*
X193342Y459003D01*
X191936Y458064D01*
X190997Y456658D01*
X190667Y455000D01*
X190997Y453342D01*
X191936Y451936D01*
X193342Y450997D01*
X195000Y450667D01*
X196658Y450997D01*
X198064Y451936D01*
X199003Y453342D01*
X199333Y455000D01*
X199003Y456658D01*
X198064Y458064D01*
X196658Y459003D01*
X195000Y459333D01*
D02*
G37*
G36*
X206000Y458333D02*
X204342Y458003D01*
X202936Y457064D01*
X201997Y455658D01*
X201667Y454000D01*
X201997Y452342D01*
X202936Y450936D01*
X204342Y449997D01*
X206000Y449667D01*
X207658Y449997D01*
X209064Y450936D01*
X210003Y452342D01*
X210333Y454000D01*
X210003Y455658D01*
X209064Y457064D01*
X207658Y458003D01*
X206000Y458333D01*
D02*
G37*
G36*
X665000Y421426D02*
X662716Y421125D01*
X660587Y420243D01*
X658759Y418841D01*
X657357Y417013D01*
X656475Y414884D01*
X656174Y412600D01*
X656475Y410316D01*
X657357Y408187D01*
X658759Y406359D01*
X660587Y404957D01*
X662716Y404075D01*
X665000Y403774D01*
X667284Y404075D01*
X669413Y404957D01*
X671241Y406359D01*
X672643Y408187D01*
X673525Y410316D01*
X673826Y412600D01*
X673525Y414884D01*
X672643Y417013D01*
X671241Y418841D01*
X669413Y420243D01*
X667284Y421125D01*
X665000Y421426D01*
D02*
G37*
G36*
X25000Y412225D02*
X22716Y411925D01*
X20587Y411043D01*
X18759Y409641D01*
X17357Y407813D01*
X16475Y405684D01*
X16174Y403400D01*
X16475Y401116D01*
X17357Y398987D01*
X18759Y397159D01*
X20587Y395757D01*
X22716Y394875D01*
X25000Y394575D01*
X27284Y394875D01*
X29413Y395757D01*
X31241Y397159D01*
X32643Y398987D01*
X33525Y401116D01*
X33826Y403400D01*
X33525Y405684D01*
X32643Y407813D01*
X31241Y409641D01*
X29413Y411043D01*
X27284Y411925D01*
X25000Y412225D01*
D02*
G37*
G36*
X234000Y396333D02*
X232342Y396003D01*
X230936Y395064D01*
X229997Y393658D01*
X229667Y392000D01*
X229997Y390342D01*
X230936Y388936D01*
X232342Y387997D01*
X234000Y387667D01*
X235658Y387997D01*
X237064Y388936D01*
X238003Y390342D01*
X238333Y392000D01*
X238003Y393658D01*
X237064Y395064D01*
X235658Y396003D01*
X234000Y396333D01*
D02*
G37*
G36*
X357500Y428605D02*
X355842Y428275D01*
X354436Y427335D01*
X353497Y425930D01*
X353167Y424271D01*
X353497Y422613D01*
X354436Y421207D01*
X355842Y420268D01*
X357500Y419938D01*
X359158Y420268D01*
X360564Y421207D01*
X361503Y422613D01*
X361833Y424271D01*
X361503Y425930D01*
X360564Y427335D01*
X359158Y428275D01*
X357500Y428605D01*
D02*
G37*
G36*
X438000Y437333D02*
X436342Y437003D01*
X434936Y436064D01*
X433997Y434658D01*
X433667Y433000D01*
X433929Y431682D01*
X433031Y430902D01*
X432900Y430842D01*
X432658Y431003D01*
X431000Y431333D01*
X429342Y431003D01*
X427936Y430064D01*
X426997Y428658D01*
X426667Y427000D01*
X426997Y425342D01*
X427915Y423967D01*
X427064Y423125D01*
X425658Y424064D01*
X424000Y424394D01*
X422342Y424064D01*
X420936Y423125D01*
X419997Y421719D01*
X419667Y420061D01*
X419997Y418402D01*
X420936Y416997D01*
X422342Y416057D01*
X424000Y415727D01*
X425658Y416057D01*
X427064Y416997D01*
X428003Y418402D01*
X428333Y420061D01*
X428003Y421719D01*
X427085Y423093D01*
X427936Y423936D01*
X429342Y422997D01*
X431000Y422667D01*
X432658Y422997D01*
X434064Y423936D01*
X435003Y425342D01*
X435333Y427000D01*
X435071Y428318D01*
X435969Y429098D01*
X436100Y429158D01*
X436342Y428997D01*
X438000Y428667D01*
X439658Y428997D01*
X441064Y429936D01*
X442003Y431342D01*
X442333Y433000D01*
X442003Y434658D01*
X441064Y436064D01*
X439658Y437003D01*
X438000Y437333D01*
D02*
G37*
G36*
X665000Y446825D02*
X662716Y446525D01*
X660587Y445643D01*
X658759Y444241D01*
X657357Y442413D01*
X656475Y440284D01*
X656174Y438000D01*
X656475Y435716D01*
X657357Y433587D01*
X658759Y431759D01*
X660587Y430357D01*
X662716Y429475D01*
X665000Y429174D01*
X667284Y429475D01*
X669413Y430357D01*
X671241Y431759D01*
X672643Y433587D01*
X673525Y435716D01*
X673826Y438000D01*
X673525Y440284D01*
X672643Y442413D01*
X671241Y444241D01*
X669413Y445643D01*
X667284Y446525D01*
X665000Y446825D01*
D02*
G37*
G36*
X25000Y437626D02*
X22716Y437325D01*
X20587Y436443D01*
X18759Y435041D01*
X17357Y433213D01*
X16475Y431084D01*
X16174Y428800D01*
X16475Y426516D01*
X17357Y424387D01*
X18759Y422559D01*
X20587Y421157D01*
X22716Y420275D01*
X25000Y419975D01*
X27284Y420275D01*
X29413Y421157D01*
X31241Y422559D01*
X32643Y424387D01*
X33525Y426516D01*
X33826Y428800D01*
X33525Y431084D01*
X32643Y433213D01*
X31241Y435041D01*
X29413Y436443D01*
X27284Y437325D01*
X25000Y437626D01*
D02*
G37*
%LPD*%
D85*
X384100Y14700D02*
D03*
X328000D02*
D03*
X262100D02*
D03*
X206000D02*
D03*
D86*
X331800Y45000D02*
D03*
X380300D02*
D03*
X209800D02*
D03*
X258300D02*
D03*
D87*
X67500Y320000D02*
D03*
X22500Y261000D02*
D03*
Y320000D02*
D03*
X67500Y261000D02*
D03*
D88*
X25000Y530400D02*
D03*
Y505000D02*
D03*
Y479600D02*
D03*
Y403400D02*
D03*
Y428800D02*
D03*
Y454200D02*
D03*
X665000Y463400D02*
D03*
Y438000D02*
D03*
Y412600D02*
D03*
Y387200D02*
D03*
X32000Y93600D02*
D03*
Y119000D02*
D03*
Y144400D02*
D03*
X665000Y64000D02*
D03*
Y38600D02*
D03*
Y120600D02*
D03*
Y146000D02*
D03*
Y171400D02*
D03*
D89*
X120000Y1470000D02*
D03*
X580000D02*
D03*
X120000Y40000D02*
D03*
X580000D02*
D03*
D90*
X245000Y1452750D02*
D03*
X255000D02*
D03*
X263000Y1380500D02*
D03*
X254469Y1379703D02*
D03*
X245500Y1378954D02*
D03*
X236500D02*
D03*
X227500D02*
D03*
X218500D02*
D03*
X209501D02*
D03*
X200501D02*
D03*
X191501D02*
D03*
X182501D02*
D03*
X173501D02*
D03*
X164501D02*
D03*
X155501D02*
D03*
X146501D02*
D03*
X137501D02*
D03*
X128501D02*
D03*
X119501D02*
D03*
X110501D02*
D03*
X101501D02*
D03*
X92501D02*
D03*
X83501D02*
D03*
X74501D02*
D03*
X65501D02*
D03*
X62821Y1453045D02*
D03*
X71821D02*
D03*
X80821D02*
D03*
X89821D02*
D03*
X98821D02*
D03*
X143821D02*
D03*
X152821D02*
D03*
X161821D02*
D03*
X170821D02*
D03*
X179821D02*
D03*
X188821D02*
D03*
X197821D02*
D03*
X206821D02*
D03*
X215821D02*
D03*
X224821D02*
D03*
X233821D02*
D03*
X187721Y1230140D02*
D03*
X142900Y1207455D02*
D03*
X133900D02*
D03*
X124900D02*
D03*
X115900D02*
D03*
X106900D02*
D03*
X97900D02*
D03*
X88900D02*
D03*
X79900D02*
D03*
X70901D02*
D03*
X61901D02*
D03*
X63429Y1281545D02*
D03*
X72429D02*
D03*
X81429D02*
D03*
X90429D02*
D03*
X99429D02*
D03*
X108429D02*
D03*
X117429D02*
D03*
X126429D02*
D03*
X135429D02*
D03*
X639126Y1009955D02*
D03*
X630126D02*
D03*
X621126D02*
D03*
X612126D02*
D03*
X603126D02*
D03*
X594126D02*
D03*
X585126D02*
D03*
X576126D02*
D03*
X567126D02*
D03*
X558126D02*
D03*
X549126D02*
D03*
X540126D02*
D03*
X531126D02*
D03*
X522126D02*
D03*
X513126D02*
D03*
X504126D02*
D03*
X495126D02*
D03*
X486126D02*
D03*
X477126D02*
D03*
X468126D02*
D03*
X459126D02*
D03*
X450126D02*
D03*
X438000Y1010000D02*
D03*
X423126Y1009955D02*
D03*
X414126D02*
D03*
X405126D02*
D03*
X396126D02*
D03*
X387128Y1009754D02*
D03*
X386544Y1083845D02*
D03*
X395542Y1084045D02*
D03*
X404542D02*
D03*
X413542D02*
D03*
X422542D02*
D03*
X439000Y1084000D02*
D03*
X449542Y1084045D02*
D03*
X458542D02*
D03*
X467542D02*
D03*
X476542D02*
D03*
X485542D02*
D03*
X494542D02*
D03*
X503542D02*
D03*
X512542D02*
D03*
X521542D02*
D03*
X530542D02*
D03*
X539542D02*
D03*
X548542D02*
D03*
X557542D02*
D03*
X566542D02*
D03*
X575542D02*
D03*
X584542D02*
D03*
X593542D02*
D03*
X602542D02*
D03*
X611542D02*
D03*
X620542D02*
D03*
X629542D02*
D03*
X638541D02*
D03*
X232001Y1009205D02*
D03*
X223001D02*
D03*
X214000D02*
D03*
X205000D02*
D03*
X196000D02*
D03*
X187001D02*
D03*
X178001D02*
D03*
X169001D02*
D03*
X160001D02*
D03*
X151001D02*
D03*
X142001D02*
D03*
X133001D02*
D03*
X124001D02*
D03*
X115001D02*
D03*
X106001D02*
D03*
X97001D02*
D03*
X88001D02*
D03*
X79001D02*
D03*
X70001D02*
D03*
X61001D02*
D03*
X63821Y1083295D02*
D03*
X72821D02*
D03*
X81820D02*
D03*
X90820D02*
D03*
X99820D02*
D03*
X108820D02*
D03*
X117820D02*
D03*
X126820D02*
D03*
X135820D02*
D03*
X144820D02*
D03*
X153820D02*
D03*
X162820D02*
D03*
X171820D02*
D03*
X180820D02*
D03*
X189820D02*
D03*
X198820D02*
D03*
X207820D02*
D03*
X216820D02*
D03*
X225820D02*
D03*
X266648Y889741D02*
D03*
X274000Y884000D02*
D03*
X302467Y847054D02*
D03*
X281280Y760340D02*
D03*
X274917Y753976D02*
D03*
X268553Y747612D02*
D03*
X262189Y741248D02*
D03*
X255825Y734884D02*
D03*
X249461Y728521D02*
D03*
X243097Y722157D02*
D03*
X236733Y715793D02*
D03*
X230369Y709429D02*
D03*
X224005Y703065D02*
D03*
X217641Y696701D02*
D03*
X211277Y690337D02*
D03*
X204913Y683973D02*
D03*
X198549Y677609D02*
D03*
X192185Y671245D02*
D03*
X185821Y664881D02*
D03*
X179457Y658517D02*
D03*
X173093Y652153D02*
D03*
X166646Y645874D02*
D03*
X159240Y640760D02*
D03*
X153000Y635000D02*
D03*
X144000Y630000D02*
D03*
X135000Y629000D02*
D03*
X125288Y629467D02*
D03*
X116288Y629455D02*
D03*
X107288D02*
D03*
X98288D02*
D03*
X89288D02*
D03*
X80288D02*
D03*
X71288D02*
D03*
X62288D02*
D03*
X63034Y703546D02*
D03*
X72034D02*
D03*
X81034D02*
D03*
X90034D02*
D03*
X99034D02*
D03*
X108034D02*
D03*
X117034D02*
D03*
X124592Y708432D02*
D03*
X130956Y714796D02*
D03*
X137320Y721160D02*
D03*
X143684Y727524D02*
D03*
X150048Y733888D02*
D03*
X156412Y740252D02*
D03*
X162776Y746616D02*
D03*
X169140Y752980D02*
D03*
X175504Y759344D02*
D03*
X181868Y765708D02*
D03*
X188232Y772072D02*
D03*
X194595Y778436D02*
D03*
X200959Y784799D02*
D03*
X207323Y791163D02*
D03*
X213687Y797527D02*
D03*
X220051Y803891D02*
D03*
X226415Y810255D02*
D03*
X219252Y815705D02*
D03*
X210252D02*
D03*
X201252D02*
D03*
X192253D02*
D03*
X183253D02*
D03*
X174252D02*
D03*
X165252D02*
D03*
X156252D02*
D03*
X147253D02*
D03*
X138253D02*
D03*
X129253D02*
D03*
X120253D02*
D03*
X111253D02*
D03*
X102253D02*
D03*
X93253D02*
D03*
X84253D02*
D03*
X75253D02*
D03*
X66253D02*
D03*
X59071Y889796D02*
D03*
X68071D02*
D03*
X77070D02*
D03*
X86070D02*
D03*
X95070D02*
D03*
X104071D02*
D03*
X113070D02*
D03*
X122070D02*
D03*
X131070D02*
D03*
X140070D02*
D03*
X149070D02*
D03*
X158070D02*
D03*
X167070D02*
D03*
X176070D02*
D03*
X185070D02*
D03*
X194070D02*
D03*
X203070D02*
D03*
X212070D02*
D03*
X221070D02*
D03*
X230070D02*
D03*
X239070D02*
D03*
X248070D02*
D03*
X257070D02*
D03*
X638876Y794204D02*
D03*
X629876D02*
D03*
X620876D02*
D03*
X611876D02*
D03*
X602876D02*
D03*
X593876D02*
D03*
X584876D02*
D03*
X575876D02*
D03*
X566876D02*
D03*
X557876D02*
D03*
X548876D02*
D03*
X539876D02*
D03*
X530876D02*
D03*
X521876D02*
D03*
X512876D02*
D03*
X503876D02*
D03*
X494876D02*
D03*
X485876D02*
D03*
X476876D02*
D03*
X467876D02*
D03*
X458876D02*
D03*
X449876D02*
D03*
X437000Y795000D02*
D03*
X422876Y794204D02*
D03*
X413876D02*
D03*
X404876D02*
D03*
X395876D02*
D03*
X386876D02*
D03*
X377876D02*
D03*
X369209Y868295D02*
D03*
X378209D02*
D03*
X387209D02*
D03*
X396209D02*
D03*
X405209D02*
D03*
X414209D02*
D03*
X423209D02*
D03*
X438000Y869000D02*
D03*
X450209Y868295D02*
D03*
X459209D02*
D03*
X468209D02*
D03*
X477209D02*
D03*
X486209D02*
D03*
X495209D02*
D03*
X504209D02*
D03*
X513209D02*
D03*
X522209D02*
D03*
X531209D02*
D03*
X540209D02*
D03*
X549209D02*
D03*
X558209D02*
D03*
X567209D02*
D03*
X576208D02*
D03*
X585209D02*
D03*
X594208D02*
D03*
X603208D02*
D03*
X612208D02*
D03*
X621208D02*
D03*
X630208D02*
D03*
X639208D02*
D03*
X639994Y574158D02*
D03*
X630994D02*
D03*
X621994D02*
D03*
X569500Y578500D02*
D03*
X540994Y574158D02*
D03*
X477995Y574159D02*
D03*
X488719Y647841D02*
D03*
X497719D02*
D03*
X506719D02*
D03*
X515719D02*
D03*
X524719D02*
D03*
X533719D02*
D03*
X542719D02*
D03*
X551719D02*
D03*
X560719D02*
D03*
X569719D02*
D03*
X578719D02*
D03*
X587719D02*
D03*
X596719D02*
D03*
X605719D02*
D03*
X614719D02*
D03*
X623719D02*
D03*
X632719D02*
D03*
X314500Y1043500D02*
D03*
X303500D02*
D03*
X314500Y1054500D02*
D03*
X303500D02*
D03*
X293150Y1410430D02*
D03*
X300000Y1410480D02*
D03*
X293190Y1417000D02*
D03*
X300000D02*
D03*
X354000Y139000D02*
D03*
Y150000D02*
D03*
Y161000D02*
D03*
X365000Y139000D02*
D03*
Y150000D02*
D03*
Y161000D02*
D03*
X376000Y139000D02*
D03*
Y150000D02*
D03*
Y161000D02*
D03*
X157500Y50000D02*
D03*
X434164Y1451015D02*
D03*
X425164D02*
D03*
X416164D02*
D03*
X407164D02*
D03*
X398164D02*
D03*
X389164D02*
D03*
X380164D02*
D03*
X371166Y1450820D02*
D03*
X362500Y1451750D02*
D03*
X353250Y1452250D02*
D03*
X376750Y1378250D02*
D03*
X384750Y1378750D02*
D03*
X393250D02*
D03*
X401750Y1378500D02*
D03*
X411165Y1378383D02*
D03*
Y1369384D02*
D03*
Y1360384D02*
D03*
Y1351384D02*
D03*
Y1342384D02*
D03*
Y1333384D02*
D03*
Y1324384D02*
D03*
X411827Y1315408D02*
D03*
X414677Y1306871D02*
D03*
X419632Y1299358D02*
D03*
X425867Y1292868D02*
D03*
X432231Y1286504D02*
D03*
X438595Y1280140D02*
D03*
X444959Y1273776D02*
D03*
X451323Y1267412D02*
D03*
X457687Y1261048D02*
D03*
X464051Y1254684D02*
D03*
X470415Y1248320D02*
D03*
X476779Y1241956D02*
D03*
X483143Y1235592D02*
D03*
X489507Y1229229D02*
D03*
X495871Y1222865D02*
D03*
X502235Y1216501D02*
D03*
X508653Y1210192D02*
D03*
X516073Y1205098D02*
D03*
X524534Y1202030D02*
D03*
X533492Y1201165D02*
D03*
X542492D02*
D03*
X551492D02*
D03*
X560492D02*
D03*
X569492D02*
D03*
X578492D02*
D03*
X587492D02*
D03*
X596492D02*
D03*
X605492D02*
D03*
X614492D02*
D03*
X623492D02*
D03*
X632492D02*
D03*
X634248Y1270835D02*
D03*
X625248D02*
D03*
X616248D02*
D03*
X607248D02*
D03*
X598248D02*
D03*
X589248D02*
D03*
X580248D02*
D03*
X571248D02*
D03*
X562248D02*
D03*
X553248D02*
D03*
X544465Y1272800D02*
D03*
X538101Y1279164D02*
D03*
X531737Y1285528D02*
D03*
X525373Y1291892D02*
D03*
X519009Y1298255D02*
D03*
X512645Y1304619D02*
D03*
X506281Y1310983D02*
D03*
X499917Y1317347D02*
D03*
X493553Y1323711D02*
D03*
X487189Y1330075D02*
D03*
X480835Y1336449D02*
D03*
Y1345449D02*
D03*
Y1354449D02*
D03*
Y1363449D02*
D03*
Y1372449D02*
D03*
X483080Y1381165D02*
D03*
X492080D02*
D03*
X501080D02*
D03*
X510080D02*
D03*
X519080D02*
D03*
X528080D02*
D03*
X537080D02*
D03*
X546080D02*
D03*
X555080D02*
D03*
X564080D02*
D03*
X573080D02*
D03*
X582080D02*
D03*
X591080D02*
D03*
X600080D02*
D03*
X609080D02*
D03*
X618080D02*
D03*
X627080D02*
D03*
X636080D02*
D03*
X641647Y1450835D02*
D03*
X632648D02*
D03*
X623647D02*
D03*
X614647D02*
D03*
X605648D02*
D03*
X551648D02*
D03*
X542648D02*
D03*
X533648D02*
D03*
X524648D02*
D03*
X515648D02*
D03*
X506648D02*
D03*
X497648D02*
D03*
X488648D02*
D03*
X479648D02*
D03*
X470648D02*
D03*
X461648D02*
D03*
X452648D02*
D03*
X443649Y1450964D02*
D03*
X104000Y241000D02*
D03*
X307000Y310000D02*
D03*
X186000Y47000D02*
D03*
X302000Y45000D02*
D03*
X405000D02*
D03*
X386000Y255000D02*
D03*
X411000Y221000D02*
D03*
X311000Y299990D02*
D03*
X398000Y205000D02*
D03*
X289000Y274000D02*
D03*
X296000Y269000D02*
D03*
X322000Y214000D02*
D03*
X339000Y236000D02*
D03*
X398000Y183000D02*
D03*
X387000Y191000D02*
D03*
X400000Y274000D02*
D03*
X416000Y260000D02*
D03*
X424000Y355000D02*
D03*
X318000Y66000D02*
D03*
X330000D02*
D03*
X341000Y60000D02*
D03*
X259000Y93000D02*
D03*
X195000Y131000D02*
D03*
X208000D02*
D03*
X239000Y124000D02*
D03*
X219979Y131000D02*
D03*
X522000Y147000D02*
D03*
Y159000D02*
D03*
X237000Y102000D02*
D03*
X219000Y103000D02*
D03*
X195000D02*
D03*
X339000Y245000D02*
D03*
X351000Y324000D02*
D03*
X424000Y346000D02*
D03*
X362000Y278000D02*
D03*
X179000Y1176000D02*
D03*
X350000Y1392000D02*
D03*
X120000Y102000D02*
D03*
Y85000D02*
D03*
X142000Y102000D02*
D03*
X131000Y94000D02*
D03*
X142000Y86000D02*
D03*
X336000Y767000D02*
D03*
X318000Y793000D02*
D03*
X311000Y842000D02*
D03*
X312000Y803000D02*
D03*
X294000Y949000D02*
D03*
X259000Y958000D02*
D03*
X317000Y957000D02*
D03*
X282000Y989000D02*
D03*
X337000Y996000D02*
D03*
X309000Y1075000D02*
D03*
X281000Y1056000D02*
D03*
X309000Y1023000D02*
D03*
X335000Y1101000D02*
D03*
X281000Y1082000D02*
D03*
X254000Y1066000D02*
D03*
X359000D02*
D03*
X227000Y1214000D02*
D03*
X248000Y1238000D02*
D03*
X212000Y1254000D02*
D03*
X482000Y1403000D02*
D03*
X295000Y1339000D02*
D03*
X361000Y1367000D02*
D03*
X329000Y1385000D02*
D03*
X362000Y1406000D02*
D03*
X384000Y1397000D02*
D03*
X336000Y1460000D02*
D03*
X280000Y1451000D02*
D03*
X309000D02*
D03*
X269000Y1435000D02*
D03*
X307000Y142000D02*
D03*
X317000Y166000D02*
D03*
X339000Y200000D02*
D03*
X364000Y238000D02*
D03*
X372000Y232000D02*
D03*
X383000Y221000D02*
D03*
X490000Y353000D02*
D03*
X361000Y469000D02*
D03*
X214000Y288000D02*
D03*
X228000Y274000D02*
D03*
X206000Y363000D02*
D03*
X243000Y227000D02*
D03*
X230000Y238000D02*
D03*
X294000Y241000D02*
D03*
X280000Y229000D02*
D03*
X291000Y215000D02*
D03*
X357000Y268000D02*
D03*
X328000Y281000D02*
D03*
X277000Y332000D02*
D03*
X425000Y183000D02*
D03*
X548000Y162000D02*
D03*
X413000Y94000D02*
D03*
X370000Y79000D02*
D03*
X178000Y70000D02*
D03*
X369000Y61000D02*
D03*
X247000Y57000D02*
D03*
X297000Y313000D02*
D03*
X221000Y157000D02*
D03*
X238000Y417000D02*
D03*
X320000Y1430000D02*
D03*
X301500Y1131500D02*
D03*
X316500Y1132500D02*
D03*
X413000Y558000D02*
D03*
X384000Y63000D02*
D03*
X214000Y327000D02*
D03*
X244000Y318000D02*
D03*
X340000Y1326000D02*
D03*
X315000Y1317000D02*
D03*
X332500Y1287000D02*
D03*
X363000Y1355000D02*
D03*
X375000Y1319000D02*
D03*
X200000Y1302000D02*
D03*
X522000Y576000D02*
D03*
X271000Y1385000D02*
D03*
X282000Y1363000D02*
D03*
X581500Y555500D02*
D03*
X471000Y656000D02*
D03*
X411000Y642000D02*
D03*
X534000Y581000D02*
D03*
X519000Y681500D02*
D03*
X464000Y697000D02*
D03*
X530000Y698000D02*
D03*
X494000Y682000D02*
D03*
X357500Y424271D02*
D03*
X234000Y392000D02*
D03*
X387000Y494000D02*
D03*
X402000Y484000D02*
D03*
X318000Y1411000D02*
D03*
X612000Y573750D02*
D03*
X206000Y454000D02*
D03*
X217000Y1264000D02*
D03*
X181000Y469000D02*
D03*
X464000Y131000D02*
D03*
X440000Y115000D02*
D03*
X392000Y176000D02*
D03*
X429000Y143000D02*
D03*
X410500Y152500D02*
D03*
X367500Y115000D02*
D03*
X343000Y72000D02*
D03*
X356000Y67000D02*
D03*
X332000Y76000D02*
D03*
X355000Y79000D02*
D03*
X438250Y55250D02*
D03*
X312000Y105000D02*
D03*
X307000Y91000D02*
D03*
X438250Y65000D02*
D03*
X313000Y121000D02*
D03*
X296500D02*
D03*
X304750D02*
D03*
X259000Y117000D02*
D03*
Y102000D02*
D03*
X260000Y78000D02*
D03*
X391500Y1065500D02*
D03*
X27000Y789000D02*
D03*
X28000Y729000D02*
D03*
X61000Y808000D02*
D03*
X654000Y331000D02*
D03*
X667500Y232500D02*
D03*
X292000Y379000D02*
D03*
X195000Y455000D02*
D03*
X637000Y244000D02*
D03*
X333000Y288500D02*
D03*
X265000Y1452500D02*
D03*
X603000Y580000D02*
D03*
X591750Y580250D02*
D03*
X580750Y579750D02*
D03*
X596750Y1451000D02*
D03*
X561250D02*
D03*
X234000Y1083000D02*
D03*
X253000D02*
D03*
X281000Y877000D02*
D03*
X179000Y1306000D02*
D03*
X167000Y1277000D02*
D03*
X155000Y1306000D02*
D03*
X309000Y1049000D02*
D03*
X438000Y433000D02*
D03*
X431000Y427000D02*
D03*
X424000Y420061D02*
D03*
X352000Y433000D02*
D03*
X409000Y506000D02*
D03*
X301000Y445000D02*
D03*
X273747Y453747D02*
D03*
X286873Y450873D02*
D03*
X416000Y500000D02*
D03*
X415000Y513000D02*
D03*
X282000Y979000D02*
D03*
X337000Y986000D02*
D03*
X311000Y781000D02*
D03*
%TF.MD5,D3D62D02BA32A83ACD05C116A7D12CC3*%
M02*
